<svg width="176" height="303" viewBox="0 0 176 303" fill="none" xmlns="http://www.w3.org/2000/svg">
<g clip-path="url(#clip0)">
<g clip-path="url(#clip1)">
<path d="M-514.375 1161.19L-496.995 456.059L-1030.4 -41.2304L-1028.2 -41.5903L-397.835 -146.53L-193.479 -788.798L-192.177 -786.544L180.084 -148.72L839.807 -48.3788L838.414 -46.6305L438.111 452.486L641.468 1156.77L19.6461 826.261L-514.375 1161.19ZM-494.687 455.177L-494.719 455.797L-511.997 1156.63L19.2697 823.455L19.8359 823.759L637.86 1152.26L435.575 451.63L435.921 451.19L835.184 -46.6354L178.9 -146.462L178.564 -147.044L-192.737 -783.215L-396.031 -144.278L-396.583 -144.193L-1025.31 -39.5482L-494.687 455.177Z" fill="#02489F"/>
<path d="M-507.313 1145.72L-494.792 453.85L-1015.05 -37.1861L-1012.9 -37.5619L-396.378 -145.213L-191.738 -772.702L-190.478 -770.52L178.075 -147.578L824.81 -44.3539L823.459 -42.6362L434.735 450L629.797 1141.29L627.674 1140.18L18.8511 821.689L-507.313 1145.72ZM-492.515 452.986L-492.53 453.596L-504.98 1141.29L18.4975 818.954L19.0461 819.239L626.292 1136.89L432.232 449.161L432.576 448.716L820.332 -42.6402L176.917 -145.359L176.589 -145.927L-191.015 -767.246L-394.601 -142.987L-395.15 -142.898L-1010.08 -35.5176L-492.515 452.986Z" fill="#02489F"/>
<path d="M-500.254 1130.25L-500.224 1127.91L-492.597 451.634L-999.704 -33.1465L-997.617 -33.5279L-394.93 -143.914L-190.01 -756.621L176.091 -146.45L809.852 -40.3463L808.545 -38.6662L431.356 447.515L618.103 1125.81L616.034 1124.75L18.0805 817.157L-500.254 1130.25ZM-490.343 450.783L-490.349 451.387L-497.966 1125.93L17.7232 814.436L18.2672 814.723L614.699 1121.51L428.896 446.699L429.242 446.259L805.459 -38.6938L174.936 -144.256L174.618 -144.806L-189.299 -751.31L-393.169 -141.727L-994.857 -31.5266L-490.343 450.783Z" fill="#02489F"/>
<path d="M-493.192 1114.79L-493.182 1112.52L-490.389 449.415L-984.357 -29.1019L-393.5 -142.6L-188.28 -740.543L-187.039 -738.507L174.104 -145.321L794.891 -36.3425L793.638 -34.6935L427.974 445.032L606.445 1110.32L604.432 1109.3L17.2996 812.601L-493.192 1114.79ZM-488.173 448.581L-488.17 449.18L-490.952 1110.59L16.9425 809.922L17.4821 810.212L603.109 1106.13L425.542 444.212L425.866 443.784L790.594 -34.7212L172.955 -143.149L172.645 -143.685L-187.584 -735.362L-391.742 -140.429L-392.278 -140.318L-979.641 -27.4905L-488.173 448.581Z" fill="#02489F"/>
<path d="M-486.133 1099.33L-486.138 1097.11L-488.183 447.214L-969.005 -25.0493L-967.047 -25.4463L-392.03 -141.311L-186.551 -724.466L172.118 -144.2L779.939 -32.3404L778.731 -30.7291L424.606 442.562L594.771 1094.83L592.807 1093.86L16.5181 808.056L-486.133 1099.33ZM-486.018 446.385L-483.969 1095.23L16.1515 805.412L16.6587 805.666L591.51 1090.75L422.198 441.741L422.508 441.321L775.734 -30.748L170.961 -142.042L170.659 -142.565L-185.874 -719.411L-390.325 -139.181L-390.832 -139.081L-964.409 -23.5194L-486.018 446.385Z" fill="#02489F"/>
<path d="M-479.052 1083.85L-485.99 444.986L-953.667 -21.0235L-951.773 -21.426L-390.583 -140.013L-184.845 -708.369L170.083 -143.044L764.951 -28.3218L421.218 440.064L583.09 1079.34L581.179 1078.41L15.7421 803.485L-479.052 1083.85ZM-483.834 444.174L-483.83 444.731L-476.952 1079.86L15.3852 800.889L15.8801 801.133L579.923 1075.37L418.865 439.265L419.164 438.858L760.866 -26.7808L168.988 -140.945L168.696 -141.449L-184.146 -703.465L-388.906 -137.909L-389.398 -137.805L-949.184 -19.5125L-483.834 444.174Z" fill="#02489F"/>
<path d="M-471.998 1068.41L-483.788 442.772L-938.325 -16.981L-389.13 -138.705L-183.091 -692.304L168.115 -141.906L749.988 -24.2923L417.851 437.591L571.42 1063.87L569.562 1062.98L14.9295 798.954L-471.998 1068.41ZM-481.666 441.974L-481.655 442.514L-469.943 1064.49L14.6109 796.373L568.328 1059.99L415.509 436.792L746.002 -22.8086L167.002 -139.839L166.721 -140.326L-182.438 -687.511L-387.481 -136.639L-387.955 -136.534L-933.957 -15.5237L-481.666 441.974Z" fill="#02489F"/>
<path d="M-464.949 1052.92L-465.009 1050.89L-481.575 440.549L-922.967 -12.9498L-387.679 -137.409L-181.363 -676.231L166.109 -140.792L735.009 -20.2978L733.951 -18.791L414.444 435.103L559.743 1048.38L557.937 1047.54L14.1665 794.386L-464.949 1052.92ZM-479.486 439.788L-479.473 440.309L-462.929 1049.15L13.8345 791.854L14.3021 792.071L556.735 1044.6L412.165 434.321L412.438 433.929L731.136 -18.8372L165.018 -138.737L164.758 -139.188L-180.713 -671.546L-386.024 -135.365L-386.479 -135.259L-918.723 -11.5107L-479.486 439.788Z" fill="#02489F"/>
<path d="M-457.889 1037.46L-457.958 1035.5L-479.388 438.345L-907.627 -8.89902L-905.923 -9.3181L-386.232 -136.109L-179.632 -660.152L164.128 -139.664L720.06 -16.2936L411.088 432.612L548.071 1032.9L13.3819 789.833L-457.889 1037.46ZM-477.325 437.568L-455.929 1033.77L13.0366 787.352L545.123 1029.24L408.818 431.843L409.075 431.466L716.271 -14.8637L163.036 -137.633L162.748 -138.068L-179.014 -655.604L-384.626 -134.097L-385.07 -133.992L-903.494 -7.50463L-477.325 437.568Z" fill="#02489F"/>
<path d="M-450.828 1022L-450.917 1020.1L-477.188 436.129L-892.29 -4.86248L-890.646 -5.2826L-384.803 -134.82L-177.922 -644.088L162.091 -138.532L705.071 -12.2758L704.1 -10.8371L407.707 430.127L536.38 1017.42L534.684 1016.67L12.5968 785.278L-450.828 1022ZM-475.155 435.364L-475.133 435.85L-448.931 1018.43L12.246 782.86L533.513 1013.87L405.478 429.376L701.406 -10.8929L161.06 -136.518L160.773 -136.953L-177.31 -639.627L-383.202 -132.829L-383.627 -132.722L-888.261 -3.50376L-475.155 435.364Z" fill="#02489F"/>
<path d="M-443.78 1006.54L-474.988 433.916L-876.949 -0.819908L-875.383 -1.23069L-383.337 -133.509L-176.181 -627.992L160.104 -137.384L690.104 -8.26235L404.34 427.635L524.73 1001.93L11.819 780.726L-443.78 1006.54ZM-472.984 433.161L-472.961 433.629L-441.918 1003.04L11.4987 778.309L11.915 778.489L521.947 998.459L402.119 426.91L402.351 426.553L686.541 -6.92056L159.072 -135.424L158.799 -135.825L-175.607 -623.689L-381.779 -131.559L-873.032 0.5012L-472.984 433.161Z" fill="#02489F"/>
<path d="M-436.71 991.075L-472.783 431.711L-861.603 3.23212L-860.078 2.80285L-381.888 -132.205L-174.444 -611.923L-173.39 -610.41L158.091 -136.239L675.115 -4.24246L674.244 -2.87985L400.927 425.17L513.05 986.453L11.0393 776.182L-436.71 991.075ZM-470.818 430.962L-470.789 431.408L-434.91 987.679L10.7158 773.79L11.1199 773.96L510.35 983.077L398.779 424.414L399.001 424.07L671.671 -2.94511L157.089 -134.321L156.822 -134.701L-173.893 -607.733L-380.375 -130.271L-380.762 -130.162L-857.821 4.51699L-470.818 430.962Z" fill="#02489F"/>
<path d="M-429.652 975.609L-429.789 973.885L-470.588 429.488L-846.263 7.2623L-380.436 -130.909L-172.721 -595.86L-171.687 -594.413L156.118 -135.119L660.166 -0.240242L659.339 1.08483L397.574 422.669L501.373 970.972L499.816 970.356L10.2493 771.619L-429.652 975.609ZM-468.648 428.758L-468.617 429.186L-427.904 972.31L9.94287 769.277L498.758 967.691L395.442 421.953L395.648 421.623L656.806 1.02649L155.107 -133.219L154.849 -133.581L-172.2 -591.773L-378.928 -129.015L-379.297 -128.904L-842.565 8.50556L-468.648 428.758Z" fill="#02489F"/>
<path d="M-422.591 960.149L-422.733 958.499L-468.387 427.274L-830.93 11.3104L-378.987 -129.606L-170.985 -579.772L-169.976 -578.389L154.111 -133.995L645.186 3.76277L394.168 420.194L489.673 955.494L488.188 954.909L9.46468 767.065L-422.591 960.149ZM-466.477 426.556L-466.441 426.962L-420.896 956.946L9.16549 764.768L9.53791 764.913L487.167 952.318L392.099 419.483L641.936 5.00186L153.124 -132.115L152.873 -132.457L-170.465 -575.823L-377.504 -127.745L-377.849 -127.636L-827.331 12.5083L-466.477 426.556Z" fill="#02489F"/>
<path d="M-415.536 944.689L-466.187 425.059L-815.581 15.3468L-814.239 14.9027L-377.538 -128.303L-169.258 -563.7L-168.274 -562.38L152.119 -132.846L630.239 7.78094L629.507 9.03267L390.801 417.713L478.012 940.021L8.66849 762.523L-415.536 944.689ZM-464.307 424.352L-464.269 424.739L-413.888 941.58L8.38422 760.24L8.73723 760.373L475.566 936.919L388.753 417.008L388.931 416.701L627.043 8.98887L151.123 -130.991L150.88 -131.319L-168.752 -559.868L-376.078 -126.471L-376.407 -126.365L-812.095 16.5141L-464.307 424.352Z" fill="#02489F"/>
<path d="M-408.475 929.229L-463.987 422.846L-800.256 19.3927L-376.087 -127.007L-167.525 -547.629L150.101 -131.722L615.252 11.7818L387.439 415.219L466.361 924.533L464.976 924.028L7.90228 757.959L-408.475 929.229ZM-462.153 422.16L-462.115 422.529L-406.9 926.222L7.58405 755.733L7.92469 755.854L463.95 921.543L385.409 414.534L385.575 414.24L612.201 12.9484L149.138 -129.893L-167.037 -543.913L-374.676 -125.188L-374.987 -125.081L-796.887 20.525L-462.153 422.16Z" fill="#02489F"/>
<path d="M-401.413 913.768L-461.785 420.632L-784.879 23.4336L-374.613 -125.674L-165.772 -531.526L-164.838 -530.334L148.135 -130.592L600.327 15.7832L384.064 412.733L454.699 909.068L453.377 908.629L7.11847 753.405L-401.413 913.768ZM-459.964 419.947L-459.924 420.297L-399.889 910.863L6.82998 751.209L7.14689 751.321L452.372 906.15L382.067 412.064L382.218 411.784L597.33 16.9186L147.185 -128.794L146.96 -129.079L-165.317 -527.948L-373.226 -123.927L-373.516 -123.825L-781.627 24.5193L-459.964 419.947Z" fill="#02489F"/>
<path d="M-394.358 898.311L-459.581 418.428L-769.559 27.4639L-768.399 27.0167L-373.191 -124.404L-164.073 -515.478L-163.163 -514.35L146.125 -129.45L585.34 19.8078L584.745 20.9511L380.684 410.254L443.013 893.574L441.736 893.152L6.335 748.857L-394.358 898.311ZM-457.794 417.745L-457.753 418.076L-392.862 895.481L6.06664 746.685L6.36856 746.782L440.792 890.757L378.721 409.59L378.861 409.323L582.459 20.8942L145.204 -127.704L144.993 -127.967L-163.604 -511.98L-371.781 -122.669L-372.056 -122.564L-766.374 28.5162L-457.794 417.745Z" fill="#02489F"/>
<path d="M-387.301 882.85L-387.483 881.495L-457.382 416.208L-754.219 31.5001L-371.75 -123.12L-162.35 -499.427L144.116 -128.333L570.37 23.8032L569.807 24.9096L377.29 407.753L431.345 878.075L430.119 877.689L5.55597 744.298L-387.301 882.85ZM-455.622 415.541L-455.578 415.846L-385.853 880.115L5.27429 742.177L5.55219 742.263L429.176 875.379L375.372 407.116L567.59 24.8674L143.227 -126.606L143.026 -126.85L-161.878 -496.051L-370.348 -121.429L-370.6 -121.326L-751.129 32.4929L-455.622 415.541Z" fill="#02489F"/>
<path d="M-380.246 867.393L-380.459 866.109L-455.185 413.991L-738.886 35.5419L-737.841 35.0946L-370.297 -121.807L-160.618 -483.343L142.125 -127.189L555.413 27.8172L373.932 405.28L419.675 862.621L418.5 862.272L4.77706 739.748L-380.246 867.393ZM-453.435 413.328L-453.39 413.615L-378.826 864.734L4.51293 737.646L4.77415 737.724L417.575 859.993L372.028 404.648L372.142 404.408L552.715 28.8461L141.225 -125.491L141.034 -125.718L-160.183 -480.084L-368.948 -120.115L-369.184 -120.015L-735.919 36.5397L-453.435 413.328Z" fill="#02489F"/>
<path d="M-373.19 851.933L-373.41 850.708L-452.985 411.775L-723.548 39.5779L-722.56 39.134L-368.847 -120.505L-158.889 -467.272L140.127 -126.055L540.464 31.8484L539.989 32.8795L370.554 402.799L408.024 847.131L406.902 846.822L3.98826 735.194L-373.19 851.933ZM-451.282 411.134L-451.238 411.397L-371.833 849.371L3.71537 733.14L3.9571 733.205L405.978 844.627L368.684 402.171L368.789 401.948L537.846 32.8188L139.246 -124.386L139.068 -124.59L-158.486 -464.108L-367.523 -118.847L-720.672 40.5625L-451.282 411.134Z" fill="#02489F"/>
<path d="M-366.135 836.476L-450.799 409.57L-708.219 43.6224L-707.276 43.1743L-367.381 -119.211L-157.134 -451.213L-156.335 -450.328L138.154 -124.933L525.509 35.8247L525.08 36.8182L367.177 400.313L396.333 831.671L395.26 831.395L3.20539 730.646L-366.135 836.476ZM-449.117 408.924L-449.072 409.168L-364.814 834.018L2.94952 728.642L3.1698 728.701L394.382 829.227L365.338 399.698L365.428 399.49L522.946 36.806L137.262 -123.282L137.098 -123.463L-156.752 -448.158L-366.097 -117.572L-366.282 -117.465L-705.43 44.561L-449.117 408.924Z" fill="#02489F"/>
<path d="M-359.076 821.022L-359.315 819.922L-448.589 407.351L-692.866 47.6757L-691.997 47.2343L-365.942 -117.884L-155.427 -435.134L-154.655 -434.305L136.134 -123.79L510.528 39.8458L363.801 397.826L384.67 816.194L383.653 815.952L2.42049 726.092L-359.076 821.022ZM-446.944 406.725L-446.9 406.947L-357.812 818.633L2.15622 724.105L2.35982 724.156L382.763 813.827L361.991 397.242L362.069 397.053L508.098 40.7677L135.264 -122.164L135.11 -122.327L-155.03 -432.177L-364.663 -116.284L-364.83 -116.188L-690.186 48.5811L-446.944 406.725Z" fill="#02489F"/>
<path d="M-352.007 805.586L-352.262 804.531L-446.389 405.136L-677.537 51.7066L-676.72 51.2705L-364.497 -116.591L-153.701 -419.054L134.137 -122.638L495.573 43.8694L495.222 44.7812L360.423 395.346L373.003 800.72L372.034 800.51L1.6428 721.54L-352.007 805.586ZM-444.762 404.551L-444.718 404.742L-350.802 803.261L1.38069 719.587L1.56026 719.628L371.17 798.43L358.647 394.748L493.229 44.7535L133.295 -121.07L133.158 -121.213L-153.334 -416.242L-363.243 -115.031L-363.396 -114.942L-674.956 52.5362L-444.762 404.551Z" fill="#02489F"/>
<path d="M-344.971 790.103L-444.189 402.922L-662.204 55.7352L-363.052 -115.304L-151.974 -403.004L-151.255 -402.289L132.137 -121.525L480.611 47.8611L357.046 392.859L361.335 785.246L360.422 785.069L0.857947 716.986L-344.971 790.103ZM-442.603 402.319L-343.792 787.889L0.602522 715.066L0.76075 715.1L359.578 783.056L355.298 392.276L355.354 392.124L478.347 48.7171L131.302 -119.985L-151.609 -400.269L-361.825 -113.752L-361.956 -113.676L-659.727 56.5711L-442.603 402.319Z" fill="#02489F"/>
<path d="M-337.908 774.654L-338.166 773.739L-441.992 400.711L-646.874 59.7669L-646.162 59.3559L-361.603 -114.005L-150.23 -386.915L130.156 -120.369L465.667 51.892L465.39 52.7246L353.674 390.378L349.672 769.777L0.0772546 712.437L-337.908 774.654ZM-440.428 400.121L-440.387 400.265L-336.776 772.515L-0.176192 710.551L-0.0372725 710.573L347.967 767.647L351.954 389.802L352 389.673L463.47 52.6973L129.333 -118.86L129.22 -118.963L-149.893 -384.302L-360.396 -112.496L-360.509 -112.431L-644.491 60.5431L-440.428 400.121Z" fill="#02489F"/>
<path d="M-330.855 759.201L-439.774 398.485L-631.529 63.7868L-630.883 63.3657L-360.161 -112.712L-148.522 -370.874L-147.858 -370.277L128.144 -119.263L450.694 55.8764L450.452 56.665L350.304 387.892L338.007 754.299L337.188 754.17L-0.706201 707.886L-330.855 759.201ZM-629.221 64.6002L-438.243 397.944L-329.77 757.138L-0.955571 706.029L-0.842573 706.047L336.364 752.254L348.621 387.318L348.654 387.209L448.599 56.671L127.347 -117.751L127.256 -117.836L-148.18 -368.336L-358.963 -111.209L-359.053 -111.157L-629.221 64.6002Z" fill="#02489F"/>
<path d="M-323.8 743.751L-324.063 742.953L-437.596 396.285L-616.222 67.832L-358.713 -111.412L-146.794 -354.812L126.143 -118.131L435.728 59.8601L435.526 60.6137L346.919 385.411L326.339 738.833L325.583 738.752L-1.48751 703.338L-323.8 743.751ZM-613.996 68.5663L-436.093 395.694L-436.046 395.775L-322.754 741.765L-1.74188 701.513L-1.65017 701.526L324.752 736.864L345.259 384.855L345.286 384.767L433.714 60.6499L125.365 -116.648L125.287 -116.71L-146.465 -352.369L-357.534 -109.941L-357.61 -109.897L-613.996 68.5663Z" fill="#02489F"/>
<path d="M-316.751 728.302L-317.013 727.557L-435.396 394.071L-600.894 71.8632L-600.352 71.46L-357.275 -110.127L-145.071 -338.748L-144.471 -338.259L124.143 -116.994L420.779 63.8859L343.549 382.926L314.678 723.36L313.973 723.305L-2.27033 698.788L-316.751 728.302ZM-598.742 72.5927L-433.894 393.498L-433.861 393.557L-315.74 726.39L-2.49894 696.966L-2.43301 696.977L313.168 721.443L341.913 382.38L341.93 382.316L418.848 64.6217L123.38 -115.538L123.324 -115.583L-144.748 -336.398L-356.105 -108.663L-356.159 -108.632L-598.742 72.5927Z" fill="#02489F"/>
<path d="M-309.697 712.85L-309.957 712.171L-433.216 391.821L-585.563 75.9178L-355.791 -108.838L-143.337 -322.696L122.187 -115.847L405.83 67.8884L405.698 68.5656L340.175 380.492L303.019 707.9L302.392 707.876L-3.01575 694.259L-309.697 712.85ZM-583.494 76.5985L-431.756 391.26L-308.728 711.011L-3.29392 692.466L-3.26236 692.448L301.538 706.043L338.548 379.923L403.946 68.5911L121.432 -114.407L-143.03 -320.426L-354.651 -107.416L-583.494 76.5985Z" fill="#02489F"/>
<path d="M-302.64 697.405L-302.899 696.779L-431 389.646L-570.217 79.9399L-354.367 -107.525L-141.613 -306.637L-141.081 -306.247L120.167 -114.734L390.875 71.895L390.766 72.5173L336.798 377.977L291.351 692.427L-3.83462 689.69L-302.64 697.405ZM-568.244 80.6101L-429.579 389.09L-301.721 695.636L-4.05833 687.95L289.942 690.674L335.214 377.449L389.075 72.5857L119.425 -113.313L-141.313 -304.454L-353.22 -106.132L-568.244 80.6101Z" fill="#02489F"/>
<path d="M-295.59 681.954L-428.8 387.45L-554.908 83.9759L-554.52 83.6076L-352.942 -106.215L-139.885 -290.577L-139.399 -290.256L118.138 -113.641L375.922 75.899L375.84 76.4752L333.431 375.46L279.701 676.971L279.152 676.988L-4.62972 685.147L-295.59 681.954ZM-552.996 84.6147L-427.383 386.908L-294.677 680.237L-4.85005 683.423L278.335 675.271L331.866 374.945L374.19 76.5623L117.42 -112.211L-139.6 -288.481L-351.831 -104.831L-552.996 84.6147Z" fill="#02489F"/>
<path d="M-288.542 666.514L-426.631 385.183L-539.579 88.02L-539.239 87.6732L-351.485 -104.927L-351.449 -104.948L-138.147 -274.526L116.213 -112.457L360.981 79.8979L360.926 80.4282L330.06 372.995L330.049 373.038L268.031 661.494L267.537 661.533L-5.39073 680.604L-5.42228 680.623L-288.542 666.514ZM-425.211 384.687L-287.683 664.87L-5.62395 678.9L266.732 659.869L328.512 372.489L359.304 80.5416L115.439 -111.102L-137.88 -272.504L-350.388 -103.559L-537.745 88.6262L-425.211 384.687Z" fill="#02489F"/>
<path d="M-281.491 651.069L-281.751 650.619L-424.422 383.017L-424.461 382.949L-524.274 92.064L-523.979 91.7315L-350.068 -103.648L-350.005 -103.685L-136.454 -258.482L-136.028 -258.234L114.175 -111.365L114.212 -111.302L346.021 83.9055L345.99 84.3924L326.686 370.513L326.667 370.584L256.375 646.03L255.931 646.083L-6.16712 676.045L-6.23746 676.037L-281.491 651.069ZM-423.036 382.481L-280.65 649.508L-6.40988 674.376L255.098 644.484L325.159 370.012L344.424 84.5211L113.454 -109.993L-136.166 -256.526L-348.955 -102.283L-522.488 92.6381L-423.036 382.481Z" fill="#02489F"/>
<path d="M-422.231 380.808L-422.288 380.709L-508.94 96.086L-508.69 95.7796L-348.62 -102.326L-348.535 -102.376L-134.723 -242.404L-134.34 -242.198L112.158 -110.218L112.244 -110.142L331.076 87.9059L323.287 368.135L244.706 630.576L244.316 630.638L-6.97888 671.518L-7.08223 671.506L-274.444 635.628L-274.675 635.227L-422.231 380.808ZM-507.239 96.6489L-420.853 380.271L-273.642 634.113L-7.19126 669.85L243.505 629.069L321.806 367.535L329.529 88.5045L111.464 -108.88L-134.451 -240.548L-347.527 -101.004L-507.239 96.6489Z" fill="#02489F"/>
<path d="M-420.024 378.584L-420.099 378.453L-493.622 100.118L-493.413 99.8347L-347.16 -101.047L-347.047 -101.112L-132.983 -226.373L-132.64 -226.205L110.17 -109.125L110.279 -109.02L316.129 91.9127L319.953 365.552L319.907 365.68L233.063 615.111L232.72 615.183L-7.73711 666.967L-7.87146 666.942L-267.377 620.176L-267.58 619.824L-420.024 378.584ZM-491.98 100.661L-418.682 378.068L-266.628 618.715L-7.96163 665.329L231.894 613.67L318.461 365.06L314.652 92.4955L109.511 -107.77L-132.715 -224.587L-346.07 -99.7415L-491.98 100.661Z" fill="#02489F"/>
<path d="M-417.851 376.385L-417.89 376.203L-478.306 104.149L-478.137 103.889L-345.719 -99.7588L-345.58 -99.8394L-131.271 -210.347L-130.967 -210.216L108.176 -108.011L301.175 95.8868L301.191 96.2263L316.594 363.065L316.534 363.22L221.422 599.663L221.133 599.745L-8.51957 662.428L-8.69205 662.39L-260.349 604.744L-260.548 604.45L-417.851 376.385ZM-476.719 104.67L-416.498 375.856L-259.625 603.334L-8.75115 660.789L220.287 598.28L315.108 362.571L299.755 96.4661L107.493 -106.655L-131.028 -208.606L-344.675 -98.4804L-476.719 104.67Z" fill="#02489F"/>
<path d="M-415.663 374.178L-415.702 373.955L-462.992 108.184L-344.284 -98.471L-344.112 -98.5698L-129.546 -194.271L-129.286 -194.175L106.169 -106.858L106.322 -106.687L286.244 99.9098L286.276 100.204L313.225 360.588L313.14 360.775L209.754 584.196L-9.29941 657.891L-9.50105 657.833L-253.301 589.309L-253.488 589.068L-415.663 374.178ZM-461.46 108.682L-414.314 373.652L-252.591 587.937L-9.52839 656.256L208.671 582.861L311.736 360.101L284.862 100.45L105.521 -105.546L-129.296 -192.6L-343.23 -97.1558L-461.46 108.682Z" fill="#02489F"/>
<path d="M-413.48 371.969L-447.681 112.208L-447.579 112.01L-342.846 -97.1849L-342.63 -97.2678L-127.812 -178.237L-127.586 -178.169L104.2 -105.75L271.302 103.908L271.34 104.151L309.864 358.11L309.751 358.32L198.122 568.725L197.925 568.809L-10.0797 653.358L-10.3202 653.275L-246.252 573.873L-246.413 573.677L-413.48 371.969ZM-446.2 112.693L-412.129 371.447L-245.561 572.542L-10.2998 651.718L197.054 567.437L308.371 357.626L269.966 104.434L103.511 -104.415L-127.579 -176.616L-341.783 -95.8749L-446.2 112.693Z" fill="#02489F"/>
<path d="M-411.298 369.764L-411.323 369.46L-432.367 116.246L-432.295 116.079L-341.406 -95.9074L-341.145 -95.986L-126.073 -162.176L-125.896 -162.129L102.212 -104.634L102.396 -104.379L256.364 107.91L306.504 355.631L306.357 355.866L186.452 553.288L186.303 553.374L-10.8513 648.838L-239.211 558.44L-239.346 558.29L-411.298 369.764ZM-430.935 116.706L-409.943 369.229L-238.55 557.151L-11.0933 647.18L185.425 552.029L305.011 355.147L255.079 108.411L101.531 -103.296L-125.861 -160.622L-340.342 -94.5859L-430.935 116.706Z" fill="#02489F"/>
<path d="M-409.115 367.561L-409.124 367.211L-417.063 120.274L-417.012 120.143L-339.968 -94.6272L-124.359 -146.161L-124.225 -146.136L100.225 -103.522L100.404 -103.211L241.425 111.907L241.462 112.054L303.155 353.147L302.975 353.408L174.785 537.844L174.673 537.909L-11.667 644.29L-11.9788 644.146L-232.164 543.006L-232.273 542.9L-409.115 367.561ZM-415.69 120.738L-407.751 367.02L-231.514 541.771L-11.8761 642.638L173.815 536.631L301.641 352.669L240.172 112.402L99.5432 -102.142L-124.154 -144.65L-338.9 -93.2966L-415.69 120.738Z" fill="#02489F"/>
<path d="M-406.94 365.356L-406.929 364.959L-401.756 124.301L-401.728 124.213L-338.548 -93.3425L-338.198 -93.4008L-122.623 -130.104L-122.532 -130.09L98.2499 -102.393L98.4581 -102.033L226.504 115.93L226.553 116.015L299.827 350.693L299.603 350.972L163.156 522.385L163.079 522.429L-12.4251 639.763L-12.7694 639.583L-225.128 527.577L-225.202 527.512L-406.94 365.356ZM-400.393 124.746L-405.556 364.809L-224.5 526.355L-12.6608 638.096L162.173 521.203L298.279 350.198L225.25 116.401L97.5141 -101.025L-122.445 -128.619L-337.456 -92.0017L-400.393 124.746Z" fill="#02489F"/>
<path d="M-404.765 363.149L-404.731 362.709L-386.453 128.328L-386.44 128.278L-337.122 -92.0693L-336.719 -92.1097L-120.901 -114.07L-120.851 -114.069L96.2647 -101.284L96.4964 -100.883L211.592 119.915L211.618 119.96L296.487 348.208L296.217 348.509L151.528 506.928L151.488 506.952L-13.196 635.254L-13.5759 635.023L-218.084 512.149L-218.108 512.108L-404.765 363.149ZM-385.127 128.753L-403.363 362.592L-217.476 510.956L-13.4381 633.555L150.572 505.803L294.893 347.704L210.368 120.376L95.5521 -99.9171L-120.691 -112.647L-336.005 -90.7066L-385.127 128.753Z" fill="#02489F"/>
<path d="M-402.599 360.95L-402.53 360.466L-371.134 132.354L-335.701 -90.8028L-335.24 -90.8164L-119.2 -98.0642L94.2711 -100.21L196.623 123.895L293.101 345.735L292.774 346.044L139.861 491.498L-13.9712 630.738L-14.3914 630.458L-211.035 496.732L-402.599 360.95ZM-334.551 -89.4048L-369.845 132.776L-401.158 360.377L-210.443 495.561L-14.2305 628.989L138.95 490.346L291.512 345.221L195.459 124.356L93.5394 -98.7717L-118.988 -96.6358L-334.551 -89.4048Z" fill="#02489F"/>
<path d="M-400.437 358.752L-400.324 358.218L-355.845 136.348L-334.266 -89.5462L-333.745 -89.5284L-117.439 -82.0402L92.28 -99.1331L92.495 -98.584L181.709 127.907L289.761 343.227L289.352 343.559L128.166 476.057L-14.7458 626.232L-15.1954 625.89L-204.034 481.28L-400.437 358.752ZM-333.099 -88.0979L-354.571 136.754L-398.952 358.159L-203.451 480.126L-15.0041 624.421L127.29 474.946L288.125 342.734L180.588 128.379L91.5519 -97.6368L-117.229 -80.635L-333.099 -88.0979Z" fill="#02489F"/>
<path d="M-398.281 356.556L-398.125 355.973L-340.549 140.397L-332.869 -88.2803L-332.284 -88.215L-115.753 -66.0165L90.3131 -98.0228L166.78 131.884L286.452 340.796L285.989 341.117L116.593 460.623L-15.5237 621.733L-196.969 465.881L-398.281 356.556ZM-331.633 -86.7755L-339.286 140.816L-339.309 140.889L-396.735 355.946L-196.389 464.741L-15.7843 619.846L115.673 459.508L115.722 459.479L284.728 340.265L165.639 132.363L165.597 132.291L89.5123 -96.4545L-115.588 -64.5969L-115.658 -64.6043L-331.633 -86.7755Z" fill="#02489F"/>
<path d="M-396.137 354.4L-395.907 353.757L-325.266 144.432L-331.456 -87.0204L-114.029 -49.9931L88.3598 -96.9534L88.5515 -96.2466L151.884 135.875L283.147 338.317L282.607 338.63L104.967 445.169L-16.2968 617.24L-16.8141 616.739L-189.93 450.465L-396.137 354.4ZM-330.17 -85.4603L-324.019 144.812L-324.059 144.92L-394.52 353.713L-189.359 449.33L-16.5951 615.266L104.046 444.084L281.327 337.745L150.73 136.332L150.697 136.212L87.5277 -95.3249L-113.809 -48.6234L-113.922 -48.6423L-330.17 -85.4603Z" fill="#02489F"/>
<path d="M-393.986 352.172L-393.705 351.493L-309.977 148.456L-330.054 -85.7807L-329.343 -85.59L-112.304 -33.9788L86.374 -95.8677L136.942 139.868L279.81 335.856L279.186 336.168L93.3147 429.74L-17.0628 612.759L-182.894 435.053L-393.986 352.172ZM-328.678 -84.1467L-308.736 148.857L-308.797 149.001L-392.29 351.487L-182.328 433.921L-182.213 434.047L-17.3764 610.686L92.4098 428.651L92.5405 428.576L277.918 335.253L135.812 140.315L135.777 140.15L85.5138 -94.1629L-112.095 -32.5968L-112.249 -32.6342L-328.678 -84.1467Z" fill="#02489F"/>
<path d="M-391.855 349.987L-294.692 152.477L-328.664 -84.5448L-327.857 -84.3016L-110.585 -17.9595L84.4063 -94.7972L84.5479 -93.9172L122.02 143.861L276.509 333.398L81.6986 414.297L-17.8373 608.289L-18.4201 607.592L-175.865 419.635L-391.855 349.987ZM-327.221 -82.7936L-293.438 152.871L-293.525 153.042L-390.053 349.258L-175.288 418.502L-175.152 418.664L-18.1613 606.084L80.7693 413.228L80.927 413.137L274.484 332.752L120.894 144.324L120.861 144.121L83.4963 -92.9915L-110.377 -16.5891L-110.567 -16.6477L-327.221 -82.7936Z" fill="#02489F"/>
<path d="M-389.732 347.805L-389.278 347.019L-279.39 156.493L-327.274 -83.346L-108.857 -1.97084L82.4446 -93.7851L107.108 147.854L273.221 330.938L272.389 331.214L70.047 398.879L-18.606 603.834L-19.2347 602.995L-168.851 404.207L-389.732 347.805ZM-325.746 -81.439L-278.167 156.905L-278.279 157.096L-387.786 347.012L-168.263 403.092L-168.108 403.297L-18.9474 601.494L69.1395 397.786L69.3522 397.718L271.071 330.262L105.981 148.306L105.953 148.07L81.4727 -91.8054L-108.656 -0.572042L-108.878 -0.654363L-325.746 -81.439Z" fill="#02489F"/>
<path d="M-387.63 345.628L-264.118 160.52L-325.906 -82.111L-107.143 14.0677L80.4952 -92.6966L80.5365 -91.5844L92.1918 151.842L269.949 328.486L268.992 328.733L58.4119 383.452L-19.3772 599.397L-161.792 388.805L-387.63 345.628ZM-324.227 -80.0871L-262.856 160.916L-263.001 161.132L-385.536 344.78L-161.237 387.686L-19.7525 596.843L57.5064 382.351L57.752 382.288L267.618 327.758L91.056 152.299L79.4438 -90.6049L-106.937 15.4452L-324.227 -80.0871Z" fill="#02489F"/>
<path d="M-385.535 343.469L-384.849 342.575L-248.838 164.538L-324.547 -80.924L-105.426 30.0692L78.5588 -91.6925L77.2775 155.831L266.691 326.046L265.605 326.247L46.7833 368.022L-20.1318 594.977L-154.769 373.403L-385.535 343.469ZM-322.711 -78.7019L-247.559 164.942L-247.739 165.172L-383.25 342.535L-154.192 372.258L-154.025 372.547L-20.5604 592.195L45.8358 366.922L46.1215 366.865L264.128 325.26L76.1268 156.273L76.1286 155.953L77.3902 -89.4189L-105.229 31.4402L-105.513 31.2917L-322.711 -78.7019Z" fill="#02489F"/>
<path d="M-379.233 341.137L-245.135 165.696L-319.347 -75.0397L-318.27 -74.4955L-104.463 33.8493L75.9888 -85.5299L74.6993 157.213L260.44 324.169L44.7623 365.302L-20.8999 587.861L-21.5601 586.769L-152.909 370.546L-379.233 341.137ZM-317.546 -72.8574L-243.876 166.087L-244.051 166.315L-376.977 340.226L-152.343 369.414L-152.177 369.702L-21.3212 585.123L43.8594 364.206L44.136 364.155L257.916 323.397L73.5725 157.666L73.5769 157.351L74.8569 -83.2655L-104.259 35.2223L-104.538 35.0827L-317.546 -72.8574Z" fill="#02489F"/>
<path d="M-372.921 338.815L-372.262 337.948L-241.439 166.844L-314.154 -69.1546L-103.501 37.6393L73.4273 -79.3512L72.1166 158.59L254.184 322.293L42.7368 362.575L-21.6672 580.747L-151.05 367.681L-372.921 338.815ZM-312.381 -67.0103L-240.225 167.231L-240.395 167.455L-370.706 337.915L-150.494 366.572L-22.0749 578.043L41.8469 361.502L42.1236 361.451L251.72 321.522L71.0131 159.041L71.0129 158.728L72.299 -77.143L-103.304 38.98L-103.578 38.8378L-312.381 -67.0103Z" fill="#02489F"/>
<path d="M-366.616 336.49L-365.96 335.637L-237.733 168.01L-308.961 -63.2695L-307.917 -62.7419L-102.552 41.4067L70.8449 -73.2085L69.5365 159.971L247.929 320.421L40.7094 359.856L-22.4346 573.634L-149.201 364.827L-366.616 336.49ZM-307.218 -61.1561L-236.526 168.394L-236.695 168.612L-364.433 335.609L-148.639 363.721L-148.477 364.001L-22.8376 570.97L39.8389 358.796L40.1111 358.747L245.501 319.659L68.4439 160.409L68.4444 160.108L69.7482 -71.0185L-102.351 42.7332L-102.623 42.5955L-307.218 -61.1561Z" fill="#02489F"/>
<path d="M-360.302 334.167L-359.639 333.328L-234.034 169.161L-303.764 -57.3917L-101.593 45.1803L68.2723 -67.0408L68.2628 -65.8813L66.9577 161.351L241.681 318.558L240.651 318.75L38.6852 357.13L-23.2059 566.511L-23.8375 565.469L-147.341 361.962L-360.302 334.167ZM-302.046 -55.3117L-232.838 169.535L-233.005 169.757L-358.158 333.302L-146.793 360.882L-23.5809 563.885L37.8277 356.092L38.0973 356.038L239.288 317.794L65.8857 161.784L67.1896 -64.889L-101.406 46.4914L-101.671 46.3556L-302.046 -55.3117Z" fill="#02489F"/>
<path d="M-353.983 331.865L-230.334 170.313L-298.57 -51.5073L-100.638 48.956L65.6997 -60.904L64.3758 162.727L235.418 316.668L234.406 316.861L36.6632 354.407L-23.9749 559.393L-145.48 359.095L-353.983 331.865ZM-296.867 -49.4428L-229.148 170.703L-229.312 170.918L-351.886 330.991L-144.943 358.04L-144.789 358.306L-24.3653 556.823L35.8135 353.383L36.0811 353.337L233.075 315.94L63.3199 163.156L63.323 162.859L64.6369 -58.7697L-100.444 50.2387L-100.706 50.1074L-296.867 -49.4428Z" fill="#02489F"/>
<path d="M-347.686 329.522L-347.066 328.713L-226.629 171.474L-293.37 -45.6248L-292.377 -45.1223L-99.6749 52.7344L63.1401 -54.7253L61.7931 164.11L229.163 314.792L34.6351 351.683L-24.7521 552.28L-25.3628 551.274L-143.617 356.235L-347.686 329.522ZM-291.71 -43.6137L-225.477 171.836L-225.636 172.049L-345.611 328.684L-143.094 355.194L-142.93 355.478L-25.1156 549.767L33.8074 350.676L34.068 350.628L226.844 314.074L60.7856 164.529L60.7869 164.24L62.1056 -52.6253L-99.474 54.0189L-99.7334 53.8922L-291.71 -43.6137Z" fill="#02489F"/>
<path d="M-341.373 327.201L-340.764 326.405L-222.911 172.641L-288.174 -39.7333L-287.197 -39.239L-98.7178 56.5173L60.5759 -48.5607L60.5701 -47.4574L59.2216 165.506L222.917 312.935L32.6129 348.963L-25.5078 545.157L-141.761 353.374L-341.373 327.201ZM-286.54 -37.7672L-221.792 172.987L-221.95 173.192L-339.336 326.38L-141.244 352.354L-141.093 352.615L-25.8808 542.679L31.7957 347.975L32.0517 347.929L220.64 312.206L58.1939 165.901L59.5424 -46.5214L-98.5313 57.7561L-98.7862 57.6267L-286.54 -37.7672Z" fill="#02489F"/>
<path d="M-335.076 324.882L-334.475 324.102L-219.239 173.797L-282.977 -33.8554L-97.7604 60.2865L58.0254 -42.4176L58.0182 -41.3375L56.6326 166.869L216.654 311.045L30.5889 346.237L-26.2898 538.046L-139.915 350.523L-335.076 324.882ZM-281.384 -31.9079L-218.111 174.137L-218.269 174.343L-333.082 324.079L-139.414 349.518L-139.274 349.762L-26.6704 535.597L29.7892 345.268L30.0381 345.221L214.427 310.341L55.6334 167.271L55.6353 166.994L56.9931 -40.3971L-97.5772 61.5092L-97.8295 61.3843L-281.384 -31.9079Z" fill="#02489F"/>
<path d="M-328.76 322.556L-215.527 174.94L-277.787 -27.9755L-276.844 -27.4979L-96.8043 64.0668L55.4171 -36.2368L55.4246 -35.1832L54.0522 168.249L210.383 309.176L209.436 309.357L28.5658 343.515L-27.0465 530.92L-138.043 347.649L-328.76 322.556ZM-276.21 -26.0667L-214.432 175.287L-214.588 175.486L-326.791 321.762L-137.547 346.666L-27.4031 528.523L27.79 342.556L208.185 308.492L53.0691 168.648L53.071 168.37L54.4303 -34.2725L-96.6315 65.2714L-96.8767 65.1485L-276.21 -26.0667Z" fill="#02489F"/>
<path d="M-322.448 320.23L-211.825 176.097L-272.587 -22.0924L-95.8489 67.8438L52.8646 -30.0859L52.8643 -29.0458L51.4735 169.63L204.144 307.297L203.21 307.47L26.5417 340.789L-27.8151 523.803L-136.184 344.791L-322.448 320.23ZM-271.041 -20.2144L-210.751 176.439L-210.902 176.635L-320.516 319.456L-135.699 343.82L-135.556 344.068L-28.1688 521.452L25.7569 339.835L25.9968 339.793L201.988 306.613L50.504 170.022L51.8855 -28.1501L-95.6776 69.0252L-95.9156 68.9042L-271.041 -20.2144Z" fill="#02489F"/>
<path d="M-316.141 317.91L-315.57 317.171L-208.124 177.254L-267.394 -16.2074L-94.8879 71.6221L50.2927 -23.9252L50.2845 -22.8986L48.8999 171.001L197.887 305.421L196.976 305.592L24.5144 338.07L-28.5902 516.676L-134.337 341.915L-316.141 317.91ZM-265.866 -14.3726L-207.062 177.585L-207.211 177.773L-314.245 317.145L-133.85 340.979L-28.9314 514.378L23.7504 337.152L23.9858 337.112L195.792 304.779L47.9284 171.4L47.9311 171.134L49.3211 -22.0179L-94.7179 72.7803L-94.9489 72.6612L-265.866 -14.3726Z" fill="#02489F"/>
<path d="M-309.831 315.59L-309.274 314.859L-204.422 178.411L-262.195 -10.3243L-93.9326 75.3991L47.7266 -17.7665L47.708 -16.758L46.3077 172.39L191.645 303.568L22.4929 335.348L-29.3508 509.572L-132.465 339.068L-309.831 315.59ZM-260.703 -8.51071L-203.385 178.739L-203.53 178.924L-307.97 314.84L-131.999 338.138L-131.864 338.372L-29.6925 507.305L21.7484 334.444L21.9812 334.399L189.562 302.895L45.3716 172.756L45.3768 172.495L46.7774 -15.9141L-93.7692 76.525L-94.0002 76.4059L-260.703 -8.51071Z" fill="#02489F"/>
<path d="M-303.522 313.263L-200.721 179.568L-257.002 -4.43929L-92.9742 79.1729L45.165 -11.5877L43.7302 173.775L185.375 301.669L20.4675 332.622L-30.1032 502.474L-130.598 336.228L-303.522 313.263ZM-255.543 -2.67266L-199.708 179.885L-301.699 312.529L-130.148 335.289L-30.4506 500.228L19.7405 331.737L19.9662 331.691L183.348 301.03L42.8012 174.143L44.2273 -9.77801L-92.8115 80.2872L-93.0354 80.17L-255.543 -2.67266Z" fill="#02489F"/>
<path d="M-297.212 310.942L-197.02 180.719L-251.804 1.4379L-250.95 1.87653L-92.0156 82.9531L42.5891 -5.44842L41.1469 175.146L179.131 299.792L18.4467 329.899L-30.8842 495.333L-128.754 333.341L-297.212 310.942ZM-250.368 3.1872L-196.019 181.048L-295.423 310.222L-128.297 332.447L-128.167 332.672L-31.2158 493.156L17.7334 329.049L17.9571 329.01L177.131 299.167L40.2502 175.508L40.2561 175.258L41.6784 -3.65431L-91.8544 84.0441L-92.0756 83.9314L-250.368 3.1872Z" fill="#02489F"/>
<path d="M-290.907 308.617L-290.377 307.933L-193.32 181.876L-246.629 7.33346L-245.783 7.75855L-91.0729 86.7419L40.0061 0.724591L38.5557 176.539L172.868 297.955L16.4242 327.189L-31.6545 488.215L-126.892 330.481L-290.907 308.617ZM-245.194 9.01757L-192.347 182.186L-289.172 307.928L-126.46 329.606L-126.33 329.831L-31.9878 486.087L15.6979 326.316L15.9172 326.28L170.917 297.302L37.7014 176.87L37.7054 176.628L39.1274 2.47014L-90.9021 87.7973L-91.1208 87.6892L-245.194 9.01757Z" fill="#02489F"/>
<path d="M-284.593 306.296L-284.079 305.626L-189.635 183.044L-241.409 13.2113L-240.571 13.6228L-90.095 90.5065L37.4465 6.8743L35.9835 177.912L166.61 296.045L165.783 296.205L14.3951 324.455L-32.4228 481.098L-125.026 327.614L-284.593 306.296ZM-240.038 14.8898L-188.662 183.335L-282.877 305.606L-124.6 326.76L-124.472 326.981L-32.7431 478.993L13.7083 323.619L13.925 323.578L164.697 295.437L35.1254 178.257L35.1295 178.014L36.5754 8.59141L-89.9455 91.5563L-90.1596 91.4455L-240.038 14.8898Z" fill="#02489F"/>
<path d="M-278.287 303.971L-185.915 184.19L-236.222 19.0828L-89.149 94.2765L34.8843 13.0484L34.8808 13.958L33.4028 179.288L160.358 294.174L159.544 294.325L12.3662 321.719L-33.1911 473.98L-123.176 324.761L-278.287 303.971ZM-234.878 20.7234L-184.98 184.486L-276.602 303.299L-122.749 323.919L-122.627 324.131L-33.4962 471.933L11.688 320.909L11.8975 320.866L158.477 293.57L32.5627 179.622L34.0195 14.7138L-88.9859 95.3184L-89.1975 95.2121L-234.878 20.7234Z" fill="#02489F"/>
<path d="M-271.979 301.651L-182.213 185.346L-231.019 24.9736L-88.1852 98.0587L32.3091 19.1924L30.8228 180.668L154.101 292.297L153.308 292.442L10.3442 319.009L-33.953 466.875L-121.313 321.91L-271.979 301.651ZM-229.733 26.5873L-181.301 185.636L-181.428 185.8L-270.325 300.997L-120.902 321.072L-34.2767 464.868L9.68989 318.208L9.89496 318.168L152.246 291.727L29.9988 180.999L30.0036 180.768L31.4713 20.8422L-88.0385 99.062L-88.243 98.9576L-229.733 26.5873Z" fill="#02489F"/>
<path d="M-265.668 299.324L-178.514 186.498L-225.828 30.8547L-225.058 31.2517L-87.228 101.84L29.7378 25.3537L28.2434 182.049L147.845 290.421L8.31683 316.278L-34.73 459.745L-35.1855 458.956L-119.458 319.037L-265.668 299.324ZM-224.558 32.4298L-177.631 186.77L-177.754 186.931L-264.044 298.663L-119.026 318.234L-118.909 318.437L-34.9947 457.788L7.6755 315.501L7.88317 315.465L146.05 289.852L27.4374 182.37L27.4403 182.146L28.9185 26.9627L-87.0918 102.825L-87.2936 102.726L-224.558 32.4298Z" fill="#02489F"/>
<path d="M-259.359 297.004L-258.885 296.388L-174.812 187.655L-220.632 36.7398L-86.2723 105.617L27.1541 31.5221L27.1472 32.3737L25.6606 183.432L141.588 288.552L6.29837 313.561L-35.4956 452.631L-117.602 316.174L-259.359 297.004ZM-219.382 38.2717L-173.935 187.936L-174.06 188.093L-257.804 296.389L-117.207 315.381L-35.7795 450.703L5.66935 312.794L5.8654 312.759L139.841 287.992L24.8727 183.743L24.8781 183.524L26.356 33.095L-86.142 106.581L-86.3367 106.483L-219.382 38.2717Z" fill="#02489F"/>
<path d="M-253.048 294.677L-252.587 294.081L-171.109 188.812L-215.433 42.6228L-85.3124 109.391L24.6017 37.673L23.0793 184.809L135.332 286.676L4.27433 310.835L-36.2641 445.514L-115.735 313.329L-253.048 294.677ZM-214.203 44.1186L-170.256 189.083L-251.509 294.065L-115.353 312.544L-115.241 312.738L-36.54 443.641L3.64482 310.099L3.83638 310.066L133.61 286.138L22.2907 185.108L22.2916 184.891L23.813 39.2103L-85.1745 110.327L-214.203 44.1186Z" fill="#02489F"/>
<path d="M-246.74 292.357L-246.29 291.773L-167.408 189.969L-210.24 48.5079L-84.3559 113.172L22.035 43.8428L22.0259 44.6595L20.502 186.194L129.096 284.794L2.27553 308.124L-37.0339 438.396L-113.899 310.465L-246.74 292.357ZM-209.029 49.9605L-166.576 190.234L-166.693 190.385L-245.235 291.759L-113.513 309.708L-37.3141 436.568L1.65052 307.384L1.83945 307.348L127.409 284.265L19.7456 186.487L19.7491 186.274L21.2855 45.3334L-84.2162 114.059L-84.3993 113.96L-209.029 49.9605Z" fill="#02489F"/>
<path d="M-240.444 290.038L-163.71 191.121L-205.042 54.3903L-83.3975 116.946L19.4578 49.9945L17.9193 187.571L122.832 282.916L122.127 283.047L0.221648 305.39L-37.7993 431.276L-38.2157 430.554L-112.031 307.583L-240.444 290.038ZM-203.874 55.8199L-162.897 191.384L-163.009 191.533L-238.975 289.46L-111.653 306.854L-111.543 307.043L-38.0606 429.491L-0.357407 304.678L-0.177483 304.646L121.19 282.403L17.179 187.86L17.1807 187.654L18.7114 51.4592L-83.2609 117.859L-83.444 117.76L-203.874 55.8199Z" fill="#02489F"/>
<path d="M-234.12 287.711L-160.007 192.278L-199.849 60.2721L-82.4389 120.728L16.8976 56.1628L15.3465 188.962L116.583 281.062L115.882 281.19L-1.79916 302.669L-38.5897 424.172L-110.179 304.712L-234.12 287.711ZM-198.696 61.6862L-159.191 192.547L-159.304 192.696L-232.688 287.143L-109.811 304.019L-38.8257 422.421L-2.36778 301.975L-2.18786 301.944L114.981 280.544L14.6242 189.24L14.6258 189.035L16.1626 57.585L-82.3142 121.6L-198.696 61.6862Z" fill="#02489F"/>
<path d="M-227.814 285.386L-156.305 193.434L-194.648 66.1585L-193.981 66.5011L-81.4793 124.501L14.3217 62.3138L12.7553 190.331L110.311 279.176L109.642 279.298L-3.82084 299.946L-39.336 417.04L-108.308 301.864L-227.814 285.386ZM-193.54 67.5147L-155.539 193.689L-155.649 193.831L-226.414 284.836L-107.941 301.189L-107.837 301.37L-39.5697 415.366L-4.37719 299.264L-4.20176 299.235L108.766 278.686L12.0615 190.617L12.0657 190.416L13.619 63.7294L-81.383 125.365L-81.5538 125.277L-193.54 67.5147Z" fill="#02489F"/>
<path d="M-221.506 283.067L-221.094 282.541L-152.603 194.591L-189.456 72.0396L-80.5143 128.296L11.7504 68.4751L10.1759 191.712L104.05 277.303L103.398 277.422L-5.85722 297.221L-40.1052 409.923L-40.4904 409.256L-106.452 299.002L-221.506 283.067ZM-188.377 73.3578L-151.85 194.836L-151.955 194.975L-220.146 282.528L-106.104 298.326L-40.3401 408.267L-6.38893 296.561L102.547 276.813L9.4949 191.979L9.49722 191.785L11.0558 69.8319L-80.4182 129.118L-80.589 129.03L-188.377 73.3578Z" fill="#02489F"/>
<path d="M-215.175 280.734L-148.893 195.743L-184.254 77.9078L-79.5676 132.059L9.18367 74.6332L9.17349 75.3543L7.58489 193.094L97.7703 275.417L97.1338 275.532L-7.87232 294.502L-40.87 402.803L-104.594 296.144L-215.175 280.734ZM-183.206 79.214L-148.156 195.979L-148.26 196.111L-213.854 280.212L-104.257 295.48L-104.158 295.651L-41.0931 401.188L-8.39619 293.854L-8.23239 293.826L96.3216 274.937L6.92904 193.352L6.93397 193.163L8.50569 75.9563L-79.456 132.866L-79.6197 132.78L-183.206 79.214Z" fill="#02489F"/>
<path d="M-208.887 278.42L-208.495 277.923L-145.216 196.909L-179.064 83.8077L-78.6189 135.815L6.61234 80.7945L6.60075 81.4925L5.01447 194.47L91.5315 273.561L90.9111 273.673L-9.89709 291.776L-41.6437 395.688L-102.726 293.304L-208.887 278.42ZM-178.026 85.0842L-144.485 197.135L-144.589 197.267L-207.593 277.913L-102.407 292.639L-41.8588 394.129L-10.4106 291.146L-10.2468 291.118L90.1113 273.089L4.35722 194.705L4.36024 194.523L5.96901 82.0736L-78.4938 136.615L-78.6549 136.533L-178.026 85.0842Z" fill="#02489F"/>
<path d="M-202.579 276.098L-202.2 275.609L-141.501 198.056L-173.868 89.6843L-77.6539 139.608L4.04362 86.9584L4.03514 87.6305L2.43503 195.849L85.2708 271.686L84.6665 271.794L-11.9419 289.065L-42.4104 388.573L-100.881 290.422L-202.579 276.098ZM-172.873 90.9074L-140.813 198.29L-140.915 198.415L-201.325 275.585L-100.56 289.791L-100.466 289.954L-42.6125 387.037L-12.4146 288.455L-12.2598 288.432L83.8977 271.222L1.80171 196.094L3.38777 88.1846L-77.516 140.388L-77.67 140.309L-172.873 90.9074Z" fill="#02489F"/>
<path d="M-196.268 273.772L-195.897 273.3L-137.789 199.231L-168.673 95.57L-76.6915 143.387L1.47754 93.1171L-0.150776 197.228L79.0334 269.8L78.4452 269.905L-13.9479 286.329L-43.1868 381.442L-43.5251 380.856L-99.0153 287.554L-196.268 273.772ZM-167.691 96.7822L-137.136 199.456L-137.227 199.58L-195.047 273.295L-98.7089 286.951L-43.3872 379.971L-14.4393 285.717L-14.2871 285.69L77.67 269.343L-0.758958 197.465L-0.755233 197.295L0.84873 94.3277L-76.5887 144.127L-76.74 144.053L-167.691 96.7822Z" fill="#02489F"/>
<path d="M-189.97 271.435L-189.629 270.986L-134.098 200.371L-163.475 101.454L-162.922 101.736L-75.7323 147.175L-1.09705 99.2752L-2.73343 198.606L72.7791 267.93L72.2071 268.032L-15.9707 283.609L-43.9442 374.337L-97.1647 284.696L-189.97 271.435ZM-162.539 102.609L-133.446 200.584L-133.535 200.701L-188.773 270.991L-96.855 284.108L-96.7691 284.257L-44.1523 372.894L-16.429 283.044L-16.2813 283.019L71.4901 267.508L-3.32548 198.84L-3.31916 198.674L-1.70211 100.454L-75.6335 147.887L-162.539 102.609Z" fill="#02489F"/>
<path d="M-183.648 269.124L-183.302 268.684L-130.395 201.526L-158.28 107.337L-157.732 107.622L-74.7792 150.945L-3.6645 105.438L-5.30911 199.99L66.5285 266.049L65.9816 266.142L-17.9944 280.881L-44.7048 367.231L-95.301 281.833L-183.648 269.124ZM-157.376 108.456L-129.76 201.731L-129.849 201.848L-182.487 268.67L-94.9855 281.266L-44.885 365.826L-18.4502 280.32L-18.307 280.298L65.2518 265.638L-5.88576 200.208L-5.88134 200.049L-4.25816 106.575L-74.6792 151.638L-74.8234 151.565L-157.376 108.456Z" fill="#02489F"/>
<path d="M-177.34 266.806L-176.991 266.37L-126.697 202.679L-153.107 113.23L-73.8658 154.746L-6.23188 111.598L-7.87816 201.359L60.2912 264.187L59.7443 264.28L-20.0217 278.163L-45.4823 360.1L-93.4355 278.989L-177.34 266.806ZM-152.208 114.309L-126.081 202.883L-126.167 202.993L-176.226 266.373L-93.1574 278.42L-93.0767 278.559L-45.6687 358.747L-20.4579 277.615L59.0378 263.775L-8.45221 201.582L-8.44518 201.428L-6.794 112.716L-73.7135 155.415L-73.8533 155.34L-152.208 114.309Z" fill="#02489F"/>
<path d="M-171.034 264.481L-170.68 264.054L-122.995 203.835L-147.888 119.106L-72.8719 158.505L-8.80248 117.758L-10.4704 202.747L54.0093 262.295L53.4676 262.398L-22.0327 275.459L-46.251 352.982L-91.5871 276.112L-171.034 264.481ZM-147.041 120.156L-122.4 204.033L-122.482 204.14L-169.944 264.08L-91.3069 275.578L-91.2289 275.713L-46.43 351.673L-22.469 274.911L-22.333 274.887L52.8205 261.912L-11.0025 202.97L-11 202.819L-9.35838 118.824L-72.7747 159.152L-72.9047 159.083L-147.041 120.156Z" fill="#02489F"/>
<path d="M-164.721 262.158L-164.405 261.759L-119.293 204.992L-142.692 124.984L-71.9072 162.258L-11.3738 123.919L-13.062 204.16L47.7504 260.415L-24.068 272.715L-47.0203 345.865L-89.7271 273.247L-164.721 262.158ZM-141.875 126.003L-118.712 205.198L-118.792 205.298L-163.686 261.777L-89.4609 272.751L-89.3828 272.886L-47.1921 344.6L-24.4764 272.205L46.6069 260.048L-13.5672 204.325L-11.9292 124.955L-71.8396 162.916L-71.967 162.852L-141.875 126.003Z" fill="#02489F"/>
<path d="M-158.417 259.83L-158.109 259.448L-115.589 206.142L-137.497 130.87L-137.016 131.121L-70.9486 166.051L-13.9399 130.078L-13.9516 130.62L-15.6279 205.521L41.5026 258.553L-26.1147 270.002L-47.7863 338.752L-87.8618 270.38L-158.417 259.83ZM-136.693 131.878L-115.034 206.333L-157.405 259.45L-87.6091 269.891L-87.544 270.004L-47.9656 337.515L-26.4998 269.491L-26.3753 269.467L40.3952 258.164L-16.137 205.701L-16.1338 205.561L-14.4652 131.072L-70.8754 166.646L-136.693 131.878Z" fill="#02489F"/>
<path d="M-152.11 257.51L-111.893 207.302L-132.307 136.739L-69.9876 169.83L-16.5118 136.238L-16.5223 136.761L-18.2262 206.871L35.2381 256.663L-28.1195 267.27L-48.551 331.643L-86.0082 267.536L-152.11 257.51ZM-131.541 137.703L-111.355 207.484L-111.433 207.577L-151.132 257.144L-85.7626 267.045L-48.716 330.452L-28.498 266.791L34.1754 256.321L-18.7035 207.074L-16.998 137.186L-69.9081 170.415L-70.0284 170.352L-131.541 137.703Z" fill="#02489F"/>
<path d="M-145.81 255.196L-108.19 208.459L-127.105 142.638L-69.0324 173.607L-19.078 142.397L-19.0917 142.904L-20.7945 208.27L28.9885 254.808L28.5383 254.882L-30.1616 264.554L-49.3184 324.507L-84.1429 264.668L-145.81 255.196ZM-126.374 143.55L-107.674 208.635L-107.748 208.726L-144.857 254.838L-83.9121 264.204L-83.8444 264.321L-49.4728 323.376L-30.5091 264.088L-30.3892 264.067L27.958 254.46L-21.2642 208.445L-21.2603 208.317L-19.5681 143.317L-68.9561 174.176L-69.072 174.111L-126.374 143.55Z" fill="#02489F"/>
<path d="M-139.49 252.864L-139.212 252.523L-104.494 209.637L-121.909 148.516L-68.0731 177.381L-21.633 148.555L-21.6508 149.034L-23.3628 209.639L22.7486 252.929L-32.1521 261.815L-50.0804 317.392L-82.2833 261.792L-139.49 252.864ZM-121.213 149.389L-103.999 209.778L-104.068 209.866L-138.59 252.518L-82.0645 261.359L-81.9995 261.471L-50.2371 316.298L-32.5188 261.377L-32.4079 261.361L21.742 252.591L-23.8299 209.818L-23.826 209.69L-22.1226 149.445L-68.0028 177.93L-68.116 177.869L-121.213 149.389Z" fill="#02489F"/>
<path d="M-133.176 250.541L-100.786 210.772L-116.709 154.399L-116.304 154.622L-67.1148 181.162L-24.2271 154.706L-25.9651 211.009L16.4799 251.061L16.062 251.128L-34.1912 259.103L-50.8621 310.282L-80.4375 258.941L-133.176 250.541ZM-116.042 155.252L-100.307 210.935L-100.379 211.019L-132.309 250.221L-80.2091 258.515L-80.144 258.627L-50.9928 309.233L-34.5224 258.675L-34.4141 258.655L15.5322 250.73L-26.4173 211.204L-24.6743 155.565L-67.0511 181.678L-67.1546 181.624L-116.042 155.252Z" fill="#02489F"/>
<path d="M-126.864 248.226L-126.606 247.915L-97.0836 211.93L-111.515 160.285L-111.122 160.497L-66.1603 184.927L-26.788 160.873L-28.5535 212.384L10.2089 249.158L-36.2309 256.351L-51.6541 303.124L-51.8883 302.718L-78.6038 256.092L-126.864 248.226ZM-110.876 161.1L-96.6265 212.087L-96.6939 212.168L-126.034 247.915L-78.3533 255.683L-78.2935 255.786L-51.7489 302.169L-36.5309 255.977L-36.4244 255.963L9.32007 248.878L-28.9502 212.571L-27.2263 161.686L-66.0946 185.437L-66.1982 185.382L-110.876 161.1Z" fill="#02489F"/>
<path d="M-120.544 245.885L-93.3853 213.08L-106.317 166.165L-105.945 166.371L-65.1986 188.715L-29.3547 167.041L-31.1179 213.79L3.97029 247.312L-38.2408 253.649L-52.4032 296.04L-52.627 295.652L-76.7309 253.217L-120.544 245.885ZM-105.708 166.95L-92.9496 213.231L-93.0125 213.309L-119.771 245.589L-76.5423 252.825L-76.485 252.924L-52.5497 295.079L-38.544 253.259L3.09623 247.005L-31.522 213.933L-31.5147 213.821L-29.779 167.815L-65.144 189.195L-105.708 166.95Z" fill="#02489F"/>
<path d="M-114.251 243.569L-89.6832 214.237L-101.118 172.048L-100.763 172.246L-64.2525 192.498L-31.9345 173.208L-31.9519 173.615L-33.7103 215.179L-2.29055 245.427L-40.2721 250.922L-53.179 288.921L-74.8522 250.341L-114.251 243.569ZM-100.541 172.797L-89.2714 214.378L-89.3324 214.449L-113.489 243.297L-74.6615 249.985L-74.6043 250.084L-53.2737 288.008L-40.5553 250.556L-40.4604 250.544L-3.11676 245.141L-34.0828 215.304L-34.0775 215.199L-32.3177 173.928L-64.1846 192.927L-64.2766 192.872L-100.541 172.797Z" fill="#02489F"/>
</g>
</g>
<defs>
<clipPath id="clip0">
<rect width="798" height="303" fill="white" transform="translate(-622)"/>
</clipPath>
<clipPath id="clip1">
<rect width="1990.68" height="1930.26" fill="white" transform="translate(-79.2324 1571.54) rotate(-130.743)"/>
</clipPath>
</defs>
</svg>
