<svg width="104" height="104" viewBox="0 0 104 104" fill="none" xmlns="http://www.w3.org/2000/svg">
<circle cx="52" cy="52" r="51" stroke="#02489F" stroke-opacity="0.2" stroke-width="2"/>
<g clip-path="url(#clip0)">
<path d="M75.3207 32.2941C75.3207 31.247 75.0042 30.2235 74.4113 29.3529C73.8184 28.4823 72.9758 27.8037 71.9898 27.403C71.0039 27.0023 69.919 26.8975 68.8723 27.1017C67.8257 27.306 66.8643 27.8102 66.1097 28.5506C65.3551 29.291 64.8412 30.2343 64.633 31.2613C64.4248 32.2882 64.5316 33.3527 64.94 34.3201C65.3484 35.2875 66.04 36.1143 66.9273 36.696C67.8146 37.2777 68.8578 37.5882 69.925 37.5882C70.635 37.5935 71.3391 37.4601 71.9961 37.1959C72.6531 36.9317 73.2501 36.5419 73.7522 36.0493C74.2543 35.5566 74.6515 34.9709 74.9208 34.3262C75.1901 33.6816 75.326 32.9908 75.3207 32.2941Z" fill="#02489F" fill-opacity="0.2"/>
<path d="M74.9627 47.7842H68.368L66.6494 40.1763L64.5311 36.2547L54.4991 29.0391L43.5079 31.4312C42.9355 31.4312 42.3865 31.6543 41.9818 32.0515C41.577 32.4486 41.3496 32.9872 41.3496 33.5489C41.3496 34.1105 41.577 34.6491 41.9818 35.0463C42.3865 35.4434 42.9355 35.6665 43.5079 35.6665C43.7979 35.7257 44.0972 35.7257 44.3872 35.6665L53.6198 33.7449L59.1754 38.1763L48.2241 44.8038C47.5823 45.0946 47.0384 45.559 46.6561 46.1425C46.2739 46.726 46.0691 47.4043 46.0658 48.0979C46.0824 48.9872 46.4065 49.8445 46.9851 50.5293L53.6198 59.9802H43.5079C42.9355 59.9802 42.3865 60.2034 41.9818 60.6005C41.577 60.9976 41.3496 61.5363 41.3496 62.0979C41.3496 62.6595 41.577 63.1982 41.9818 63.5953C42.3865 63.9924 42.9355 64.2155 43.5079 64.2155H58.6158C58.998 64.2143 59.373 64.1136 59.7025 63.9235C60.032 63.7335 60.3042 63.461 60.4912 63.134C60.6782 62.8069 60.7733 62.437 60.7668 62.062C60.7604 61.6871 60.6525 61.3205 60.4543 60.9998L55.2185 50.5293L63.2121 45.5489L65.2105 51.8626H74.9627C75.4162 51.738 75.8158 51.4713 76.1004 51.1031C76.385 50.7349 76.5391 50.2855 76.5391 49.8234C76.5391 49.3613 76.385 48.9119 76.1004 48.5437C75.8158 48.1755 75.4162 47.9088 74.9627 47.7842Z" fill="#02489F" fill-opacity="0.2"/>
<path d="M44.1465 73.3913C43.8121 73.7579 43.6271 74.2326 43.627 74.7247C43.627 75.2863 43.8543 75.8249 44.2591 76.2221C44.6639 76.6192 45.2128 76.8423 45.7852 76.8423C46.387 76.836 46.9617 76.5963 47.3839 76.1756L58.1353 66.2148H50.9811L44.1465 73.3913Z" fill="#02489F" fill-opacity="0.2"/>
<path d="M49.542 39.4688H27V41.4687H46.944L49.542 39.4688Z" fill="#02489F" fill-opacity="0.2"/>
<path d="M42.5875 45.6289H27V47.6289H41.988L42.5875 45.6289Z" fill="#02489F" fill-opacity="0.2"/>
<path d="M43.5068 51.8242H27V53.785H44.7858L43.5068 51.8242Z" fill="#02489F" fill-opacity="0.2"/>
</g>
<defs>
<clipPath id="clip0">
<rect width="50" height="50" fill="white" transform="translate(27 27)"/>
</clipPath>
</defs>
</svg>
