<svg width="104" height="104" viewBox="0 0 104 104" fill="none" xmlns="http://www.w3.org/2000/svg">
<circle cx="52" cy="52" r="51" stroke="#02489F" stroke-opacity="0.2" stroke-width="2"/>
<g clip-path="url(#clip0)">
<path d="M67.2829 48.9247C66.6067 48.9289 65.9334 49.0135 65.2764 49.1766C64.8134 47.8542 64.3503 46.5318 63.8564 45.2094L61.6339 38.9122C61.6395 38.8283 61.6395 38.7441 61.6339 38.6603C61.5607 38.5113 61.4514 38.3839 61.3163 38.2902C61.1812 38.1965 61.0249 38.1396 60.8622 38.125H57.8679C57.6165 38.1688 57.3885 38.3019 57.2241 38.5007C57.0596 38.6995 56.9695 38.9512 56.9695 39.2113C56.9695 39.4714 57.0596 39.7231 57.2241 39.9219C57.3885 40.1207 57.6165 40.2537 57.8679 40.2975H59.7509C60.1522 41.3681 60.5535 42.4701 60.9239 43.4462H46.8786L46.3538 41.9348H49.4407C50.4594 41.9348 50.4594 41.1477 49.0086 40.7698C47.5577 40.392 44.193 40.1716 42.9583 40.0457C41.1061 39.8253 40.5196 42.0608 41.9087 42.0608H44.0695C44.5634 43.3832 44.6869 43.7925 45.15 45.2094L40.6431 50.5935C39.0647 49.4972 37.1775 48.9586 35.2704 49.0602C33.3634 49.1618 31.5415 49.898 30.0836 51.1561C28.6257 52.4142 27.6122 54.125 27.1981 56.0265C26.784 57.928 26.9922 59.9156 27.7908 61.6849C28.5894 63.4543 29.9344 64.908 31.62 65.8235C33.3055 66.7391 35.2388 67.0661 37.1239 66.7544C39.0089 66.4427 40.742 65.5096 42.0577 64.0978C43.3734 62.6861 44.1993 60.8734 44.4091 58.9373H48.422C48.8019 59.5253 49.364 59.9664 50.0185 60.1901C50.6731 60.4139 51.3822 60.4074 52.0327 60.1718C52.6832 59.9361 53.2375 59.4848 53.607 58.89C53.9765 58.2953 54.1399 57.5914 54.071 56.8907C54.1032 56.6083 54.1032 56.323 54.071 56.0406C56.2627 53.5532 58.4235 51.0658 60.6152 48.6099C61.1708 47.9802 61.7265 47.3819 62.2513 46.7522L63.4243 49.9008C61.5362 50.906 60.0748 52.5824 59.3169 54.6126C58.559 56.6428 58.5572 58.886 59.3116 60.9176C60.0661 62.9491 61.5246 64.628 63.411 65.6366C65.2974 66.6451 67.4808 66.9132 69.548 66.3901C71.6152 65.8671 73.4226 64.5892 74.6282 62.7983C75.8338 61.0075 76.3539 58.8279 76.0901 56.6722C75.8262 54.5165 74.7967 52.5343 73.1964 51.1008C71.5961 49.6672 69.5361 48.8818 67.4063 48.8933L67.2829 48.9247ZM35.735 64.6678C34.8316 64.7309 33.9251 64.6039 33.0718 64.2946C32.2186 63.9854 31.4368 63.5005 30.775 62.8701C30.1132 62.2397 29.5855 61.4772 29.2247 60.6301C28.8639 59.7829 28.6778 58.8692 28.6778 57.9455C28.6778 57.0219 28.8639 56.1081 29.2247 55.261C29.5855 54.4138 30.1132 53.6514 30.775 53.021C31.4368 52.3906 32.2186 51.9057 33.0718 51.5964C33.9251 51.2872 34.8316 51.1601 35.735 51.2232C36.9989 51.177 38.2502 51.4934 39.3466 52.1363L37.5871 54.1829L35.6424 56.5129C35.4008 56.5613 35.1744 56.6691 34.983 56.827C34.7915 56.9849 34.6407 57.188 34.5437 57.4188C34.4467 57.6496 34.4064 57.9011 34.4263 58.1514C34.4461 58.4017 34.5256 58.6432 34.6578 58.8551C34.79 59.067 34.9708 59.2427 35.1847 59.3671C35.3986 59.4915 35.639 59.5607 35.8851 59.5688C36.1311 59.5769 36.3754 59.5236 36.5967 59.4136C36.818 59.3036 37.0096 59.1401 37.1549 58.9373H42.2483C41.9867 60.5085 41.1901 61.9351 39.9986 62.9661C38.8072 63.9971 36.8037 64.5932 35.735 64.6678ZM38.1119 56.8907L40.8283 53.7421C41.5522 54.6542 42.0403 55.7367 42.2483 56.8907H38.1119ZM47.6812 56.8907H44.4091C44.1884 55.0881 43.4347 53.3968 42.2483 52.0419L45.1808 48.5469L45.9834 47.4449C46.7551 49.5545 47.5269 51.6326 48.2677 53.7421L48.5764 54.5923C47.9977 55.2114 47.6768 56.0353 47.6812 56.8907ZM52.8363 54.0885L52.6511 54.3089C52.1263 53.9352 51.5006 53.7372 50.8607 53.7421H50.4903C49.5642 51.1288 48.6073 48.5154 47.6503 45.9021H59.9978L52.8363 54.0885ZM67.4372 64.8253C65.9816 64.8195 64.4143 64.1976 63.2635 63.2885C62.1127 62.3795 61.2885 61.1081 60.919 59.6721C60.5494 58.2361 60.6552 56.7157 61.2198 55.3473C61.7845 53.9789 62.7765 52.8391 64.0416 52.1048L65.9864 57.552C65.9541 57.75 65.9541 57.9521 65.9864 58.1502C65.9864 58.5677 66.149 58.9682 66.4384 59.2634C66.7279 59.5586 67.1205 59.7245 67.5298 59.7245C67.9392 59.7245 68.3317 59.5586 68.6212 59.2634C68.9106 58.9682 69.0733 58.5677 69.0733 58.1502C69.0803 57.8374 68.9921 57.5302 68.8207 57.2707C68.6493 57.0113 68.4032 56.8125 68.1163 56.7018C67.4681 54.9071 66.8198 53.1439 66.2025 51.3807C66.6127 51.3325 67.027 51.3325 67.4372 51.3807C69.1072 51.4973 70.6715 52.2562 71.8139 53.5041C72.9564 54.7519 73.5918 56.3956 73.5918 58.103C73.5918 59.8103 72.9564 61.454 71.8139 62.7018C70.6715 63.9497 69.1072 64.7086 67.4372 64.8253Z" fill="#02489F" fill-opacity="0.2"/>
</g>
<defs>
<clipPath id="clip0">
<rect width="50" height="29" fill="white" transform="translate(27 38)"/>
</clipPath>
</defs>
</svg>
