<svg width="104" height="104" viewBox="0 0 104 104" fill="none" xmlns="http://www.w3.org/2000/svg">
<circle cx="52" cy="52" r="51" stroke="#02489F" stroke-opacity="0.2" stroke-width="2"/>
<g clip-path="url(#clip0)">
<path d="M74.6812 45.917C74.0749 41.0295 73.8966 39.3769 73.754 38.8847C73.754 38.7089 73.3617 36.1772 72.0422 35.3685C71.4003 34.9817 66.693 31.3952 64.0184 29.18L63.4479 28.512C62.4137 27.6329 61.7361 27 61.3082 27C57.9204 27 46.0809 27 42.693 27C42.2651 27 41.5875 27.6329 40.5534 28.512L39.9828 29.0042C37.2725 31.2194 32.5653 34.8059 31.9234 35.1927C30.6039 36.0014 30.2473 38.7089 30.2473 38.7089C30.2473 39.2714 29.9263 40.924 29.3201 45.7412C28.8921 49.5035 28.3216 54.4613 28.0006 57.5204C27.9816 57.5775 27.9816 57.6391 28.0006 57.6962C28.0331 57.7147 28.07 57.7245 28.1076 57.7245C28.1452 57.7245 28.1821 57.7147 28.2146 57.6962H37.3439C37.4169 57.6886 37.485 57.6565 37.5369 57.6053C37.5889 57.5541 37.6214 57.4869 37.6291 57.4149C37.6291 54.8129 37.2369 49.1167 37.2725 46.6906C37.7718 50.2067 39.0913 56.8523 39.1982 57.2391C39.2069 57.2981 39.2369 57.352 39.2829 57.3908C39.3288 57.4296 39.3874 57.4507 39.4479 57.4501H64.4107C64.4107 57.4501 64.6603 57.4501 64.6603 57.2391C64.6603 57.0281 66.1938 50.2067 66.693 46.6906C66.693 49.1167 66.2294 54.8129 66.2294 57.4149C66.2372 57.4869 66.2697 57.5541 66.3217 57.6053C66.3736 57.6565 66.4417 57.6886 66.5147 57.6962H75.6797C75.6797 57.6962 75.6797 57.6962 75.6797 57.5204C75.6797 54.4262 75.1091 49.5035 74.6812 45.917ZM58.2057 30.9381L52.4642 40.5021C52.4114 40.5747 52.3418 40.6338 52.2612 40.6746C52.1805 40.7154 52.0912 40.7367 52.0006 40.7367C51.91 40.7367 51.8207 40.7154 51.7401 40.6746C51.6594 40.6338 51.5898 40.5747 51.537 40.5021L45.8312 30.9381C45.7937 30.874 45.7739 30.8012 45.7739 30.7271C45.7739 30.6531 45.7937 30.5803 45.8312 30.5162C45.8543 30.4198 45.9085 30.3333 45.9857 30.2699C46.0628 30.2065 46.1588 30.1695 46.2592 30.1646H57.7421C57.8486 30.1617 57.9528 30.1951 58.0372 30.2592C58.1216 30.3232 58.1811 30.414 58.2057 30.5162C58.2432 30.5803 58.263 30.6531 58.263 30.7271C58.263 30.8012 58.2432 30.874 58.2057 30.9381Z" fill="#02489F" fill-opacity="0.2"/>
<path d="M64.9449 59.7365C64.9362 59.6775 64.9062 59.6236 64.8602 59.5848C64.8143 59.546 64.7557 59.5249 64.6952 59.5255H54.4605L56.0296 65.4327H53.7472L52.1781 59.5255H51.5719L50.2524 64.5185H48.0058L49.3966 59.5255H39.3401C39.2753 59.5235 39.2118 59.5433 39.1599 59.5816C39.108 59.62 39.071 59.6746 39.0548 59.7365L34.3475 76.6493C34.3309 76.6882 34.3223 76.7301 34.3223 76.7724C34.3223 76.8146 34.3309 76.8565 34.3475 76.8954C34.4168 76.9196 34.4923 76.9196 34.5615 76.8954H51.9642H69.3668C69.4003 76.9111 69.4368 76.9192 69.4738 76.9192C69.5108 76.9192 69.5474 76.9111 69.5808 76.8954C69.6069 76.8596 69.621 76.8165 69.621 76.7724C69.621 76.7282 69.6069 76.6852 69.5808 76.6493L64.9449 59.7365Z" fill="#02489F" fill-opacity="0.2"/>
</g>
<defs>
<clipPath id="clip0">
<rect width="48" height="50" fill="white" transform="translate(28 27)"/>
</clipPath>
</defs>
</svg>
