<svg width="104" height="104" viewBox="0 0 104 104" fill="none" xmlns="http://www.w3.org/2000/svg">
<circle cx="52" cy="52" r="51" stroke="#02489F" stroke-opacity="0.2" stroke-width="2"/>
<path d="M72.3463 70.1299L70.1986 66.3217C68.8045 63.9696 67.0713 61.0575 65.941 59.2281C64.443 57.3354 62.5209 55.8143 60.3269 54.7852C58.8953 54.1098 57.6143 53.1578 56.5591 51.9851C56.1446 51.3504 54.9012 49.297 53.2811 46.6462C57.6517 39.6272 63.8686 29.4347 64.2454 28.8374C64.3406 28.7052 64.4066 28.5548 64.4392 28.3957C64.4718 28.2367 64.4703 28.0726 64.4348 27.9142C64.3992 27.7557 64.3305 27.6065 64.2329 27.4761C64.1354 27.3457 64.0113 27.2371 63.8686 27.1573C63.7452 27.083 63.608 27.0337 63.4652 27.0122C63.3223 26.9908 63.1766 26.9976 63.0365 27.0323C62.8963 27.067 62.7645 27.129 62.6486 27.2145C62.5328 27.3 62.4352 27.4075 62.3615 27.5306L52 44.5181L41.6385 27.68C41.5648 27.5568 41.4672 27.4494 41.3514 27.3638C41.2355 27.2783 41.1037 27.2164 40.9635 27.1817C40.8234 27.1469 40.6777 27.1401 40.5348 27.1616C40.392 27.183 40.2548 27.2323 40.1313 27.3066C39.8851 27.4675 39.7094 27.7147 39.6395 27.9987C39.5696 28.2826 39.6107 28.5822 39.7546 28.8374L50.6813 46.6462C49.0611 49.297 47.8177 51.3504 47.4033 51.9851C46.348 53.1578 45.067 54.1098 43.6354 54.7852C41.4888 55.8388 39.6087 57.3572 38.1344 59.2281C37.0041 61.0575 35.2709 63.9696 33.8768 66.3217L31.6537 70.0552C31.3669 70.4132 31.1668 70.8316 31.0688 71.2782C30.9708 71.7248 30.9776 72.1877 31.0886 72.6314C31.4277 73.6021 32.3696 74.4981 34.2159 75.6182C35.4 76.5297 36.861 77.0167 38.3605 76.9996C38.8143 76.8994 39.2382 76.6952 39.598 76.4035C39.9579 76.1117 40.2438 75.7405 40.4328 75.3195L42.7311 71.586C44.2006 69.3459 46.0468 66.4711 47.1018 64.4923C48.1214 62.3327 48.6243 59.969 48.5713 57.5853C48.5572 56.1207 48.8126 54.6658 49.3248 53.2918C49.7016 52.7318 50.6813 51.1264 52 48.961L54.6752 53.2918C55.248 54.7534 55.5047 56.3179 55.4287 57.884C55.4212 60.1672 55.923 62.4237 56.8982 64.4923C57.9908 66.3217 59.7994 69.1965 61.2688 71.474L63.6049 75.2075C63.7887 75.6319 64.073 76.0061 64.4338 76.2986C64.7945 76.591 65.221 76.793 65.6772 76.8876C67.1422 76.9529 68.5873 76.5325 69.7841 75.6928C71.6304 74.5728 72.5723 73.6767 72.9114 72.706C73.0224 72.2624 73.0292 71.7995 72.9312 71.3528C72.8332 70.9062 72.5229 70.4205 72.3463 70.1299Z" fill="#02489F" fill-opacity="0.2"/>
</svg>
