<svg width="104" height="104" viewBox="0 0 104 104" fill="none" xmlns="http://www.w3.org/2000/svg">
<circle cx="52" cy="52" r="51" stroke="#02489F" stroke-opacity="0.2" stroke-width="2"/>
<path d="M75.8989 73.4237L67.7489 65.2C71.0773 61.2147 72.8023 56.114 72.5824 50.9069C72.3626 45.6999 70.2141 40.7657 66.5618 37.0804C62.9096 33.3951 58.0196 31.2271 52.8592 31.0053C47.6988 30.7835 42.6439 32.524 38.6943 35.8826L30.5443 27.6589C30.3549 27.4662 30.1296 27.3133 29.8813 27.2089C29.633 27.1045 29.3667 27.0508 29.0977 27.0508C28.8287 27.0508 28.5624 27.1045 28.3141 27.2089C28.0659 27.3133 27.8405 27.4662 27.6511 27.6589C27.4601 27.85 27.3085 28.0774 27.2051 28.328C27.1017 28.5785 27.0484 28.8472 27.0484 29.1186C27.0484 29.39 27.1017 29.6587 27.2051 29.9093C27.3085 30.1598 27.4601 30.3872 27.6511 30.5783L35.8011 38.802C32.741 42.4993 31.0647 47.1634 31.0647 51.9805C31.0647 56.7975 32.741 61.4616 35.8011 65.1589L27.6511 73.3826C27.3615 73.6759 27.1643 74.0491 27.0846 74.4552C27.0048 74.8613 27.046 75.2821 27.2028 75.6647C27.3597 76.0472 27.6253 76.3744 27.9661 76.6049C28.307 76.8354 28.7078 76.9589 29.1181 76.9599C29.3784 76.9575 29.6356 76.9016 29.8738 76.7956C30.112 76.6895 30.3263 76.5356 30.5036 76.3431L38.6535 68.1194C42.3445 71.148 46.9566 72.8013 51.7138 72.8013C56.4711 72.8013 61.0832 71.148 64.7742 68.1194L72.9241 76.3431C73.3203 76.6984 73.836 76.8875 74.3658 76.8718C74.8956 76.856 75.3994 76.6366 75.7742 76.2585C76.149 75.8803 76.3664 75.3719 76.382 74.8373C76.3976 74.3028 76.2102 73.7824 75.8581 73.3826L75.8989 73.4237ZM51.775 45.751C53 45.751 54.1976 46.1176 55.2162 46.8043C56.2347 47.4911 57.0286 48.4672 57.4975 49.6093C57.9663 50.7513 58.0889 52.008 57.8499 53.2203C57.6109 54.4327 57.021 55.5464 56.1548 56.4204C55.2885 57.2945 54.1849 57.8898 52.9834 58.1309C51.7818 58.3721 50.5364 58.2483 49.4046 57.7753C48.2728 57.3022 47.3055 56.5011 46.6249 55.4733C45.9443 54.4455 45.581 53.2372 45.581 52.001C45.581 50.3434 46.2336 48.7537 47.3952 47.5816C48.5568 46.4095 50.1322 45.751 51.775 45.751ZM51.775 66.5569C47.9454 66.557 44.272 65.0247 41.5602 62.2961C38.8485 59.5675 37.3196 55.8653 37.3088 52.001C37.311 50.3492 37.5865 48.7094 38.1238 47.1491C38.3021 46.6038 38.6878 46.1523 39.196 45.894C39.7042 45.6357 40.2933 45.5916 40.8336 45.7716C41.374 45.9515 41.8214 46.3407 42.0774 46.8535C42.3334 47.3663 42.3771 47.9607 42.1988 48.506C41.8055 49.6278 41.6124 50.8111 41.6283 52.001C41.6285 54.0655 42.2375 56.0832 43.3777 57.7973C44.518 59.5115 46.1378 60.8445 48.0312 61.6268C49.9246 62.4091 52.0058 62.6053 54.01 62.1904C56.0142 61.7755 57.8507 60.7683 59.2859 59.2969C60.721 57.8255 61.6898 55.9565 62.069 53.9278C62.4482 51.8991 62.2207 49.8025 61.4153 47.9047C60.6099 46.0069 59.2632 44.3938 57.5465 43.2708C55.8297 42.1477 53.8207 41.5654 51.775 41.5981C50.5958 41.582 49.4231 41.7769 48.3112 42.1737C48.0437 42.2628 47.7613 42.2979 47.4803 42.2769C47.1994 42.2559 46.9252 42.1792 46.6736 42.0513C46.1654 41.793 45.7797 41.3415 45.6014 40.7963C45.4231 40.251 45.4667 39.6566 45.7227 39.1438C45.9787 38.631 46.4261 38.2418 46.9665 38.0619C48.5128 37.5197 50.138 37.2418 51.775 37.2395C55.4736 37.4378 58.9559 39.06 61.5044 41.7719C64.053 44.4837 65.4736 48.0787 65.4736 51.816C65.4736 55.5533 64.053 59.1482 61.5044 61.8601C58.9559 64.572 55.4736 66.3587 51.775 66.5569Z" fill="#02489F" fill-opacity="0.2"/>
<path d="M51.776 54.0561C52.047 54.0616 52.3163 54.0125 52.5683 53.9116C52.8202 53.8107 53.0496 53.6602 53.2432 53.4687C53.4367 53.2772 53.5904 53.0487 53.6954 52.7966C53.8003 52.5444 53.8543 52.2737 53.8543 52.0002C53.7597 51.5253 53.505 51.098 53.1336 50.7911C52.7622 50.4841 52.2969 50.3164 51.8168 50.3164C51.3367 50.3164 50.8714 50.4841 50.5 50.7911C50.1286 51.098 49.8739 51.5253 49.7793 52.0002C49.7792 52.2737 49.8333 52.5444 49.9382 52.7966C50.0431 53.0487 50.1969 53.2772 50.3904 53.4687C50.5839 53.6602 50.8134 53.8107 51.0653 53.9116C51.3172 54.0125 51.5866 54.0616 51.8575 54.0561" fill="#02489F" fill-opacity="0.2"/>
</svg>
