<svg width="104" height="104" viewBox="0 0 104 104" fill="none" xmlns="http://www.w3.org/2000/svg">
<circle cx="52" cy="52" r="51" stroke="#02489F" stroke-opacity="0.2" stroke-width="2"/>
<g clip-path="url(#clip0)">
<path d="M38.0325 44.4245C37.7721 43.3524 37.1983 42.3813 36.3838 41.6341C35.5693 40.8869 34.5506 40.3972 33.4567 40.227C32.3628 40.0567 31.2427 40.2135 30.2383 40.6776C29.2338 41.1417 28.3901 41.8921 27.8139 42.834C27.2376 43.7759 26.9547 44.8669 27.001 45.969C27.0472 47.0712 27.4206 48.1348 28.0738 49.0255C28.7269 49.9162 29.6306 50.5938 30.6704 50.9727C31.7103 51.3516 32.8395 51.4147 33.9154 51.154C35.3566 50.8048 36.5998 49.8999 37.3718 48.6381C38.1438 47.3763 38.3814 45.8608 38.0325 44.4245Z" fill="#02489F" fill-opacity="0.2"/>
<path d="M52.7325 31.9929C51.3494 33.0184 39.0945 44.8111 39.0945 44.8111L37.4862 50.7715C37.3431 51.3504 37.3431 51.9552 37.4862 52.534C37.4862 52.534 41.0887 59.8404 41.9893 62.0195C42.2665 62.7058 42.7735 63.2755 43.4243 63.6318C44.0751 63.9881 44.8295 64.1091 45.5597 63.9742C46.3427 63.8263 47.0354 63.3763 47.4872 62.7222C47.9389 62.0681 48.1132 61.2628 47.972 60.4813C47.4574 58.9752 45.3667 54.2965 45.3667 54.2965L50.4809 54.7772C50.4809 54.7772 50.4809 68.717 50.4809 69.1336C50.4809 70.7679 51.0921 72.6265 53.3115 72.6586C56.721 72.6586 56.528 69.6463 56.528 68.9733C56.9461 60.962 57.0104 50.4831 57.0104 50.4831C55.8203 51.1881 74.6369 38.37 74.6369 38.37C75.3525 37.9102 75.856 37.1865 76.0369 36.3575C76.2178 35.5286 76.0613 34.6619 75.6019 33.9477C75.3439 33.5624 75.0051 33.2374 74.6089 32.9951C74.2127 32.7527 73.7685 32.5989 73.3068 32.5441C72.8452 32.4892 72.3771 32.5348 71.9348 32.6775C71.4926 32.8202 71.0866 33.0568 70.7449 33.3709L53.7939 44.747L48.5832 44.074C48.551 43.8177 54.1799 39.2993 57.5572 35.4859C57.9941 34.9028 58.1817 34.1713 58.0793 33.4509C57.9769 32.7305 57.5926 32.0797 57.0104 31.6404C55.949 30.9995 54.7267 30.5509 52.7325 31.9929Z" fill="#02489F" fill-opacity="0.2"/>
</g>
<defs>
<clipPath id="clip0">
<rect width="50" height="42" fill="white" transform="translate(27 31)"/>
</clipPath>
</defs>
</svg>
