<svg width="104" height="104" viewBox="0 0 104 104" fill="none" xmlns="http://www.w3.org/2000/svg">
<circle cx="52" cy="52" r="51" stroke="#02489F" stroke-opacity="0.2" stroke-width="2"/>
<g clip-path="url(#clip0)">
<path d="M70.69 51.357L68.4656 49.107L71.1565 46.3927L72.4481 47.6784C72.0004 48.9253 71.4232 50.1223 70.7259 51.2499L70.69 51.357ZM67.8916 54.8213C67.3915 55.3141 66.8644 55.7791 66.3129 56.2142L63.7297 53.7856L66.4206 51.0713L69.0038 53.6427L67.8557 54.9284L67.8916 54.8213ZM60.1778 59.607L59.0297 58.4642L61.7206 55.7499L63.945 57.9284C62.7598 58.6333 61.4954 59.1967 60.1778 59.607ZM44.7503 61.3213L45.1091 57.4284C45.5639 58.1371 46.0931 58.7955 46.6878 59.3927C47.3047 60.0054 47.991 60.5447 48.7328 60.9999L44.7503 61.3213ZM48.3381 42.2499L50.5267 44.4284L47.8 47.107L46.6878 45.9999C47.0652 44.6814 47.6204 43.4199 48.3381 42.2499ZM51.3519 38.3213L52.6435 37.1784L55.2267 39.7499L52.5 42.4284L49.9526 39.8927C50.3897 39.3437 50.8568 38.8191 51.3519 38.3213ZM58.5274 33.7856L59.8191 35.0713L57.0206 37.7142L54.7603 35.4642C55.893 34.7701 57.0955 34.1955 58.3481 33.7499L58.5274 33.7856ZM66.4206 37.7142L63.7297 35.0356L65.5236 33.2499C66.8219 33.5415 68.0442 34.1012 69.1114 34.8927L66.4206 37.7142ZM63.7297 44.4284L66.4206 41.7142L69.1473 44.4284L66.4206 47.107L63.7297 44.4284ZM59.0297 49.107L61.7206 46.3927L64.4473 49.107L61.7206 51.7856L59.0297 49.107ZM54.3297 53.7856L57.0206 51.0713L59.7473 53.7856L57.0206 56.4642L54.3297 53.7856ZM55.0473 49.107L52.3206 51.7856L49.6297 49.107L52.3206 46.3927L55.0473 49.107ZM59.0297 39.7499L61.7206 37.0356L64.4473 39.7499L61.7206 42.4284L59.0297 39.7499ZM59.7473 44.4284L57.0206 47.107L54.3297 44.4284L57.0206 41.7142L59.7473 44.4284ZM47.6206 51.0713L50.5267 53.7856L47.9435 56.3213C47.13 55.2033 46.5672 53.9245 46.2931 52.5713L47.6206 51.0713ZM53.5404 59.9642C52.2439 59.6676 51.0226 59.1083 49.9526 58.3213L52.5 55.7499L55.2267 58.4642L53.5404 59.9642ZM72.9145 40.6784L71.1206 42.4284L68.4656 39.7499L71.3 36.9284C72.1134 38.0464 72.6762 39.3253 72.9503 40.6784H72.9145ZM72.3763 33.857C69.8728 31.4631 66.519 30.1533 63.0481 30.2142C57.8004 30.3714 52.8257 32.578 49.1992 36.357C45.9801 39.5525 43.9223 43.7246 43.3511 48.2142C43.3155 48.7374 43.3155 49.2624 43.3511 49.7856C43.3151 49.9019 43.3151 50.0264 43.3511 50.1427L41.9519 61.0713L30.8297 72.1427C30.5856 72.0738 30.3275 72.0705 30.0817 72.1333C29.8359 72.196 29.6112 72.3225 29.4305 72.4999C29.1698 72.7609 29.0234 73.114 29.0234 73.482C29.0234 73.8501 29.1698 74.2032 29.4305 74.4642L31.5473 76.5713C31.6814 76.7106 31.8432 76.8206 32.0223 76.8944C32.2014 76.9681 32.394 77.0041 32.5878 76.9999C32.9592 76.9936 33.3159 76.8541 33.5923 76.607C33.7802 76.4112 33.9099 76.1673 33.9669 75.9025C34.0239 75.6377 34.006 75.3623 33.9152 75.107L45.0732 64.107L55.8366 63.2142C56.0704 63.2197 56.2988 63.1439 56.4824 62.9999C61.5497 62.7281 66.3224 60.5442 69.829 56.8927C73.1254 53.7312 75.2498 49.552 75.8565 45.0356C76.1666 43.023 76.004 40.9663 75.3815 39.0268C74.759 37.0873 73.6936 35.3178 72.2687 33.857H72.3763ZM41.0191 29.7856C41.5457 29.7949 42.0475 30.0098 42.4166 30.3838C42.7857 30.7579 42.9924 31.2613 42.9923 31.7856C42.9275 32.2655 42.6899 32.7057 42.3237 33.0245C41.9575 33.3432 41.4876 33.5189 41.0011 33.5189C40.5147 33.5189 40.0447 33.3432 39.6785 33.0245C39.3123 32.7057 39.0748 32.2655 39.0099 31.7856C39.0099 31.2552 39.2216 30.7464 39.5984 30.3714C39.9752 29.9963 40.4862 29.7856 41.0191 29.7856ZM41.0191 36.5713C41.9684 36.5642 42.8943 36.2776 43.6802 35.7475C44.4661 35.2173 45.0767 34.4675 45.4351 33.5924C45.7934 32.7173 45.8835 31.7562 45.694 30.8302C45.5045 29.9043 45.0438 29.0549 44.37 28.3891C43.6963 27.7234 42.8396 27.2712 41.908 27.0894C40.9764 26.9076 40.0116 27.0044 39.1352 27.3677C38.2588 27.7309 37.51 28.3443 36.9833 29.1305C36.4566 29.9167 36.1756 30.8406 36.1755 31.7856C36.1755 32.4171 36.3011 33.0423 36.5449 33.6253C36.7887 34.2083 37.1461 34.7374 37.5963 35.1823C38.0466 35.6271 38.5808 35.9789 39.1682 36.2173C39.7557 36.4557 40.3847 36.576 41.0191 36.5713Z" fill="#02489F" fill-opacity="0.2"/>
</g>
<defs>
<clipPath id="clip0">
<rect width="47" height="50" fill="white" transform="translate(29 27)"/>
</clipPath>
</defs>
</svg>
