<svg width="17" height="17" viewBox="0 0 17 17" fill="none" xmlns="http://www.w3.org/2000/svg">
<path fill-rule="evenodd" clip-rule="evenodd" d="M2.25 17V14.9055C0.95608 14.5725 0 13.3979 0 12C0 10.6021 0.95608 9.42754 2.25 9.09451V0H3.75V9.09451C5.04392 9.42754 6 10.6021 6 12C6 13.3979 5.04392 14.5725 3.75 14.9055V17H2.25ZM13.25 2.09451V0H14.75V2.09451C16.0439 2.42755 17 3.60212 17 5C17 6.39788 16.0439 7.57245 14.75 7.90549V17H13.25V7.90549C11.9561 7.57245 11 6.39788 11 5C11 3.60212 11.9561 2.42755 13.25 2.09451Z" fill="#02489F"/>
</svg>
