<svg width="685" height="466" viewBox="0 0 685 466" fill="none" xmlns="http://www.w3.org/2000/svg">
<path fill-rule="evenodd" clip-rule="evenodd" d="M572.266 464.553L440.529 331.68L341.164 231.459H232.381L385.7 387.547H233.316C148.236 387.547 77.3771 318.845 77.3771 232.969C77.3933 191.83 93.5688 152.374 122.362 123.238C151.156 94.1019 190.222 77.6592 231.009 77.5094L608.257 76.0624L454.189 231.459L462.111 239.071L487.435 264.614L686.351 464.553H800L567.089 229.634L794.76 0H231.009C169.741 0 110.983 24.5481 67.6608 68.2441C24.3383 111.94 0 171.205 0 233C0 294.795 24.3383 354.06 67.6608 397.756C110.983 441.452 169.741 466 231.009 466H232.007L572.266 464.553Z" fill="url(#paint0_linear)" fill-opacity="0.15"/>
<defs>
<linearGradient id="paint0_linear" x1="400" y1="0" x2="400" y2="466" gradientUnits="userSpaceOnUse">
<stop stop-color="#1AB8EC"/>
<stop offset="1" stop-color="#02489F"/>
</linearGradient>
</defs>
</svg>
