<svg width="685" height="800" viewBox="0 0 685 800" fill="none" xmlns="http://www.w3.org/2000/svg">
<path d="M400.278 798.883C620.065 798.883 798.237 620.57 798.237 400.61C798.237 180.65 620.065 2.33691 400.278 2.33691C180.492 2.33691 2.31934 180.65 2.31934 400.61C2.31934 620.57 180.492 798.883 400.278 798.883Z" fill="url(#paint0_linear)" fill-opacity="0.15"/>
<path d="M586.313 553.712C586.313 552.839 586.313 551.965 585.441 551.092C583.695 546.725 581.077 544.105 577.586 543.231C576.714 542.358 575.841 542.358 574.968 542.358C574.968 541.484 535.696 537.117 528.714 535.371C528.714 535.371 501.66 533.624 499.042 532.75C494.678 531.004 481.587 531.877 480.715 531.877C479.842 531.004 478.969 531.004 478.097 531.004C476.351 530.13 471.988 529.257 470.242 530.13C470.242 531.004 469.37 531.004 469.37 531.877C468.497 531.877 468.497 532.75 468.497 533.624V534.497C465.006 539.738 468.497 546.725 467.624 551.965C459.77 553.712 457.151 545.851 453.661 541.484C452.788 537.117 454.533 531.004 452.788 528.383H449.297C448.424 527.51 444.933 527.51 444.061 529.257V536.244C443.188 536.244 444.061 537.991 443.188 538.864V539.738C442.315 542.358 441.443 544.978 441.443 547.598V548.472C440.57 549.345 440.57 551.092 440.57 552.839V553.712C439.697 554.586 438.824 554.586 437.952 555.459C432.715 551.092 425.734 547.598 424.861 537.991V537.117C425.734 536.244 424.861 532.75 425.734 531.004V530.13C424.861 528.383 421.37 529.257 418.752 529.257C417.007 534.497 415.261 538.864 415.261 544.978C415.261 546.725 415.261 547.598 416.134 548.472C417.007 550.219 417.879 551.965 417.007 553.712C413.516 555.459 409.152 551.965 405.661 549.345C400.425 545.851 395.189 542.358 396.061 535.371V533.624C396.061 531.877 396.061 530.13 395.189 529.257C394.316 529.257 391.698 528.383 390.825 530.13H389.952C388.207 530.13 384.716 529.257 383.843 531.004H382.971C375.116 531.004 368.135 533.624 360.28 533.624C361.153 522.27 357.662 514.409 355.044 505.675V504.801C352.426 494.32 350.68 482.966 348.935 472.485V471.612C348.935 470.738 349.807 468.118 348.062 468.118V467.245C348.062 462.878 347.189 458.511 346.317 455.017V454.144C346.317 450.65 346.317 447.157 345.444 443.663V442.789C345.444 441.043 346.317 438.422 344.571 438.422V439.296C344.571 436.676 345.444 432.309 343.698 430.562V429.688C343.698 425.321 344.571 419.208 342.826 415.714C342.826 415.714 342.826 408.727 342.826 407.853V406.98C342.826 406.106 342.826 405.233 342.826 404.36V403.486C342.826 399.119 342.826 395.626 342.826 391.258V390.385C342.826 389.512 342.826 388.638 342.826 387.765V386.891C342.826 386.018 342.826 385.145 342.826 385.145V384.271C342.826 383.398 342.826 383.398 342.826 382.524V377.284C343.698 375.537 343.698 362.436 343.698 362.436C344.571 358.069 345.444 348.462 345.444 348.462C347.189 335.36 349.807 319.639 352.426 308.285C356.789 284.703 360.28 275.095 367.262 254.134C370.753 243.653 376.862 227.931 381.225 218.324C381.225 218.324 381.225 218.324 381.225 217.451C382.098 215.704 382.971 213.083 384.716 210.463V209.59C386.461 207.843 387.334 204.349 389.08 201.729V200.856C390.825 199.109 392.57 196.489 393.443 192.995V192.122C395.189 190.375 396.061 188.628 396.934 186.008C396.934 185.134 398.679 185.134 397.807 184.261C398.679 184.261 399.552 182.514 399.552 181.641V180.767C399.552 180.767 399.552 179.894 400.425 179.894C406.534 171.16 410.898 162.426 416.134 153.692V152.818C419.625 149.325 421.37 144.958 423.988 141.464C437.952 158.059 447.552 177.274 465.879 188.628C469.369 190.375 472.86 190.375 472.86 186.881C473.733 183.388 472.86 184.261 472.86 183.388C475.479 180.767 477.224 179.894 478.969 175.527C478.969 174.654 479.842 173.78 479.842 172.907C485.078 162.426 492.933 153.692 500.787 146.705C518.242 163.299 535.696 179.021 553.15 194.742C545.296 203.476 540.932 210.463 533.95 220.944C498.169 282.083 496.424 292.564 489.442 310.905C485.951 320.513 475.479 355.449 473.733 361.563C473.733 361.563 470.242 374.664 469.37 382.524V383.398C468.497 384.271 468.497 386.891 468.497 389.512V390.385C467.624 392.132 467.624 394.752 467.624 396.499V395.626C466.751 398.246 466.751 401.739 466.751 404.36V405.233C465.879 405.233 466.751 407.853 465.879 409.6V410.473C465.006 411.347 465.879 413.967 465.006 414.84V415.714C464.133 418.334 464.133 422.701 464.133 424.448V425.321C463.26 437.549 463.26 449.777 464.133 461.131V462.004C464.133 463.751 463.261 467.245 465.006 468.118V474.232C464.133 474.232 465.006 476.852 464.133 477.726V478.599C462.388 481.219 462.388 486.46 465.879 486.46C466.751 487.333 467.624 487.333 467.624 486.46C469.369 486.46 470.242 485.586 470.242 483.84V482.966H471.115C471.115 481.219 471.988 480.346 471.988 477.726V476.852C472.86 476.852 471.988 474.232 472.86 473.359V472.485C477.224 460.258 479.842 445.41 482.46 430.562V429.688C483.333 428.815 483.333 427.068 483.333 425.321V424.448C484.206 423.575 484.206 421.828 484.206 420.081V419.207C485.078 415.714 486.824 412.22 486.824 407.853C486.824 406.98 487.697 406.98 487.697 406.106C488.569 405.233 488.569 403.486 488.569 401.739C489.442 400.866 489.442 399.993 489.442 399.119C491.187 393.879 492.06 388.638 493.805 383.398C494.678 381.651 494.678 380.778 494.678 379.031C496.424 375.537 496.424 372.044 498.169 368.55V367.677C499.914 364.183 500.787 361.563 501.66 357.196C501.66 356.322 509.514 332.74 509.514 332.74C511.26 326.626 513.005 319.639 515.623 313.525C525.223 284.703 560.132 228.805 561.005 226.185C562.75 224.438 565.368 220.071 565.368 220.071C567.114 218.324 567.986 215.704 569.732 213.957C570.605 213.957 570.605 212.21 571.477 212.21C572.35 210.463 573.223 208.716 574.095 206.97C578.459 206.97 581.95 203.476 580.204 199.109C580.204 198.236 580.204 197.362 581.077 197.362C581.95 197.362 583.695 194.742 581.95 193.869V192.995C581.95 189.502 579.332 186.881 577.586 184.261C577.586 182.514 576.714 183.388 576.714 182.514C574.095 179.894 572.35 176.4 569.732 173.78C568.859 172.907 567.986 172.033 567.114 170.287C565.368 168.54 564.496 166.793 562.75 165.046C561.877 163.299 561.005 162.426 559.259 160.679C558.386 158.932 556.641 157.185 555.768 156.312C554.896 154.565 553.15 153.692 552.278 151.945C551.405 150.198 549.659 149.325 548.787 147.578C547.914 145.831 546.168 144.958 544.423 143.211C543.55 142.338 541.805 140.591 540.932 139.717C539.187 137.971 538.314 137.097 536.569 135.35C535.696 134.477 533.95 132.73 533.078 131.857C529.587 128.363 526.096 124.869 522.605 122.249C521.732 121.376 521.732 121.376 520.86 120.502C520.86 120.502 520.86 120.502 519.987 119.629L519.114 118.756C518.242 118.756 518.242 117.882 517.369 117.882C515.624 116.135 513.005 114.389 511.26 112.642H510.387C502.533 110.895 499.915 114.389 495.551 118.756C484.206 130.11 471.988 140.591 462.388 151.945C453.661 144.084 448.424 133.603 441.443 124.869V123.996C440.57 122.249 439.697 120.502 437.952 119.629V118.756C437.079 114.389 432.715 116.135 429.225 115.262C429.225 112.642 427.479 111.768 426.606 110.021C419.625 110.021 416.134 117.009 412.643 120.502C406.534 126.616 371.625 181.641 360.28 206.97C348.935 231.425 341.953 247.146 328.862 295.184C325.371 309.158 321.008 333.614 320.135 338.854V339.727C319.262 342.348 319.262 345.841 319.262 348.462V349.335C318.39 349.335 318.39 350.208 318.39 351.082V351.955C316.644 361.563 314.899 385.145 315.771 385.145C315.771 385.145 314.899 392.132 315.771 392.132C315.771 392.132 314.899 402.613 315.771 405.233V406.106C314.899 406.106 315.771 412.22 315.771 412.22C314.899 412.22 314.899 421.828 315.771 421.828C315.771 421.828 314.899 432.309 316.644 434.929V435.802C316.644 439.296 315.771 443.663 317.517 446.283V447.157C317.517 448.903 316.644 452.397 318.39 453.27V454.144C318.39 455.891 317.517 458.511 319.262 458.511V459.384C320.135 469.865 321.881 479.473 324.499 488.207V489.08C325.371 491.7 325.371 495.194 326.244 497.814V498.688C326.244 501.308 327.117 503.055 327.989 504.801C327.989 505.675 327.99 506.548 328.862 506.548C329.735 511.789 331.48 517.029 334.099 522.27V523.143C334.971 525.763 335.844 528.383 337.589 531.004C337.589 531.877 337.589 531.877 338.462 532.75C339.335 536.244 341.953 538.864 343.698 540.611C342.826 541.484 340.208 540.611 339.335 541.484H338.462C337.589 541.484 334.971 540.611 334.971 542.358C334.099 542.358 333.226 542.358 332.353 543.231C327.989 543.231 324.499 544.105 321.008 544.978H320.135C318.39 544.978 317.517 544.978 316.644 545.851H315.771C313.153 545.851 311.408 546.725 309.663 547.598H308.79C301.808 549.345 294.826 550.219 288.717 551.965C287.845 551.965 286.972 551.965 286.099 552.839C282.608 552.839 280.863 554.586 278.245 554.586H277.372C273.881 555.459 270.39 556.332 267.772 558.079C266.899 558.079 266.027 558.079 266.027 558.953C259.045 560.699 251.19 562.446 245.081 565.066C244.209 565.066 243.336 565.066 242.463 565.94C238.1 566.813 236.354 568.56 231.991 569.433C231.991 567.687 233.736 567.687 233.736 565.94V565.066C238.973 555.459 242.463 544.105 246.827 534.497V533.624C248.572 532.75 248.572 530.13 249.445 528.383V527.51C251.19 526.637 251.191 523.143 252.936 521.396V517.902C253.809 517.902 254.681 514.409 255.554 516.156L254.681 517.029V517.902C252.063 522.27 251.19 527.51 249.445 531.877C248.572 533.624 247.7 533.624 247.7 535.371C246.827 537.117 245.082 537.991 244.209 540.611C245.082 540.611 245.081 541.484 245.081 542.358C250.318 542.358 250.318 537.117 252.936 533.624V532.75C255.554 530.13 257.3 526.637 259.045 523.143V522.27C264.281 514.409 267.772 505.675 272.136 496.941V496.067C273.008 496.067 273.881 494.32 273.881 493.447V492.574C275.627 489.953 276.499 488.207 277.372 484.713V483.84C279.117 481.219 279.99 479.473 280.863 475.979V475.106C282.608 472.485 283.481 470.738 284.354 467.245V466.371C286.972 462.004 290.463 456.764 289.59 450.65C289.59 449.777 289.59 448.903 288.717 448.903C286.099 443.663 284.354 438.422 280.863 434.929V434.055C279.99 431.435 278.245 428.815 276.499 427.068V426.195C275.627 424.448 274.754 421.828 273.008 420.081V419.207C273.008 417.461 271.263 416.587 270.39 415.714C269.518 415.714 269.518 414.84 268.645 414.84C266.027 413.967 262.536 416.587 259.918 417.461C258.172 414.84 255.554 413.094 251.191 413.094H250.318C248.572 412.22 244.209 413.094 241.591 412.22H231.118C226.755 412.22 221.518 411.347 218.027 413.094H217.155C216.282 413.094 215.409 413.094 215.409 413.967C213.664 413.967 211.918 415.714 211.918 417.461C210.173 421.828 209.3 427.942 208.427 433.182V439.296C208.427 440.169 208.427 441.043 208.427 441.916V442.789C209.3 453.27 215.409 460.258 221.518 467.245L222.391 468.118C222.391 468.992 223.264 468.992 223.264 469.865C224.136 469.865 225.009 469.865 225.009 468.992H225.882C226.754 468.992 229.373 469.865 229.373 468.118H230.245C233.736 468.118 239.845 468.118 236.354 471.612V472.485C221.518 491.7 204.064 507.422 188.355 525.763C188.355 526.637 186.61 527.51 187.482 529.257C186.61 529.257 186.61 530.13 186.61 531.004V531.877C185.737 531.877 186.61 533.624 185.737 534.497V535.371C184.864 535.371 185.737 537.991 184.864 538.864V539.738C183.991 539.738 184.864 542.358 183.991 543.231V544.105C183.119 544.105 183.991 545.852 183.119 546.725V547.598C182.246 547.598 183.119 550.219 182.246 551.092V551.965C179.628 571.18 189.228 581.661 193.591 594.762C193.591 596.509 194.464 596.509 194.464 597.382C195.337 598.256 195.337 600.003 196.209 600.876C196.209 602.623 197.082 601.749 197.082 602.623C198.828 605.243 199.7 607.863 202.318 610.484H203.191C203.191 611.357 204.064 611.357 204.937 611.357C205.809 612.23 208.427 611.357 210.173 612.23C211.046 613.104 213.664 612.23 213.664 611.357H214.536C216.282 611.357 216.282 609.61 218.027 608.737C218.9 609.61 219.773 610.484 221.518 610.484H222.391C224.136 620.964 231.991 622.711 240.718 616.597H241.591C243.336 616.597 244.209 615.724 245.081 614.851C246.827 614.851 247.7 613.977 248.572 613.977C250.318 613.104 252.936 613.104 254.681 612.23C255.554 612.23 256.427 612.23 256.427 611.357C263.409 609.61 276.499 606.99 276.499 606.99C278.245 606.117 309.662 600.003 313.153 599.129C313.153 599.129 336.717 594.762 342.826 593.889H343.698C344.571 593.889 354.171 593.015 354.171 592.142C354.171 592.142 362.025 591.269 364.644 590.395L373.371 589.522C374.244 589.522 377.734 588.648 377.734 588.648C378.607 588.648 382.098 587.775 382.098 587.775C382.971 587.775 390.825 586.902 390.825 586.902C391.698 586.902 394.316 587.775 395.189 586.028C395.189 586.028 399.552 586.902 400.425 585.155C400.425 585.155 404.789 586.028 405.661 584.281H406.534C407.407 584.281 410.025 585.155 410.897 583.408H411.77C413.516 583.408 416.134 584.281 416.134 582.535H417.879C419.625 582.535 422.243 583.408 423.116 581.661H423.988C425.734 581.661 428.352 582.535 429.225 580.788H431.843C433.588 580.788 437.952 581.661 438.824 579.914C439.697 579.914 441.443 580.788 442.315 579.914C450.17 579.914 466.751 579.041 467.624 579.041C467.624 579.914 471.988 579.041 472.86 579.041C472.86 579.914 480.715 579.914 480.715 579.041H481.588C482.46 579.041 483.333 579.041 484.206 579.041C485.078 579.041 487.697 579.041 487.697 579.041C488.569 579.041 552.277 582.535 553.15 582.535C554.023 582.535 554.896 582.535 555.768 582.535C556.641 582.535 557.514 582.535 558.387 582.535C559.259 582.535 560.132 582.535 561.005 582.535C561.877 582.535 562.75 582.535 563.623 582.535C564.495 582.535 565.368 582.535 566.241 581.661C567.114 581.661 567.114 581.661 567.114 581.661C567.114 581.661 567.986 581.661 567.986 580.788C568.859 579.914 569.732 579.914 570.605 579.041L571.477 578.168C571.477 577.294 572.35 577.294 572.35 576.421C572.35 575.547 572.35 575.547 572.35 574.674C572.35 573.801 572.35 573.801 572.35 572.927C572.35 572.054 572.35 572.054 572.35 571.18C572.35 571.18 572.35 571.18 572.35 570.307C572.35 569.433 572.35 568.56 571.477 567.687H572.35C577.586 565.94 581.95 563.32 582.823 557.206V556.332C587.186 557.206 587.186 553.712 586.313 553.712Z" fill="white"/>
<path d="M706.731 338.859C694.513 280.341 662.223 233.177 620.332 193C619.46 193 618.587 192.127 616.841 193C615.969 193 615.969 194.747 616.841 196.494C633.423 212.215 648.259 229.683 661.35 248.898C705.859 313.53 716.331 390.39 696.259 462.883C657.859 605.248 511.243 721.411 356.772 715.297C190.083 709.183 74.8843 554.59 66.1571 403.491C61.7935 324.884 86.2296 244.531 143.829 188.633C192.701 142.343 259.9 113.52 326.227 103.039V102.166C324.481 101.292 325.354 98.6722 327.099 97.7988C247.682 109.153 173.501 142.343 120.266 205.228C27.7575 315.277 48.7027 488.211 132.484 600.008C176.119 657.652 240.7 702.196 314.009 716.171C382.953 729.272 453.643 716.171 514.734 686.475C640.405 623.589 735.531 479.477 706.731 338.859Z" fill="white"/>
<path d="M327.994 102.167C343.703 106.534 365.521 101.294 373.376 85.5726C374.248 83.8258 373.376 82.079 371.63 82.079C357.667 81.2055 341.958 83.8258 331.485 94.3067C328.867 96.9269 332.358 100.421 334.976 97.8004C343.703 89.0663 355.048 86.446 367.266 86.446C359.412 96.9269 342.83 101.294 329.74 97.8004C326.249 96.927 325.376 101.294 327.994 102.167Z" fill="white"/>
<path d="M526.946 727.521C521.709 727.521 526.073 713.547 526.946 711.8C528.691 707.433 531.309 701.319 535.673 697.826C536.546 708.307 533.928 727.521 526.946 727.521ZM520.837 711.8C519.091 717.914 516.473 730.141 524.328 732.762C538.291 738.002 544.4 708.307 540.909 695.206C541.782 693.459 540.909 690.839 539.164 690.839C539.164 690.839 539.164 689.965 538.291 689.965C536.546 687.345 532.182 689.965 533.055 692.585C526.946 696.952 523.455 704.813 520.837 711.8Z" fill="white"/>
<path d="M536.581 648.925C536.581 649.798 536.581 649.798 536.581 649.798C534.835 650.672 533.962 651.545 534.835 653.292C536.581 655.912 515.635 660.279 512.144 661.153C505.163 662.026 487.708 664.646 485.09 655.912C483.345 646.305 525.235 647.178 536.581 648.925ZM481.599 661.153C487.708 671.634 507.781 668.14 517.381 666.393C521.744 665.52 544.435 662.026 540.944 652.419C541.817 652.419 541.817 651.545 541.817 650.672C542.69 648.925 542.69 648.052 542.69 646.305C542.69 645.431 541.817 643.685 540.944 643.685C530.472 641.064 468.509 637.571 481.599 661.153Z" fill="white"/>
<path d="M413.506 737.115C414.379 743.229 423.106 743.229 427.47 740.609C432.706 737.989 437.943 731.001 439.688 724.888C441.434 722.267 441.434 720.521 442.306 717.027C442.306 714.407 440.561 713.533 437.943 713.533C431.834 714.407 426.597 718.774 422.234 722.267C417.87 726.634 412.634 731.875 413.506 737.115Z" fill="white"/>
<path d="M364.632 740.629C370.742 738.009 378.596 735.389 385.578 734.515C381.214 741.503 374.232 746.743 368.123 751.11C364.632 753.73 341.942 768.578 341.942 755.477C341.942 747.616 358.523 742.376 364.632 740.629ZM335.833 760.717C347.178 784.299 384.705 749.363 393.432 734.515C396.923 734.515 397.796 728.401 393.432 727.528C380.341 725.781 326.233 739.756 335.833 760.717Z" fill="white"/>
<path d="M422.236 689.955C426.599 691.701 431.836 693.448 435.327 696.942C428.345 698.689 414.381 696.942 410.89 691.701C408.272 686.461 420.49 689.081 422.236 689.955ZM404.781 688.208C401.29 702.182 430.09 704.802 437.945 702.182C440.563 701.309 440.563 697.815 438.818 696.068C439.69 695.195 440.563 693.448 438.818 691.701C433.581 686.461 408.272 674.233 404.781 688.208Z" fill="white"/>
<path d="M349.795 686.467C358.523 689.96 369.868 695.201 376.85 703.061C368.122 704.808 356.777 702.188 348.05 700.441C341.068 698.694 318.378 694.327 318.378 684.72C317.505 673.365 346.304 684.72 349.795 686.467ZM380.34 709.175C382.086 708.302 382.959 706.555 382.959 704.808C383.831 703.935 384.704 702.188 383.831 700.441C375.104 689.96 321.868 657.644 313.141 680.353C303.541 703.935 366.377 712.669 380.34 709.175Z" fill="white"/>
<path d="M314.029 728.379V729.252C314.029 730.126 314.029 730.126 314.029 730.999C312.283 734.493 308.792 737.113 305.302 738.86C305.302 733.619 308.792 729.252 314.029 728.379ZM298.32 743.227C298.32 744.973 300.065 745.847 301.811 745.847C310.538 744.973 316.647 738.86 320.138 730.999C320.138 730.126 320.138 729.252 320.138 728.379C320.138 727.505 320.138 726.632 320.138 724.885C320.138 723.138 319.265 722.265 317.52 721.392C306.174 721.392 297.447 732.746 298.32 743.227Z" fill="white"/>
<path d="M251.197 728.4C254.688 722.287 265.16 719.666 272.142 718.793C275.633 717.92 287.851 716.173 288.724 721.413C284.36 727.527 275.633 731.021 269.524 733.641C264.288 734.514 244.215 738.881 251.197 728.4ZM246.833 737.134C250.324 740.628 254.688 741.501 259.924 740.628C269.524 739.755 282.615 733.641 289.597 725.78C290.469 725.78 291.342 724.907 292.215 724.033C292.215 723.16 293.087 722.287 293.087 722.287C293.96 721.413 293.087 720.54 293.087 720.54C292.215 714.426 283.488 712.679 277.379 713.553C266.906 714.426 253.815 717.92 246.833 726.654C245.088 728.4 245.088 733.641 246.833 737.134Z" fill="white"/>
<path d="M277.365 673.372C279.983 676.866 283.474 683.853 282.601 688.22C274.746 689.967 265.147 672.499 266.892 666.385C268.637 662.018 277.365 672.499 277.365 673.372ZM266.892 683.853C271.256 689.967 278.237 697.828 286.092 694.334C286.965 693.461 287.837 692.587 287.837 691.714V690.84C289.583 682.98 284.346 674.245 279.983 668.132C276.492 662.891 267.765 655.904 262.528 662.891C258.165 669.005 263.401 678.613 266.892 683.853Z" fill="white"/>
<path d="M44.3533 406.11C46.9715 409.604 50.4624 416.591 49.5896 420.958C41.7352 422.705 33.008 405.237 34.7535 399.123C35.6262 394.756 43.4806 405.237 44.3533 406.11ZM33.8807 416.591C37.3716 422.705 44.3534 429.693 52.2078 426.199C53.0805 425.326 53.9532 424.452 53.9532 423.579V422.705C55.6987 414.844 50.4623 406.11 46.0988 399.996C42.6079 395.629 33.8807 388.642 28.6444 395.629C25.1535 401.743 30.3898 411.351 33.8807 416.591Z" fill="white"/>
<path d="M209.295 626.212C218.895 620.098 236.349 658.528 240.713 667.262H239.84C223.259 677.743 194.459 635.819 209.295 626.212ZM210.168 658.528C217.149 668.135 230.24 680.363 242.458 672.502C243.331 671.629 244.204 670.755 243.331 669.882C245.076 669.882 246.822 668.135 245.949 666.388C241.586 655.908 218.895 606.124 203.186 625.338C195.332 634.073 204.059 649.794 210.168 658.528Z" fill="white"/>
<path d="M217.146 690.835C208.419 692.582 183.11 694.329 185.728 684.721C187.473 675.987 211.91 688.215 217.146 690.835ZM179.619 683.848C175.255 701.316 211.91 697.823 220.637 695.202C223.255 694.329 223.255 689.962 220.637 689.962C221.51 689.089 221.509 687.342 219.764 686.468C211.037 681.228 183.983 667.253 179.619 683.848Z" fill="white"/>
<path d="M170.894 574.679C183.985 570.312 177.003 607.869 175.258 613.109V613.982C163.912 611.362 159.549 579.046 170.894 574.679ZM181.367 618.35C183.985 617.476 182.24 613.109 179.621 613.109C182.24 603.502 183.985 592.147 183.112 581.666C182.24 572.932 174.385 563.325 165.658 571.186C153.44 582.54 159.549 627.084 181.367 618.35Z" fill="white"/>
<path d="M142.106 577.302C143.852 582.543 146.47 585.163 149.961 585.163C151.706 586.037 152.579 585.163 153.452 584.29C155.197 583.416 156.07 582.543 157.815 580.796C159.561 579.049 157.815 576.429 156.07 575.556C157.815 565.948 158.688 554.594 149.088 549.353C147.343 548.48 145.597 548.48 144.725 550.226C139.488 557.214 139.488 568.568 142.106 577.302Z" fill="white"/>
<path d="M161.293 652.405C155.184 654.152 146.457 651.531 140.348 650.658H139.475C138.602 650.658 136.857 649.785 134.239 648.911C124.639 645.418 118.53 642.797 118.53 640.177C118.53 639.304 118.53 639.304 118.53 638.43C119.403 636.684 122.894 635.81 132.493 639.304C135.984 640.177 138.602 641.924 141.221 642.797C142.093 642.797 142.966 643.671 142.966 643.671L143.839 644.544C149.075 645.418 156.057 648.038 161.293 652.405ZM113.294 642.797C115.039 647.164 122.021 650.658 127.257 652.405C139.475 656.772 156.057 657.645 164.784 655.899C165.657 657.645 168.275 657.645 169.148 655.899C170.02 655.025 170.02 654.152 169.148 653.278C169.148 652.405 170.02 652.405 169.148 651.531C169.148 649.785 167.402 648.911 165.657 649.785C159.548 643.671 149.075 640.177 141.221 636.684L138.602 635.81C137.73 634.937 135.984 634.937 134.239 634.063C122.021 629.696 115.039 630.57 112.421 636.684C112.421 639.304 112.421 641.051 113.294 642.797Z" fill="white"/>
<path d="M106.322 593.888C112.431 598.255 119.412 604.369 123.776 610.483C110.685 613.103 88.8672 605.242 85.3764 593.014C82.7582 579.913 102.831 592.141 106.322 593.888ZM130.758 613.103C133.376 611.356 131.63 606.989 128.14 608.736C122.031 599.128 87.9945 567.686 80.1401 588.647C74.0311 609.609 118.54 621.837 130.758 613.103Z" fill="white"/>
<path d="M128.115 553.72C122.879 551.973 125.497 541.492 127.242 536.252C129.86 541.492 129.86 548.479 128.115 553.72ZM126.37 559.834C127.242 561.58 129.86 561.58 131.606 559.834H132.479C135.097 559.834 135.097 556.34 133.351 555.467C135.969 546.733 135.969 536.252 128.988 529.264C127.242 527.518 125.497 528.391 124.624 529.264C118.515 537.125 115.897 556.34 126.37 559.834Z" fill="white"/>
<path d="M108.926 577.307C108.926 577.307 108.926 576.434 108.926 577.307C109.799 575.56 109.799 572.94 108.053 571.193C108.053 569.446 106.308 568.573 105.435 568.573C105.435 568.573 104.562 568.573 104.562 567.7C102.817 565.079 99.3261 562.459 95.8353 563.332C93.2171 564.206 91.4717 566.826 91.4717 570.32C91.4717 573.813 93.2171 576.434 95.8353 577.307H96.708C99.3261 579.054 101.944 579.927 105.435 579.927C106.308 579.927 107.18 579.927 108.053 579.054L108.926 578.181C108.926 577.307 108.926 577.307 108.926 577.307Z" fill="white"/>
<path d="M79.2556 515.285C74.892 506.551 63.5467 483.843 51.3286 497.817C43.4742 507.425 60.0558 522.273 70.5285 522.273C72.2739 523.146 74.0193 522.273 75.7647 520.526C75.7647 520.526 75.7647 519.652 76.6375 519.652C78.3829 519.652 80.1283 517.906 79.2556 515.285Z" fill="white"/>
<path d="M102.817 436.678C104.563 434.931 108.054 431.438 110.672 434.931C112.417 438.425 109.799 444.539 108.926 448.032C106.308 455.019 101.072 464.627 94.0902 468.994C92.3448 469.867 94.0902 469.867 92.3448 469.867C85.3631 471.614 98.4538 441.918 102.817 436.678ZM98.4538 481.222C102.817 481.222 102.817 475.108 98.4538 475.108C97.5811 475.108 96.7084 475.108 95.8357 474.234C96.7084 474.234 97.5811 474.234 98.4538 473.361C107.181 467.247 115.035 452.399 116.781 441.918C118.526 432.311 112.417 422.704 101.945 428.817C89.7266 437.551 73.145 480.348 98.4538 481.222Z" fill="white"/>
<path d="M84.4824 421.824C85.3552 420.95 87.9733 420.077 88.846 420.95C89.7188 422.697 88.8461 427.064 87.9733 428.811C87.9733 430.558 87.1006 431.431 86.2279 433.178C86.2279 433.178 86.2279 433.178 86.2279 434.052C84.4824 434.052 82.737 435.799 83.6097 437.545C83.6097 438.419 84.4824 439.292 85.3552 439.292C84.4824 440.166 84.4825 441.912 83.6097 442.786C83.6097 442.786 82.737 441.912 82.737 441.039C80.9916 437.545 80.9915 432.305 81.8643 427.938C82.737 424.444 83.6097 422.697 84.4824 421.824ZM79.2461 442.786C80.1189 445.406 81.8643 447.153 85.3552 446.279C88.846 445.406 90.5915 441.039 91.4642 437.545C91.4642 436.672 91.4642 435.798 91.4642 435.798V434.925C93.2097 431.431 94.955 426.191 94.955 421.824C94.955 417.457 92.3369 415.71 87.9733 415.71C84.4825 415.71 81.8643 418.33 80.1189 420.95C76.628 427.064 76.628 435.798 79.2461 442.786Z" fill="white"/>
<path d="M36.5014 436.678C40.865 437.551 44.3558 441.045 46.9739 443.665C49.5921 446.285 56.5739 453.272 56.5739 454.146C57.4466 457.639 61.8102 462.88 58.3193 465.5C54.8284 468.994 32.1377 453.272 29.5196 442.791C28.6469 439.298 33.0105 435.804 36.5014 436.678ZM61.8102 473.361C63.5556 473.361 64.4284 472.487 65.3011 471.614C66.1738 470.74 67.0465 469.867 67.0465 468.12C66.1738 466.373 66.1738 464.627 65.3011 463.753C66.1738 462.88 67.0465 462.006 66.1738 461.133C62.6829 448.032 38.2468 419.21 26.0288 437.551C14.6835 452.399 49.5921 471.614 61.8102 473.361Z" fill="white"/>
<path d="M94.984 375.538C100.22 376.412 87.1295 403.487 81.8932 403.487C69.6752 402.614 94.1112 372.918 94.984 375.538ZM76.6569 406.981C74.0388 407.854 74.9115 412.221 78.4024 411.348C92.3659 406.107 102.838 386.019 101.966 372.918C101.966 371.171 97.6022 368.551 95.8567 369.424C87.1296 372.918 63.5662 399.12 76.6569 406.981Z" fill="white"/>
<path d="M82.7577 348.463C84.5031 344.969 87.9939 339.729 90.6121 337.982C94.9757 334.489 102.83 329.248 105.448 330.995C109.812 333.615 98.4666 353.704 84.5031 359.817C79.2668 358.071 81.0123 350.21 82.7577 348.463ZM74.9032 350.21C73.1578 356.324 75.7759 360.691 79.2668 363.311C78.3941 365.931 81.8849 368.551 84.5031 366.805C85.3758 365.931 86.2486 365.931 87.1213 365.058C90.6121 365.058 94.103 363.311 97.5938 360.691C99.3393 358.944 98.4666 357.197 97.5938 356.324C106.321 347.59 111.557 339.729 110.685 328.375C110.685 324.008 105.448 324.008 103.703 324.008C91.4848 328.375 78.3941 336.235 74.9032 350.21Z" fill="white"/>
<path d="M94.1042 283.83C96.7224 281.209 102.831 276.842 104.577 277.716C104.577 289.07 96.7224 300.424 89.7406 309.158C85.377 307.412 86.2498 299.551 87.1225 296.931C87.1225 292.564 90.6133 287.323 94.1042 283.83ZM79.268 297.804C77.5226 304.791 80.1407 311.779 85.377 314.399C86.2497 316.146 87.9952 317.892 90.6133 316.146L91.4861 315.272H92.3588C94.1042 315.272 94.9769 312.652 94.9769 311.779C103.704 300.424 112.431 287.323 108.94 273.349C108.068 270.729 105.45 268.982 102.831 270.729C92.3588 277.716 82.7589 284.703 79.268 297.804Z" fill="white"/>
<path d="M60.9418 300.405C56.5782 303.026 49.5965 289.925 47.8511 287.304C44.3602 281.19 36.5058 268.089 40.8693 264.596C44.3602 261.102 64.4327 300.405 60.9418 300.405ZM64.4326 305.646C65.3053 305.646 67.0508 304.772 67.0508 303.026C67.9235 301.279 67.0508 300.405 66.1781 299.532C63.5599 282.937 50.4692 256.735 37.3785 259.355C36.5058 259.355 35.6331 260.229 34.7604 261.102C26.9059 269.836 51.3419 317 64.4326 305.646Z" fill="white"/>
<path d="M81.8876 222.703C89.742 225.323 80.1422 249.779 74.0331 261.133C60.9423 257.639 67.924 218.336 81.8876 222.703ZM71.4149 267.247C69.6695 270.741 74.9058 274.234 76.6512 270.741C77.524 269.867 77.524 268.12 78.3967 267.247C78.3967 267.247 79.2694 266.374 79.2694 265.5C87.1239 249.779 101.96 213.969 77.524 215.716C59.1968 217.463 53.9605 260.26 71.4149 267.247Z" fill="white"/>
<path d="M136.858 229.679C142.967 226.185 153.439 220.071 160.421 224.438C170.021 230.552 149.076 237.539 145.585 238.413C139.476 240.16 131.621 242.78 123.767 242.78C124.639 238.413 135.112 230.552 136.858 229.679ZM115.04 248.02C116.785 248.02 117.658 248.894 119.403 248.894C120.276 249.767 121.149 249.767 122.021 250.64C123.767 251.514 125.512 250.64 125.512 248.894C135.985 248.02 146.457 245.4 155.185 241.906C164.784 238.413 174.384 227.058 162.166 219.198C151.694 212.211 135.985 222.691 128.13 227.932C123.767 230.552 117.658 236.666 116.785 242.78C113.294 241.033 111.549 247.147 115.04 248.02Z" fill="white"/>
<path d="M104.587 207.844C103.714 206.97 102.841 205.223 102.841 202.603C101.968 197.363 102.841 191.249 105.459 186.882C107.205 185.135 108.95 184.262 112.441 184.262C115.059 185.135 114.186 188.629 113.314 192.122C112.441 197.363 108.95 203.477 104.587 207.844ZM98.4775 206.97C99.3502 210.464 101.096 212.211 103.714 213.084C106.332 213.957 109.823 212.211 112.441 209.59C112.441 208.717 113.314 208.717 113.314 207.844C113.314 207.844 113.314 206.97 112.441 206.97C116.804 200.856 119.423 192.996 118.55 187.755C118.55 184.262 115.932 181.642 113.314 180.768C109.823 179.895 104.587 180.768 101.968 184.262C96.7321 189.502 96.7321 199.983 98.4775 206.97Z" fill="white"/>
<path d="M147.335 195.611C156.935 203.472 170.026 206.966 181.371 204.346C186.607 203.472 193.589 199.105 197.08 193.865C198.825 191.244 198.825 188.624 197.953 186.004C197.08 183.384 195.335 181.637 191.844 180.764C188.353 179.89 183.989 179.017 178.753 179.89C170.026 180.764 158.68 182.51 153.444 190.371C153.444 191.244 152.571 192.118 153.444 192.118C153.444 192.991 154.317 193.865 155.189 193.865C156.062 193.865 156.935 193.865 157.808 192.991C163.044 185.131 181.371 183.384 190.098 186.004C190.971 186.004 191.844 186.877 191.844 186.877C192.716 187.751 193.589 187.751 193.589 188.624C193.589 191.244 190.971 193.865 190.098 195.611C187.48 198.232 183.116 199.978 177.88 200.852C169.153 201.725 158.68 198.232 151.699 192.118C150.826 191.244 149.08 191.244 148.208 192.991C146.462 193.865 146.462 194.738 147.335 195.611Z" fill="white"/>
<path d="M151.688 127.5C159.542 123.133 157.797 136.234 156.924 139.727C156.051 144.094 155.179 149.335 154.306 153.702C153.433 153.702 152.561 154.575 152.561 155.449C151.688 157.195 149.942 159.816 148.197 158.069C146.451 155.449 145.579 151.955 144.706 148.461C142.961 141.474 144.706 131.867 151.688 127.5ZM139.47 157.195C142.088 164.183 148.197 167.676 152.561 165.056C154.306 165.929 156.051 165.929 157.797 164.183V163.309C162.16 153.702 164.779 141.474 163.906 130.993C163.033 119.639 153.433 116.145 143.833 124.006C135.106 130.993 135.106 146.715 139.47 157.195Z" fill="white"/>
<path d="M210.176 89.9276C196.213 90.801 182.249 110.889 180.504 123.991C178.758 137.092 193.595 148.446 200.576 130.978C201.449 128.358 198.831 126.611 196.213 127.484C202.322 120.497 208.431 113.51 213.667 105.649C218.031 99.5351 221.521 88.1808 210.176 89.9276Z" fill="white"/>
<path d="M233.739 157.188C229.375 153.695 224.139 151.948 218.903 151.075C220.648 149.328 219.775 145.834 216.285 145.834C206.685 144.961 190.975 148.454 195.339 161.555C199.703 172.91 212.794 176.403 224.139 174.657C232.866 172.91 244.212 165.049 233.739 157.188Z" fill="white"/>
<path d="M294.828 144.089C300.065 148.456 293.956 156.316 289.592 158.063C285.228 160.683 278.247 159.81 273.883 158.937C263.41 158.063 249.447 154.569 243.338 144.962C242.465 144.089 242.465 144.089 241.592 143.215C241.592 142.342 241.593 141.468 242.465 141.468C257.301 138.848 283.483 133.608 294.828 144.089ZM237.229 142.342C237.229 143.215 237.229 143.215 237.229 144.089V144.962C236.356 145.835 236.356 146.709 237.229 148.456C247.702 165.05 293.956 179.025 302.683 152.823C311.41 124 249.447 134.481 236.356 136.228C231.993 136.228 232.865 141.468 237.229 142.342Z" fill="white"/>
<path d="M220.645 114.392C220.645 117.012 222.391 119.633 225.882 120.506C229.372 120.506 232.863 117.886 234.609 116.139C235.481 115.265 235.482 114.392 235.482 113.519C238.972 110.025 242.463 105.658 242.463 100.418C242.463 96.9239 238.1 94.3037 234.609 94.3037C231.991 94.3037 229.373 96.0505 226.754 97.7974C223.264 103.038 219.773 109.152 220.645 114.392Z" fill="white"/>
<path d="M279.996 57.6188C267.778 61.9859 259.924 76.8338 259.051 89.0615C258.178 102.163 268.651 105.656 279.996 100.416C283.487 98.669 281.742 94.302 278.251 94.302C278.251 94.302 278.251 94.302 278.251 93.4286C286.105 89.0615 293.96 81.2008 298.323 74.2136C307.051 60.2391 292.214 53.2518 279.996 57.6188Z" fill="white"/>
<path d="M340.207 130.129C336.716 123.142 330.607 118.775 323.625 117.028C323.625 116.155 322.753 116.155 321.88 115.282C316.644 112.661 308.789 111.788 303.553 114.408C297.444 117.028 295.698 125.762 299.189 131.003C306.171 141.484 327.116 139.737 337.589 136.243C339.334 136.243 341.08 131.876 340.207 130.129Z" fill="white"/>
<path d="M27.7714 324.002C29.5168 321.382 31.2622 320.509 33.8804 321.382C38.244 323.129 42.6076 329.243 44.353 332.736C46.0984 336.23 46.9711 339.724 48.7166 344.964C48.7166 345.837 49.5893 351.078 48.7166 352.825C47.8438 352.825 46.9711 352.825 46.0984 353.698C45.2257 354.572 45.2257 355.445 45.2257 355.445C44.353 355.445 44.353 355.445 43.4803 355.445C39.9894 354.572 34.7531 349.331 33.0077 345.837C31.2623 341.47 23.4079 330.99 27.7714 324.002ZM21.6625 325.749C20.7897 334.483 26.8987 344.091 30.3896 348.458C33.0077 351.078 38.244 357.192 43.4803 358.939C47.8439 360.685 51.3347 358.939 53.0801 354.572C56.571 349.331 51.3347 333.61 51.3347 333.61C49.5892 328.369 44.353 318.762 36.4986 316.142C33.0077 315.268 29.5169 315.268 26.026 317.888C23.4079 319.635 21.6625 322.255 21.6625 325.749Z" fill="white"/>
<path d="M96.7134 544.986C93.2225 536.252 83.6226 528.391 72.2773 524.898C64.4229 522.277 57.4412 522.277 53.0776 524.024C50.4595 524.897 48.7141 527.518 47.8413 530.138C46.9686 536.252 52.2049 543.239 56.5685 546.733C59.1866 549.353 65.2956 553.72 73.15 556.34C79.259 558.087 85.3681 558.087 89.7316 555.467C90.6044 555.467 91.4771 555.467 91.4771 555.467C91.4771 556.34 90.6044 557.214 91.4771 558.087C91.4771 558.96 92.3498 559.834 93.2225 559.834C94.0952 559.834 95.8407 559.834 95.8407 558.96C98.4588 554.593 98.4588 550.226 96.7134 544.986Z" fill="white"/>
<path d="M464.993 758.096C488.557 773.818 506.011 717.047 505.138 703.072C505.138 698.705 498.156 698.705 499.029 703.072C499.902 716.173 487.684 758.096 469.357 753.729C459.757 751.109 478.957 725.781 488.557 714.426C488.557 716.173 487.684 717.047 486.811 718.793C485.066 722.287 491.175 724.907 492.92 720.54C495.538 715.3 495.538 711.806 494.665 705.692C493.793 703.072 491.175 702.199 489.429 703.946C479.829 711.806 447.539 746.742 464.993 758.096Z" fill="white"/>
<path d="M341.947 56.7363C341.075 56.7363 341.075 56.7363 340.202 56.7363C321.002 60.2299 304.421 76.8246 295.694 90.7991C294.821 91.6725 294.821 92.5459 295.694 93.4193C295.694 94.2927 297.439 95.1661 298.312 95.1661C299.184 95.1661 299.184 95.1661 300.057 95.1661C300.93 96.0395 302.675 96.9129 303.548 96.0395L304.421 95.1661C305.293 95.1661 305.294 95.1661 305.294 94.2927C324.493 83.8119 336.711 72.4576 342.82 59.3565C342.82 58.4831 342.82 57.6097 342.82 57.6097C343.693 57.6097 342.82 56.7363 341.947 56.7363Z" fill="white"/>
<path d="M493.81 678.616C492.065 675.996 488.574 673.375 485.083 671.629C480.72 669.882 476.356 669.882 471.992 669.882C464.138 669.882 453.665 670.755 451.047 677.742C450.174 679.489 450.174 681.236 451.047 682.11C451.92 683.856 453.665 685.603 457.156 686.477C466.756 689.97 483.338 688.223 487.701 682.11C488.574 681.236 488.574 680.363 487.701 679.489C487.701 679.489 487.701 679.489 487.701 678.616C487.701 677.742 487.701 677.742 487.701 676.869C488.574 677.742 489.447 678.616 490.319 679.489C491.192 681.236 493.81 681.236 495.556 679.489C493.81 680.363 494.683 679.489 493.81 678.616Z" fill="white"/>
<path d="M686.666 191.249C692.775 194.743 684.92 198.236 681.429 198.236C677.066 199.11 672.702 199.11 667.466 198.236C661.357 197.363 649.139 196.49 643.903 190.376C649.139 189.502 654.375 188.629 658.739 188.629C668.339 187.755 678.811 186.882 686.666 191.249ZM637.793 193.869C638.666 193.869 638.666 192.996 639.539 192.996C647.393 205.224 695.393 213.958 694.52 193.869C693.648 174.654 643.03 184.262 633.43 190.376C630.812 192.123 634.302 195.616 637.793 193.869Z" fill="white"/>
<path d="M616.843 223.562C617.716 234.043 620.334 244.524 617.716 254.132C616.843 257.625 613.352 254.132 611.607 252.385C608.989 249.764 608.989 244.524 609.862 241.03C609.862 236.663 612.48 227.929 616.843 223.562ZM614.225 261.119C629.934 266.359 623.825 228.803 622.952 220.069C625.57 218.322 623.825 213.955 620.334 214.828C603.753 219.195 595.026 255.005 614.225 261.119Z" fill="white"/>
<path d="M616.853 324.882C631.69 328.376 643.908 310.907 650.017 299.553C656.998 286.452 663.107 266.364 652.635 254.136C650.017 250.642 644.78 255.009 647.398 258.503C660.489 273.351 639.544 317.021 620.344 317.895C604.635 318.768 619.471 294.313 622.962 289.072C628.199 281.212 636.926 270.731 646.526 267.237C650.889 265.49 647.398 259.376 643.035 261.123C628.199 267.237 585.436 317.021 616.853 324.882Z" fill="white"/>
<path d="M666.599 318.776C667.472 319.649 669.218 319.649 670.963 319.649C671.836 324.89 667.472 331.004 664.854 334.497C663.981 335.371 651.763 347.598 650.89 343.231C649.145 337.118 659.618 312.662 666.599 318.776ZM643.909 345.852C651.763 363.32 684.054 330.13 676.199 314.409C675.327 311.789 672.709 311.789 670.963 313.536C656.999 302.181 638.672 333.624 643.909 345.852Z" fill="white"/>
<path d="M668.338 224.447C679.683 250.649 713.719 248.903 735.537 237.548C736.41 236.675 737.282 234.928 736.41 234.055C725.937 213.966 695.392 223.574 677.938 221.827C674.447 221.827 675.32 226.194 677.938 227.067C692.774 227.941 719.828 220.953 730.301 234.055C711.974 242.789 682.301 244.535 672.702 222.7C671.829 220.08 666.593 221.827 668.338 224.447Z" fill="white"/>
<path d="M679.698 360.688C681.443 359.814 683.189 359.814 684.934 359.814C684.934 360.688 684.934 360.688 684.934 361.561C687.552 367.675 682.316 376.409 677.953 380.776C676.207 382.523 673.589 385.143 670.971 385.143C668.353 385.143 668.353 379.029 668.353 377.282C668.353 370.295 673.589 364.181 679.698 360.688ZM661.371 377.282C661.371 381.65 662.244 388.637 667.48 390.384C671.844 393.004 676.207 390.384 679.698 387.763C683.189 385.143 687.552 380.776 689.298 375.536C693.661 372.042 695.407 357.194 688.425 353.701C686.68 352.827 684.061 352.827 681.443 352.827C670.971 355.447 662.244 366.802 661.371 377.282Z" fill="white"/>
<path d="M685.797 407.852C685.797 408.726 686.669 408.726 687.542 408.726C692.778 420.953 682.306 444.535 673.579 450.649C636.925 473.358 670.088 388.637 685.797 407.852ZM652.634 453.269C653.506 454.143 656.124 457.636 656.997 458.51C665.724 465.497 682.306 453.269 688.415 440.168C693.651 428.814 698.015 408.726 686.669 399.992C684.924 399.118 684.051 399.992 683.179 400.865C677.942 399.992 671.833 404.359 668.342 409.599C654.379 422.7 646.525 445.409 652.634 453.269Z" fill="white"/>
<path d="M694.513 547.61C694.513 544.989 693.64 544.116 691.895 543.243C689.276 539.749 685.786 537.129 681.422 535.382C677.058 533.635 675.313 539.749 679.677 541.496C680.549 542.369 681.422 542.369 682.295 543.243C677.058 544.116 673.567 550.23 672.695 558.09C670.949 570.318 675.313 587.786 686.658 594.774C688.404 595.647 691.022 594.774 691.895 593.027C696.258 579.926 699.749 560.711 694.513 547.61Z" fill="white"/>
<path d="M612.48 538.865C621.207 529.258 634.298 525.764 646.516 525.764C645.643 526.638 645.643 528.384 647.388 530.131C647.388 531.005 646.516 531.878 646.516 533.625C645.643 536.245 647.388 537.992 650.007 537.992C645.643 547.599 620.334 559.827 615.098 560.7C598.516 562.447 606.371 544.979 612.48 538.865ZM609.862 565.941C622.952 566.814 665.715 543.232 654.37 526.638C654.37 524.891 655.243 523.144 655.243 521.397C655.243 519.65 653.497 517.904 651.752 517.904C632.552 517.03 615.098 523.144 602.88 538.865C595.898 548.473 594.153 565.067 609.862 565.941Z" fill="white"/>
<path d="M647.402 602.638C646.529 602.638 646.529 602.638 645.656 602.638C645.656 601.764 644.784 600.891 643.911 600.891C641.293 600.018 639.547 600.018 636.929 600.018C636.057 600.018 634.311 600.891 634.311 601.764C634.311 606.131 635.184 610.499 636.056 614.866C635.184 614.866 634.311 615.739 633.438 615.739C624.711 620.106 620.348 633.207 622.093 641.941C623.839 650.675 637.802 662.03 643.911 651.549C646.529 646.308 646.529 640.195 646.529 634.081C650.893 639.321 654.384 642.815 661.365 644.562C664.856 645.435 668.347 640.195 668.347 639.321C670.965 624.473 659.62 609.625 647.402 602.638Z" fill="white"/>
<path d="M570.595 681.225C566.232 694.326 558.377 721.402 568.85 733.63C569.723 735.376 571.468 736.25 573.214 737.123C584.559 740.617 594.159 712.668 594.159 712.668C598.522 700.44 606.377 669.871 595.032 655.023C595.032 654.149 594.159 654.149 594.159 654.149C593.286 654.149 591.541 654.149 590.668 655.023C589.795 655.896 589.795 657.643 590.668 658.516C597.65 667.251 592.414 712.668 581.941 726.642C579.323 731.009 576.705 731.883 573.214 730.136C566.232 726.642 571.468 703.06 573.214 695.2V693.453C574.086 689.959 581.068 667.251 584.559 664.63C584.559 664.63 584.559 664.63 585.432 664.63C587.177 666.377 588.923 665.504 589.795 663.757C590.668 662.883 590.668 661.137 588.923 660.263C588.05 659.39 587.177 658.516 586.304 658.516C584.559 657.643 583.686 658.516 581.941 658.516C575.832 662.01 572.341 676.858 570.595 681.225Z" fill="white"/>
<path d="M547.033 633.197C546.16 641.058 558.378 640.184 562.742 639.311C567.105 638.438 574.087 635.817 575.833 630.577C576.705 630.577 576.705 629.704 576.705 628.83C579.323 612.235 547.905 620.096 547.033 633.197Z" fill="white"/>
<path d="M636.053 165.052C638.671 160.685 643.907 157.191 648.271 154.571C655.252 150.204 663.979 147.584 672.707 146.71C665.725 160.685 648.271 174.659 632.562 174.659C632.562 172.039 634.307 167.672 636.053 165.052ZM629.071 180.773C632.562 186.887 641.289 182.52 645.653 179.9C646.525 179.026 646.525 178.153 646.525 177.28C660.489 172.039 672.707 158.938 677.943 145.837C678.816 144.09 677.07 143.217 676.197 143.217C661.361 142.343 643.034 150.204 633.435 161.558C629.071 165.925 626.453 174.659 629.071 180.773Z" fill="white"/>
<path d="M626.461 580.793C625.588 580.793 624.715 580.793 624.715 580.793C623.843 580.793 623.843 581.666 623.843 582.54C623.843 583.413 622.97 584.287 622.97 586.033C622.97 585.16 622.097 584.287 621.225 583.413C621.225 583.413 621.225 583.413 620.352 583.413C612.498 582.54 574.971 589.527 567.117 600.881C565.371 603.502 565.371 606.122 567.117 608.742C567.989 610.489 570.607 612.236 572.353 613.109C580.207 615.729 591.553 610.489 597.662 607.869H598.534C605.516 605.248 625.588 596.514 629.079 584.287C629.079 582.54 628.206 581.666 626.461 580.793Z" fill="white"/>
<defs>
<linearGradient id="paint0_linear" x1="400.278" y1="2.33691" x2="400.278" y2="798.883" gradientUnits="userSpaceOnUse">
<stop stop-color="#1AB8EC"/>
<stop offset="1" stop-color="#02489F"/>
</linearGradient>
</defs>
</svg>
