<svg width="789" height="706" viewBox="0 0 789 706" fill="none" xmlns="http://www.w3.org/2000/svg">
<g clip-path="url(#clip0)">
<g clip-path="url(#clip1)">
<path d="M-117.63 1450.92L-97.1963 621.911L-724.314 37.2519L-721.733 36.8289L19.3847 -86.5471L259.645 -841.656L261.175 -839.006L698.839 -89.1225L1474.47 28.8479L1472.83 30.9033L1002.2 617.71L1241.28 1445.74L510.214 1057.15L-117.63 1450.92ZM-94.4822 620.874L-94.5206 621.603L-114.834 1445.57L509.771 1053.85L510.437 1054.21L1237.04 1440.43L999.217 616.704L999.624 616.186L1469.03 30.8974L697.447 -86.4676L697.053 -87.1513L260.517 -835.093L21.5067 -83.8996L20.8575 -83.8004L-718.327 39.2297L-94.4822 620.874Z" fill="#02489F"/>
<path d="M-109.326 1432.74L-94.6057 619.311L-706.269 42.0042L-703.741 41.5625L21.0985 -85.0014L261.692 -822.735L263.174 -820.169L696.478 -87.7826L1456.84 33.5772L1455.25 35.5967L998.231 614.784L1227.56 1427.52L1225.07 1426.22L509.28 1051.78L-109.326 1432.74ZM-91.9287 618.296L-91.9458 619.012L-106.584 1427.53L508.864 1048.56L509.509 1048.89L1223.44 1422.35L995.288 613.798L995.692 613.275L1451.57 35.592L695.117 -85.1734L694.731 -85.8412L262.542 -816.321L23.1884 -82.3848L22.5423 -82.2804L-700.425 43.966L-91.9287 618.296Z" fill="#02489F"/>
<path d="M-101.027 1414.56L-100.992 1411.8L-92.0256 616.709L-688.225 46.7577L-685.772 46.3094L22.801 -83.4708L263.724 -803.825L694.145 -86.4521L1439.25 38.2929L1437.72 40.2683L994.257 611.867L1213.81 1409.34L1211.38 1408.08L508.374 1046.45L-101.027 1414.56ZM-89.3751 615.709L-89.3817 616.42L-98.337 1409.48L507.954 1043.25L508.593 1043.59L1209.81 1404.28L991.365 610.908L991.773 610.39L1434.09 40.2358L692.787 -83.8732L692.414 -84.5198L264.56 -797.58L24.8717 -80.8997L-682.527 48.6623L-89.3751 615.709Z" fill="#02489F"/>
<path d="M-92.7257 1396.37L-92.7137 1393.7L-89.4303 614.097L-670.183 51.5091L24.4814 -81.9299L265.756 -784.926L267.216 -782.532L691.808 -85.1286L1421.66 42.9963L1420.19 44.9351L990.281 608.943L1200.11 1391.11L1197.74 1389.91L507.454 1041.09L-92.7257 1396.37ZM-86.8254 613.116L-86.8213 613.82L-90.0928 1391.44L507.034 1037.94L507.669 1038.28L1196.18 1386.19L987.421 607.979L987.802 607.477L1416.61 44.9024L690.457 -82.5749L690.093 -83.2056L266.575 -778.834L26.5482 -79.3777L25.9175 -79.2468L-664.639 53.4036L-86.8254 613.116Z" fill="#02489F"/>
<path d="M-84.4258 1378.19L-84.4318 1375.59L-86.8353 611.512L-652.133 56.2767L-649.832 55.81L26.2107 -80.4108L267.79 -766.021L689.474 -83.8079L1404.08 47.7046L1402.66 49.5991L986.322 606.043L1186.38 1372.91L1184.07 1371.76L506.537 1035.75L-84.4258 1378.19ZM-84.2902 610.537L-81.8819 1373.37L506.105 1032.64L506.702 1032.94L1182.55 1368.11L983.49 605.077L983.855 604.584L1399.14 49.5769L688.114 -81.27L687.759 -81.8848L268.586 -760.078L28.2143 -77.9069L27.6185 -77.789L-646.73 58.0754L-84.2902 610.537Z" fill="#02489F"/>
<path d="M-76.0983 1360L-84.2548 608.893L-634.098 61.0106L-631.871 60.5374L27.9145 -78.8838L269.798 -747.095L687.084 -82.4471L1386.46 52.4302L982.341 603.107L1172.65 1354.69L1170.41 1353.6L505.627 1030.38L-76.0983 1360ZM-81.7195 607.938L-81.7156 608.593L-73.6291 1355.31L505.207 1027.33L505.789 1027.61L1168.93 1350.03L979.574 602.168L979.926 601.689L1381.66 54.2418L685.796 -79.9794L685.454 -80.573L270.62 -741.329L29.8861 -76.4108L29.3069 -76.2884L-628.828 62.7871L-81.7195 607.938Z" fill="#02489F"/>
<path d="M-67.8085 1341.85L-81.6701 606.29L-616.064 65.7622L29.6193 -77.3472L271.857 -728.208L684.767 -81.1114L1368.87 57.1666L978.379 600.199L1158.93 1336.5L1156.74 1335.46L504.668 1025.05L-67.8085 1341.85ZM-79.175 605.351L-79.1614 605.986L-65.3918 1337.24L504.293 1022.01L1155.29 1331.94L975.625 599.258L1364.18 58.9109L683.458 -78.6807L683.127 -79.2532L272.624 -722.574L31.5582 -74.919L31.001 -74.7952L-610.929 67.4756L-79.175 605.351Z" fill="#02489F"/>
<path d="M-59.5208 1323.64L-59.5904 1321.25L-79.0676 603.677L-598.007 70.5019L31.3252 -75.8241L273.889 -709.312L682.409 -79.8004L1351.26 61.863L1350.01 63.6345L974.373 597.273L1145.2 1318.29L1143.08 1317.31L503.771 1019.68L-59.5208 1323.64ZM-76.6108 602.781L-76.5959 603.394L-57.1456 1319.2L503.381 1016.7L503.931 1016.96L1141.66 1313.86L971.695 596.353L972.015 595.893L1346.71 63.5802L681.126 -77.385L680.82 -77.9151L274.654 -703.803L33.2707 -73.4209L32.7356 -73.2957L-593.018 72.1939L-76.6108 602.781Z" fill="#02489F"/>
<path d="M-51.217 1305.46L-51.2985 1303.15L-76.4939 601.082L-579.971 75.2614L-577.967 74.7687L33.0287 -74.2987L275.926 -690.411L680.082 -78.4779L1333.69 66.5677L970.431 594.342L1131.48 1300.09L502.851 1014.32L-51.217 1305.46ZM-74.0684 600.169L-48.913 1301.12L502.445 1011.41L1128.01 1295.79L967.762 593.437L968.064 592.995L1329.23 68.2489L678.798 -76.0899L678.46 -76.6016L276.654 -685.064L34.9171 -71.9332L34.3957 -71.8088L-575.111 76.9008L-74.0684 600.169Z" fill="#02489F"/>
<path d="M-42.9174 1287.28L-43.0221 1285.05L-73.9084 598.478L-561.939 80.008L-560.006 79.5141L34.7085 -72.7823L277.937 -671.524L677.686 -77.1454L1316.06 71.2922L1314.92 72.9837L966.455 591.42L1117.73 1281.9L1115.74 1281.01L501.927 1008.97L-42.9174 1287.28ZM-71.5178 597.578L-71.4915 598.15L-40.6871 1283.08L501.515 1006.13L1114.36 1277.72L963.834 590.538L1311.75 72.9181L676.475 -74.7782L676.137 -75.2899L278.655 -666.278L36.5899 -70.4411L36.0904 -70.3152L-557.203 81.6055L-71.5178 597.578Z" fill="#02489F"/>
<path d="M-34.63 1269.11L-71.3214 595.875L-543.903 84.7608L-542.063 84.2778L36.4323 -71.2402L279.984 -652.6L675.35 -75.7963L1298.47 76.0108L962.496 588.491L1104.04 1263.68L501.013 1003.62L-34.63 1269.11ZM-68.9657 594.989L-68.938 595.538L-32.4409 1264.99L500.636 1000.77L501.126 1000.99L1100.77 1259.6L959.885 587.638L960.158 587.219L1294.28 77.5884L674.137 -73.4921L673.816 -73.9637L280.658 -647.541L38.2641 -68.9481L-539.298 86.314L-68.9657 594.989Z" fill="#02489F"/>
<path d="M-26.3208 1250.92L-68.731 593.286L-525.863 89.5268L-524.071 89.022L38.1337 -69.7052L282.023 -633.706L283.262 -631.927L672.981 -74.4483L1280.84 80.7389L1279.82 82.341L958.482 585.595L1090.3 1245.49L500.094 998.277L-26.3208 1250.92ZM-66.4214 592.404L-66.387 592.929L-24.2039 1246.93L499.714 995.465L500.189 995.664L1087.13 1241.52L955.956 584.707L956.217 584.302L1276.79 82.2642L671.804 -72.1929L671.489 -72.64L282.671 -628.78L39.9124 -67.4319L39.4569 -67.3032L-521.417 91.0373L-66.4214 592.404Z" fill="#02489F"/>
<path d="M-18.0228 1232.74L-18.1832 1230.71L-66.1502 590.671L-507.828 94.2647L39.8399 -68.1824L284.049 -614.82L285.264 -613.119L670.662 -73.1316L1263.27 85.444L1262.29 87.0019L954.539 582.655L1076.58 1227.29L1074.74 1226.57L499.165 992.911L-18.0228 1232.74ZM-63.8693 589.814L-63.8336 590.316L-15.9678 1228.86L498.805 990.158L1073.5 1223.43L952.033 581.812L952.275 581.425L1259.32 86.9333L669.473 -70.8973L669.17 -71.3233L284.662 -610.015L41.613 -65.9553L41.1796 -65.8253L-503.48 95.7264L-63.8693 589.814Z" fill="#02489F"/>
<path d="M-9.72196 1214.56L-9.88791 1212.62L-63.5634 588.068L-489.802 99.0231L41.5437 -66.6505L286.09 -595.907L287.276 -594.281L668.302 -71.8117L1245.65 90.1493L950.534 579.744L1062.82 1209.09L1061.07 1208.4L498.243 987.557L-9.72196 1214.56ZM-61.3174 587.223L-61.2749 587.701L-7.72846 1210.8L497.891 984.855L498.329 985.027L1059.87 1205.36L948.102 578.908L1241.83 91.6061L667.141 -69.601L666.846 -70.0029L286.701 -591.264L43.2871 -64.4628L42.881 -64.3343L-485.57 100.431L-61.3174 587.223Z" fill="#02489F"/>
<path d="M-1.42641 1196.39L-60.9769 585.465L-471.756 103.77L-470.178 103.248L43.2471 -65.1177L288.121 -577.009L289.277 -575.458L665.96 -70.459L1228.08 94.8752L1227.22 96.3468L946.576 576.829L1049.11 1190.9L497.306 982.218L-1.42641 1196.39ZM-58.7657 584.634L-58.7219 585.089L0.510654 1192.73L496.972 979.535L497.387 979.691L1046.23 1187.25L944.169 575.999L944.377 575.639L1224.32 96.2953L664.789 -68.2779L664.503 -68.6639L288.715 -572.505L44.9638 -62.964L44.5766 -62.8394L-467.658 105.143L-58.7657 584.634Z" fill="#02489F"/>
<path d="M6.87711 1178.21L-58.3877 582.864L-453.736 108.528L44.9556 -63.5925L290.16 -558.114L663.589 -69.1366L1210.46 99.5801L942.625 573.898L1035.41 1172.69L1033.78 1172.1L496.408 976.854L6.87711 1178.21ZM-56.2326 582.058L-56.1874 582.491L8.72793 1174.68L496.033 974.236L496.434 974.379L1032.58 1169.18L940.239 573.092L940.434 572.746L1206.88 100.952L662.458 -66.9853L290.733 -553.745L46.6137 -61.4545L46.2486 -61.3285L-449.775 109.859L-56.2326 582.058Z" fill="#02489F"/>
<path d="M15.1754 1160.04L-55.8033 580.26L-435.662 113.277L46.6841 -62.0276L292.216 -539.184L293.315 -537.783L661.274 -67.8099L1192.91 104.283L938.653 570.972L1021.7 1154.51L1020.14 1153.99L495.482 971.498L15.1754 1160.04ZM-53.6618 579.454L-53.6151 579.866L16.9676 1156.62L495.143 968.916L495.516 969.048L1018.96 1151.08L936.306 570.186L936.484 569.857L1189.39 105.617L660.157 -65.6951L659.893 -66.0302L292.752 -534.977L48.3153 -59.973L47.9744 -59.8539L-431.838 114.553L-53.6618 579.454Z" fill="#02489F"/>
<path d="M23.4747 1141.86L-53.2067 577.668L-417.645 118.015L-416.281 117.489L48.3617 -60.5342L294.219 -520.317L295.289 -518.991L658.916 -66.467L1175.3 109.014L1174.6 110.358L934.685 568.058L1007.96 1136.29L1006.46 1135.8L494.566 966.15L23.4747 1141.86ZM-51.1062 576.865L-51.0582 577.254L25.234 1138.53L494.251 963.597L494.606 963.71L1005.35 1132.98L932.377 567.277L932.541 566.963L1171.91 110.291L657.834 -64.4146L657.585 -64.7232L294.771 -516.204L50.0194 -58.4949L49.6952 -58.3713L-413.9 119.252L-51.1062 576.865Z" fill="#02489F"/>
<path d="M31.7693 1123.69L31.5554 1122.09L-50.624 575.06L-399.612 122.763L50.0522 -59.023L296.243 -501.443L656.552 -65.152L1157.69 113.713L1157.03 115.014L930.691 565.119L994.244 1118.07L992.802 1117.62L493.648 960.793L31.7693 1123.69ZM-48.5555 574.275L-48.5035 574.634L33.4723 1120.47L493.317 958.298L493.643 958.399L991.693 1114.9L928.437 564.371L1154.43 114.965L655.507 -63.121L655.27 -63.4084L296.797 -497.474L51.7014 -57.0353L51.4045 -56.9134L-395.979 123.93L-48.5555 574.275Z" fill="#02489F"/>
<path d="M40.0639 1105.51L39.814 1104L-48.0413 572.45L-381.586 127.512L-380.357 126.986L51.761 -57.4816L298.279 -482.537L654.211 -63.8097L1140.11 118.43L926.743 562.209L980.524 1099.9L979.142 1099.49L492.732 955.439L40.0639 1105.51ZM-45.9834 571.672L-45.9302 572.008L41.7339 1102.38L492.421 952.969L492.729 953.06L978.055 1096.81L924.506 561.466L924.64 561.184L1136.94 119.639L653.153 -61.8135L652.929 -62.0797L298.789 -478.704L53.3472 -55.4929L53.0692 -55.3748L-378.097 128.685L-45.9834 571.672Z" fill="#02489F"/>
<path d="M48.3574 1087.34L48.0979 1085.9L-45.4567 569.846L-363.555 132.258L-362.394 131.736L53.463 -55.9507L300.309 -463.641L651.859 -62.4749L1122.53 123.17L1121.97 124.382L922.77 559.293L966.823 1081.69L965.505 1081.33L491.802 950.087L48.3574 1087.34ZM-43.4545 569.093L-43.4031 569.402L49.952 1084.32L491.481 947.672L491.765 947.748L964.417 1078.75L920.571 558.555L920.695 558.293L1119.45 124.311L650.823 -60.513L650.614 -60.7528L300.782 -459.921L55.0193 -54.0013L-360.174 133.415L-43.4545 569.093Z" fill="#02489F"/>
<path d="M56.6556 1069.16L-42.8831 567.254L-345.53 137.013L-344.421 136.487L55.1908 -54.4285L302.375 -444.76L303.315 -443.719L649.543 -61.1551L1104.95 127.846L1104.45 129.014L918.803 556.371L953.082 1063.51L951.82 1063.19L490.885 944.741L56.6556 1069.16ZM-40.9062 566.495L-40.8532 566.782L58.2084 1066.27L490.584 942.385L490.843 942.454L950.787 1060.64L916.641 555.648L916.747 555.403L1101.94 128.999L648.495 -59.2144L648.301 -59.4277L302.824 -441.168L56.6992 -52.5009L56.482 -52.3755L-342.251 138.117L-40.9062 566.495Z" fill="#02489F"/>
<path d="M64.9536 1050.99L64.673 1049.7L-40.2864 564.643L-327.48 141.776L-326.459 141.257L56.8818 -52.8707L304.382 -425.858L305.29 -424.884L647.167 -59.8146L1087.34 132.571L914.833 553.445L939.369 1045.32L938.173 1045.03L489.962 939.384L64.9536 1050.99ZM-38.3518 563.908L-38.3004 564.168L66.44 1048.18L489.651 937.048L489.89 937.108L937.126 1042.53L912.706 552.758L912.797 552.536L1084.48 133.655L646.145 -57.9028L645.963 -58.0948L304.849 -422.382L58.3848 -50.9894L58.1888 -50.8762L-324.33 142.841L-38.3518 563.908Z" fill="#02489F"/>
<path d="M73.264 1032.84L72.9646 1031.6L-37.7003 562.039L-309.459 146.515L-308.498 146.003L58.5789 -51.35L306.41 -406.953L644.819 -58.4604L1069.76 137.301L1069.34 138.373L910.861 550.529L925.651 1027.12L924.512 1026.88L489.047 934.032L73.264 1032.84ZM-35.7874 561.352L-35.7355 561.576L74.6808 1030.11L488.738 931.736L488.949 931.784L923.496 1024.43L908.773 549.826L1067 138.341L643.828 -56.6163L643.668 -56.7849L306.842 -403.648L60.0542 -49.5164L59.8741 -49.4124L-306.424 147.491L-35.7874 561.352Z" fill="#02489F"/>
<path d="M81.5357 1014.64L-35.1136 559.438L-291.432 151.254L60.2787 -49.8344L308.44 -388.081L309.285 -387.24L642.467 -57.1492L1052.16 141.997L906.891 547.608L911.933 1008.93L910.86 1008.73L488.124 928.68L81.5357 1014.64ZM-33.2488 558.729L82.9221 1012.04L487.823 926.423L488.009 926.464L909.868 1006.36L904.835 546.922L904.901 546.743L1049.5 143.003L641.485 -55.3386L308.869 -384.866L61.7206 -48.0097L61.567 -47.921L-288.52 152.237L-33.2488 558.729Z" fill="#02489F"/>
<path d="M89.8379 996.48L89.5348 995.404L-32.5317 556.839L-273.41 155.994L-272.573 155.511L61.9798 -48.3075L310.489 -369.165L640.137 -55.7896L1034.59 146.736L1034.27 147.715L902.925 544.69L898.219 990.746L487.204 923.332L89.8379 996.48ZM-30.6933 556.145L-30.6447 556.315L91.1693 993.966L486.906 921.115L487.07 921.141L896.216 988.242L900.902 544.013L900.956 543.862L1032.01 147.683L639.169 -54.0155L639.036 -54.1364L310.885 -366.094L63.3995 -46.5336L63.2671 -46.4571L-270.609 156.907L-30.6933 556.145Z" fill="#02489F"/>
<path d="M98.1304 978.313L-29.9247 554.223L-255.368 160.721L-254.609 160.226L63.6765 -46.7864L312.498 -350.305L313.278 -349.604L637.772 -54.4889L1016.99 151.421L1016.71 152.348L898.963 541.768L884.506 972.549L883.543 972.399L486.284 917.983L98.1304 978.313ZM-252.655 161.677L-28.1239 553.586L99.4068 975.887L485.99 915.799L486.123 915.821L882.574 970.145L896.984 541.094L897.023 540.966L1014.53 152.355L636.835 -52.7111L636.727 -52.8116L312.9 -347.322L65.0848 -45.02L64.9789 -44.9589L-252.655 161.677Z" fill="#02489F"/>
<path d="M106.425 960.148L106.117 959.209L-27.363 551.635L-237.372 165.476L65.3788 -45.2597L314.531 -331.422L635.42 -53.1582L999.395 156.104L999.158 156.99L894.984 538.851L870.788 954.366L869.9 954.271L485.366 912.634L106.425 960.148ZM-234.755 166.339L-25.5959 550.94L-25.5408 551.036L107.655 957.812L485.067 910.489L485.174 910.504L868.922 952.051L893.032 538.197L893.064 538.094L997.028 157.032L634.505 -51.4147L634.413 -51.4887L314.917 -328.55L66.7657 -43.5304L66.6756 -43.4784L-234.755 166.339Z" fill="#02489F"/>
<path d="M114.717 941.985L114.409 941.109L-24.7728 549.033L-219.347 170.216L-218.709 169.742L67.0737 -43.7484L316.559 -312.535L317.265 -311.96L633.072 -51.8218L981.824 160.837L891.026 535.93L857.082 936.175L856.253 936.11L484.449 907.286L114.717 941.985ZM-216.818 171.074L-23.0071 548.359L-22.9673 548.428L115.905 939.737L484.18 905.144L484.258 905.156L855.307 933.921L889.102 535.288L889.122 535.213L979.554 161.702L632.175 -50.1095L632.109 -50.1631L316.939 -309.772L68.4492 -42.0267L68.3856 -41.99L-216.818 171.074Z" fill="#02489F"/>
<path d="M123.009 923.819L122.703 923.02L-22.2115 546.387L-201.325 174.984L68.8168 -42.232L318.597 -293.662L630.771 -50.4722L964.247 165.544L964.092 166.34L887.057 533.069L843.373 917.999L842.636 917.971L483.571 901.962L123.009 923.819ZM-198.892 175.784L-20.4944 545.728L124.148 921.656L483.244 899.854L483.281 899.833L841.632 915.816L885.144 532.399L962.032 166.37L629.883 -48.7796L318.958 -290.995L70.1564 -40.5602L-198.892 175.784Z" fill="#02489F"/>
<path d="M131.307 905.655L131.002 904.92L-19.6046 543.827L-183.281 179.708L70.4921 -40.6928L320.625 -274.787L321.251 -274.328L628.397 -49.1678L946.666 170.25L946.537 170.981L883.089 530.107L829.656 899.803L482.61 896.585L131.307 905.655ZM-180.961 180.496L-17.9336 543.173L132.387 903.576L482.347 894.539L828 897.742L881.226 529.486L944.549 171.062L627.525 -47.498L320.977 -272.22L71.8406 -39.0544L-180.961 180.496Z" fill="#02489F"/>
<path d="M139.592 887.492L-17.0217 541.246L-165.286 184.455L-164.83 184.022L72.164 -39.1509L322.654 -255.904L323.225 -255.527L626.008 -47.882L929.082 174.959L928.986 175.636L879.126 527.15L815.957 881.634L815.311 881.653L481.672 891.246L139.592 887.492ZM-163.037 185.206L-15.3551 540.609L140.666 885.473L481.413 889.219L814.351 879.635L877.286 526.544L927.046 175.738L625.164 -46.2002L322.989 -253.44L73.4707 -37.5238L-163.037 185.206Z" fill="#02489F"/>
<path d="M147.879 869.34L-14.4707 538.582L-147.263 189.21L-146.862 188.803L73.8784 -37.6362L73.9208 -37.6607L324.698 -237.032L623.746 -46.4884L911.517 179.661L911.453 180.285L875.164 524.253L875.151 524.303L802.237 863.438L801.656 863.484L480.778 885.906L480.741 885.928L147.879 869.34ZM-12.8009 537.999L148.889 867.407L480.504 883.902L800.711 861.528L873.344 523.657L909.545 180.418L622.836 -44.8959L325.011 -234.655L75.1675 -36.0272L-145.106 189.923L-12.8009 537.999Z" fill="#02489F"/>
<path d="M156.168 851.18L155.862 850.65L-11.8742 536.033L-11.9202 535.953L-129.269 193.962L-128.923 193.572L75.5429 -36.1348L75.617 -36.1776L326.687 -218.171L327.187 -217.88L621.349 -45.2074L621.392 -45.1332L893.928 184.371L893.892 184.943L871.196 521.332L871.173 521.415L788.532 845.256L788.01 845.317L479.864 880.543L479.781 880.534L156.168 851.18ZM-10.2456 535.403L157.157 849.344L479.578 878.581L787.03 843.437L869.4 520.743L892.051 185.094L620.501 -43.5939L327.026 -215.872L76.8511 -34.5297L-127.17 194.637L-10.2456 535.403Z" fill="#02489F"/>
<path d="M-9.29671 533.438L-9.36403 533.321L-111.239 198.693L-110.946 198.332L77.2466 -34.5789L77.3473 -34.6371L328.723 -199.267L329.174 -199.025L618.979 -43.8574L619.08 -43.7675L876.359 189.075L867.202 518.538L774.815 827.087L774.356 827.161L478.911 875.223L478.79 875.208L164.455 833.027L164.183 832.555L-9.29671 533.438ZM-109.239 199.354L-7.67649 532.806L165.398 831.246L478.662 873.261L773.403 825.315L865.461 517.833L874.54 189.779L618.164 -42.2843L329.044 -197.084L78.5325 -33.0246L-109.239 199.354Z" fill="#02489F"/>
<path d="M-6.70169 530.824L-6.79042 530.67L-93.2303 203.434L-92.9845 203.101L78.9633 -33.0744L79.0958 -33.1509L330.769 -180.419L331.173 -180.221L616.642 -42.5712L616.77 -42.4472L858.786 193.787L863.281 515.502L863.227 515.653L761.126 808.906L760.723 808.991L478.02 869.873L477.862 869.844L172.763 814.861L172.524 814.447L-6.70169 530.824ZM-91.3007 204.072L-5.12389 530.217L173.644 813.144L477.756 867.948L759.752 807.212L861.528 514.924L857.049 194.472L615.867 -40.9785L331.085 -178.319L80.2453 -31.539L-91.3007 204.072Z" fill="#02489F"/>
<path d="M-4.14575 528.239L-4.19143 528.025L-75.2214 208.174L-75.0233 207.868L80.6589 -31.5587L80.8231 -31.6535L332.785 -161.576L333.142 -161.422L614.299 -41.2607L841.207 198.46L841.225 198.859L859.335 512.579L859.264 512.762L747.442 790.744L747.102 790.842L477.102 864.538L476.899 864.492L181.029 796.718L180.794 796.373L-4.14575 528.239ZM-73.3564 208.786L-2.55505 527.617L181.88 795.061L476.829 862.61L746.108 789.119L857.587 511.998L839.537 199.141L613.496 -39.6664L333.07 -159.529L81.8869 -30.0557L-73.3564 208.786Z" fill="#02489F"/>
<path d="M-1.57368 525.643L-1.61965 525.38L-57.2178 212.916L82.3462 -30.0463L82.5475 -30.1625L334.812 -142.677L335.117 -142.564L611.94 -39.9064L612.119 -39.706L823.652 203.188L823.689 203.534L855.373 509.665L855.273 509.884L733.723 772.559L476.184 859.201L475.947 859.133L189.314 778.57L189.094 778.287L-1.57368 525.643ZM-55.4173 213.502L0.0116657 525.025L190.148 776.958L475.915 857.279L732.45 770.99L853.622 509.092L822.026 203.823L611.177 -38.3638L335.105 -140.713L83.5851 -28.5001L-55.4173 213.502Z" fill="#02489F"/>
<path d="M0.991449 523.046L-39.2186 217.647L-39.0982 217.415L84.0352 -28.5336L84.2897 -28.6311L336.849 -123.826L337.114 -123.745L609.623 -38.6038L806.084 207.89L806.128 208.175L851.42 506.752L851.287 506.999L720.047 754.37L719.814 754.469L475.265 853.873L474.983 853.774L197.6 760.423L197.41 760.193L0.991449 523.046ZM-37.4766 218.218L2.57985 522.433L198.413 758.858L475.007 851.944L718.791 752.855L849.665 506.183L804.512 208.507L608.813 -37.0338L337.123 -121.92L85.2846 -26.9936L-37.4766 218.218Z" fill="#02489F"/>
<path d="M3.55768 520.456L3.52792 520.098L-21.2122 222.397L-21.1281 222.2L85.7296 -27.0301L86.0365 -27.1224L338.894 -104.942L339.103 -104.886L607.287 -37.2896L607.503 -36.9899L788.521 212.596L847.471 503.839L847.298 504.116L706.327 736.223L706.152 736.324L474.359 848.56L205.879 742.28L205.72 742.103L3.55768 520.456ZM-19.5296 222.938L5.15058 519.826L206.656 740.764L474.075 846.611L705.12 734.743L845.715 503.27L787.011 213.185L606.486 -35.7173L339.143 -103.114L86.9799 -25.4763L-19.5296 222.938Z" fill="#02489F"/>
<path d="M6.12536 517.863L6.1144 517.452L-3.21884 227.131L-3.15964 226.976L87.4204 -25.5271L340.91 -86.1147L341.068 -86.0857L604.951 -35.9845L605.162 -35.6187L770.958 217.293L771.002 217.466L843.534 500.917L843.322 501.223L692.611 718.063L692.479 718.14L473.401 843.211L473.034 843.041L214.164 724.132L214.036 724.008L6.12536 517.863ZM-1.60453 227.676L7.72885 517.227L214.929 722.68L473.155 841.268L691.47 716.637L841.754 500.355L769.486 217.875L604.15 -34.3628L341.151 -84.3388L88.6767 -23.9628L-1.60453 227.676Z" fill="#02489F"/>
<path d="M8.68283 515.269L8.69591 514.802L14.7779 231.863L14.8101 231.76L89.0902 -24.018L89.5027 -24.0865L342.951 -67.2375L343.059 -67.222L602.63 -34.6588L602.875 -34.2348L753.417 222.021L753.475 222.122L839.622 498.031L839.359 498.359L678.939 699.887L678.849 699.939L472.51 837.888L472.106 837.676L222.438 705.991L222.351 705.914L8.68283 515.269ZM16.38 232.387L10.3106 514.626L223.176 704.554L472.233 835.927L677.784 698.497L837.803 497.449L751.943 222.576L601.765 -33.0498L343.161 -65.4927L90.3747 -22.4416L16.38 232.387Z" fill="#02489F"/>
<path d="M11.2402 512.68L11.2803 512.162L32.7693 236.603L32.7849 236.544L90.7674 -22.5164L91.2414 -22.5639L344.977 -48.383L345.035 -48.3809L600.296 -33.3503L600.569 -32.8786L735.886 226.712L735.916 226.765L835.696 495.114L835.378 495.467L665.269 681.719L665.222 681.747L471.605 832.591L471.158 832.319L230.719 687.857L230.692 687.809L11.2402 512.68ZM34.3288 237.102L12.8891 512.025L231.435 686.454L471.32 830.593L664.145 680.397L833.822 494.521L734.447 227.253L599.459 -31.743L345.223 -46.7088L92.0808 -20.9143L34.3288 237.102Z" fill="#02489F"/>
<path d="M13.7835 510.091L13.8643 509.521L50.776 241.333L92.4349 -21.0306L92.9767 -21.0466L346.973 -29.5678L597.949 -32.0905L718.282 231.388L831.711 492.202L831.327 492.565L651.549 663.574L470.689 827.278L470.195 826.949L239.003 669.728L13.7835 510.091ZM93.7865 -19.387L52.2914 241.829L15.4778 509.417L239.699 668.351L470.384 825.221L650.478 662.221L829.843 491.599L716.915 231.93L597.088 -30.3995L347.222 -27.8884L93.7865 -19.387Z" fill="#02489F"/>
<path d="M16.3253 507.505L16.4575 506.878L68.7517 246.027L94.1224 -19.554L94.7349 -19.5331L349.043 -10.7293L595.608 -30.8253L595.861 -30.1797L700.749 236.103L827.784 489.253L827.303 489.643L637.798 645.42L469.779 821.979L469.25 821.578L247.234 651.561L16.3253 507.505ZM95.4939 -17.8513L70.2496 246.505L18.0705 506.809L247.92 650.204L469.475 819.851L636.769 644.114L825.861 488.674L699.431 236.659L594.752 -29.0661L349.29 -9.07721L95.4939 -17.8513Z" fill="#02489F"/>
<path d="M18.8624 504.925L19.0459 504.24L86.7373 250.789L95.7672 -18.0646L96.4543 -17.9878L351.028 8.11076L593.298 -29.5188L683.199 240.781L823.896 486.396L823.352 486.774L624.195 627.276L468.866 816.691L255.543 633.458L18.8624 504.925ZM97.2195 -16.2954L88.2223 251.281L88.1946 251.368L20.6803 504.208L256.225 632.118L468.56 814.472L623.113 625.965L623.171 625.931L821.869 485.772L681.857 241.343L681.808 241.259L592.356 -27.6749L351.222 9.7798L351.139 9.77103L97.2195 -16.2954Z" fill="#02489F"/>
<path d="M21.3828 502.392L21.6525 501.636L104.705 255.535L97.4276 -16.5817L353.054 26.951L591.001 -28.2598L591.226 -27.4289L665.686 245.475L820.01 483.484L819.375 483.851L610.526 609.108L467.957 811.41L467.349 810.822L263.818 615.334L21.3828 502.392ZM98.9386 -14.7475L106.171 255.982L106.124 256.108L23.2829 501.585L264.489 614L467.606 809.09L609.443 607.832L817.87 482.811L664.329 246.011L664.29 245.871L590.022 -26.3452L353.313 28.5613L353.18 28.5391L98.9386 -14.7475Z" fill="#02489F"/>
<path d="M23.9105 499.772L24.2407 498.974L122.679 260.265L99.0742 -15.1242L99.91 -14.9L355.081 45.7788L588.665 -26.9834L648.117 250.168L816.086 480.59L815.352 480.957L596.825 590.968L467.055 806.142L272.089 597.215L23.9105 499.772ZM100.692 -13.2031L124.138 260.737L124.066 260.906L25.904 498.968L272.754 595.884L272.889 596.033L466.686 803.705L595.761 589.689L595.915 589.6L813.862 479.881L646.789 250.695L646.747 250.5L587.654 -24.979L355.327 47.4036L355.146 47.3596L100.692 -13.2031Z" fill="#02489F"/>
<path d="M26.4152 497.203L140.649 264.993L100.709 -13.6716L101.658 -13.3857L357.102 64.6121L586.352 -25.7253L586.518 -24.6907L630.574 254.863L812.204 477.7L583.168 572.811L466.145 800.887L465.459 800.067L280.353 579.088L26.4152 497.203ZM102.406 -11.6127L142.124 265.456L142.021 265.656L28.5344 496.347L281.032 577.756L281.191 577.946L465.764 798.294L582.076 571.555L582.261 571.448L809.823 476.94L629.25 255.408L629.211 255.169L585.282 -23.6023L357.347 66.2232L357.123 66.1543L102.406 -11.6127Z" fill="#02489F"/>
<path d="M28.9116 494.635L29.4453 493.712L158.64 269.712L102.343 -12.2646L359.133 83.4075L584.045 -24.5376L613.041 259.555L808.339 474.805L807.361 475.13L569.469 554.683L465.24 795.646L464.501 794.66L288.599 560.946L28.9116 494.635ZM104.139 -10.0225L160.078 270.196L159.946 270.421L31.1989 493.703L289.29 559.636L289.472 559.877L464.839 792.896L568.402 553.398L568.652 553.317L805.811 474.011L611.717 260.086L611.683 259.809L582.902 -22.2102L359.369 85.052L359.109 84.9552L104.139 -10.0225Z" fill="#02489F"/>
<path d="M31.383 492.08L176.595 274.45L103.951 -10.8087L361.148 102.268L581.753 -23.2541L581.802 -21.9465L595.505 264.248L804.492 471.927L803.366 472.216L555.79 536.549L464.334 790.434L296.898 542.843L31.383 492.08ZM105.925 -8.42915L178.078 274.915L177.907 275.17L33.8445 491.083L297.551 541.527L463.893 787.431L554.725 535.255L555.014 535.18L801.751 471.071L594.169 264.785L580.517 -20.7949L361.391 103.887L105.925 -8.42915Z" fill="#02489F"/>
<path d="M33.8461 489.542L34.6516 488.49L194.559 279.174L105.549 -9.41318L363.168 121.08L579.476 -22.0736L577.97 268.937L800.661 469.058L799.385 469.293L542.118 518.408L463.447 785.237L305.155 524.734L33.8461 489.542ZM107.707 -6.80062L196.062 279.649L195.851 279.919L36.5317 488.444L305.834 523.389L306.029 523.728L462.943 781.966L541.004 517.115L541.34 517.048L797.648 468.133L576.617 269.457L576.619 269.081L578.102 -19.4005L363.399 122.692L363.065 122.518L107.707 -6.80062Z" fill="#02489F"/>
<path d="M41.2558 486.798L198.913 280.534L111.663 -2.49741L112.929 -1.8576L364.3 125.522L576.455 -14.8307L574.939 270.56L793.313 466.849L539.743 515.208L462.544 776.868L461.768 775.585L307.342 521.373L41.2558 486.798ZM113.78 0.0682209L200.394 280.993L200.188 281.261L43.9075 485.727L308.008 520.042L308.203 520.381L462.049 773.649L538.681 513.92L539.006 513.859L790.345 465.941L573.615 271.092L573.62 270.722L575.125 -12.1684L364.54 127.137L364.212 126.972L113.78 0.0682209Z" fill="#02489F"/>
<path d="M48.6758 484.067L49.4504 483.048L203.257 281.883L117.767 4.42156L365.43 129.978L573.443 -7.56649L571.902 272.178L785.956 464.643L537.36 512.002L461.641 768.505L309.527 518.004L48.6758 484.067ZM119.851 6.94257L204.685 282.337L204.484 282.602L51.279 483.01L310.18 516.701L461.162 765.326L536.314 510.741L536.639 510.68L783.059 463.736L570.604 272.708L570.604 272.341L572.116 -4.97031L365.662 131.554L365.339 131.387L119.851 6.94257Z" fill="#02489F"/>
<path d="M56.0913 481.334L56.8615 480.332L207.617 283.253L123.876 11.3405L125.103 11.9608L366.548 134.407L570.409 -0.344712L568.871 273.802L778.606 462.442L534.979 508.805L460.742 760.142L311.703 514.65L56.0913 481.334ZM125.925 13.8252L209.037 283.706L208.838 283.961L58.6575 480.298L312.365 513.349L312.555 513.678L460.268 757.009L533.956 507.559L534.276 507.501L775.751 461.546L567.587 274.317L567.587 273.963L569.12 2.23004L366.785 135.967L366.465 135.805L125.925 13.8252Z" fill="#02489F"/>
<path d="M63.5123 478.602L64.2915 477.615L211.965 284.606L129.983 18.2493L367.674 138.842L567.383 6.9049L567.372 8.26815L565.837 275.423L771.258 460.25L770.047 460.476L532.598 505.598L459.833 751.766L459.09 750.541L313.889 511.279L63.5123 478.602ZM132.003 20.6947L213.37 285.045L213.174 285.306L66.0329 477.585L314.533 510.01L459.392 748.678L531.59 504.378L531.906 504.315L768.444 459.352L564.577 275.932L566.11 9.43479L367.893 140.384L367.582 140.224L132.003 20.6947Z" fill="#02489F"/>
<path d="M70.9407 475.897L216.313 285.962L136.089 25.1704L368.796 143.284L564.358 14.1227L562.801 277.043L763.893 458.03L762.704 458.258L530.22 502.4L458.928 743.4L316.075 507.912L70.9407 475.897ZM138.091 27.5976L217.708 286.421L217.515 286.674L73.4059 474.87L316.707 506.671L316.888 506.983L458.469 740.378L529.221 501.196L529.535 501.141L761.139 457.175L561.56 277.548L561.563 277.199L563.108 16.6321L369.024 144.792L368.716 144.638L138.091 27.5976Z" fill="#02489F"/>
<path d="M78.344 473.143L79.0734 472.192L220.67 287.327L142.203 32.0863L143.371 32.6772L369.929 147.726L561.349 21.3869L559.765 278.669L756.54 455.824L527.836 499.198L458.015 735.038L457.297 733.855L318.267 504.549L78.344 473.143ZM144.154 34.4508L222.025 287.753L221.837 288.003L80.7844 472.158L318.881 503.325L319.074 503.659L457.587 732.083L526.863 498.014L527.169 497.957L753.814 454.981L558.581 279.162L558.582 278.822L560.133 23.8559L370.165 149.237L369.86 149.088L144.154 34.4508Z" fill="#02489F"/>
<path d="M85.7656 470.414L86.4822 469.477L225.041 288.698L148.312 39.0122L149.46 39.5933L371.054 152.173L558.334 28.6338L558.327 29.931L556.741 280.31L749.196 453.641L525.458 495.999L457.126 726.662L320.448 501.184L85.7656 470.414ZM150.233 41.3236L226.357 289.105L226.171 289.346L88.1606 469.448L321.056 499.985L321.233 500.293L456.687 723.749L524.497 494.837L524.798 494.783L746.519 452.784L555.533 280.774L557.119 31.0314L371.273 153.629L370.973 153.477L150.233 41.3236Z" fill="#02489F"/>
<path d="M93.1688 467.688L93.8755 466.771L229.357 290.058L154.421 45.9238L372.178 156.606L555.334 35.8572L555.326 37.1272L553.697 281.913L741.832 451.42L523.077 492.795L456.206 718.303L322.617 497.834L93.1688 467.688ZM156.294 48.2135L230.683 290.459L230.498 290.7L95.5129 466.744L323.206 496.653L323.372 496.939L455.758 715.424L522.137 491.656L522.43 491.6L739.214 450.593L552.522 282.386L552.524 282.06L554.121 38.2328L372.394 158.043L372.097 157.896L156.294 48.2135Z" fill="#02489F"/>
<path d="M100.597 464.951L233.723 291.4L160.525 52.8339L161.633 53.3954L373.304 161.047L552.269 43.1212L552.278 44.3599L550.665 283.533L734.462 449.22L733.348 449.432L520.701 489.591L455.318 709.922L324.82 494.452L100.597 464.951ZM162.379 55.0781L235.011 291.808L234.828 292.041L102.911 464.017L325.403 493.296L454.899 707.104L519.789 488.464L731.878 448.415L549.509 284.002L549.511 283.676L551.109 45.4305L373.507 162.463L373.219 162.319L162.379 55.0781Z" fill="#02489F"/>
<path d="M108.016 462.215L238.075 292.76L166.637 59.7503L374.427 165.487L549.268 50.3524L549.268 51.5752L547.633 285.157L727.126 447.011L726.028 447.214L518.32 486.386L454.414 701.554L327.005 491.092L108.016 462.215ZM168.456 61.9582L239.338 293.162L239.16 293.392L110.288 461.306L327.575 489.95L327.744 490.242L453.998 698.791L517.398 485.265L517.68 485.216L724.591 446.206L546.493 285.617L548.117 52.6283L374.628 166.876L374.348 166.734L168.456 61.9582Z" fill="#02489F"/>
<path d="M115.431 459.487L116.102 458.619L242.425 294.12L172.742 66.6692L375.556 169.929L546.243 57.5954L546.234 58.8023L544.606 286.768L719.768 444.805L718.698 445.006L515.936 483.189L453.501 693.175L329.176 487.71L115.431 459.487ZM174.538 68.8263L243.674 294.508L243.498 294.73L117.66 458.589L329.748 486.609L453.1 690.474L515.038 482.111L515.314 482.064L717.305 444.05L543.464 287.237L543.467 286.924L545.101 59.8378L375.756 171.291L375.484 171.151L174.538 68.8263Z" fill="#02489F"/>
<path d="M122.849 456.762L123.504 455.903L246.778 295.482L178.854 73.588L376.679 174.372L543.226 64.8384L543.204 66.024L541.558 288.404L712.429 442.628L513.559 479.992L452.607 684.825L331.376 484.365L122.849 456.762ZM180.608 75.7203L247.996 295.867L247.826 296.086L125.037 455.88L331.924 483.271L332.083 483.547L452.205 682.16L512.684 478.929L512.957 478.876L709.98 441.837L540.457 288.834L540.463 288.527L542.11 67.0162L376.871 175.696L376.599 175.556L180.608 75.7203Z" fill="#02489F"/>
<path d="M130.27 454.026L251.132 296.842L184.963 80.5068L377.808 178.809L540.217 72.1025L538.53 290.032L705.061 440.396L511.181 476.786L451.725 676.48L333.575 481.026L130.27 454.026ZM186.678 82.5839L252.322 297.215L132.413 453.163L334.103 479.922L451.317 673.84L510.326 475.746L510.591 475.692L702.677 439.645L537.438 290.465L539.115 74.2302L378 180.119L377.736 179.981L186.678 82.5839Z" fill="#02489F"/>
<path d="M137.686 451.299L255.481 298.197L191.072 87.418L192.076 87.9337L378.934 183.255L537.187 79.3218L535.492 291.645L697.719 438.189L508.803 473.587L450.805 668.085L335.741 477.634L137.686 451.299ZM192.761 89.4746L256.658 298.584L139.79 450.452L336.278 476.582L336.431 476.847L450.415 665.526L507.964 472.587L508.228 472.541L695.367 437.456L534.437 292.07L534.444 291.776L536.116 81.4311L379.123 184.537L378.863 184.405L192.761 89.4746Z" fill="#02489F"/>
<path d="M145.098 448.565L145.721 447.76L259.831 299.555L197.155 94.3478L198.15 94.8476L380.041 187.708L534.15 86.5778L532.445 293.282L690.354 436.029L506.425 470.399L449.899 659.716L337.929 474.269L145.098 448.565ZM198.842 96.3278L260.974 299.92L147.138 447.754L338.437 473.24L338.59 473.505L449.507 657.214L505.571 469.373L505.829 469.33L688.06 435.262L531.44 293.671L531.445 293.385L533.117 88.6301L380.242 188.948L379.985 188.821L198.842 96.3278Z" fill="#02489F"/>
<path d="M152.523 445.835L153.128 445.048L264.164 300.929L203.294 101.259L204.28 101.742L381.193 192.134L531.142 93.8083L529.422 294.895L682.998 433.784L682.026 433.971L504.041 467.185L448.997 651.349L340.124 470.899L152.523 445.835ZM204.907 103.232L265.309 301.272L154.541 445.024L340.626 469.895L340.776 470.155L448.621 648.874L503.233 466.202L503.488 466.154L680.749 433.069L528.413 295.301L528.418 295.016L530.118 95.8271L381.369 193.368L381.117 193.238L204.907 103.232Z" fill="#02489F"/>
<path d="M159.94 443.101L268.541 302.275L209.395 108.16L382.307 196.565L528.132 101.065L528.128 102.135L526.39 296.512L675.65 431.582L674.693 431.76L501.657 463.967L448.096 642.979L342.301 467.543L159.94 443.101ZM210.974 110.089L269.639 302.623L161.92 442.311L342.804 466.553L342.948 466.802L447.737 640.571L500.86 463.014L501.106 462.964L673.439 430.872L525.402 296.905L527.115 103.024L382.499 197.79L382.25 197.665L210.974 110.089Z" fill="#02489F"/>
<path d="M167.355 440.373L272.891 303.635L215.511 115.087L383.439 201.012L525.103 108.29L523.356 298.135L668.293 429.376L667.36 429.547L499.279 460.781L447.2 634.626L344.491 464.193L167.355 440.373ZM217.023 116.984L273.964 303.976L273.814 304.169L169.299 439.604L344.974 463.207L446.819 632.267L498.51 459.84L498.751 459.793L666.112 428.706L522.387 298.525L522.393 298.253L524.118 110.229L383.612 202.192L383.371 202.069L217.023 116.984Z" fill="#02489F"/>
<path d="M174.774 437.638L277.239 304.99L221.614 122.002L222.519 122.468L384.564 205.459L522.08 115.534L520.323 299.76L660.937 427.171L496.895 457.572L446.285 626.243L445.75 625.316L346.671 460.814L174.774 437.638ZM223.107 123.853L278.278 305.309L278.133 305.499L176.684 436.861L347.179 459.871L347.317 460.109L445.974 623.943L496.141 456.657L496.385 456.615L658.827 426.503L519.375 300.137L519.378 299.874L521.116 117.426L384.724 206.617L384.487 206.5L223.107 123.853Z" fill="#02489F"/>
<path d="M182.19 434.913L182.747 434.189L281.592 306.353L227.721 128.923L385.687 209.901L519.041 122.789L519.033 123.79L517.285 301.388L653.58 424.976L494.521 454.379L445.384 617.883L348.853 457.451L182.19 434.913ZM229.191 130.724L282.623 306.683L282.475 306.867L184.019 434.19L349.318 456.518L445.05 615.616L493.782 453.478L494.012 453.436L651.525 424.318L516.359 301.754L516.365 301.495L518.103 124.638L385.84 211.035L385.611 210.92L229.191 130.724Z" fill="#02489F"/>
<path d="M189.61 432.174L190.151 431.472L285.944 307.709L233.833 135.836L386.815 214.334L516.04 130.016L514.25 303.003L646.225 422.767L492.141 451.17L444.48 609.511L351.047 454.103L189.61 432.174ZM235.279 137.594L286.947 308.027L191.419 431.454L351.496 453.179L351.628 453.407L444.156 607.309L491.401 450.304L491.626 450.266L644.199 422.134L513.323 303.354L513.324 303.099L515.112 131.823L386.977 215.435L235.279 137.594Z" fill="#02489F"/>
<path d="M197.025 429.45L197.554 428.763L290.294 309.072L239.938 142.758L387.938 218.783L513.021 137.274L513.01 138.234L511.219 304.635L638.892 420.558L489.79 447.986L443.574 601.146L353.205 450.739L197.025 429.45ZM241.362 144.466L291.272 309.384L291.135 309.562L198.794 428.746L353.658 449.849L443.245 598.997L489.055 447.117L489.277 447.074L636.908 419.936L510.329 304.979L510.333 304.729L512.14 139.026L388.102 219.826L387.887 219.71L241.362 144.466Z" fill="#02489F"/>
<path d="M204.43 426.723L294.645 310.427L246.051 149.674L389.068 223.22L509.994 144.506L508.185 306.253L631.53 418.35L630.701 418.503L487.378 444.772L442.677 592.775L442.188 591.927L355.404 447.35L204.43 426.723ZM247.424 151.355L295.601 310.737L295.469 310.912L206.157 426.044L355.848 446.493L355.977 446.716L442.37 590.676L486.697 443.935L486.909 443.898L629.6 417.747L507.315 306.593L507.317 306.352L509.116 146.228L389.228 224.293L389.013 224.177L247.424 151.355Z" fill="#02489F"/>
<path d="M211.863 423.983L298.997 311.783L252.155 156.584L390.193 227.662L506.982 151.753L505.158 307.884L624.182 416.165L623.358 416.315L485 441.568L441.746 584.418L357.579 443.971L211.863 423.983ZM253.51 158.247L299.956 312.099L299.824 312.274L213.546 423.314L358.012 443.155L441.469 582.359L484.332 440.753L484.543 440.716L622.298 415.556L504.309 308.211L504.311 307.97L506.118 153.425L390.34 228.687L253.51 158.247Z" fill="#02489F"/>
<path d="M219.275 421.252L303.348 313.145L258.268 163.508L259.052 163.911L391.319 232.101L503.952 158.988L502.11 309.496L616.805 413.951L616.019 414.094L482.622 438.371L440.867 576.037L359.777 440.625L219.275 421.252ZM259.571 165.103L304.248 313.445L304.118 313.612L220.922 420.605L360.209 439.832L360.331 440.044L440.592 574.068L481.968 437.568L482.174 437.534L614.989 413.374L501.294 309.833L501.299 309.597L503.126 160.652L391.433 233.117L391.232 233.014L259.571 165.103Z" fill="#02489F"/>
<path d="M226.693 418.525L227.177 417.907L307.701 314.506L264.373 170.423L392.455 236.563L500.93 166.232L499.079 311.121L609.446 411.75L608.679 411.889L480.229 435.167L439.964 567.669L439.511 566.885L361.96 437.261L226.693 418.525ZM265.642 171.973L308.587 314.793L308.463 314.957L228.291 417.893L362.37 436.466L439.688 565.723L479.604 434.39L607.679 411.173L498.278 311.435L498.281 311.207L500.113 167.828L392.568 237.53L392.367 237.427L265.642 171.973Z" fill="#02489F"/>
<path d="M234.139 415.783L312.066 315.86L270.492 177.322L393.571 240.987L497.915 173.472L497.903 174.32L496.036 312.745L602.066 409.532L601.317 409.667L477.863 431.97L439.068 559.298L364.147 433.9L234.139 415.783ZM271.725 178.858L312.932 316.137L312.81 316.292L235.692 415.169L364.544 433.12L364.661 433.321L438.805 557.4L477.247 431.209L477.439 431.175L600.362 408.967L495.264 313.049L495.27 312.826L497.118 175.028L393.702 241.936L393.51 241.835L271.725 178.858Z" fill="#02489F"/>
<path d="M241.532 413.063L241.992 412.479L316.388 317.23L276.594 184.259L394.686 245.404L494.892 180.716L494.878 181.537L493.013 314.363L594.731 407.35L594.001 407.482L475.482 428.765L438.158 550.934L366.344 430.562L241.532 413.063ZM277.814 185.76L317.249 317.497L317.127 317.652L243.052 412.467L366.719 429.78L437.905 549.101L474.878 428.025L475.071 427.992L593.061 406.795L492.241 314.64L492.244 314.426L494.136 182.22L394.834 246.344L394.644 246.248L277.814 185.76Z" fill="#02489F"/>
<path d="M248.946 410.332L249.391 409.757L320.754 318.578L282.7 191.167L395.818 249.862L491.869 187.962L491.859 188.752L489.978 315.984L587.367 405.145L586.657 405.272L473.075 425.577L437.254 542.568L368.511 427.172L248.946 410.332ZM283.87 192.605L321.562 318.853L321.442 319L250.419 409.729L368.888 426.431L368.999 426.622L437.016 540.761L472.52 424.859L472.702 424.832L585.753 404.6L489.234 316.272L491.098 189.404L395.98 250.779L395.799 250.686L283.87 192.605Z" fill="#02489F"/>
<path d="M256.365 407.599L256.801 407.044L325.118 319.962L288.808 198.089L396.95 254.307L488.852 195.205L486.938 317.608L580.034 402.93L579.342 403.053L470.717 422.363L436.341 534.186L435.943 533.497L370.704 423.803L256.365 407.599ZM289.962 199.514L325.885 320.226L325.779 320.372L257.801 407.039L371.064 423.093L436.105 532.457L470.139 421.643L470.318 421.611L578.431 402.392L486.223 317.886L486.227 317.686L488.113 196.628L397.071 255.177L396.893 255.089L289.962 199.514Z" fill="#02489F"/>
<path d="M263.768 404.848L264.17 404.32L329.457 321.299L294.918 205.003L295.568 205.334L398.076 258.756L485.824 202.441L483.9 319.224L572.68 400.727L572.007 400.846L468.338 419.161L435.449 525.828L372.879 420.438L263.768 404.848ZM296.019 206.36L330.223 321.549L330.119 321.687L265.176 404.325L373.243 419.747L373.344 419.922L435.205 524.132L467.799 418.496L467.972 418.467L571.164 400.231L483.204 319.498L483.212 319.303L485.113 203.827L398.193 259.593L296.019 206.36Z" fill="#02489F"/>
<path d="M271.205 402.135L271.612 401.617L333.814 322.66L301.03 211.924L301.675 212.258L399.201 263.192L482.81 209.691L480.877 320.854L565.336 398.519L564.693 398.629L465.963 415.957L434.56 517.478L375.074 417.076L271.205 402.135ZM302.093 213.239L334.56 322.901L334.456 323.039L272.571 401.601L375.445 416.409L434.348 515.826L465.427 415.298L465.595 415.272L563.835 398.036L480.199 321.111L480.204 320.924L482.112 211.027L399.319 264.008L399.149 263.922L302.093 213.239Z" fill="#02489F"/>
<path d="M278.618 399.404L279.028 398.891L338.159 324.011L307.108 218.846L400.272 267.656L479.788 216.928L477.853 322.459L557.999 396.325L557.356 396.435L463.576 412.756L433.642 509.09L377.264 413.728L278.618 399.404ZM308.166 220.115L338.883 324.25L338.781 324.38L279.927 398.895L377.591 413.059L377.686 413.223L433.423 507.499L463.063 412.113L556.525 395.84L477.178 322.722L477.186 322.54L479.128 218.242L400.451 268.443L400.287 268.354L308.166 220.115Z" fill="#02489F"/>
<path d="M286.034 396.674L286.451 396.172L342.514 325.374L313.247 225.758L401.443 272.079L476.768 224.173L474.807 324.094L550.616 394.105L549.979 394.225L461.214 409.58L432.741 500.724L379.439 410.349L286.034 396.674ZM314.242 226.992L343.213 325.606L343.116 325.732L287.316 396.202L379.769 409.72L379.861 409.879L432.53 499.185L460.701 408.937L460.861 408.908L549.218 393.654L474.182 324.357L474.185 324.178L476.115 225.427L401.557 272.84L401.404 272.759L314.242 226.992Z" fill="#02489F"/>
<path d="M293.454 393.94L293.826 393.471L346.863 326.731L319.353 232.666L402.574 276.488L473.743 231.414L471.758 325.751L543.255 391.891L458.818 406.351L431.833 492.353L381.623 406.977L293.454 393.94ZM320.313 233.864L347.546 326.972L347.452 327.09L294.671 393.492L381.936 406.394L382.028 406.553L431.632 490.865L458.338 405.752L541.91 391.458L471.164 325.946L473.09 232.632L402.654 277.262L402.504 277.186L320.313 233.864Z" fill="#02489F"/>
<path d="M300.869 391.209L301.231 390.759L351.222 328.089L325.464 239.591L326.03 239.887L403.705 280.954L470.73 238.66L470.716 239.297L468.745 327.359L535.913 389.707L456.416 403.168L430.937 483.996L383.82 403.612L300.869 391.209ZM326.41 240.777L351.874 328.313L302.059 390.762L384.117 403.037L384.194 403.17L430.726 482.542L455.963 402.567L456.109 402.539L534.611 389.251L468.146 327.57L468.15 327.405L470.112 239.83L403.791 281.654L326.41 240.777Z" fill="#02489F"/>
<path d="M308.281 388.481L355.564 329.452L331.562 246.492L404.831 285.397L467.702 245.904L467.69 246.519L465.687 328.945L528.544 387.486L454.055 399.956L430.034 475.639L385.996 400.269L308.281 388.481ZM332.464 247.625L356.196 329.666L356.104 329.776L309.431 388.051L386.285 399.692L429.84 474.239L453.61 399.393L527.295 387.084L465.125 329.184L467.131 247.018L404.925 286.085L404.783 286.011L332.464 247.625Z" fill="#02489F"/>
<path d="M315.69 385.754L359.919 330.806L337.681 253.422L405.957 289.831L464.688 253.139L464.671 253.734L462.67 330.584L521.199 385.299L520.67 385.386L451.657 396.757L429.134 467.243L388.191 396.891L315.69 385.754ZM338.541 254.494L360.526 331.014L360.44 331.121L316.811 385.334L388.463 396.346L388.542 396.484L428.953 465.914L451.248 396.209L451.389 396.184L519.987 384.889L462.117 330.79L462.122 330.639L464.111 254.22L406.046 290.5L405.91 290.423L338.541 254.494Z" fill="#02489F"/>
<path d="M323.117 383.011L323.444 382.61L364.261 332.19L343.787 260.331L407.081 294.267L461.681 260.376L461.66 260.94L459.647 332.192L513.86 383.088L449.313 393.535L428.235 458.876L390.375 393.507L323.117 383.011ZM344.605 261.357L364.844 332.355L364.763 332.459L324.175 382.605L390.632 392.998L390.708 393.131L428.051 457.59L448.882 393.02L449.013 393.002L512.676 382.69L459.098 332.403L459.102 332.252L461.105 261.423L407.164 294.912L407.031 294.84L344.605 261.357Z" fill="#02489F"/>
<path d="M330.542 380.283L368.622 333.527L349.901 267.249L350.378 267.511L408.209 298.714L458.632 267.61L456.588 333.806L506.491 380.894L505.999 380.972L446.917 390.349L427.317 450.519L392.546 390.158L330.542 380.283ZM350.685 268.252L369.185 333.718L369.1 333.816L331.56 379.906L392.814 389.657L392.891 389.789L427.163 449.286L446.528 389.846L446.655 389.822L505.376 380.505L456.057 334.035L458.106 268.62L408.284 299.321L408.162 299.257L350.685 268.252Z" fill="#02489F"/>
<path d="M337.962 377.563L338.266 377.197L372.975 334.89L356.009 274.171L356.47 274.421L409.331 303.144L455.621 274.864L453.545 335.424L499.118 378.659L444.519 387.115L426.386 442.106L426.111 441.629L394.702 386.811L337.962 377.563ZM356.76 275.13L373.512 335.074L373.433 335.169L338.938 377.198L394.996 386.33L395.066 386.452L426.275 440.983L444.166 386.676L444.291 386.66L498.073 378.329L453.079 335.644L455.105 275.818L409.408 303.742L409.287 303.678L356.76 275.13Z" fill="#02489F"/>
<path d="M345.396 374.811L377.326 336.242L362.122 281.085L362.559 281.328L410.465 307.597L452.606 282.115L450.533 337.078L491.786 376.488L442.159 383.94L425.508 433.778L425.245 433.322L396.906 383.431L345.396 374.811ZM362.838 282.007L377.838 336.42L377.764 336.512L346.304 374.463L397.128 382.971L397.195 383.087L425.336 432.648L441.802 383.481L490.758 376.128L450.058 337.246L450.066 337.114L452.107 283.025L410.529 308.161L362.838 282.007Z" fill="#02489F"/>
<path d="M352.791 372.087L381.675 337.602L368.231 288.001L368.648 288.234L411.573 312.043L449.569 289.364L449.549 289.842L447.482 338.71L484.421 374.271L439.767 380.732L424.592 425.407L399.111 380.049L352.791 372.087ZM368.909 288.881L382.159 337.767L382.087 337.851L353.687 371.767L399.336 379.63L399.403 379.747L424.481 424.333L439.434 380.302L439.545 380.287L483.45 373.935L447.044 338.856L447.05 338.733L449.119 290.211L411.653 312.548L411.545 312.483L368.909 288.881Z" fill="#02489F"/>
</g>
</g>
<defs>
<clipPath id="clip0">
<rect width="957" height="706" fill="white" transform="translate(-168)"/>
</clipPath>
<clipPath id="clip1">
<rect width="2340.42" height="2269.38" fill="white" transform="translate(393.961 1953.38) rotate(-130.743)"/>
</clipPath>
</defs>
</svg>
