<svg width="597" height="346" viewBox="0 0 597 346" fill="none" xmlns="http://www.w3.org/2000/svg">
<g clip-path="url(#clip0)">
<path fill-rule="evenodd" clip-rule="evenodd" d="M427.054 345.923L328.744 246.98L254.594 172.352H173.414L287.829 288.581H174.112C110.621 288.581 57.7427 237.424 57.7427 173.477C57.7548 142.844 69.8257 113.463 91.313 91.7675C112.8 70.0716 141.953 57.8277 172.39 57.7162L453.912 56.6387L338.938 172.352L344.85 178.021L363.749 197.041L512.19 345.923H597L423.19 170.994L593.09 0H172.39C126.669 0 82.8213 18.2794 50.4919 50.817C18.1625 83.3545 0 127.485 0 173.5C0 219.515 18.1625 263.645 50.4919 296.183C82.8213 328.721 126.669 347 172.39 347H173.135L427.054 345.923Z" fill="#02489F" fill-opacity="0.1"/>
</g>
<defs>
<clipPath id="clip0">
<rect width="597" height="346" fill="white"/>
</clipPath>
</defs>
</svg>
