<svg width="254" height="408" viewBox="0 0 254 408" fill="none" xmlns="http://www.w3.org/2000/svg">
<path d="M154.352 257L221.254 324.275L254 357.414L254 405.712L221.254 372.783L155.138 306.298L54 408L54 358.375L140.078 271.517L151.075 260.459L154.352 257Z" fill="#1AB8EC"/>
<path d="M33.1162 26L55.1937 47.8308L66 58.5847L66 74.2576L55.1937 63.572L33.3754 41.9975L3.0193e-06 75L4.53438e-06 58.8965L28.4057 30.7109L32.0347 27.1225L33.1162 26Z" fill="#1AB8EC"/>
<path d="M154.352 179L221.254 245.829L254 278.749L254 326.727L221.254 294.016L155.138 227.972L54 329L54 279.703L140.078 193.421L151.075 182.436L154.352 179Z" fill="#1AB8EC"/>
<path d="M33.1162 -3.09383e-06L55.1937 21.8308L66 32.5847L66 48.2576L55.1937 37.572L33.3754 15.9975L3.0193e-06 49L4.53438e-06 32.8965L28.4057 4.71086L32.0347 1.12248L33.1162 -3.09383e-06Z" fill="#1AB8EC"/>
</svg>
