<svg width="373" height="621" viewBox="0 0 373 621" fill="none" xmlns="http://www.w3.org/2000/svg">
<g clip-path="url(#clip0)">
<mask id="mask0" mask-type="alpha" maskUnits="userSpaceOnUse" x="68" y="64" width="494" height="494">
<circle cx="314.69" cy="311.401" r="246.507" fill="#C4C4C4"/>
</mask>
<g mask="url(#mask0)">
<path d="M994.239 -680.436L411.742 -66.1423L-462.241 -97.8212L-460.682 -95.6448L-14.4861 530.65L-385.027 1250.81L-382.013 1250L474.218 1024.9L1119.21 1501.68L1119.5 1499.01L1202.47 733.613L1971.62 308.104L1163.85 59.3026L994.239 -680.436ZM412.954 -63.4256L413.452 -63.9805L992.397 -674.533L1161.15 61.3675L1161.89 61.5915L1964.74 308.865L1199.59 732.179L1199.51 732.849L1116.76 1496.26L475.126 1021.98L474.349 1022.18L-379.669 1246.69L-11.0467 530.273L-11.4439 529.731L-456.493 -94.9125L412.954 -63.4256Z" fill="#02489F"/>
<path d="M987.135 -661.268L411.742 -62.3874L-445.786 -88.1834L-444.279 -86.032L-12.1324 530.772L-369.915 1238.6L-366.997 1237.82L473.482 1022.22L1109.89 1485.49L1110.2 1482.87L1197.5 732.85L1948.6 311.329L1945.86 310.462L1159.31 62.5118L987.135 -661.268ZM412.943 -59.713L413.447 -60.2437L985.362 -655.514L1156.69 64.536L1157.39 64.7616L1941.9 312.08L1194.66 731.431L1194.58 732.102L1107.54 1480.21L474.379 1019.35L473.62 1019.55L-364.68 1234.58L-8.73839 530.394L-9.12957 529.851L-440.153 -85.367L412.943 -59.713Z" fill="#02489F"/>
<path d="M980.025 -642.106L978.065 -640.089L411.726 -58.6346L-429.339 -78.5432L-427.891 -76.4409L-9.8053 530.901L-354.83 1226.4L472.752 1019.57L1100.58 1469.33L1100.9 1466.79L1192.52 732.082L1925.57 314.517L1922.91 313.66L1154.81 65.707L980.025 -642.106ZM412.919 -55.9905L413.426 -56.509L978.308 -636.484L1152.2 67.7158L1152.91 67.9354L1919.03 315.276L1189.75 730.68L1189.67 731.35L1098.25 1464.19L473.629 1016.72L472.894 1016.92L-349.727 1222.49L-6.45796 530.542L-423.853 -75.7912L412.919 -55.9905Z" fill="#02489F"/>
<path d="M972.917 -622.938L971.002 -620.998L411.72 -54.8651L-412.887 -68.9047L-7.47888 531.004L-339.744 1214.21L-336.965 1213.54L472.021 1016.92L1091.27 1453.18L1091.61 1450.71L1187.55 731.314L1902.55 317.762L1899.97 316.914L1150.29 68.9167L972.917 -622.938ZM412.894 -52.2678L413.405 -52.7743L971.264 -617.462L1147.72 70.8899L1148.42 71.1034L1896.17 318.479L1184.79 729.939L1184.7 730.579L1089 1448.14L472.885 1014.09L472.168 1014.29L-334.764 1210.4L-4.14797 530.656L-4.509 530.104L-407.519 -66.2571L412.894 -52.2678Z" fill="#02489F"/>
<path d="M965.817 -603.777L963.936 -601.899L411.732 -51.1125L-396.419 -59.269L-395.094 -57.2637L-5.13493 531.161L-324.655 1202.02L471.288 1014.28L1081.98 1437.04L1082.32 1434.64L1182.6 730.545L1879.52 320.98L1877.03 320.137L1145.78 72.1165L965.817 -603.777ZM412.868 -48.5633L964.182 -598.449L1143.23 74.0516L1143.87 74.2675L1873.3 321.676L1179.86 729.191L1179.77 729.813L1079.76 1432.11L472.135 1011.46L471.435 1011.64L-319.799 1198.3L-1.88442 530.802L-2.22973 530.285L-391.222 -56.6538L412.868 -48.5633Z" fill="#02489F"/>
<path d="M958.714 -584.586L411.704 -47.3517L-379.993 -49.6253L-378.726 -47.669L-2.80994 531.289L-309.575 1189.78L470.538 1011.56L1072.65 1420.86L1177.61 729.781L1856.48 324.202L1854.07 323.362L1141.24 75.34L958.714 -584.586ZM412.846 -44.8238L413.321 -45.2947L957.117 -579.405L1138.74 77.2423L1139.37 77.4571L1850.43 324.875L1174.93 728.454L1174.84 729.056L1070.49 1416.06L471.386 1008.84L470.711 1009.02L-304.828 1186.21L0.395102 530.929L0.0651294 530.421L-374.907 -47.0902L412.846 -44.8238Z" fill="#02489F"/>
<path d="M951.63 -565.457L411.697 -43.5953L-363.545 -39.9921L-0.46827 531.413L-294.478 1177.62L469.831 1008.91L1063.37 1404.68L1172.66 729.013L1833.47 327.41L1831.14 326.582L1136.72 78.4985L951.63 -565.457ZM412.823 -41.1081L413.29 -41.5577L950.053 -560.371L1134.26 80.4214L1827.56 328.073L1169.99 727.697L1061.24 1400.02L470.636 1006.21L469.985 1006.38L-289.864 1174.1L2.68092 531.062L2.36784 530.569L-358.603 -37.5093L412.823 -41.1081Z" fill="#02489F"/>
<path d="M944.492 -546.281L942.724 -544.607L411.694 -39.8199L-347.094 -30.3336L1.86007 531.548L-279.398 1165.43L469.072 1006.26L1054.04 1388.52L1054.41 1386.34L1167.66 728.226L1810.44 330.63L1808.2 329.805L1132.2 81.7321L944.492 -546.281ZM412.823 -37.3919L413.275 -37.8246L943.009 -541.35L1129.78 83.6014L1130.36 83.8155L1804.69 331.277L1165.06 726.95L1164.96 727.515L1051.99 1383.98L469.886 1003.58L469.284 1003.74L-274.877 1162L4.99603 531.22L4.69988 530.742L-342.273 -27.9416L412.823 -37.3919Z" fill="#02489F"/>
<path d="M937.391 -527.12L935.671 -525.512L411.683 -36.0809L-330.642 -20.7074L-329.55 -18.8989L4.18969 531.677L-264.309 1153.23L468.346 1003.61L1044.74 1372.38L1162.7 727.486L1787.42 333.849L1127.68 84.9352L937.391 -527.12ZM412.777 -33.6632L935.928 -522.312L1125.28 86.7507L1781.82 334.448L1160.12 726.205L1160.02 726.744L1042.73 1367.94L469.139 1000.95L468.526 1001.08L-259.932 1149.89L7.25728 531.335L6.97041 530.867L-325.953 -18.3712L412.777 -33.6632Z" fill="#02489F"/>
<path d="M930.288 -507.959L928.601 -506.417L411.675 -32.3228L-314.203 -11.0708L-313.163 -9.31302L6.49597 531.799L-249.25 1141.03L467.577 1000.91L1035.42 1356.2L1035.81 1354.14L1157.72 726.718L1764.39 337.044L1762.31 336.238L1123.16 88.1394L930.288 -507.959ZM412.753 -29.9398L413.183 -30.3339L928.873 -503.306L1120.81 89.8965L1758.95 337.619L1155.2 725.457L1033.48 1351.9L468.408 998.322L467.795 998.447L-244.952 1137.76L9.54103 531.47L9.27109 531.017L-309.632 -8.79345L412.753 -29.9398Z" fill="#02489F"/>
<path d="M923.177 -488.81L411.668 -28.5668L-297.757 -1.43794L-296.777 0.244848L8.8512 531.932L-234.139 1128.83L466.862 998.242L1026.11 1340.03L1152.76 725.967L1741.38 340.291L1118.64 91.3456L923.177 -488.81ZM412.73 -26.2186L413.145 -26.5958L921.796 -484.251L1116.32 93.1281L1116.83 93.3298L1736.08 340.867L1150.26 724.691L1150.15 725.193L1024.23 1335.85L467.647 995.698L467.075 995.805L-230.007 1125.66L11.8251 531.602L-293.314 0.77606L412.73 -26.2186Z" fill="#02489F"/>
<path d="M916.079 -469.637L411.673 -24.8129L-281.298 8.193L-280.368 9.8568L11.1863 532.06L-219.053 1116.65L-216.877 1116.26L466.123 995.555L1016.8 1323.84L1017.21 1321.94L1147.77 725.156L1718.36 343.496L1114.13 94.5458L916.079 -469.637ZM412.706 -22.5018L413.108 -22.8562L914.731 -465.216L1111.83 96.3037L1112.32 96.5041L1713.21 344.065L1145.31 723.968L1145.2 724.45L1014.97 1319.81L466.898 993.071L466.349 993.166L-215.037 1113.56L14.1083 531.705L13.8722 531.281L-277 10.3227L412.706 -22.5018Z" fill="#02489F"/>
<path d="M908.971 -450.477L907.395 -449.128L411.654 -21.0543L-264.862 17.8346L13.5162 532.193L-203.984 1104.46L-201.881 1104.11L465.399 992.92L1007.5 1307.7L1007.92 1305.87L1142.81 724.423L1695.33 346.706L1693.49 345.903L1109.59 97.7504L908.971 -450.477ZM412.683 -18.7813L413.07 -19.1186L907.66 -446.183L1107.35 99.48L1690.34 347.267L1140.39 723.216L1140.29 723.671L1005.72 1303.76L466.15 990.443L465.625 990.531L-200.08 1101.43L16.4009 531.867L16.1817 531.459L-260.671 19.928L412.683 -18.7813Z" fill="#02489F"/>
<path d="M901.866 -431.315L900.349 -430.033L411.644 -17.2949L-248.422 27.4586L15.8479 532.322L-188.887 1092.26L-186.859 1091.95L464.644 990.258L998.169 1291.54L1137.82 723.628L1672.29 349.899L1670.53 349.131L1105.07 100.956L901.866 -431.315ZM412.657 -15.0565L413.031 -15.3709L900.592 -427.147L1102.87 102.654L1103.31 102.848L1667.47 350.464L1135.46 722.47L996.46 1287.72L465.398 987.818L464.896 987.894L-185.101 1089.35L18.6827 532.003L18.4821 531.616L-244.352 29.5071L412.657 -15.0565Z" fill="#02489F"/>
<path d="M894.763 -412.16L411.637 -13.5375L-231.972 37.1049L-231.209 38.6257L18.1833 532.449L-173.805 1080.07L-171.852 1079.79L463.929 987.584L988.887 1275.39L989.327 1273.7L1132.86 722.869L1649.29 353.119L1100.55 104.14L894.763 -412.16ZM412.635 -11.3339L412.994 -11.6313L893.528 -408.113L1098.37 105.838L1098.79 106.026L1644.58 353.673L1130.52 721.724L1130.41 722.136L987.198 1271.64L464.655 985.158L464.17 985.23L-170.13 1077.24L20.9743 532.136L20.7845 531.765L-228.024 39.0824L412.635 -11.3339Z" fill="#02489F"/>
<path d="M887.659 -393.002L411.628 -9.7824L-215.538 46.7205L20.511 532.582L-158.724 1067.88L463.165 984.906L979.552 1259.21L1127.89 722.122L1626.28 356.358L1624.67 355.607L1096.03 107.365L887.659 -393.002ZM412.603 -7.63775L412.948 -7.91819L886.449 -389.104L1093.87 108.986L1094.27 109.173L1621.7 356.845L1125.59 720.975L1125.48 721.368L977.95 1255.62L463.898 982.531L-155.163 1065.14L23.2485 532.237L23.0756 531.881L-211.719 48.6285L412.603 -7.63775Z" fill="#02489F"/>
<path d="M880.559 -373.84L411.622 -6.02416L-199.063 56.387L22.8908 532.704L-143.597 1055.68L-141.795 1055.47L462.454 982.271L970.273 1243.1L1122.92 721.361L1603.28 359.571L1601.78 358.817L1091.51 110.569L880.559 -373.84ZM412.588 -3.88993L412.918 -4.15349L879.391 -370.071L1089.4 112.19L1089.77 112.365L1598.83 360.068L1120.66 720.229L1120.55 720.595L968.691 1239.58L463.171 979.932L462.739 979.983L-140.18 1053.03L25.5487 532.401L25.3883 532.068L-195.383 58.235L412.588 -3.88993Z" fill="#02489F"/>
<path d="M873.455 -354.686L411.627 -2.27068L-182.644 66.0148L-182.038 67.3832L25.1753 532.838L-128.561 1043.49L-126.834 1043.31L461.716 979.589L960.962 1226.91L961.424 1225.43L1117.95 720.591L1580.24 362.787L1578.79 362.058L1086.99 113.77L873.455 -354.686ZM412.565 -0.168046L412.88 -0.414496L872.329 -351.006L1084.92 115.388L1085.26 115.563L1575.97 363.29L1115.72 719.482L1115.62 719.829L959.436 1223.53L462.413 977.32L462.011 977.363L-125.2 1040.92L27.8414 532.565L27.6964 532.24L-179.049 67.8337L412.565 -0.168046Z" fill="#02489F"/>
<path d="M866.349 -335.532L865.046 -334.534L411.611 1.48824L-166.206 75.6509L27.4829 532.972L-113.505 1031.31L460.955 976.926L951.637 1210.75L952.096 1209.33L1112.95 719.823L1557.2 366.021L1555.84 365.304L1082.47 116.98L866.349 -335.532ZM412.54 3.5547L412.836 3.33286L865.261 -331.972L1080.43 118.543L1080.74 118.707L1553.08 366.465L1110.78 718.73L950.178 1207.48L461.664 974.7L461.286 974.736L-110.245 1028.84L30.1056 532.729L29.9791 532.426L-162.742 77.4399L412.54 3.5547Z" fill="#02489F"/>
<path d="M859.243 -316.377L857.975 -315.467L411.596 5.2468L-149.769 85.2801L-149.261 86.5511L29.8277 533.095L-98.4129 1019.11L460.233 974.259L942.339 1194.6L1108 719.066L1534.21 369.219L1532.91 368.515L1077.95 120.187L859.243 -316.377ZM412.521 7.30112L412.802 7.09615L858.196 -312.906L1075.94 121.749L1076.23 121.905L1530.2 369.664L1105.85 717.983L1105.75 718.283L940.92 1191.43L460.907 972.049L460.553 972.079L-95.2835 1016.71L32.4057 532.807L32.2901 532.52L-146.406 86.9599L412.521 7.30112Z" fill="#02489F"/>
<path d="M852.14 -297.222L850.916 -296.369L411.589 9.00473L-133.329 94.9165L-132.867 96.1351L32.1627 533.223L-83.331 1006.92L459.499 971.591L933.066 1178.44L933.537 1177.15L1103.04 718.297L1511.2 372.461L1509.98 371.767L1073.43 123.385L852.14 -297.222ZM412.493 11.0003L412.753 10.8138L851.121 -293.888L1071.45 124.899L1071.71 125.05L1507.34 372.846L1100.92 717.237L1100.82 717.517L931.665 1175.38L460.165 969.421L459.841 969.443L-80.3095 1004.58L34.6907 532.941L-130.054 96.5294L412.493 11.0003Z" fill="#02489F"/>
<path d="M845.037 -278.07L411.578 12.7413L-116.892 104.538L-116.471 105.722L34.5036 533.372L-68.2397 994.764L-66.8116 994.692L458.775 968.955L923.74 1162.31L924.217 1161.1L1098.07 717.533L1488.18 375.643L1487.03 374.964L1068.91 126.584L845.037 -278.07ZM412.457 14.7234L412.703 14.5541L844.076 -274.856L1066.99 128.07L1067.23 128.207L1484.45 376.058L1095.98 716.489L1095.88 716.743L922.395 1159.29L459.416 966.792L459.123 966.806L-65.3275 992.492L36.9814 533.071L36.915 532.823L-113.73 106.116L412.457 14.7234Z" fill="#02489F"/>
<path d="M837.942 -258.918L836.807 -258.186L411.575 16.51L-100.424 114.172L-100.061 115.288L36.8512 533.47L-53.1694 982.548L-51.8121 982.502L458.03 966.263L914.432 1146.13L1093.1 716.77L1465.17 378.863L1464.1 378.203L1064.39 129.787L837.942 -258.918ZM412.443 18.4438L412.667 18.2929L836.991 -255.81L1062.48 131.251L1062.7 131.381L1461.55 379.251L1091.07 715.725L1090.97 715.951L913.15 1143.28L458.669 964.139L458.399 964.147L-50.3281 980.373L39.2917 533.198L39.2317 532.975L-97.3827 115.686L412.443 18.4438Z" fill="#02489F"/>
<path d="M830.866 -239.771L829.756 -239.091L411.566 20.2677L-83.9993 123.806L-83.6745 124.873L39.1718 533.6L-38.0852 970.348L457.31 963.583L905.143 1129.97L905.618 1128.89L1088.13 716L1442.16 382.079L1441.16 381.433L1059.87 132.995L830.866 -239.771ZM412.452 22.1511L412.651 22.0264L829.92 -236.768L1057.99 134.431L1058.18 134.55L1438.66 382.464L1086.11 714.996L903.903 1127.22L457.923 961.531L457.685 961.537L-35.3921 968.271L41.558 533.344L41.5029 533.138L-81.1051 125.3L412.452 22.1511Z" fill="#02489F"/>
<path d="M823.726 -220.613L411.561 24.0246L-67.5695 133.444L41.4914 533.738L-23.0229 958.174L-21.8069 958.179L456.556 960.932L895.826 1113.83L1083.16 715.238L1419.15 385.294L1418.23 384.666L1055.35 136.198L823.726 -220.613ZM412.396 25.889L822.852 -217.727L1053.5 137.613L1053.67 137.718L1415.81 385.659L1081.18 714.244L1081.1 714.422L894.63 1111.17L457.152 958.911L-20.3967 956.16L43.847 533.464L43.8 533.288L-64.7587 134.844L412.396 25.889Z" fill="#02489F"/>
<path d="M816.633 -201.462L815.639 -200.903L411.55 27.7766L-51.1446 143.078L-50.8885 144.034L43.8181 533.868L-7.91747 945.982L455.852 958.261L886.553 1097.67L887.024 1096.72L1078.19 714.475L1396.15 388.508L1050.83 139.4L816.633 -201.462ZM412.378 29.6106L412.535 29.5231L815.783 -198.679L1049.02 140.787L1049.15 140.887L1392.9 388.867L1076.24 713.499L1076.17 713.647L885.37 1095.11L456.432 956.277L456.248 956.268L-5.41862 944.047L46.1211 533.614L46.0806 533.463L-48.4646 144.448L412.378 29.6106Z" fill="#02489F"/>
<path d="M809.531 -182.316L411.547 31.557L-34.7137 152.734L-34.522 153.643L46.1383 533.997L7.11983 933.799L8.1883 933.856L455.081 955.607L877.218 1081.52L877.681 1080.65L1073.22 713.716L1373.13 391.728L1372.33 391.14L1046.31 142.601L809.531 -182.316ZM-32.0657 154.009L412.388 33.3225L808.705 -179.636L1044.53 143.968L1044.64 144.048L1370.01 392.067L1071.31 712.77L1071.24 712.891L876.113 1079.06L455.685 953.642L455.535 953.637L9.55931 931.933L48.4276 533.74L48.3952 533.619L-32.0657 154.009Z" fill="#02489F"/>
<path d="M802.434 -163.17L801.536 -162.715L411.534 35.283L-18.2935 162.336L48.4684 534.125L22.1924 921.615L454.343 952.938L867.889 1065.38L868.356 1064.57L1068.25 712.941L1350.13 394.935L1349.42 394.359L1041.8 145.801L802.434 -163.17ZM-15.7818 163.608L412.309 37.0662L412.417 37.0372L801.64 -160.59L1040.03 147.136L1040.12 147.203L1347.12 395.256L1066.37 711.998L1066.32 712.096L866.849 1063L454.938 951.014L454.819 951.001L24.5407 919.818L50.7155 533.879L50.688 533.776L-15.7818 163.608Z" fill="#02489F"/>
<path d="M795.332 -144.029L794.479 -143.619L411.525 39.0409L-1.86809 171.969L-1.74933 172.774L50.7777 534.259L37.2609 909.426L38.1847 909.522L453.607 950.269L858.61 1049.22L1063.28 712.184L1327.13 398.155L1326.48 397.602L1037.28 149.004L795.332 -144.029ZM0.575986 173.182L412.315 40.8072L412.394 40.7862L794.571 -141.542L1035.54 150.358L1035.6 150.405L1324.22 398.499L1061.43 711.253L1061.39 711.322L857.595 1046.95L454.193 948.381L454.107 948.372L39.5257 907.704L53.0111 534.011L52.9917 533.938L0.575986 173.182Z" fill="#02489F"/>
<path d="M788.232 -124.882L787.435 -124.526L411.469 42.811L14.5777 181.584L53.1277 534.427L52.3273 897.256L452.917 947.626L849.309 1033.08L849.771 1032.4L1058.36 711.376L1304.13 401.365L1303.58 400.851L1032.81 152.218L788.232 -124.882ZM16.9107 182.768L412.233 44.5322L787.496 -122.493L1031.05 153.505L1031.06 153.548L1301.31 401.682L1056.49 710.475L848.306 1030.88L453.496 945.759L54.5098 895.588L55.2992 534.189L16.9107 182.768Z" fill="#02489F"/>
<path d="M781.138 -105.738L780.388 -105.427L411.507 46.5479L31.0102 191.24L55.4475 534.524L67.3919 885.073L68.1738 885.195L452.145 944.959L840.008 1016.94L840.442 1016.31L1053.36 710.64L1281.12 404.579L1028.24 155.406L781.138 -105.738ZM33.2526 192.351L412.243 48.2317L780.42 -103.451L1026.58 156.695L1278.44 404.869L1051.57 709.738L839.065 1014.82L452.718 943.12L69.4954 883.472L57.6014 534.317L33.2526 192.351Z" fill="#02489F"/>
<path d="M774.039 -86.5961L411.516 50.2893L47.4258 200.851L47.4433 201.495L57.7693 534.624L82.4644 872.891L83.1483 873.032L451.35 942.301L830.709 1000.79L831.128 1000.23L1048.37 709.909L1258.15 407.793L1257.7 407.311L1023.72 158.59L774.039 -86.5961ZM49.5906 201.937L412.261 51.9577L773.359 -84.3582L1022.07 159.868L1255.55 408.074L1046.61 709.013L829.801 998.752L451.952 940.473L84.4812 871.352L59.885 534.394L49.5906 201.937Z" fill="#02489F"/>
<path d="M766.941 -67.4647L411.436 54.0642L63.8615 210.473L63.8567 211.058L60.0952 534.771L60.1081 534.819L97.533 860.726L450.718 939.654L821.412 984.662L821.815 984.165L1043.42 709.133L1043.45 709.087L1235.13 411.008L1234.74 410.554L1019.23 161.804L1019.21 161.761L766.941 -67.4647ZM412.222 55.6955L766.278 -65.335L1017.58 163.054L1232.65 411.283L1041.68 708.245L820.534 982.686L451.208 937.843L99.4718 859.234L62.1852 534.541L65.9316 211.52L412.222 55.6955Z" fill="#02489F"/>
<path d="M759.846 -48.3243L759.243 -48.1628L411.478 57.79L411.388 57.8143L80.2801 220.077L80.2487 220.61L62.3827 534.892L62.4054 534.977L112.562 848.529L113.132 848.681L449.914 936.992L449.999 936.969L812.11 968.512L812.496 968.071L1038.46 708.37L1038.5 708.294L1212.14 414.226L1211.81 413.803L1014.71 165.02L1014.64 164.967L759.846 -48.3243ZM412.2 59.4253L759.237 -46.2805L1013.09 166.232L1209.75 414.452L1036.74 707.495L811.276 966.627L450.464 935.21L114.462 847.112L64.4836 534.679L82.2819 221.11L412.2 59.4253Z" fill="#02489F"/>
<path d="M411.467 61.535L411.335 61.5705L96.7036 229.723L96.656 230.196L64.7317 535.002L64.7625 535.117L127.649 836.335L128.148 836.486L449.173 934.298L449.311 934.306L802.812 952.377L1033.56 707.497L1189.14 417.424L1188.87 417.038L1010.18 168.178L1010.09 168.1L752.75 -29.1914L752.213 -29.0477L411.467 61.535ZM98.624 230.694L412.182 63.1658L752.147 -27.2206L1008.59 169.415L1186.85 417.682L1031.79 706.744L802.006 950.55L449.718 932.57L129.452 834.989L66.7799 534.81L98.624 230.694Z" fill="#02489F"/>
<path d="M411.454 65.3061L411.279 65.3529L113.118 239.346L113.055 239.765L67.0512 535.158L67.0917 535.31L142.7 824.188L143.135 824.338L448.409 931.675L448.591 931.678L793.516 936.235L1028.54 706.851L1028.61 706.703L1166.16 420.651L1165.93 420.297L1005.68 171.4L1005.55 171.307L745.656 -10.034L745.186 -9.90803L411.454 65.3061ZM114.971 240.282L412.156 66.8885L745.055 -8.15436L1004.1 172.601L1163.95 420.88L1026.85 705.998L792.755 934.481L448.996 929.961L144.441 822.898L69.0829 534.977L114.971 240.282Z" fill="#02489F"/>
<path d="M411.44 69.0266L411.253 69.1481L129.538 248.968L129.461 249.332L69.3704 535.29L69.4207 535.478L157.734 812.022L158.103 812.17L447.665 929.028L784.194 920.116L784.495 919.84L1023.59 706.104L1023.67 705.92L1143.2 423.866L1143.02 423.55L1001.18 174.592L1001 174.478L738.557 9.07444L738.139 9.15403L411.44 69.0266ZM131.326 249.877L412.141 70.6288L737.978 10.8899L999.594 175.789L1141.07 424.075L1021.9 705.257L783.479 918.413L448.234 927.293L159.415 810.748L71.3399 535.093L131.326 249.877Z" fill="#02489F"/>
<path d="M411.426 72.7652L411.204 72.9221L145.952 258.583L71.6782 535.417L71.7399 535.647L172.813 799.822L173.115 799.962L446.936 926.337L447.21 926.322L774.924 903.973L775.2 903.75L1018.62 705.338L1018.71 705.107L1120.19 427.073L996.67 177.784L996.449 177.662L731.463 28.1994L731.1 28.2447L411.426 72.7652ZM147.674 259.464L412.126 74.3613L730.904 29.9705L995.09 178.979L1118.14 427.285L1016.95 704.483L774.208 902.336L447.497 924.669L174.44 798.615L73.6866 535.196L147.674 259.464Z" fill="#02489F"/>
<path d="M411.406 76.5066L162.355 268.21L162.275 268.465L73.9859 535.551L74.0995 535.806L187.864 787.67L188.113 787.805L446.201 923.72L765.627 887.845L765.864 887.671L1013.67 704.583L1013.75 704.309L1097.21 430.319L1097.12 430.079L992.168 180.976L991.893 180.842L724.371 47.3315L724.068 47.3607L411.406 76.5066ZM164.024 269.06L412.111 78.1011L723.83 49.0522L990.592 182.183L1095.21 430.504L1011.99 703.723L764.937 886.26L446.747 921.997L189.434 786.491L75.9975 535.343L164.024 269.06Z" fill="#02489F"/>
<path d="M411.394 80.239L411.115 80.4758L178.778 277.824L178.697 278.027L76.2934 535.692L76.4484 535.981L202.945 775.497L203.137 775.608L445.462 921.077L445.834 921.016L756.338 871.715L1008.72 703.828L1008.8 703.503L1074.23 433.499L1074.18 433.299L987.686 184.161L717.278 66.4501L717.036 66.4632L411.394 80.239ZM180.383 278.652L412.09 81.8488L716.748 68.11L986.077 185.364L1072.3 433.694L1007.04 702.967L755.672 870.194L446.016 919.359L204.442 774.356L78.3154 535.474L180.383 278.652Z" fill="#02489F"/>
<path d="M411.378 83.9704L411.074 84.2593L195.178 287.436L195.11 287.591L78.5951 535.826L217.963 763.339L218.098 763.432L444.714 918.435L445.13 918.324L747.041 855.586L747.196 855.492L1003.77 703.084L1003.84 702.709L1051.25 436.687L1051.21 436.535L983.14 187.329L982.753 187.187L710.184 85.574L710.003 85.5708L411.378 83.9704ZM196.736 288.212L412.078 85.5923L709.691 87.1785L981.563 188.556L1049.4 436.891L1002.08 702.2L746.396 854.098L445.304 916.682L219.417 762.229L80.6291 535.605L196.736 288.212Z" fill="#02489F"/>
<path d="M411.357 87.7004L411.03 88.0475L211.582 297.057L211.53 297.155L80.8885 535.946L81.137 536.294L233.037 751.169L233.126 751.236L443.994 915.796L444.476 915.667L737.782 839.456L737.897 839.425L998.868 702.337L998.915 701.909L1028.28 439.924L1028.25 439.821L978.662 190.535L978.217 190.395L703.089 104.689L702.971 104.682L411.357 87.7004ZM213.116 297.839L412.069 89.345L702.587 106.263L977.05 191.752L1026.45 440.091L997.136 701.439L737.117 837.987L444.528 914.005L234.445 750.059L82.9516 535.737L213.116 297.839Z" fill="#02489F"/>
<path d="M411.336 91.4278L410.992 91.8313L227.984 306.669L227.953 306.723L83.1793 536.077L83.4873 536.455L248.082 739.004L248.125 739.045L443.25 913.16L443.786 913.016L728.503 823.361L728.563 823.345L993.931 701.603L993.956 701.116L1005.32 443.156L1005.31 443.102L974.191 193.71L973.672 193.583L696.002 123.805L695.948 123.82L411.336 91.4278ZM229.469 307.439L412.054 93.0966L695.508 125.338L972.546 194.949L1003.56 443.298L992.151 700.673L727.854 821.926L443.803 911.391L249.465 737.972L85.2818 535.87L229.469 307.439Z" fill="#02489F"/>
<path d="M411.311 95.1453L410.959 95.6157L244.397 316.3L85.4578 536.213L85.8374 536.617L263.082 726.847L442.467 910.55L719.166 807.225L988.96 700.822L988.945 700.281L982.347 446.337L969.706 196.891L969.112 196.771L688.926 142.921L411.311 95.1453ZM87.6177 536.004L245.848 317.04L412.049 96.8607L688.436 144.42L968.004 198.158L980.599 446.539L987.177 699.905L718.569 805.842L443.064 908.704L264.472 725.813L87.6177 536.004Z" fill="#02489F"/>
<path d="M411.285 98.8539L410.928 99.4035L260.758 325.93L87.741 536.366L88.1983 536.794L278.149 714.722L441.689 907.937L442.337 907.653L709.905 791.106L984.001 700.107L983.936 699.476L959.342 449.497L965.233 200.06L964.562 199.967L681.782 162.019L411.285 98.8539ZM89.958 536.128L262.184 326.67L412.043 100.622L681.3 163.498L963.48 201.379L957.657 449.696L982.196 699.132L709.354 789.75L442.339 906.044L279.518 713.707L89.958 536.128Z" fill="#02489F"/>
<path d="M411.255 102.558L410.894 103.187L277.172 335.52L89.9996 536.48L90.551 536.922L293.154 702.536L440.961 905.317L700.602 775.005L979.134 699.355L979.013 698.687L936.446 452.759L960.762 203.222L674.737 181.132L411.255 102.558ZM92.3228 536.253L278.599 336.24L278.641 336.157L412.051 104.394L674.263 182.594L958.942 204.605L934.72 452.923L934.738 452.989L977.22 698.337L700.038 773.626L699.942 773.652L441.609 903.301L294.496 701.47L294.43 701.416L92.3228 536.253Z" fill="#02489F"/>
<path d="M411.248 106.218L410.898 106.961L293.562 345.111L92.2651 536.613L308.188 690.383L440.207 902.744L440.969 902.306L691.337 758.921L974.228 698.647L974.034 697.92L913.487 455.993L956.299 206.384L955.435 206.369L667.652 200.236L411.248 106.218ZM94.6776 536.382L294.942 345.85L294.999 345.725L412.039 108.179L667.175 201.687L954.374 207.808L911.786 456.131L972.199 697.582L690.744 757.55L690.615 757.623L440.88 900.65L309.535 689.406L309.423 689.325L94.6776 536.382Z" fill="#02489F"/>
<path d="M411.185 109.944L410.848 110.76L309.946 354.715L94.5029 536.751L95.2678 537.195L323.214 678.235L439.439 900.127L682.033 742.794L969.309 697.895L969.043 697.097L890.525 459.181L951.851 209.54L660.569 219.331L411.185 109.944ZM97.0549 536.534L311.339 355.431L311.409 355.257L412.044 111.97L660.09 220.776L660.295 220.767L949.829 211.035L888.835 459.335L888.882 459.511L967.192 696.795L681.454 741.451L681.283 741.562L440.153 897.945L324.562 677.239L324.4 677.139L97.0549 536.534Z" fill="#02489F"/>
<path d="M411.144 113.62L326.327 364.322L96.7309 536.888L97.6222 537.369L338.243 666.084L438.677 897.544L439.543 896.916L672.75 726.689L964.426 697.174L867.586 462.417L947.409 212.683L946.324 212.779L653.477 238.432L411.144 113.62ZM99.4396 536.63L327.725 365.056L327.796 364.836L412.057 115.775L653.008 239.887L653.26 239.865L945.266 214.282L865.892 462.533L865.949 462.745L962.16 695.998L672.187 725.336L671.987 725.48L439.434 895.233L339.58 665.096L339.37 664.984L99.4396 536.63Z" fill="#02489F"/>
<path d="M411.099 117.283L410.819 118.338L342.719 373.944L98.9267 537.052L353.253 653.962L437.87 895.01L663.475 710.588L959.553 696.463L959.08 695.52L844.638 465.595L942.984 215.815L941.74 215.992L646.364 257.524L411.099 117.283ZM101.839 536.733L344.106 374.636L344.172 374.378L412.079 119.615L645.919 258.973L646.224 258.93L940.713 217.513L842.941 465.752L843.064 465.991L957.155 695.206L662.902 709.244L662.678 709.42L438.722 892.499L354.608 652.944L354.35 652.825L101.839 536.733Z" fill="#02489F"/>
<path d="M411.041 120.924L359.094 383.532L101.135 537.167L368.293 641.786L437.138 892.424L438.115 891.514L654.193 694.488L954.699 695.759L954.095 694.734L821.695 468.798L938.572 218.929L639.312 276.631L411.041 120.924ZM104.275 536.877L360.5 384.27L360.56 383.963L412.099 123.429L638.834 278.056L936.09 220.781L819.994 468.962L820.149 469.225L952.104 694.392L653.616 693.132L438.017 889.75L369.635 640.791L104.275 536.877Z" fill="#02489F"/>
<path d="M410.991 124.544L410.815 125.888L375.468 393.134L103.295 537.316L383.305 629.645L436.345 889.92L644.912 678.389L949.868 695.057L949.115 693.962L798.755 472.008L934.188 222.043L632.228 295.71L410.991 124.544ZM106.735 536.99L376.895 393.88L376.938 393.531L412.139 127.284L631.748 297.174L632.134 297.071L931.468 224.043L797.019 472.136L797.214 472.427L947.026 693.542L644.31 677.033L644.041 677.306L437.279 886.991L384.634 628.647L384.267 628.531L106.735 536.99Z" fill="#02489F"/>
<path d="M414.363 131.896L379.59 395.305L112.691 536.744L114.066 537.199L387.323 627.252L439.382 882.492L643.893 675.018L942.97 691.329L794.734 472.599L927.507 227.44L926.022 227.806L631.385 299.723L414.363 131.896ZM116.067 536.423L380.99 396.045L381.034 395.703L415.506 134.593L630.906 301.168L631.292 301.065L924.83 229.409L793.04 472.762L793.231 473.041L940.173 689.835L643.32 673.674L643.056 673.945L440.339 879.602L388.659 626.259L388.304 626.14L116.067 536.423Z" fill="#02489F"/>
<path d="M417.753 139.248L417.578 140.547L383.699 397.477L122.083 536.165L391.349 624.849L442.44 875.055L642.866 671.647L936.069 687.592L790.705 473.191L920.83 232.833L630.535 303.743L417.753 139.248ZM125.404 535.852L385.057 398.183L385.103 397.847L418.871 141.9L630.068 305.159L918.194 234.785L789.041 473.345L789.232 473.624L933.324 686.149L642.311 670.323L642.046 670.589L443.353 872.217L392.652 623.877L392.299 623.764L125.404 535.852Z" fill="#02489F"/>
<path d="M421.136 146.598L420.969 147.881L387.831 399.645L131.475 535.587L132.808 536.028L395.344 622.455L445.45 867.634L641.845 668.276L929.174 683.856L786.68 473.776L914.153 238.228L629.687 307.745L421.136 146.598ZM134.745 535.275L389.182 400.346L389.223 400.018L422.242 149.207L629.228 309.165L629.601 309.065L911.554 240.15L785.043 473.936L785.233 474.21L926.468 682.435L641.288 666.972L641.034 667.228L446.374 864.838L396.639 621.499L396.291 621.384L134.745 535.275Z" fill="#02489F"/>
<path d="M424.53 153.952L424.381 155.23L391.95 401.818L140.867 535.017L399.358 620.065L448.493 860.199L449.467 859.205L640.827 664.905L922.296 680.117L921.584 679.075L782.655 474.37L907.468 243.626L906.049 243.974L628.842 311.766L424.53 153.952ZM144.087 534.712L393.281 402.518L393.328 402.188L425.617 156.514L628.392 313.151L904.924 245.54L781.048 474.522L781.232 474.797L919.617 678.727L640.284 663.624L449.397 857.447L400.626 619.109L400.287 618.999L144.087 534.712Z" fill="#02489F"/>
<path d="M427.943 161.293L396.065 403.99L150.26 534.439L403.366 617.667L451.507 852.789L639.8 661.535L915.377 676.387L914.682 675.36L778.632 474.961L900.785 249.023L627.993 315.787L427.943 161.293ZM153.454 534.135L397.403 404.669L397.446 404.346L428.983 163.822L627.555 317.143L627.911 317.048L898.277 250.875L777.043 475.108L777.231 475.375L912.773 675.009L639.268 660.271L639.019 660.525L452.413 850.069L404.617 616.742L404.283 616.63L153.454 534.135Z" fill="#02489F"/>
<path d="M431.302 168.647L431.143 169.863L400.191 406.158L159.654 533.866L160.923 534.285L407.381 615.273L454.566 845.353L638.778 658.156L908.476 672.65L774.601 475.547L894.099 254.405L892.728 254.74L627.15 319.806L431.302 168.647ZM162.767 533.571L401.477 406.831L401.521 406.515L432.354 171.128L626.711 321.136L627.091 321.034L891.661 256.232L773.046 475.697L773.226 475.96L905.901 671.284L638.278 656.941L638.034 657.188L455.466 842.686L408.64 614.352L408.312 614.239L162.767 533.571Z" fill="#02489F"/>
<path d="M434.696 176L434.538 177.197L404.337 408.335L169.057 533.287L170.304 533.698L411.399 612.874L457.612 837.929L458.542 836.986L637.779 654.78L901.604 668.908L770.582 476.138L887.425 259.82L626.303 323.821L434.696 176ZM172.109 533.007L405.58 408.995L405.62 408.686L435.729 178.434L625.878 325.128L626.227 325.034L885.009 261.608L769.051 476.282L769.23 476.539L899.053 667.588L637.241 653.569L458.462 835.314L412.607 611.98L412.281 611.873L172.109 533.007Z" fill="#02489F"/>
<path d="M438.073 183.339L437.923 184.514L408.429 410.482L178.443 532.718L415.401 610.486L460.646 830.534L461.555 829.609L636.731 651.417L894.682 665.18L766.551 476.732L880.734 265.199L625.451 327.818L438.073 183.339ZM181.445 532.419L409.675 411.154L409.715 410.845L439.086 185.72L625.025 329.099L625.351 329.012L878.337 266.957L765.052 476.875L765.223 477.127L892.196 663.881L636.224 650.223L635.991 650.461L461.481 827.936L416.592 609.603L416.272 609.494L181.445 532.419Z" fill="#02489F"/>
<path d="M441.469 190.696L412.552 412.671L187.833 532.14L189.037 532.537L419.418 608.086L463.671 823.055L464.57 822.166L635.714 648.043L887.781 661.425L887.129 660.464L762.532 477.322L874.06 270.611L624.61 331.855L441.469 190.696ZM190.788 531.86L413.776 413.309L413.812 413.008L442.467 193.049L624.198 333.113L871.728 272.346L761.062 477.476L885.335 660.134L635.218 646.866L634.984 647.104L464.497 820.545L420.585 607.209L420.273 607.104L190.788 531.86Z" fill="#02489F"/>
<path d="M444.854 198.053L416.674 414.843L197.228 531.569L423.427 605.69L466.714 815.653L467.594 814.768L634.694 644.673L880.892 657.708L880.245 656.766L758.504 477.916L867.378 276.009L623.766 335.87L444.854 198.053ZM200.131 531.291L417.875 415.468L417.912 415.172L445.839 200.357L623.355 337.108L623.687 337.019L865.087 277.706L757.03 478.058L757.198 478.298L878.482 656.453L634.203 643.514L467.522 813.173L424.573 604.832L424.269 604.732L200.131 531.291Z" fill="#02489F"/>
<path d="M448.242 205.401L448.102 206.515L420.795 417.014L206.62 530.992L427.443 603.298L469.748 808.225L470.611 807.345L633.67 641.316L873.991 653.973L873.363 653.052L754.479 478.502L860.683 281.409L622.897 339.89L448.242 205.401ZM209.471 530.734L421.976 417.638L422.009 417.35L449.205 207.666L622.518 341.101L858.448 283.072L753.054 478.631L753.22 478.865L871.669 652.734L633.183 640.15L632.96 640.378L470.539 805.775L428.568 602.458L428.271 602.362L209.471 530.734Z" fill="#02489F"/>
<path d="M451.633 212.746L451.488 213.842L424.917 419.182L216.017 530.418L431.453 600.898L472.786 800.801L473.625 799.927L632.646 637.925L867.123 650.228L750.458 479.091L854.021 286.798L622.074 343.903L451.633 212.746ZM218.819 530.147L426.074 419.787L426.109 419.505L452.578 214.97L621.682 345.091L621.996 345.007L851.81 288.435L749.06 479.226L749.22 479.462L864.785 649.026L632.162 636.816L631.945 637.043L473.55 798.417L432.545 600.08L432.248 599.985L218.819 530.147Z" fill="#02489F"/>
<path d="M455.021 220.101L429.042 421.354L225.413 529.84L435.466 598.508L475.849 793.366L631.635 634.552L860.196 646.502L746.433 479.684L847.373 292.193L621.258 347.91L455.021 220.101ZM228.147 529.581L430.17 421.946L455.947 222.279L620.844 349.091L845.176 293.806L745.067 479.817L745.219 480.048L857.934 645.318L631.158 633.448L476.586 791.029L436.548 597.699L436.259 597.608L228.147 529.581Z" fill="#02489F"/>
<path d="M458.41 227.45L433.157 423.527L234.801 529.271L235.898 529.626L439.48 596.11L478.861 785.951L630.602 631.184L853.304 642.778L742.411 480.276L840.66 297.598L620.377 351.934L458.41 227.45ZM237.502 529.008L434.286 424.099L459.319 229.586L620.007 353.084L620.308 353.003L838.535 299.166L741.085 480.391L741.242 480.615L851.078 641.604L630.147 630.113L629.941 630.331L479.608 783.65L440.541 595.319L440.258 595.227L237.502 529.008Z" fill="#02489F"/>
<path d="M461.794 234.798L461.664 235.831L437.278 425.696L244.188 528.668L245.267 529.027L443.49 593.692L481.898 778.502L629.583 627.792L846.433 639.002L738.399 480.857L833.978 302.993L619.535 355.952L461.794 234.798ZM246.833 528.458L438.366 426.261L462.683 236.862L619.161 357.064L619.462 356.983L831.893 304.518L737.043 480.98L737.198 481.198L844.224 637.894L629.138 626.783L628.936 626.993L482.63 776.269L444.529 592.94L444.252 592.845L246.833 528.458Z" fill="#02489F"/>
<path d="M465.185 242.153L465.054 243.16L441.393 427.844L253.596 528.12L254.656 528.484L447.507 591.326L484.932 771.095L628.56 624.436L839.501 635.296L838.934 634.456L734.359 481.455L827.296 308.391L618.688 359.981L465.185 242.153ZM256.182 527.861L442.466 428.425L466.057 244.202L618.327 361.07L618.622 360.991L825.241 309.908L733.068 481.58L733.217 481.799L837.362 634.183L628.124 623.411L627.922 623.621L485.647 768.893L448.523 590.561L448.247 590.473L256.182 527.861Z" fill="#02489F"/>
<path d="M468.57 249.501L445.523 430.038L262.972 527.546L451.504 588.925L487.987 763.661L488.754 762.884L627.536 621.065L832.609 631.559L832.047 630.737L730.32 482.05L820.616 313.786L617.842 363.981L468.57 249.501ZM265.503 527.296L446.566 430.582L469.43 251.507L617.492 365.061L617.775 364.985L818.622 315.267L729.058 482.161L729.199 482.376L830.502 630.47L627.106 620.065L488.663 761.508L452.524 588.178L452.255 588.088L265.503 527.296Z" fill="#02489F"/>
<path d="M471.961 256.848L449.645 432.208L272.381 526.971L455.527 586.531L491.007 756.243L626.516 617.694L825.71 627.823L825.16 627.024L726.309 482.632L813.953 319.177L617.011 367.991L471.961 256.848ZM274.839 526.694L450.666 432.739L450.697 432.491L472.81 258.813L616.65 369.055L811.978 320.608L725.076 482.755L725.216 482.963L823.653 626.727L626.098 616.71L625.906 616.91L491.693 754.126L456.501 585.803L456.239 585.717L274.839 526.694Z" fill="#02489F"/>
<path d="M475.347 264.204L453.762 434.381L281.769 526.395L282.759 526.713L459.543 584.132L494.043 748.815L625.498 614.323L818.812 624.089L722.277 483.227L807.254 324.579L806.199 324.861L616.152 372.016L475.347 264.204ZM284.181 526.138L454.742 434.903L454.774 434.661L476.166 266.15L615.839 373.066L616.111 372.994L805.372 326.017L721.073 483.341L721.219 483.549L816.807 623.043L625.085 613.363L624.898 613.556L494.711 746.749L460.493 583.411L460.237 583.324L284.181 526.138Z" fill="#02489F"/>
<path d="M478.736 271.55L478.616 272.477L457.883 436.551L291.162 525.816L463.551 581.734L497.074 741.368L497.789 740.638L624.475 610.944L811.915 620.345L718.259 483.815L800.577 329.972L615.301 376.03L478.736 271.55ZM293.522 525.579L458.865 437.059L458.892 436.819L479.535 273.398L614.965 377.041L798.703 331.369L717.076 483.931L717.213 484.128L809.958 619.333L624.069 610.009L623.888 610.2L497.728 739.35L464.479 581.025L464.231 580.942L293.522 525.579Z" fill="#02489F"/>
<path d="M482.122 278.905L482.007 279.804L462.005 438.721L300.558 525.244L467.562 579.342L500.116 733.963L623.45 607.574L805.017 616.609L714.232 484.408L793.896 335.368L614.477 380.038L482.122 278.905ZM302.869 525.02L462.959 439.218L482.91 280.736L614.135 381.031L614.395 380.962L792.076 336.725L713.074 484.498L713.209 484.688L803.099 615.599L623.034 606.648L622.851 606.833L500.749 731.984L468.473 578.664L302.869 525.02Z" fill="#02489F"/>
<path d="M485.51 286.252L485.397 287.132L466.125 440.892L309.95 524.666L471.576 576.944L503.162 726.532L503.846 725.83L622.434 604.201L798.128 612.897L710.238 485.011L787.212 340.764L613.608 384.039L485.51 286.252ZM312.209 524.463L467.056 441.375L467.085 441.147L486.28 288.043L613.294 385.011L785.426 342.079L709.081 485.107L709.21 485.299L796.248 611.909L622.04 603.308L621.863 603.492L503.789 724.626L472.446 576.309L472.207 576.236L312.209 524.463Z" fill="#02489F"/>
<path d="M488.893 293.589L470.244 443.064L319.348 524.094L475.59 574.553L506.189 719.107L621.411 600.832L791.224 609.158L790.736 608.446L706.183 485.586L780.536 346.167L779.571 346.425L612.756 388.082L488.893 293.589ZM321.55 523.874L471.158 443.533L471.189 443.311L489.651 295.332L612.459 389.024L612.713 388.956L778.802 347.461L705.088 485.698L705.214 485.878L789.396 608.195L621.028 599.955L620.855 600.131L506.796 717.226L476.479 573.893L476.24 573.821L321.55 523.874Z" fill="#02489F"/>
<path d="M492.287 300.955L474.365 445.235L328.735 523.518L479.604 572.155L509.237 711.682L620.402 597.458L784.346 605.411L783.859 604.705L702.16 486.178L773.845 351.533L611.893 392.1L492.287 300.955ZM330.911 523.298L475.285 445.702L475.316 445.48L493.021 302.659L611.619 393.004L772.161 352.821L701.09 486.283L701.215 486.464L782.547 604.486L620.026 596.606L619.853 596.781L509.818 709.847L480.448 571.52L330.911 523.298Z" fill="#02489F"/>
<path d="M495.67 308.304L478.485 447.406L338.135 522.945L338.991 523.221L483.613 569.764L512.26 704.257L619.362 594.085L777.424 601.669L776.959 600.996L698.137 486.769L767.17 356.959L611.068 396.115L495.67 308.304ZM340.224 522.735L479.352 447.842L479.378 447.627L496.392 309.965L610.808 397.002L611.049 396.937L765.553 358.184L697.086 486.876L697.21 487.05L775.697 600.77L619.015 593.251L618.849 593.425L512.862 702.455L484.427 569.111L484.207 569.04L340.224 522.735Z" fill="#02489F"/>
<path d="M499.062 315.651L498.966 316.448L482.61 449.575L347.525 522.367L487.649 567.359L515.298 696.827L618.344 590.713L770.525 597.926L770.071 597.27L694.102 487.351L760.491 362.355L759.599 362.594L610.221 400.129L499.062 315.651ZM349.558 522.166L483.457 450.01L483.485 449.802L499.76 317.267L609.945 401.001L758.889 363.562L693.091 487.459L768.834 597.063L617.993 589.905L617.83 590.072L515.858 695.082L488.427 566.742L488.208 566.671L349.558 522.166Z" fill="#02489F"/>
<path d="M502.458 323.027L486.733 451.757L356.909 521.81L491.638 564.965L518.333 689.404L518.935 688.782L617.313 587.329L763.594 594.179L763.152 593.539L690.086 487.945L753.808 367.756L609.375 404.141L502.458 323.027ZM358.905 521.592L487.558 452.184L487.581 451.983L503.137 324.596L609.1 404.993L609.329 404.932L752.251 368.938L689.093 488.049L689.208 488.213L761.958 593.352L616.975 586.551L616.819 586.716L518.878 687.701L492.416 564.374L492.204 564.307L358.905 521.592Z" fill="#02489F"/>
<path d="M505.837 330.354L505.749 331.11L490.843 453.901L366.314 521.218L495.627 562.582L521.371 681.977L521.952 681.374L616.299 583.972L756.729 590.443L756.297 589.82L686.06 488.54L747.127 373.147L608.558 408.15L505.837 330.354ZM368.276 521.017L491.656 454.331L491.679 454.13L506.507 331.886L608.266 408.987L745.624 374.289L685.091 488.637L685.206 488.801L755.123 589.635L615.94 583.212L615.788 583.369L521.908 680.342L496.41 562.009L496.204 561.941L368.276 521.017Z" fill="#02489F"/>
<path d="M509.228 337.7L509.135 338.438L494.97 456.088L375.704 520.647L499.661 560.177L524.413 674.546L524.976 673.967L615.279 580.599L749.828 586.701L749.407 586.094L682.031 489.099L740.452 378.541L607.685 412.17L509.228 337.7ZM377.584 520.454L495.752 456.475L495.771 456.282L509.857 339.204L607.424 412.979L607.641 412.921L738.979 379.675L681.112 489.216L681.224 489.367L748.27 585.925L614.95 579.851L524.895 672.945L500.438 559.632L500.24 559.568L377.584 520.454Z" fill="#02489F"/>
<path d="M512.614 345.057L512.529 345.774L499.117 458.254L385.099 520.071L503.678 557.787L527.452 667.126L614.253 577.225L742.936 582.992L742.526 582.402L678.011 489.719L733.753 383.944L732.969 384.154L606.839 416.199L512.614 345.057ZM386.959 519.877L499.861 458.619L499.889 458.437L513.247 346.502L606.588 416.974L732.337 385.024L677.075 489.82L677.181 489.973L741.392 582.219L613.937 576.506L613.796 576.654L527.943 665.561L504.392 557.245L504.2 557.18L386.959 519.877Z" fill="#02489F"/>
<path d="M515.979 352.409L515.888 353.082L503.213 460.43L394.493 519.497L395.201 519.729L507.698 555.385L530.48 659.698L613.226 573.854L736.041 579.254L735.642 578.68L673.988 490.308L727.09 389.34L605.987 420.207L515.979 352.409ZM396.266 519.314L503.947 460.804L503.971 460.629L516.618 353.807L605.752 420.97L605.951 420.917L725.691 390.389L673.12 490.398L673.224 490.545L734.59 578.514L612.921 573.151L612.786 573.297L530.965 658.18L508.385 554.863L396.266 519.314Z" fill="#02489F"/>
<path d="M519.387 359.758L519.308 360.428L507.334 462.601L403.885 518.92L404.592 519.145L511.7 552.989L533.521 652.268L612.21 570.481L729.142 575.525L728.757 574.98L669.958 490.901L720.424 394.731L605.143 424.226L519.387 359.758ZM405.601 518.739L508.046 462.968L508.07 462.793L519.988 361.134L604.931 424.977L719.082 395.772L669.097 490.99L669.199 491.131L727.71 574.787L611.906 569.804L611.775 569.943L533.979 650.796L512.372 552.485L512.188 552.424L405.601 518.739Z" fill="#02489F"/>
</g>
</g>
<defs>
<clipPath id="clip0">
<rect width="512.766" height="504.773" fill="white" transform="matrix(0.965926 0.258819 0.258819 -0.965926 0.367188 487.727)"/>
</clipPath>
</defs>
</svg>
