<svg width="789" height="380" viewBox="0 0 789 380" fill="none" xmlns="http://www.w3.org/2000/svg">
<g clip-path="url(#clip0)">
<g clip-path="url(#clip1)">
<path d="M-142.168 1470.6L-121.435 629.414L-757.758 36.1718L-755.139 35.7425L-3.14209 -89.4447L240.645 -855.638L242.198 -852.949L686.286 -92.0579L1473.3 27.6443L1471.64 29.7299L994.1 625.151L1236.69 1465.33L494.892 1071.05L-142.168 1470.6ZM-118.681 628.361L-118.719 629.101L-139.331 1465.16L494.443 1067.7L495.119 1068.06L1232.39 1459.95L991.074 624.13L991.487 623.605L1467.79 29.7239L684.874 -89.3639L684.474 -90.0578L241.53 -848.979L-0.989036 -86.7582L-1.6477 -86.6576L-751.683 38.1786L-118.681 628.361Z" fill="white"/>
<path d="M-133.743 1452.14L-118.807 626.778L-739.449 40.9965L-736.884 40.5482L-1.40441 -87.8737L242.722 -836.437L244.224 -833.834L683.89 -90.6957L1455.41 32.4455L1453.8 34.4947L990.072 622.185L1222.77 1446.85L1220.24 1445.53L493.943 1065.59L-133.743 1452.14ZM-116.091 625.747L-116.108 626.474L-130.961 1446.86L493.521 1062.33L494.176 1062.67L1218.59 1441.61L987.086 621.184L987.496 620.653L1450.07 34.4899L682.508 -88.0482L682.117 -88.7258L243.583 -829.928L0.71624 -85.2187L0.0606626 -85.1127L-733.519 42.9869L-116.091 625.747Z" fill="white"/>
<path d="M-125.324 1433.69L-125.289 1430.9L-116.191 624.134L-721.142 45.8152L-718.653 45.3603L0.321438 -86.325L244.781 -817.254L681.52 -89.35L1437.57 37.2261L1436.01 39.2305L986.039 619.22L1208.82 1428.4L1206.35 1427.13L493.022 1060.18L-125.324 1433.69ZM-113.501 623.119L-113.508 623.84L-122.595 1428.54L492.596 1056.94L493.245 1057.28L1204.76 1423.26L983.104 618.247L983.518 617.721L1432.33 39.1976L680.143 -86.7333L679.764 -87.3894L245.63 -810.917L2.42251 -83.7161L-715.361 47.7477L-113.501 623.119Z" fill="white"/>
<path d="M-116.899 1415.24L-116.887 1412.53L-113.555 621.486L-702.834 50.6399L2.02859 -84.7579L246.845 -798.074L248.326 -795.645L679.151 -88.0036L1419.72 42.0021L1418.22 43.9693L982.006 616.257L1194.91 1409.91L1192.51 1408.69L492.091 1054.75L-116.899 1415.24ZM-110.912 620.491L-110.908 621.206L-114.228 1410.24L491.665 1051.55L492.309 1051.9L1190.93 1404.91L979.104 615.279L979.491 614.769L1414.59 43.9362L677.78 -85.4124L677.411 -86.0525L247.676 -791.892L4.12575 -82.1683L3.4857 -82.0354L-697.209 52.5623L-110.912 620.491Z" fill="white"/>
<path d="M-108.475 1396.8L-108.481 1394.15L-110.92 618.861L-684.517 55.4752L-682.181 55.0016L3.78541 -83.2189L248.911 -778.894L676.785 -86.6658L1401.88 46.7773L1400.44 48.6995L977.991 613.312L1180.99 1391.44L1178.65 1390.27L491.162 1049.33L-108.475 1396.8ZM-108.338 617.872L-105.894 1391.91L490.725 1046.17L491.33 1046.48L1177.1 1386.56L975.118 612.332L975.488 611.831L1396.87 48.677L675.405 -84.0907L675.045 -84.7145L249.719 -772.864L5.81847 -80.6782L5.21388 -80.5587L-679.034 57.3003L-108.338 617.872Z" fill="white"/>
<path d="M-100.027 1378.33L-108.303 616.203L-666.218 60.2777L-663.958 59.7975L5.51286 -81.6704L250.948 -759.69L674.359 -85.2861L1384.01 51.5712L973.95 610.332L1167.06 1372.95L1164.78 1371.84L490.238 1043.87L-100.027 1378.33ZM-105.731 615.234L-105.727 615.899L-97.5214 1373.57L489.812 1040.78L490.402 1041.07L1163.28 1368.22L971.142 609.379L971.5 608.893L1379.13 53.4094L673.052 -82.7821L672.705 -83.3845L251.781 -753.84L7.51339 -79.1612L6.92571 -79.037L-660.87 62.0802L-105.731 615.234Z" fill="white"/>
<path d="M-91.6168 1359.92L-105.682 613.563L-647.921 65.1003L7.24128 -80.11L253.035 -740.526L672.006 -83.9295L1366.15 56.3784L969.928 607.382L1153.13 1354.5L1150.91 1353.44L489.263 1038.47L-91.6168 1359.92ZM-103.15 612.61L-103.136 613.254L-89.1646 1355.24L488.883 1035.39L1149.44 1349.87L967.134 606.428L1361.4 58.1483L670.678 -81.4632L670.343 -82.044L253.814 -734.808L9.20849 -77.6461L8.64318 -77.5205L-642.71 66.8388L-103.15 612.61Z" fill="white"/>
<path d="M-83.2049 1341.44L-83.2754 1339.02L-103.039 610.913L-629.596 69.9108L8.9747 -78.5631L255.099 -721.35L669.616 -82.5978L1348.29 61.1451L1347.02 62.9426L965.867 604.415L1139.2 1336.02L1137.05 1335.02L488.356 1033.02L-83.2049 1341.44ZM-100.546 610.004L-100.531 610.626L-80.795 1336.94L487.96 1030L488.518 1030.26L1135.61 1331.52L963.149 603.482L963.474 603.014L1343.66 62.8876L668.315 -80.147L668.004 -80.6848L255.875 -715.761L10.9489 -76.1247L10.4058 -75.9977L-624.534 71.6277L-100.546 610.004Z" fill="white"/>
<path d="M-74.781 1323L-74.8636 1320.66L-100.429 608.281L-611.297 74.7418L-609.263 74.2418L10.7015 -77.0139L257.165 -702.17L667.253 -81.2545L1330.45 65.9204L961.864 601.442L1125.28 1317.55L487.421 1027.59L-74.781 1323ZM-97.9678 607.355L-72.4431 1318.59L487.009 1024.63L1121.76 1313.18L959.156 600.524L959.463 600.075L1325.93 67.6262L665.95 -78.8314L665.608 -79.3506L257.903 -696.745L12.6175 -74.6136L12.0884 -74.4874L-606.366 76.4051L-97.9678 607.355Z" fill="white"/>
<path d="M-66.3604 1304.55L-66.4666 1302.28L-97.8064 605.638L-593.001 79.5575L-591.04 79.0563L12.4049 -75.4758L259.204 -683.007L664.821 -79.9029L1312.57 70.7138L1311.41 72.4301L957.829 598.477L1111.33 1299.09L1109.31 1298.19L486.482 1022.16L-66.3604 1304.55ZM-95.3807 604.725L-95.3541 605.305L-64.0974 1300.29L486.064 1019.27L1107.91 1294.86L955.169 597.582L1308.2 72.3636L663.592 -77.501L663.249 -78.0201L259.933 -677.684L14.3139 -73.1002L13.8071 -72.9724L-588.195 81.1783L-95.3807 604.725Z" fill="white"/>
<path d="M-57.9494 1286.11L-95.1796 602.997L-574.698 84.3792L-572.831 83.8892L14.156 -73.9118L261.283 -663.806L662.453 -78.5349L1294.72 75.5007L953.814 595.504L1097.43 1280.6L485.557 1016.72L-57.9494 1286.11ZM-92.7893 602.097L-92.7612 602.654L-55.7283 1281.94L485.174 1013.84L485.671 1014.05L1094.11 1276.47L951.165 594.639L951.442 594.213L1290.47 77.1014L661.223 -76.1968L660.896 -76.6753L261.967 -658.672L16.0147 -71.586L-570.026 85.9552L-92.7893 602.097Z" fill="white"/>
<path d="M-49.5155 1267.66L-92.5483 600.366L-556.391 89.2125L-554.572 88.7003L15.8851 -72.357L263.355 -644.637L264.612 -642.832L660.052 -77.1698L1276.84 80.2956L1275.8 81.9212L949.744 592.562L1083.5 1262.15L484.627 1011.3L-49.5155 1267.66ZM-90.2047 599.472L-90.17 600.004L-47.3676 1263.61L484.241 1008.45L484.723 1008.65L1080.28 1258.12L947.181 591.661L947.445 591.251L1272.73 81.8433L658.857 -74.8812L658.538 -75.3349L264.012 -639.638L17.6899 -70.0503L17.2278 -69.9197L-551.879 90.7452L-90.2047 599.472Z" fill="white"/>
<path d="M-41.0973 1249.21L-41.2601 1247.15L-89.9313 597.715L-538.092 94.0217L17.6147 -70.8101L265.409 -625.472L266.642 -623.746L657.697 -75.8319L1259 85.0716L1258.01 86.6523L945.741 589.581L1069.57 1243.68L1067.71 1242.94L483.683 1005.86L-41.0973 1249.21ZM-87.6168 596.845L-87.5806 597.355L-39.0122 1245.27L483.317 1003.07L1066.45 1239.76L943.198 588.726L943.444 588.333L1254.99 86.5828L656.491 -73.5648L656.184 -73.9971L266.03 -620.597L19.4139 -68.5503L18.9741 -68.4183L-533.681 95.5048L-87.6168 596.845Z" fill="white"/>
<path d="M-32.6723 1230.77L-32.8407 1228.8L-87.3042 595.073L-519.8 98.8492L19.3459 -69.2565L267.482 -606.283L268.685 -604.633L655.305 -74.4934L1241.13 89.8452L941.68 586.627L1055.61 1225.21L1053.84 1224.51L482.749 1000.43L-32.6723 1230.77ZM-85.0252 594.216L-84.9821 594.7L-30.6496 1226.94L482.392 997.685L482.836 997.859L1052.62 1221.42L939.213 585.779L1237.25 91.3233L654.127 -72.2503L653.827 -72.658L268.102 -601.571L21.1148 -67.0366L20.7028 -66.9063L-515.506 100.278L-85.0252 594.216Z" fill="white"/>
<path d="M-24.2571 1212.32L-84.6817 592.432L-501.491 103.666L-499.89 103.136L21.0724 -67.7015L269.541 -587.107L270.714 -585.534L652.926 -73.1214L1223.3 94.6398L1222.43 96.133L937.662 583.668L1041.7 1206.75L481.797 995.009L-24.2571 1212.32ZM-82.438 591.588L-82.3935 592.05L-22.2916 1208.62L481.458 992.286L481.879 992.444L1038.78 1203.05L935.219 582.827L935.431 582.461L1219.49 96.0808L651.739 -70.9083L651.448 -71.2999L270.144 -582.537L22.8143 -65.5163L22.4215 -65.3898L-497.332 105.058L-82.438 591.588Z" fill="white"/>
<path d="M-15.833 1193.88L-82.0558 589.792L-483.208 108.493L22.8046 -66.1546L271.608 -567.935L650.519 -71.7801L1205.42 99.4132L933.652 580.694L1027.8 1188.28L1026.15 1187.68L480.884 989.565L-15.833 1193.88ZM-79.869 588.974L-79.8231 589.414L-13.9549 1190.29L480.504 986.909L480.91 987.054L1024.93 1184.71L931.23 579.876L931.429 579.525L1201.78 100.805L649.371 -69.5972L272.19 -563.502L24.4871 -63.9852L24.1166 -63.8573L-479.189 109.844L-79.869 588.974Z" fill="white"/>
<path d="M-7.41111 1175.44L-79.4316 587.15L-464.866 113.312L24.5601 -64.5656L273.697 -548.726L274.811 -547.305L648.172 -70.4328L1187.61 104.186L929.623 577.727L1013.89 1169.83L1012.31 1169.31L479.947 984.132L-7.41111 1175.44ZM-77.2588 586.333L-77.2114 586.75L-5.59248 1171.97L479.603 981.512L479.981 981.645L1011.11 1166.35L927.242 576.929L927.422 576.595L1184.04 105.54L647.039 -68.2869L646.771 -68.6269L274.24 -544.458L26.2153 -62.4808L25.8694 -62.36L-460.986 114.608L-77.2588 586.333Z" fill="white"/>
<path d="M1.00518 1157L-76.8018 584.52L-446.59 118.12L-445.206 117.587L26.2575 -63.0503L275.724 -529.582L276.809 -528.237L645.775 -69.0702L1169.74 108.987L1169.03 110.351L925.592 574.769L999.947 1151.35L998.423 1150.84L479.012 978.705L1.00518 1157ZM-74.6705 583.706L-74.6217 584.101L2.79038 1153.62L478.692 976.115L479.052 976.23L997.297 1147.99L923.25 573.977L923.417 573.659L1166.3 110.283L644.676 -66.9877L644.424 -67.3008L276.284 -525.41L27.9395 -60.9811L27.6106 -60.8557L-442.79 119.376L-74.6705 583.706Z" fill="white"/>
<path d="M9.424 1138.55L9.20705 1136.94L-74.1788 581.874L-428.29 122.937L27.9754 -61.5172L277.78 -510.432L643.378 -67.7361L1151.88 113.755L1151.21 115.075L921.542 571.787L986.028 1132.86L984.565 1132.4L478.083 973.269L9.424 1138.55ZM-72.0798 581.078L-72.0272 581.442L11.152 1135.29L477.747 970.738L478.078 970.841L983.439 1129.64L919.255 571.028L1148.56 115.024L642.318 -65.6753L642.078 -65.967L278.342 -506.404L29.6487 -59.5003L29.3475 -59.3766L-424.604 124.121L-72.0798 581.078Z" fill="white"/>
<path d="M17.8425 1120.11L17.5889 1118.58L-71.556 579.227L-409.997 127.757L-408.75 127.223L29.7114 -59.9518L279.848 -491.247L641.005 -66.3727L1134.04 118.542L917.538 568.836L972.108 1114.42L970.707 1114L477.156 967.839L17.8425 1120.11ZM-69.4678 578.437L-69.4139 578.779L19.5371 1116.94L476.841 965.332L477.152 965.424L969.603 1111.29L915.268 568.082L915.404 567.795L1130.82 119.769L639.932 -64.3473L639.704 -64.6174L280.366 -487.358L31.3208 -57.9338L31.0388 -57.814L-406.457 128.947L-69.4678 578.437Z" fill="white"/>
<path d="M26.2601 1101.67L25.9968 1100.21L-68.9311 576.584L-391.699 132.572L-390.521 132.043L31.4406 -58.3989L281.91 -472.074L638.621 -65.019L1116.2 123.351L1115.64 124.581L913.509 565.876L958.208 1095.94L956.871 1095.57L476.214 962.407L26.2601 1101.67ZM-66.8996 575.82L-66.8473 576.134L27.8781 1098.61L475.889 959.957L476.177 960.034L955.767 1092.96L911.278 565.128L911.404 564.861L1113.08 124.509L637.57 -63.0282L637.358 -63.2715L282.391 -468.3L33.0199 -56.4209L-388.269 133.747L-66.8996 575.82Z" fill="white"/>
<path d="M34.6743 1083.23L-66.3256 573.953L-373.415 137.396L-372.29 136.861L33.188 -56.8565L284.001 -452.918L284.955 -451.862L636.265 -63.6819L1098.36 128.093L1097.85 129.278L909.478 562.91L944.26 1077.5L942.98 1077.17L475.278 956.98L34.6743 1083.23ZM-64.3197 573.182L-64.2658 573.473L36.2499 1080.3L474.973 954.59L475.236 954.66L941.932 1074.58L907.284 562.176L907.392 561.927L1095.3 129.264L635.201 -61.7127L635.005 -61.9291L284.457 -449.273L34.7186 -54.9007L34.4982 -54.7734L-370.088 138.515L-64.3197 573.182Z" fill="white"/>
<path d="M43.097 1064.79L42.8123 1063.48L-63.688 571.306L-355.097 142.232L-354.061 141.705L34.9067 -55.2726L286.04 -433.735L286.961 -432.747L633.857 -62.3183L1080.49 132.891L905.452 559.944L930.348 1059.04L929.135 1058.75L474.344 951.549L43.097 1064.79ZM-61.7249 570.56L-61.6728 570.824L44.6052 1061.95L474.029 949.178L474.272 949.239L928.073 1056.21L903.294 559.247L903.386 559.022L1077.59 133.991L632.82 -60.3785L632.635 -60.5734L286.513 -430.208L36.4316 -53.3636L36.2328 -53.2488L-351.901 143.312L-61.7249 570.56Z" fill="white"/>
<path d="M51.5315 1046.38L51.2277 1045.12L-61.0618 568.663L-336.81 147.04L-335.834 146.52L36.6308 -53.7301L288.1 -414.553L631.477 -60.9449L1062.65 137.69L1062.23 138.778L901.424 556.985L916.431 1040.57L915.276 1040.32L473.418 946.117L51.5315 1046.38ZM-59.1208 567.966L-59.0681 568.194L52.9691 1043.61L473.105 943.788L473.319 943.836L914.245 1037.84L899.306 556.271L1059.86 138.745L630.472 -59.0737L630.308 -59.2448L288.539 -411.2L38.1278 -51.8696L37.9451 -51.7641L-333.73 148.029L-59.1208 567.966Z" fill="white"/>
<path d="M59.9231 1027.91L-58.4387 566.022L-318.52 151.846L38.354 -52.1942L290.158 -395.406L291.016 -394.553L629.088 -59.6166L1044.8 142.453L897.394 554.018L902.51 1022.12L901.421 1021.9L472.479 940.685L59.9231 1027.91ZM-56.5464 565.303L61.3298 1025.27L472.175 938.394L472.364 938.436L900.415 1019.5L895.308 553.323L895.375 553.14L1042.1 143.474L628.092 -57.7793L290.594 -392.144L39.8172 -50.3428L39.6612 -50.2528L-315.565 152.844L-56.5464 565.303Z" fill="white"/>
<path d="M68.3453 1009.48L68.0376 1008.39L-55.8207 563.386L-300.235 156.657L-299.386 156.167L40.0782 -50.6438L292.236 -376.212L626.723 -58.2358L1026.97 147.263L1026.64 148.256L893.368 551.059L888.593 1003.66L471.545 935.259L68.3453 1009.48ZM-53.9553 562.682L-53.906 562.854L69.6963 1006.93L471.243 933.01L471.408 933.036L886.56 1001.12L891.316 550.372L891.371 550.219L1024.35 148.223L625.741 -56.4356L625.606 -56.5583L292.638 -373.095L41.5189 -48.8438L41.3845 -48.7663L-297.393 157.583L-53.9553 562.682Z" fill="white"/>
<path d="M76.7623 991.048L-53.1727 560.732L-281.926 161.453L-281.155 160.951L41.8025 -49.1002L294.277 -357.075L295.068 -356.363L624.326 -56.9158L1009.11 152.017L1008.82 152.958L889.35 548.094L874.681 985.199L873.704 985.046L470.613 929.831L76.7623 991.048ZM-279.173 162.424L-51.3457 560.086L78.0574 988.586L470.316 927.615L470.451 927.638L872.721 982.76L887.343 547.41L887.382 547.28L1006.61 152.965L623.375 -55.1119L623.266 -55.2139L294.685 -354.048L43.2314 -47.3079L43.124 -47.2459L-279.173 162.424Z" fill="white"/>
<path d="M85.1772 972.615L84.864 971.663L-50.5751 558.106L-263.667 166.278L43.5281 -47.5514L296.337 -337.915L621.937 -55.5659L991.256 156.768L991.015 157.667L885.312 545.134L860.76 966.748L859.859 966.652L469.68 924.404L85.1772 972.615ZM-261.011 167.154L-48.782 557.401L-48.7261 557.497L86.425 970.245L469.377 922.227L469.486 922.243L858.867 964.399L883.331 544.471L883.363 544.366L988.854 157.71L621.009 -53.7968L620.916 -53.8719L296.73 -335L44.9353 -45.7967L44.8439 -45.744L-261.011 167.154Z" fill="white"/>
<path d="M93.5886 954.185L93.2764 953.297L-47.9486 555.465L-245.379 171.087L-244.732 170.606L45.2461 -46.0181L298.394 -318.75L299.111 -318.167L619.553 -54.2101L973.424 161.571L881.294 542.169L846.852 948.291L846.01 948.224L468.749 918.977L93.5886 954.185ZM-242.813 171.958L-46.157 554.782L-46.1167 554.852L94.7945 951.905L468.476 916.804L468.554 916.816L845.051 946.003L879.341 541.519L879.362 541.442L971.122 162.449L618.643 -52.4726L618.576 -52.527L298.78 -315.947L46.6418 -44.2711L46.5773 -44.2339L-242.813 171.958Z" fill="white"/>
<path d="M102.003 935.753L101.693 934.942L-45.3491 552.781L-227.092 175.924L47.0154 -44.4797L300.462 -299.601L617.219 -52.8408L955.59 166.346L955.433 167.154L877.267 539.267L832.941 929.847L832.194 929.819L467.858 913.575L102.003 935.753ZM-224.623 176.737L-43.6068 552.112L103.159 933.558L467.526 911.436L467.564 911.414L831.176 927.632L875.327 538.587L953.343 167.184L616.318 -51.1234L300.828 -296.894L48.3746 -42.7834L-224.623 176.737Z" fill="white"/>
<path d="M110.419 917.324L110.11 916.578L-42.7077 550.184L-208.787 180.72L48.7115 -42.916L302.517 -280.447L303.151 -279.981L614.807 -51.5154L937.747 171.123L937.617 171.865L873.237 536.263L819.02 911.386L466.879 908.121L110.419 917.324ZM-206.433 181.52L-41.0121 549.521L111.515 915.214L466.612 906.045L817.339 909.294L871.347 535.633L935.6 171.947L613.921 -49.8212L302.874 -277.842L50.0799 -41.2536L-206.433 181.52Z" fill="white"/>
<path d="M118.832 898.894L-40.0807 547.565L-190.521 185.536L-190.058 185.097L50.4143 -41.3517L304.581 -261.286L305.16 -260.904L612.389 -50.211L919.912 175.901L919.814 176.588L869.222 533.262L805.126 892.95L804.471 892.969L465.933 902.703L118.832 898.894ZM-188.239 186.298L-38.3896 546.919L119.922 896.846L465.67 900.646L803.496 890.922L867.355 532.648L917.846 176.692L611.532 -48.5045L304.921 -258.786L51.7402 -39.7007L-188.239 186.298Z" fill="white"/>
<path d="M127.237 880.474L-37.4962 544.86L-172.237 190.36L-171.831 189.946L52.1498 -39.8167L52.1929 -39.8416L306.652 -242.14L610.09 -48.799L902.085 180.671L902.02 181.303L865.198 530.321L865.185 530.372L791.201 874.485L790.611 874.532L465.023 897.283L464.985 897.305L127.237 880.474ZM-35.8019 544.269L128.262 878.513L464.744 895.249L789.652 872.547L863.351 529.716L900.085 181.438L609.167 -47.1831L306.969 -239.727L53.4579 -38.1841L-170.05 191.083L-35.8019 544.269Z" fill="white"/>
<path d="M135.653 862.049L135.342 861.511L-34.8567 542.275L-34.9033 542.195L-153.975 195.184L-153.624 194.787L53.8436 -38.2913L53.9189 -38.3347L308.675 -223L309.182 -222.704L607.662 -47.4971L607.706 -47.4218L884.243 185.451L884.205 186.032L861.176 527.359L861.153 527.444L777.299 856.038L776.769 856.1L464.1 891.843L464.016 891.834L135.653 862.049ZM-33.2042 541.637L136.656 860.186L463.81 889.852L775.775 854.193L859.355 526.761L882.337 186.185L606.801 -45.8598L309.018 -220.667L55.171 -36.6626L-151.845 195.869L-33.2042 541.637Z" fill="white"/>
<path d="M-32.2436 539.642L-32.3119 539.524L-135.682 199.983L-135.385 199.617L55.5703 -36.7129L55.6724 -36.7718L310.738 -203.818L311.195 -203.573L605.255 -46.1276L605.358 -46.0364L866.413 190.225L857.122 524.523L763.379 837.602L762.913 837.677L463.131 886.445L463.008 886.43L144.059 843.629L143.783 843.151L-32.2436 539.642ZM-133.653 200.654L-30.5995 539.001L145.016 841.822L462.878 884.454L761.946 835.804L855.355 523.808L864.568 190.939L604.428 -44.5314L311.064 -201.604L56.8751 -35.1357L-133.653 200.654Z" fill="white"/>
<path d="M-29.6118 536.99L-29.7018 536.834L-117.411 204.794L-117.161 204.456L57.3107 -35.1862L57.4451 -35.2638L312.813 -184.694L313.223 -184.493L602.883 -44.8224L603.013 -44.6966L848.581 195.006L853.142 521.443L853.088 521.596L749.487 819.155L749.078 819.24L462.225 881.016L462.065 880.987L152.488 825.196L152.245 824.777L-29.6118 536.99ZM-115.453 205.442L-28.0108 536.374L153.381 823.454L461.957 879.063L748.093 817.435L851.363 520.857L846.818 195.701L602.096 -43.2063L313.133 -182.563L58.6115 -33.6283L-115.453 205.442Z" fill="white"/>
<path d="M-27.0188 534.366L-27.0651 534.149L-99.1378 209.603L-98.9368 209.293L59.0308 -33.6485L59.1974 -33.7447L314.858 -165.575L315.22 -165.418L600.505 -43.493L830.743 199.747L830.762 200.152L849.138 518.477L849.065 518.662L735.602 800.726L735.257 800.824L461.293 875.602L461.088 875.556L160.874 806.787L160.636 806.437L-27.0188 534.366ZM-97.2454 210.224L-25.4047 533.736L161.738 805.105L461.017 873.646L734.248 799.076L847.364 517.888L829.049 200.438L599.69 -41.8752L315.147 -163.497L60.2768 -32.1235L-97.2454 210.224Z" fill="white"/>
<path d="M-24.4086 531.733L-24.4552 531.466L-80.8694 214.415L60.7433 -32.1139L60.9476 -32.2318L316.915 -146.398L317.225 -146.283L598.111 -42.1188L598.293 -41.9155L812.931 204.544L812.969 204.895L845.117 515.52L845.017 515.743L721.682 782.273L460.362 870.187L460.122 870.118L169.281 788.373L169.058 788.086L-24.4086 531.733ZM-79.0425 215.009L-22.7999 531.105L170.128 786.736L460.089 868.237L720.39 780.681L843.341 514.939L811.282 205.188L597.338 -40.5536L317.213 -144.405L62.0003 -30.545L-79.0425 215.009Z" fill="white"/>
<path d="M-21.8051 529.097L-62.6054 219.216L-62.4834 218.98L62.4576 -30.5792L62.7158 -30.6781L318.982 -127.27L319.251 -127.189L595.76 -40.7971L795.106 209.315L795.151 209.604L841.108 512.565L840.973 512.815L707.806 763.818L707.57 763.918L459.431 864.781L459.144 864.681L177.689 769.959L177.497 769.725L-21.8051 529.097ZM-60.838 219.794L-20.1935 528.475L178.514 768.371L459.169 862.824L706.531 762.281L839.326 511.987L793.511 209.942L594.939 -39.204L319.26 -125.336L63.7253 -29.0165L-60.838 219.794Z" fill="white"/>
<path d="M-19.2011 526.468L-19.2312 526.105L-44.3346 224.033L-44.2492 223.834L64.1772 -29.0554L64.4886 -29.1491L321.058 -108.111L321.27 -108.054L593.391 -39.4656L593.61 -39.1615L777.286 214.088L837.101 509.607L836.926 509.887L693.885 745.402L693.707 745.504L458.512 859.388L186.09 751.548L185.929 751.369L-19.2011 526.468ZM-42.6272 224.582L-17.5847 525.828L186.879 750.01L458.223 857.41L692.66 743.9L835.319 509.029L775.754 214.686L592.578 -37.8702L321.311 -106.257L65.4458 -27.4788L-42.6272 224.582Z" fill="white"/>
<path d="M-16.599 523.84L-16.6102 523.424L-26.0804 228.84L-26.0203 228.684L65.8894 -27.5264L323.1 -89.0034L323.26 -88.974L591.017 -38.1373L591.232 -37.7662L759.462 218.858L759.506 219.034L833.103 506.646L832.888 506.956L679.964 726.98L679.83 727.057L457.536 853.965L457.164 853.792L194.494 733.137L194.364 733.012L-16.599 523.84ZM-24.4424 229.393L-14.972 523.195L195.27 731.664L457.287 851.993L678.807 725.533L831.297 506.075L757.968 219.448L590.204 -36.4919L323.345 -87.2015L67.1642 -25.9391L-24.4424 229.393Z" fill="white"/>
<path d="M-14.0035 521.209L-13.9902 520.735L-7.8189 233.642L-7.78629 233.538L67.5842 -25.995L68.0028 -26.0646L325.172 -69.849L325.281 -69.8333L588.663 -36.792L588.911 -36.3618L741.663 223.656L741.722 223.758L829.134 503.717L828.867 504.05L666.092 708.536L666 708.589L456.633 848.563L456.222 848.348L202.889 714.731L202.801 714.652L-14.0035 521.209ZM-6.1933 234.174L-12.3518 520.556L203.639 713.273L456.352 846.574L664.919 707.127L827.288 503.127L740.167 224.219L587.785 -35.1594L325.384 -68.0785L68.8876 -24.3955L-6.1933 234.174Z" fill="white"/>
<path d="M-11.4087 518.577L-11.368 518.051L10.4364 238.447L10.4523 238.388L69.2859 -24.476L69.7669 -24.5243L327.228 -50.7223L327.286 -50.7203L586.295 -35.4691L586.571 -34.9904L723.875 228.411L723.906 228.465L825.15 500.753L824.827 501.111L652.221 690.098L652.173 690.126L455.714 843.184L455.26 842.908L211.292 696.325L211.264 696.277L-11.4087 518.577ZM12.0188 238.953L-9.73555 517.912L212.019 694.902L455.425 841.157L651.081 688.756L823.248 500.151L722.414 228.96L585.445 -33.8381L327.477 -49.0236L70.6186 -22.8504L12.0188 238.953Z" fill="white"/>
<path d="M-8.82552 515.952L-8.74358 515.374L28.7101 243.249L70.9806 -22.9661L71.5303 -22.9823L329.255 -31.6286L583.915 -34.1884L706.016 233.157L821.109 497.801L820.719 498.169L638.302 671.689L454.787 837.796L454.286 837.461L219.7 677.933L-8.82552 515.952ZM72.352 -21.2983L30.2477 243.753L-7.10632 515.268L220.406 676.536L454.478 835.708L637.215 670.315L819.214 497.188L704.628 233.708L583.042 -32.4726L329.508 -29.9245L72.352 -21.2983Z" fill="white"/>
<path d="M-6.24359 513.329L-6.10947 512.692L46.9524 248.013L72.6955 -21.4675L73.317 -21.4463L331.358 -12.5133L581.543 -32.9043L581.799 -32.2492L688.227 237.943L817.127 494.808L816.639 495.205L624.353 653.268L453.866 832.419L453.33 832.012L228.055 659.5L-6.24359 513.329ZM74.0872 -19.7398L48.4722 248.497L-4.47286 512.622L228.751 658.123L453.558 830.26L623.308 651.943L815.175 494.221L686.89 238.507L580.674 -31.1192L331.609 -10.8369L74.0872 -19.7398Z" fill="white"/>
<path d="M-3.67061 510.711L-3.48436 510.016L65.2007 252.844L74.3631 -19.9557L75.0603 -19.8778L333.371 6.6039L579.197 -31.578L670.419 242.689L813.181 491.91L812.629 492.294L610.548 634.859L452.939 827.054L236.485 641.131L-3.67061 510.711ZM75.8368 -18.1605L66.7076 253.344L66.6795 253.432L-1.82596 509.983L237.176 639.771L452.629 824.803L609.45 633.528L609.509 633.494L811.124 491.277L669.057 243.26L669.007 243.174L578.242 -29.7071L333.568 8.29744L333.484 8.28853L75.8368 -18.1605Z" fill="white"/>
<path d="M-1.11484 508.138L-0.841241 507.37L83.4305 257.657L76.0462 -18.4542L335.425 25.7175L576.865 -30.3037L577.093 -29.4606L652.646 247.449L809.236 488.952L808.591 489.325L596.677 616.421L452.015 821.692L451.398 821.095L244.879 622.738L-1.11484 508.138ZM77.5794 -16.5931L84.9179 258.11L84.87 258.238L0.813059 507.319L245.56 621.384L451.659 819.338L595.578 615.126L807.065 488.27L651.269 247.993L651.23 247.851L575.872 -28.361L335.688 27.3515L335.553 27.3289L77.5794 -16.5931Z" fill="white"/>
<path d="M1.44874 505.481L1.78382 504.671L101.667 262.458L77.7159 -16.9744L78.564 -16.7469L337.481 44.8226L574.494 -29.0077L634.818 252.213L805.253 486.016L804.508 486.389L582.773 598.015L451.099 816.348L253.271 604.354L1.44874 505.481ZM79.3574 -15.0251L103.148 262.937L103.075 263.108L3.47153 504.664L253.946 603.004L254.083 603.154L450.725 813.875L581.694 596.717L581.85 596.627L802.996 485.297L633.471 252.747L633.428 252.549L573.467 -26.9739L337.73 46.4713L337.547 46.4266L79.3574 -15.0251Z" fill="white"/>
<path d="M3.99291 502.873L119.903 267.254L79.3768 -15.5013L80.3399 -15.2112L339.534 63.9316L572.149 -27.7319L572.318 -26.6821L617.02 256.975L801.317 483.083L568.919 579.591L450.178 811.014L449.482 810.183L261.658 585.96L3.99291 502.873ZM81.099 -13.4122L121.4 267.723L121.295 267.927L6.14326 502.004L262.347 584.608L262.509 584.802L449.791 808.384L567.81 578.317L567.998 578.208L798.901 482.313L615.677 257.528L615.637 257.286L571.063 -25.5778L339.782 65.5664L339.556 65.4965L81.099 -13.4122Z" fill="white"/>
<path d="M6.52461 500.271L7.06617 499.334L138.157 272.046L81.0334 -14.0698L341.594 83.0068L569.807 -26.5229L599.229 261.74L797.394 480.15L796.401 480.48L555.017 561.201L449.259 805.701L448.509 804.7L270.024 567.556L6.52461 500.271ZM82.8558 -11.7947L139.616 272.538L139.482 272.765L8.84555 499.325L270.726 566.226L270.91 566.471L448.851 802.91L553.935 559.897L554.188 559.815L794.828 479.344L597.885 262.279L597.851 261.997L568.648 -24.1613L341.833 84.6755L341.569 84.5773L82.8558 -11.7947Z" fill="white"/>
<path d="M9.03464 497.674L156.378 276.85L82.6677 -12.5969L343.641 102.139L567.484 -25.225L567.533 -23.8982L581.437 266.497L793.493 477.225L792.351 477.519L541.14 542.796L448.341 800.408L278.448 549.182L9.03464 497.674ZM84.6708 -10.1824L157.883 277.322L157.71 277.58L11.5323 496.662L279.11 547.847L447.893 797.361L540.059 541.483L540.352 541.407L790.712 476.356L580.083 267.043L566.23 -22.7298L343.887 103.783L84.6708 -10.1824Z" fill="white"/>
<path d="M11.5323 495.099L12.3496 494.032L174.605 281.643L84.2876 -11.1804L345.688 121.229L565.172 -24.0266L563.644 271.256L789.604 474.315L788.309 474.553L527.266 524.389L447.439 795.135L286.824 530.808L11.5323 495.099ZM86.4774 -8.52947L176.13 282.125L175.916 282.399L14.2574 493.985L287.512 529.443L287.711 529.787L446.928 791.816L526.135 523.077L526.476 523.009L786.547 473.376L562.271 271.784L562.273 271.402L563.778 -21.3143L345.923 122.864L345.584 122.687L86.4774 -8.52947Z" fill="white"/>
<path d="M19.048 492.317L179.02 283.024L90.4885 -4.16171L91.7736 -3.51251L346.835 125.737L562.104 -16.6761L560.566 272.905L782.146 472.074L524.853 521.143L446.521 786.645L445.733 785.343L289.04 527.399L19.048 492.317ZM92.6366 -1.55841L180.522 283.491L180.313 283.762L21.7386 491.229L289.716 526.049L289.914 526.393L446.018 783.378L523.775 519.836L524.105 519.775L779.134 471.153L559.222 273.444L559.227 273.068L560.754 -13.9747L347.078 127.375L346.745 127.209L92.6366 -1.55841Z" fill="white"/>
<path d="M26.5781 489.545L27.364 488.511L183.429 284.393L96.6839 2.85822L347.982 130.258L559.049 -9.30585L557.485 274.546L774.682 469.835L522.436 517.89L445.606 778.158L291.259 523.98L26.5781 489.545ZM98.7987 5.41623L184.878 284.854L184.674 285.122L29.2195 488.472L291.922 522.658L445.119 774.933L521.375 516.61L521.705 516.549L771.742 468.915L556.169 275.083L556.168 274.711L557.703 -6.67157L348.218 131.857L347.89 131.688L98.7987 5.41623Z" fill="white"/>
<path d="M34.1039 486.771L34.8853 485.754L187.854 285.782L102.883 9.87807L104.128 10.5074L349.118 134.751L555.972 -1.97871L554.411 276.192L767.225 467.602L520.022 514.646L444.694 769.672L293.468 520.576L34.1039 486.771ZM104.962 12.3993L189.294 286.241L189.093 286.501L36.7076 485.72L294.139 519.256L294.332 519.59L444.214 766.493L518.983 513.381L519.308 513.322L764.328 466.693L553.108 276.715L553.108 276.356L554.664 0.633842L349.358 136.334L349.034 136.17L104.962 12.3993Z" fill="white"/>
<path d="M41.635 484.002L42.4256 483L192.267 287.158L109.082 16.8916L350.262 139.255L552.902 5.38064L552.891 6.76389L551.334 277.841L759.771 465.381L758.541 465.61L517.606 511.394L443.773 761.176L443.02 759.933L295.687 517.159L41.635 484.002ZM111.131 19.3729L193.692 287.604L193.494 287.869L44.1926 482.97L296.341 515.871L443.326 758.043L516.583 510.157L516.905 510.093L756.915 464.47L550.055 278.357L551.611 7.94766L350.484 140.819L350.169 140.657L111.131 19.3729Z" fill="white"/>
<path d="M49.1715 481.255L196.678 288.532L115.276 23.9118L351.399 143.759L549.832 12.7019L548.252 279.482L752.297 463.126L751.09 463.357L515.193 508.147L442.854 752.685L297.904 513.74L49.1715 481.255ZM117.308 26.3746L198.094 288.998L197.898 289.254L51.6729 480.213L298.546 512.48L298.729 512.798L442.389 749.619L514.179 506.925L514.498 506.87L749.502 462.258L546.993 279.994L546.996 279.64L548.564 15.2481L351.631 145.29L351.318 145.133L117.308 26.3746Z" fill="white"/>
<path d="M56.6829 478.462L57.423 477.497L201.098 289.918L121.479 30.9305L122.664 31.53L352.548 148.268L546.778 20.0741L545.171 281.133L744.835 460.889L512.773 504.899L441.927 744.201L441.198 743.001L300.128 510.328L56.6829 478.462ZM123.459 33.3296L202.473 290.351L202.282 290.604L59.1591 477.462L300.751 509.086L300.947 509.425L441.493 741.203L511.786 503.698L512.096 503.64L742.069 460.033L543.969 281.634L543.971 281.289L545.544 22.5792L352.788 149.8L352.478 149.649L123.459 33.3296Z" fill="white"/>
<path d="M64.2144 475.692L64.9415 474.742L205.535 291.309L127.679 37.9574L128.844 38.547L353.69 152.779L543.72 27.4267L543.713 28.7429L542.104 282.798L737.384 458.673L510.361 501.653L441.026 735.701L302.342 506.914L64.2144 475.692ZM129.628 40.3028L206.869 291.721L206.681 291.966L66.6445 474.712L302.959 505.698L303.139 506.01L440.581 732.746L509.386 500.473L509.692 500.419L734.668 457.804L540.878 283.269L542.487 29.8595L353.913 154.257L353.609 154.103L129.628 40.3028Z" fill="white"/>
<path d="M71.7253 472.924L72.4424 471.993L209.913 292.686L133.877 44.9681L354.83 157.275L540.675 34.7538L540.666 36.0423L539.014 284.422L729.911 456.417L507.945 498.399L440.091 727.218L304.542 503.512L71.7253 472.924ZM135.777 47.2914L211.259 293.093L211.07 293.338L74.1039 471.966L305.14 502.313L305.307 502.604L439.637 724.296L506.991 497.243L507.288 497.187L727.254 455.578L537.822 284.902L537.824 284.571L539.444 37.1643L355.049 158.733L354.748 158.584L135.777 47.2914Z" fill="white"/>
<path d="M79.262 470.151L214.342 294.053L140.07 51.9847L141.195 52.5545L355.973 161.786L537.565 42.1293L537.574 43.3862L535.937 286.07L722.432 454.19L721.302 454.405L505.533 495.153L439.19 718.719L306.777 500.086L79.262 470.151ZM141.951 54.2618L215.649 294.467L215.463 294.704L81.6106 469.204L307.368 498.913L438.765 715.859L504.607 494.01L719.81 453.373L534.764 286.546L534.767 286.215L536.388 44.4726L356.179 163.223L355.886 163.077L141.951 54.2618Z" fill="white"/>
<path d="M86.7911 467.375L218.76 295.433L146.273 59.0022L357.113 166.292L534.521 49.4663L534.52 50.7071L532.861 287.717L714.989 451.947L713.875 452.153L503.119 491.901L438.274 710.227L308.995 496.676L86.7911 467.375ZM148.118 61.2425L220.041 295.84L219.861 296.073L89.0968 466.453L309.574 495.517L309.744 495.813L437.852 707.424L502.183 490.764L502.469 490.713L712.417 451.13L531.705 288.184L533.353 51.7756L357.317 167.701L357.033 167.556L148.118 61.2425Z" fill="white"/>
<path d="M94.3163 464.606L94.9974 463.726L223.175 296.812L152.468 66.0219L358.26 170.798L531.453 56.815L531.443 58.0396L529.791 289.352L707.525 449.708L706.439 449.913L500.7 488.656L437.349 701.725L311.199 493.244L94.3163 464.606ZM154.291 68.2107L224.442 297.206L224.263 297.431L96.578 463.695L311.78 492.127L436.942 698.984L499.789 487.562L500.07 487.515L705.026 448.943L528.632 289.828L528.635 289.51L530.294 59.0903L358.462 172.18L358.187 172.038L154.291 68.2107Z" fill="white"/>
<path d="M101.844 461.841L102.509 460.969L227.592 298.194L158.672 73.0417L359.4 175.305L528.392 64.1636L528.37 65.3667L526.7 291.011L700.079 447.499L498.29 485.412L436.443 693.252L313.432 489.849L101.844 461.841ZM160.451 75.2053L228.829 298.584L228.656 298.806L104.065 460.946L313.988 488.739L314.15 489.019L436.035 690.547L497.402 484.332L497.679 484.28L697.595 446.697L525.583 291.448L525.589 291.136L527.26 66.3734L359.595 176.649L359.32 176.506L160.451 75.2053Z" fill="white"/>
<path d="M109.371 459.064L232.008 299.572L164.867 80.0616L360.544 179.807L525.337 71.5338L523.625 292.663L692.6 445.234L495.874 482.159L435.546 684.784L315.661 486.46L109.371 459.064ZM166.607 82.1691L233.215 299.951L111.546 458.188L316.197 485.34L435.131 682.104L495.007 481.103L495.276 481.048L690.182 444.471L522.517 293.102L524.218 73.6927L360.738 181.136L360.471 180.996L166.607 82.1691Z" fill="white"/>
<path d="M116.898 456.296L236.421 300.947L171.067 87.0736L172.086 87.5968L361.687 184.317L522.263 78.8585L520.543 294.299L685.151 442.994L493.463 478.911L434.613 676.265L317.86 483.018L116.898 456.296ZM172.781 89.1604L237.616 301.34L119.032 455.437L318.405 481.95L318.56 482.219L434.218 673.668L492.612 477.897L492.879 477.85L682.765 442.25L519.473 294.73L519.48 294.432L521.177 80.9988L361.879 185.619L361.615 185.484L172.781 89.1604Z" fill="white"/>
<path d="M124.42 453.523L125.052 452.706L240.837 302.326L177.241 94.1063L178.251 94.6134L362.812 188.837L519.183 86.2223L517.453 295.96L677.68 440.803L491.051 475.678L433.695 667.774L320.082 479.604L124.42 453.523ZM178.953 96.1154L241.997 302.696L126.49 452.701L320.598 478.561L320.753 478.83L433.298 665.235L490.184 474.636L490.446 474.593L675.352 440.025L516.433 296.355L516.438 296.066L518.135 88.3047L363.016 190.096L362.755 189.967L178.953 96.1154Z" fill="white"/>
<path d="M131.951 450.753L132.565 449.954L245.231 303.719L183.467 101.118L184.467 101.609L363.978 193.327L516.128 93.5583L514.383 297.597L670.214 438.525L669.227 438.715L488.629 472.416L432.778 659.284L322.306 476.184L131.951 450.753ZM185.104 103.12L246.392 304.067L133.998 449.93L322.815 475.166L322.967 475.43L432.396 656.772L487.81 471.419L488.068 471.37L667.931 437.799L513.359 298.009L513.364 297.719L515.089 95.6067L364.156 194.58L363.9 194.447L185.104 103.12Z" fill="white"/>
<path d="M139.474 447.98L249.669 305.087L189.655 108.122L365.106 197.825L513.071 100.924L513.067 102.009L511.303 299.239L662.754 436.292L661.783 436.472L486.208 469.153L431.861 650.792L324.513 472.78L139.474 447.98ZM191.258 110.079L250.783 305.44L141.484 447.178L325.022 471.776L325.168 472.029L431.496 648.349L485.399 468.186L485.649 468.134L660.511 435.572L510.301 299.638L512.039 102.91L365.3 199.068L365.048 198.941L191.258 110.079Z" fill="white"/>
<path d="M146.999 445.212L254.084 306.466L195.862 115.15L366.255 202.337L509.999 108.253L508.226 300.885L655.29 434.053L654.344 434.226L483.796 465.919L430.952 642.316L326.735 469.381L146.999 445.212ZM197.396 117.075L255.173 306.812L255.021 307.008L148.971 444.432L327.226 468.38L430.566 639.922L483.015 464.964L483.26 464.916L653.077 433.373L507.243 301.281L507.249 301.005L509 110.221L366.43 203.534L366.186 203.409L197.396 117.075Z" fill="white"/>
<path d="M154.526 442.436L258.496 307.841L202.054 122.166L202.972 122.639L367.396 206.848L506.93 115.603L505.147 302.533L647.826 431.815L481.376 462.662L430.023 633.81L429.48 632.869L328.947 465.952L154.526 442.436ZM203.569 124.045L259.55 308.164L259.403 308.357L156.464 441.647L329.462 464.995L329.602 465.237L429.708 631.475L480.611 461.734L480.859 461.691L645.685 431.137L504.186 302.916L504.189 302.649L505.953 117.523L367.558 208.023L367.318 207.904L203.569 124.045Z" fill="white"/>
<path d="M162.055 439.67L162.62 438.935L262.915 309.222L208.254 129.188L368.538 211.355L503.85 122.964L503.842 123.98L502.069 304.185L640.364 429.587L478.971 459.422L429.112 625.325L331.164 462.538L162.055 439.67ZM209.746 131.016L263.962 309.557L263.812 309.744L163.91 438.936L331.635 461.592L428.774 623.026L478.22 458.507L478.454 458.465L638.28 428.919L501.129 304.555L501.135 304.294L502.898 124.84L368.694 212.505L368.462 212.388L209.746 131.016Z" fill="white"/>
<path d="M169.58 436.892L170.13 436.18L267.329 310.6L214.453 136.204L369.68 215.854L500.802 130.299L498.986 305.825L632.898 427.347L476.552 456.167L428.192 616.832L333.387 459.143L169.58 436.892ZM215.92 137.988L268.346 310.923L171.416 436.162L333.843 458.206L333.976 458.437L427.863 614.598L475.801 455.289L476.03 455.25L630.843 426.705L498.045 306.181L498.046 305.923L499.861 132.133L369.845 216.971L215.92 137.988Z" fill="white"/>
<path d="M177.105 434.125L177.642 433.428L271.744 311.981L220.648 143.225L370.821 220.366L497.74 137.66L497.729 138.634L495.911 307.478L625.459 425.103L474.168 452.934L427.274 608.342L335.578 455.727L177.105 434.125ZM222.093 144.958L272.736 312.297L272.597 312.478L178.901 433.412L336.038 454.824L426.94 606.162L473.422 452.052L473.648 452.008L623.446 424.472L495.009 307.827L495.013 307.574L496.846 139.438L370.988 221.425L370.769 221.307L222.093 144.958Z" fill="white"/>
<path d="M184.618 431.358L276.158 313.354L226.851 150.242L371.967 224.867L494.668 144.998L492.832 309.119L617.988 422.861L617.147 423.018L471.72 449.671L426.363 599.847L425.866 598.986L337.808 452.288L184.618 431.358ZM228.244 151.947L277.128 313.669L276.994 313.847L186.371 430.669L338.259 451.418L338.39 451.644L426.051 597.718L471.029 448.823L471.244 448.785L616.03 422.25L491.949 309.464L491.951 309.219L493.777 146.745L372.13 225.956L371.911 225.839L228.244 151.947Z" fill="white"/>
<path d="M192.159 428.582L280.573 314.736L233.043 157.259L373.108 229.38L491.611 152.357L489.761 310.779L610.531 420.65L609.695 420.803L469.307 446.426L425.418 591.373L340.015 448.864L192.159 428.582ZM234.418 158.946L281.546 315.056L281.412 315.234L193.868 427.904L340.455 448.036L425.136 589.284L468.628 445.599L468.843 445.561L608.62 420.032L488.899 311.112L488.901 310.867L490.734 154.053L373.257 230.42L234.418 158.946Z" fill="white"/>
<path d="M199.686 425.807L284.993 316.114L239.252 164.28L240.047 164.688L374.256 233.88L488.542 159.693L486.673 312.411L603.052 418.399L602.254 418.544L466.898 443.177L424.531 582.864L342.25 445.465L199.686 425.807ZM240.573 165.898L285.906 316.418L285.775 316.587L201.357 425.151L342.689 444.66L342.813 444.875L424.252 580.867L466.235 442.363L466.444 442.328L601.209 417.814L485.845 312.753L485.85 312.513L487.703 161.382L374.371 234.91L374.167 234.806L240.573 165.898Z" fill="white"/>
<path d="M207.21 423.042L207.701 422.415L289.407 317.496L245.443 171.298L375.406 238.409L485.473 167.045L483.594 314.061L595.582 416.167L594.803 416.308L464.468 439.928L423.612 574.375L423.152 573.579L344.463 442.052L207.21 423.042ZM246.731 172.87L290.306 317.787L290.18 317.953L208.832 422.4L344.879 441.246L423.331 572.4L463.833 439.14L593.789 415.581L482.782 314.379L482.785 314.148L484.644 168.664L375.52 239.389L375.317 239.285L246.731 172.87Z" fill="white"/>
<path d="M214.762 420.259L293.833 318.869L251.649 178.298L376.535 242.897L482.411 174.391L482.399 175.252L480.504 315.708L588.09 413.916L587.331 414.053L462.064 436.683L422.699 565.881L346.679 438.642L214.762 420.259ZM252.9 179.856L294.713 319.15L294.589 319.308L216.338 419.636L347.082 437.85L347.2 438.055L422.433 563.955L461.439 435.911L461.634 435.877L586.362 413.343L479.721 316.017L479.727 315.791L481.602 175.97L376.668 243.86L376.473 243.758L252.9 179.856Z" fill="white"/>
<path d="M222.263 417.498L222.73 416.905L298.219 320.259L257.84 185.335L377.666 247.378L479.342 181.741L479.329 182.573L477.436 317.349L580.647 411.701L579.907 411.835L459.648 433.431L421.775 557.392L348.908 435.254L222.263 417.498ZM259.078 186.858L299.091 320.529L298.967 320.687L223.806 416.894L349.288 434.46L421.519 555.533L459.035 432.68L459.23 432.646L578.952 411.138L476.652 317.63L476.656 317.413L478.575 183.267L377.815 248.331L377.623 248.234L259.078 186.858Z" fill="white"/>
<path d="M229.789 414.731L230.24 414.147L302.651 321.63L264.039 192.348L378.818 251.905L476.279 189.096L476.269 189.898L474.36 318.997L573.179 409.467L572.458 409.596L457.209 430.2L420.861 548.907L351.109 431.817L229.789 414.731ZM265.226 193.807L303.472 321.909L303.35 322.058L231.284 414.118L351.492 431.066L351.604 431.259L420.62 547.074L456.645 429.471L456.83 429.443L571.541 408.914L473.604 319.29L475.496 190.559L378.982 252.836L378.798 252.741L265.226 193.807Z" fill="white"/>
<path d="M237.319 411.955L237.76 411.392L307.081 323.032L270.237 199.369L379.967 256.413L473.218 196.443L471.276 320.642L565.739 407.217L565.037 407.342L454.817 426.935L419.936 540.4L419.533 539.701L353.336 428.396L237.319 411.955ZM271.409 200.815L307.859 323.299L307.751 323.448L238.775 411.387L353.701 427.676L419.697 538.645L454.23 426.205L454.412 426.172L564.112 406.671L470.55 320.925L470.555 320.722L472.468 197.887L380.089 257.296L379.909 257.206L271.409 200.815Z" fill="white"/>
<path d="M244.832 409.165L245.239 408.629L311.484 324.389L276.438 206.386L277.098 206.722L381.111 260.928L470.147 203.786L468.195 322.283L558.278 404.983L557.595 405.104L452.404 423.687L419.033 531.921L355.544 424.983L244.832 409.165ZM277.556 207.763L312.261 324.643L312.156 324.783L246.26 408.634L355.913 424.282L356.015 424.46L418.785 530.2L451.857 423.014L452.033 422.983L556.74 404.48L467.489 322.562L467.496 322.364L469.426 205.193L381.229 261.778L277.556 207.763Z" fill="white"/>
<path d="M252.371 406.411L252.784 405.886L315.899 325.77L282.634 213.408L283.288 213.747L382.246 265.429L467.082 211.142L465.12 323.937L550.819 402.743L550.167 402.854L449.987 420.436L418.123 523.447L357.765 421.572L252.371 406.411ZM283.712 214.742L316.656 326.014L316.551 326.154L253.757 405.869L358.141 420.895L417.908 521.771L449.444 419.768L449.615 419.741L549.296 402.252L464.433 324.198L464.438 324.008L466.374 212.498L382.365 266.256L382.193 266.169L283.712 214.742Z" fill="white"/>
<path d="M259.898 403.644L260.314 403.123L320.313 327.144L288.806 220.435L383.338 269.962L464.021 218.488L462.057 325.569L543.38 400.52L542.728 400.631L447.571 417.192L417.198 514.94L359.992 418.178L259.898 403.644ZM289.879 221.723L321.048 327.387L320.944 327.518L261.227 403.127L360.324 417.499L360.42 417.665L416.975 513.325L447.05 416.539L541.885 400.028L461.373 325.836L461.381 325.652L463.351 219.822L383.519 270.76L383.352 270.67L289.879 221.723Z" fill="white"/>
<path d="M267.42 400.87L267.843 400.361L324.729 328.524L295.032 227.445L384.523 274.447L460.954 225.838L458.964 327.226L535.885 398.264L535.239 398.386L445.171 413.967L416.28 506.448L362.196 414.746L267.42 400.87ZM296.042 228.698L325.438 328.759L325.34 328.888L268.721 400.392L362.531 414.109L362.624 414.27L416.066 504.887L444.651 413.313L444.813 413.284L534.467 397.806L458.33 327.492L458.333 327.311L460.291 227.11L384.639 275.219L384.483 275.137L296.042 228.698Z" fill="white"/>
<path d="M274.954 398.098L275.331 397.622L329.147 329.902L301.233 234.456L385.676 278.922L457.889 233.186L455.875 328.909L528.421 396.019L442.746 410.691L415.365 497.956L364.418 411.327L274.954 398.098ZM302.208 235.672L329.84 330.147L329.745 330.267L276.189 397.643L364.735 410.735L364.828 410.896L415.16 496.446L442.259 410.084L527.057 395.58L455.273 329.106L457.227 234.422L385.757 279.708L385.605 279.631L302.208 235.672Z" fill="white"/>
<path d="M282.473 395.322L282.84 394.866L333.565 331.276L307.429 241.479L308.004 241.779L386.819 283.449L454.827 240.534L454.813 241.181L452.813 330.535L520.967 393.799L440.303 407.457L414.45 489.472L366.642 407.907L282.473 395.322ZM308.389 242.682L334.227 331.503L283.68 394.869L366.943 407.325L367.021 407.459L414.236 487.996L439.844 406.847L439.992 406.819L519.646 393.335L452.206 330.749L452.21 330.582L454.2 241.721L386.906 284.159L308.389 242.682Z" fill="white"/>
<path d="M289.997 392.554L337.974 332.658L313.62 248.48L387.965 287.956L451.759 247.884L451.746 248.508L449.714 332.144L513.494 391.544L437.911 404.197L413.538 480.992L368.853 404.515L289.997 392.554ZM314.535 249.63L338.616 332.876L338.522 332.987L291.164 392.117L369.146 403.93L413.341 479.571L437.46 403.626L512.226 391.136L449.144 332.387L451.179 249.014L388.06 288.654L387.916 288.58L314.535 249.63Z" fill="white"/>
<path d="M297.512 389.793L342.39 334.038L319.826 255.517L389.104 292.461L448.697 255.23L448.68 255.834L446.649 333.813L506.038 389.33L505.501 389.418L435.475 400.957L412.621 472.478L371.078 401.093L297.512 389.793ZM320.698 256.605L343.006 334.249L342.918 334.357L298.649 389.366L371.353 400.539L371.434 400.679L412.437 471.128L435.06 400.4L435.203 400.375L504.808 388.914L446.089 334.021L446.093 333.868L448.112 256.327L389.195 293.14L389.056 293.062L320.698 256.605Z" fill="white"/>
<path d="M305.053 387.01L305.385 386.604L346.801 335.443L326.027 262.529L390.25 296.963L445.651 262.576L445.629 263.147L443.587 335.445L498.596 387.089L433.102 397.689L411.714 463.989L373.298 397.661L305.053 387.01ZM326.857 263.57L347.393 335.611L347.31 335.716L306.127 386.598L373.559 397.144L373.636 397.279L411.527 462.684L432.664 397.167L432.797 397.148L497.395 386.685L443.03 335.659L443.034 335.506L445.067 263.637L390.334 297.618L390.199 297.545L326.857 263.57Z" fill="white"/>
<path d="M312.584 384.239L351.224 336.797L332.228 269.547L332.711 269.812L391.392 301.474L442.555 269.912L440.481 337.08L491.116 384.859L490.617 384.939L430.668 394.454L410.78 455.507L375.498 394.26L312.584 384.239ZM333.024 270.564L351.795 336.991L351.709 337.091L313.618 383.857L375.771 393.751L375.849 393.886L410.624 454.256L430.273 393.943L430.402 393.919L489.985 384.465L439.942 337.312L442.021 270.938L391.468 302.089L391.344 302.024L333.024 270.564Z" fill="white"/>
<path d="M320.111 381.477L320.419 381.106L355.638 338.177L338.422 276.568L338.891 276.82L392.528 305.965L439.497 277.27L437.391 338.72L483.632 382.589L428.232 391.169L409.833 446.968L409.553 446.484L377.683 390.861L320.111 381.477ZM339.184 277.54L356.183 338.365L356.102 338.461L321.101 381.107L377.982 390.373L378.053 390.496L409.72 445.828L427.874 390.723L428.001 390.708L482.572 382.255L436.917 338.943L438.974 278.239L392.606 306.573L392.482 306.508L339.184 277.54Z" fill="white"/>
<path d="M327.655 378.688L360.054 339.553L344.627 283.586L345.07 283.832L393.679 310.488L436.439 284.631L434.335 340.401L476.194 380.39L425.838 387.951L408.943 438.521L408.676 438.058L379.921 387.434L327.655 378.688ZM345.353 284.522L360.573 339.733L360.498 339.827L328.576 378.335L380.146 386.967L380.215 387.086L408.768 437.374L425.476 387.485L475.151 380.024L433.853 340.571L433.862 340.437L435.933 285.555L393.744 311.06L345.353 284.522Z" fill="white"/>
<path d="M335.159 375.923L364.468 340.932L350.827 290.603L351.25 290.839L394.805 314.998L433.359 291.986L433.338 292.471L431.24 342.056L468.723 378.14L423.413 384.695L408.015 430.026L382.16 384.002L335.159 375.923ZM351.515 291.496L364.959 341.1L364.886 341.185L336.069 375.599L382.388 383.577L382.456 383.695L407.902 428.937L423.075 384.259L423.188 384.244L467.737 377.798L430.796 342.205L430.802 342.079L432.902 292.845L394.886 315.51L394.777 315.445L351.515 291.496Z" fill="white"/>
</g>
</g>
<defs>
<clipPath id="clip0">
<rect width="798" height="380" fill="white" transform="translate(-9)"/>
</clipPath>
<clipPath id="clip1">
<rect width="2374.78" height="2302.7" fill="white" transform="translate(376.934 1960.13) rotate(-130.743)"/>
</clipPath>
</defs>
</svg>
