<svg width="558" height="302" viewBox="0 0 558 302" fill="none" xmlns="http://www.w3.org/2000/svg">
<mask id="mask0" mask-type="alpha" maskUnits="userSpaceOnUse" x="0" y="0" width="640" height="302">
<path d="M537.109 1.20233C482.081 0.853362 436.796 44.7495 435.001 100.181C432.826 100.049 430.651 99.8519 428.354 99.8519C425.852 99.8519 423.395 100.049 420.937 100.225C420.937 99.4489 420.937 98.6821 420.937 97.8908C417.269 41.4515 369.615 -1.74177 313.542 0.558459C260.411 2.68667 218.384 46.6369 218.228 100.225C215.794 100.049 213.356 99.8519 210.879 99.8519C208.635 99.8519 206.441 100.049 204.232 100.181C202.437 44.7397 157.128 0.833701 102.09 1.20233C46.5297 0.381519 0.830315 45.1083 0.0110334 101.1C-0.803372 157.097 43.5695 203.161 99.1295 203.982C100.119 203.997 101.105 203.997 102.09 203.982C104.328 203.982 106.527 203.785 108.737 203.652C111.507 260.49 159.469 304.298 215.863 301.501C268.111 298.911 309.992 256.985 312.909 204.345C315.63 204.562 318.351 204.719 321.121 204.719C322.633 204.719 324.169 204.719 325.69 204.631C325.895 204.631 326.09 204.576 326.3 204.562C329.562 261.37 377.9 304.76 434.265 301.466C486.421 298.424 527.907 256.243 530.462 203.652C532.637 203.785 534.812 203.982 537.109 203.982C592.669 204.807 638.368 160.081 639.188 104.084C640.002 48.0868 595.629 2.02805 540.069 1.20233C539.079 1.18758 538.094 1.18758 537.109 1.20233ZM102.09 182.061C58.5458 183.093 22.4145 148.349 21.3904 104.462C20.3663 60.571 54.8395 24.1555 98.3834 23.1283C99.6221 23.0988 100.856 23.0988 102.09 23.1283C146.068 22.7253 182.067 58.2708 182.57 102.595C182.57 103.032 182.501 103.46 182.501 103.897C146.009 114.233 118.27 144.205 110.57 181.613C107.756 181.903 104.923 182.056 102.09 182.061ZM177.99 128.767C170.544 149.494 154.982 166.225 134.944 175.057C142.395 154.335 157.957 137.604 177.99 128.767ZM210.844 280.71C166.871 281.113 130.867 245.563 130.365 201.244C130.365 200.802 130.433 200.374 130.433 199.937C166.925 189.6 194.664 159.633 202.364 122.225C205.183 121.93 208.011 121.783 210.844 121.773C214.053 121.793 217.262 122.004 220.447 122.402C228.303 159.368 255.437 189.133 291.324 200.148V201.244C290.822 245.563 254.822 281.113 210.844 280.71ZM244.952 129.372C264.39 138.337 279.445 154.792 286.735 175.047C279.513 171.582 272.822 167.085 266.873 161.693C257.09 152.861 249.565 141.767 244.952 129.372ZM324.734 182.729C320.209 182.921 315.683 182.729 311.192 182.149C303.735 144.795 276.29 114.715 239.978 104.103C238.071 60.9445 271.242 24.3964 314.069 22.4746C314.201 22.4697 314.332 22.4598 314.464 22.4549C315.664 22.4549 316.868 22.391 318.053 22.391C360.949 22.5631 396.397 56.1622 399.196 99.3064C399.294 100.928 399.196 102.54 399.265 104.148C362.841 114.779 335.341 144.992 327.963 182.479C326.885 182.508 325.822 182.675 324.734 182.729ZM395.422 128.777C388.507 150.315 372.623 167.743 351.922 176.517C359.149 155.146 374.954 137.821 395.476 128.777H395.422ZM428.354 280.71C384.376 281.113 348.377 245.563 347.874 201.244V201.057C384.849 191.006 412.724 160.326 419.415 122.323C425.194 121.66 431.031 121.64 436.815 122.26C444.515 159.668 472.254 189.635 508.746 199.971C508.746 200.409 508.81 200.836 508.81 201.274C508.293 245.573 472.308 281.099 428.354 280.71ZM461.208 128.767C481.242 137.604 496.803 154.335 504.255 175.057C484.216 166.225 468.655 149.494 461.208 128.767ZM537.109 182.061C534.276 182.056 531.442 181.903 528.624 181.613C520.928 144.205 493.19 114.233 456.697 103.897C456.697 103.46 456.629 103.032 456.629 102.595C455.732 57.8038 491.024 20.7642 535.461 19.8549C579.897 18.9456 616.652 54.5157 617.555 99.3064C618.457 144.092 583.159 181.137 538.723 182.046C538.187 182.056 537.645 182.061 537.109 182.061Z" fill="#02489F"/>
</mask>
<g mask="url(#mask0)">
<path d="M950.033 -2291.02L1259.62 -387.97L2933.96 675.266L2928.28 677.354L1299.24 1281.43L1078.18 3111.18L1073.57 3105.79L-241.732 1582.69L-2052.74 1650.32L-2049.9 1644.92L-1233.74 99.5591L-2131.9 -1688.42L-305.827 -1118.38L950.033 -2291.02ZM1253.91 -384.421L1253.68 -386.103L945.989 -2277.56L-303.406 -1111.03L-305.07 -1111.56L-2119.99 -1678.14L-1226.53 100.561L-1227.24 101.921L-2041.28 1643.28L-239.714 1576.02L-238.524 1577.41L1073.38 3096.57L1293.28 1276.3L1294.71 1275.79L2919.52 673.349L1253.91 -384.421Z" fill="#02489F"/>
<path d="M938.983 -2245.85L1254.85 -380.896L2890.95 672.259L2885.4 674.367L1294.67 1278.65L1065.39 3068.85L1060.93 3063.63L-236.962 1578.61L-2014.77 1631.86L-2012.03 1626.56L-1223.48 104.525L-2092.95 -1652.76L-2086.73 -1650.87L-301.411 -1106.49L938.983 -2245.85ZM1249.21 -377.412L1248.94 -379.057L934.995 -2232.76L-299.086 -1099.32L-300.694 -1099.81L-2081.38 -1642.74L-1216.38 105.5L-1217.07 106.871L-2003.68 1624.97L-234.992 1572.05L-233.831 1573.41L1060.71 3054.56L1288.8 1273.58L1290.22 1273.06L2876.84 670.317L1249.21 -377.412Z" fill="#02489F"/>
<path d="M927.965 -2200.71L929.069 -2194.4L1250.12 -373.831L2847.97 669.241L2842.59 671.333L1290.16 1275.89L1052.68 3026.52L-232.225 1574.55L-1976.87 1613.44L-1974.23 1608.26L-1213.2 109.462L-2053.92 -1617.19L-2047.87 -1615.38L-297.057 -1094.72L927.965 -2200.71ZM1244.53 -370.393L1244.24 -372.019L924.041 -2187.93L-294.729 -1087.59L-296.326 -1088.09L-2042.67 -1607.37L-1206.23 110.397L-1206.93 111.757L-1965.98 1606.76L-230.251 1568.07L-229.126 1569.38L1048.1 3012.62L1284.36 1270.92L2834.22 667.367L1244.53 -370.393Z" fill="#02489F"/>
<path d="M916.942 -2155.54L918.062 -2149.44L1245.36 -366.74L2804.99 666.223L1285.69 1273.1L1039.96 2984.22L1035.62 2979.39L-227.483 1570.5L-1938.95 1595.04L-1936.44 1589.97L-1202.91 114.408L-2014.98 -1581.51L-2009.1 -1579.8L-292.661 -1082.88L916.942 -2155.54ZM1239.87 -363.366L1239.56 -364.973L913.085 -2143.13L-290.355 -1075.87L-291.941 -1076.37L-2003.97 -1571.97L-1196.01 115.368L-1196.66 116.682L-1928.31 1588.49L-225.513 1564.08L-224.416 1565.37L1035.48 2970.66L1279.9 1268.16L1281.28 1267.59L2791.59 664.304L1239.87 -363.366Z" fill="#02489F"/>
<path d="M905.907 -2110.4L907.039 -2104.45L1240.58 -359.694L2761.97 663.187L2756.95 665.254L1281.11 1270.39L1027.22 2941.92L-222.756 1566.48L-1901.09 1576.65L-1898.67 1571.71L-1192.69 119.325L-1976.02 -1545.88L-1970.29 -1544.26L-288.287 -1071.06L905.907 -2110.4ZM1235.22 -356.361L902.203 -2098.28L-285.974 -1064.15L-287.456 -1064.57L-1965.26 -1536.57L-1185.84 120.3L-1186.46 121.586L-1890.67 1570.23L-220.758 1560.09L-219.689 1561.34L1022.86 2928.69L1275.49 1265.54L1276.79 1265.01L2748.94 661.426L1235.22 -356.361Z" fill="#02489F"/>
<path d="M894.821 -2065.2L1235.85 -352.591L2719.01 660.209L2714.16 662.259L1276.59 1267.64L1014.54 2899.55L-217.915 1562.33L-1863.13 1558.19L-1182.39 124.301L-1937.04 -1510.23L-1931.47 -1508.71L-283.915 -1059.18L894.821 -2065.2ZM1230.5 -349.307L1230.21 -350.802L891.231 -2053.41L-281.652 -1052.39L-283.096 -1052.79L-1926.59 -1501.19L-1175.71 125.244L-1176.3 126.491L-1853.01 1551.97L-216.053 1556.13L-215.02 1557.34L1010.2 2886.73L1271.05 1262.84L1272.32 1262.31L2706.28 658.441L1230.5 -349.307Z" fill="#02489F"/>
<path d="M883.795 -2020.13L1231.09 -345.507L2676.04 657.203L1272.06 1264.88L1001.75 2857.3L-213.232 1558.29L-1825.23 1539.73L-1172.15 129.235L-1898.08 -1474.62L-1892.67 -1473.19L-279.453 -1047.41L883.795 -2020.13ZM1225.83 -342.278L1225.53 -343.723L880.291 -2008.54L-277.3 -1040.64L-1887.87 -1465.78L-1165.5 130.186L-1815.34 1533.71L-211.305 1552.16L-210.309 1553.33L997.591 2844.76L1266.62 1260.17L1267.83 1259.65L2663.65 655.521L1225.83 -342.278Z" fill="#02489F"/>
<path d="M872.803 -1974.92L873.984 -1969.5L1226.31 -338.415L2633.02 654.215L1267.53 1262.13L989.023 2815L-208.447 1554.26L-1787.28 1521.34L-1785.22 1516.75L-1161.81 134.168L-1859.11 -1438.99L-1853.87 -1437.66L-275.116 -1035.54L872.803 -1974.92ZM1221.12 -335.301L1220.82 -336.695L869.318 -1963.75L-272.952 -1028.91L-274.309 -1029.26L-1849.18 -1430.39L-1155.33 135.106L-1155.86 136.298L-1777.69 1515.44L-206.573 1548.18L-205.651 1549.26L984.922 2802.75L1262.08 1257.49L1263.24 1256.97L2620.97 652.518L1221.12 -335.301Z" fill="#02489F"/>
<path d="M861.779 -1929.77L862.954 -1924.54L1221.6 -331.367L2590.05 651.18L2585.72 653.176L1263.02 1259.39L976.3 2772.7L-203.717 1550.22L-1749.4 1502.95L-1151.58 139.152L-1820.13 -1403.36L-270.711 -1023.71L861.779 -1929.77ZM1216.48 -328.227L858.413 -1918.86L-268.537 -1017.22L-1810.42 -1395.04L-1145.14 140.058L-1145.63 141.201L-1740.01 1497.17L-201.828 1544.21L-200.842 1545.23L972.353 2760.8L1257.72 1254.8L1258.85 1254.29L2578.32 649.547L1216.48 -328.227Z" fill="#02489F"/>
<path d="M850.736 -1884.64L851.935 -1879.57L1216.84 -324.298L2547.08 648.17L2542.91 650.139L1258.55 1256.65L963.617 2730.42L-198.863 1546.13L-1711.45 1484.49L-1709.58 1480.13L-1141.32 144.095L-1781.14 -1367.78L-1776.23 -1366.62L-266.327 -1011.88L850.736 -1884.64ZM1211.8 -321.203L1211.49 -322.497L847.478 -1874.07L-264.17 -1005.56L-1771.7 -1359.7L-1134.99 144.971L-1702.36 1478.9L-197.13 1540.2L-196.144 1541.22L959.733 2718.74L1253.28 1252.12L1254.35 1251.61L2535.65 646.579L1211.8 -321.203Z" fill="#02489F"/>
<path d="M839.736 -1839.49L1212.09 -317.215L2504.11 645.162L2500.14 647.066L1253.98 1253.88L950.849 2688.08L-194.136 1542.05L-1673.53 1466.07L-1131.07 149.079L-1742.23 -1332.09L-261.95 -1000.04L839.736 -1839.49ZM1207.12 -314.165L1206.82 -315.408L836.533 -1829.15L-259.874 -993.707L-261.077 -993.978L-1733.05 -1324.2L-1124.78 149.892L-1125.22 150.969L-1664.7 1460.64L-192.374 1536.25L-191.441 1537.19L947.145 2676.81L1248.84 1249.44L2492.99 643.616L1207.12 -314.165Z" fill="#02489F"/>
<path d="M828.682 -1794.33L1207.32 -310.16L2461.12 642.127L2457.27 644.059L1249.46 1251.13L938.104 2645.81L934.528 2642.28L-189.341 1537.95L-1635.56 1447.62L-1633.92 1443.51L-1120.72 153.963L-1703.25 -1296.49L-257.573 -988.223L828.682 -1794.33ZM1202.45 -307.143L1202.15 -308.326L825.592 -1784.29L-255.502 -981.963L-256.666 -982.212L-1694.34 -1288.8L-1114.61 154.894L-1115.02 155.932L-1627.03 1442.37L-187.638 1532.28L-186.731 1533.17L934.519 2634.83L1244.44 1246.71L1245.42 1246.22L2450.38 640.608L1202.45 -307.143Z" fill="#02489F"/>
<path d="M817.672 -1749.18L818.907 -1744.62L1202.6 -303.07L2418.17 639.137L1244.95 1248.39L925.414 2603.53L921.925 2600.18L-184.627 1533.93L-1597.68 1429.22L-1596.14 1425.24L-1110.49 158.961L-1664.26 -1260.88L-1659.79 -1260.02L-253.146 -976.373L817.672 -1749.18ZM1197.79 -300.119L1197.49 -301.251L814.674 -1739.42L-251.146 -970.239L-1655.63 -1253.4L-1104.44 159.796L-1104.83 160.787L-1589.35 1424.1L-182.888 1528.3L-182.018 1529.15L921.96 2592.82L1239.97 1244.07L1240.89 1243.58L2407.67 637.688L1197.79 -300.119Z" fill="#02489F"/>
<path d="M806.624 -1704.03L807.834 -1699.67L1197.83 -295.989L2375.2 636.108L1240.41 1245.63L912.647 2561.21L909.257 2558.01L-179.852 1529.89L-1559.74 1410.82L-1100.17 163.879L-1625.24 -1225.27L-1620.98 -1224.46L-248.766 -964.532L806.624 -1704.03ZM1193.09 -293.084L1192.79 -294.156L803.717 -1694.56L-246.808 -958.513L-247.875 -958.714L-1616.95 -1218.02L-1094.29 164.731L-1551.69 1405.83L-178.167 1524.34L-177.324 1525.13L909.266 2550.87L1235.51 1241.39L1236.38 1240.92L2364.99 634.73L1193.09 -293.084Z" fill="#02489F"/>
<path d="M795.604 -1658.89L1193.08 -288.906L2332.21 633.12L2328.85 634.999L1235.89 1242.89L899.926 2518.93L896.635 2515.89L-175.114 1525.8L-1521.88 1392.4L-1520.56 1388.66L-1089.93 168.832L-1586.31 -1189.66L-244.346 -952.727L795.604 -1658.89ZM1188.42 -286.045L1188.12 -287.066L792.778 -1649.69L-242.435 -946.742L-243.444 -946.918L-1578.22 -1182.57L-1084.11 169.68L-1084.43 170.595L-1513.96 1387.52L-173.393 1520.3L-172.578 1521.06L896.642 2508.9L1231.07 1238.71L1231.89 1238.26L2322.32 631.766L1188.42 -286.045Z" fill="#02489F"/>
<path d="M784.582 -1613.75L1188.34 -281.843L2289.29 630.077L1231.37 1240.14L887.203 2476.64L-170.282 1521.74L-1483.9 1373.98L-1079.69 173.806L-1547.39 -1154.01L-1543.44 -1153.36L-239.984 -940.867L784.582 -1613.75ZM1183.79 -279.064L1183.51 -280.034L781.899 -1604.87L-238.011 -935.049L-238.982 -935.202L-1539.45 -1147.21L-1073.92 174.609L-1074.22 175.485L-1476.35 1369.29L-168.639 1516.33L884.027 2466.91L1226.69 1235.97L1227.47 1235.53L2279.72 628.757L1183.79 -279.064Z" fill="#02489F"/>
<path d="M773.537 -1568.61L1183.58 -274.772L2246.21 627.08L1226.76 1237.31L874.391 2434.28L871.297 2431.55L-165.615 1517.7L-1446.1 1355.61L-1069.43 178.76L-1508.47 -1118.43L-1504.72 -1117.93L-235.601 -929.036L773.537 -1568.61ZM1179.06 -272.001L1178.78 -272.92L770.936 -1560.03L-233.723 -923.285L-234.625 -923.423L-1500.79 -1111.78L-1063.77 179.536L-1064.03 180.364L-1438.68 1351.02L-163.988 1512.38L-163.244 1513.03L871.369 2424.9L1222.18 1233.32L1222.9 1232.9L2236.98 625.826L1179.06 -272.001Z" fill="#02489F"/>
<path d="M762.523 -1523.48L1178.81 -267.72L2203.3 624.087L2200.43 625.881L1222.33 1234.63L861.763 2392.04L858.767 2389.48L-160.82 1513.6L-1408.14 1337.14L-1407.12 1333.76L-1059.15 183.695L-1469.46 -1082.78L-1465.84 -1082.3L-231.206 -917.214L762.523 -1523.48ZM1174.39 -264.973L1174.12 -265.841L759.959 -1515.12L-229.394 -911.518L-230.249 -911.623L-1462.11 -1076.35L-1053.58 184.474L-1053.82 185.264L-1401 1332.75L-159.245 1508.44L-158.548 1509.04L858.745 2382.88L1217.69 1230.69L1218.38 1230.27L2194.27 622.888L1174.39 -264.973Z" fill="#02489F"/>
<path d="M751.495 -1478.34L752.664 -1474.79L1174.06 -260.629L2160.33 621.089L1217.84 1231.92L849.059 2349.81L-156.027 1509.58L-1370.21 1318.76L-1369.27 1315.5L-1048.84 188.682L-1430.5 -1047.11L-1427.04 -1046.7L-226.829 -905.364L751.495 -1478.34ZM1169.71 -257.938L1169.44 -258.735L749.01 -1470.25L-225.006 -899.809L-225.791 -899.898L-1423.35 -1040.97L-1043.4 189.411L-1363.33 1314.48L-154.526 1504.49L-153.866 1505.04L846.097 2340.98L1213.24 1228.1L1213.86 1227.69L2151.58 620.001L1169.71 -257.938Z" fill="#02489F"/>
<path d="M740.475 -1433.2L741.69 -1429.86L1169.33 -253.542L2117.38 618.076L2114.82 619.811L1213.3 1229.14L836.321 2307.49L-151.29 1505.5L-1332.32 1300.34L-1038.63 193.615L-1391.56 -1011.55L-1388.25 -1011.21L-222.452 -893.53L740.475 -1433.2ZM1164.99 -250.869L1164.72 -251.616L738.027 -1425.33L-220.686 -888.019L-221.422 -888.095L-1384.63 -1005.56L-1033.23 194.341L-1033.41 195.044L-1325.64 1296.19L-149.745 1500.48L-149.122 1500.99L833.517 2298.96L1208.85 1225.29L1209.43 1224.9L2108.96 616.912L1164.99 -250.869Z" fill="#02489F"/>
<path d="M729.448 -1388.07L730.655 -1384.89L1164.57 -246.466L2074.41 615.073L2072 616.77L1208.77 1226.39L823.591 2265.21L-146.533 1501.43L-1294.47 1281.87L-1293.73 1278.86L-1028.36 198.555L-1352.65 -975.891L-1349.51 -975.636L-218.051 -881.702L729.448 -1388.07ZM1160.35 -243.875L1160.1 -244.559L727.122 -1380.49L-216.286 -876.323L-216.964 -876.373L-1345.93 -970.212L-1023.06 199.285L-1023.23 199.938L-1287.98 1277.92L-145.025 1496.5L-144.447 1496.95L820.919 2256.91L1204.4 1222.61L2066.24 613.898L1160.35 -243.875Z" fill="#02489F"/>
<path d="M718.424 -1342.93L1159.85 -239.416L2031.47 612.052L2029.18 613.738L1204.2 1223.67L810.801 2222.97L808.222 2221L-141.836 1497.42L-1256.58 1263.55L-1255.93 1260.67L-1018.1 203.515L-1313.66 -940.328L-1310.66 -940.134L-213.668 -869.875L718.424 -1342.93ZM1155.69 -236.821L1155.44 -237.454L716.14 -1335.65L-211.973 -864.623L-212.591 -864.669L-1307.22 -934.761L-1012.88 204.228L-1013.02 204.833L-1250.23 1259.61L-140.291 1492.53L-139.759 1492.93L808.239 2214.96L1199.95 1219.92L1200.39 1219.54L2023.55 610.956L1155.69 -236.821Z" fill="#02489F"/>
<path d="M707.388 -1297.81L708.581 -1294.98L1155.07 -232.328L1988.45 609.008L1986.36 610.638L1199.69 1220.84L798.126 2180.65L795.647 2178.82L-137.025 1493.31L-1218.64 1245.09L-1007.84 208.467L-1274.73 -904.718L-1271.89 -904.586L-209.277 -858.046L707.388 -1297.81ZM1150.99 -229.807L1150.77 -230.379L705.221 -1290.75L-207.569 -852.842L-208.138 -852.875L-1268.44 -899.334L-1002.72 209.112L-1002.83 209.659L-1212.62 1241.37L-135.525 1488.5L-135.031 1488.86L795.574 2172.91L1195.47 1217.19L1195.87 1216.85L1980.84 607.946L1150.99 -229.807Z" fill="#02489F"/>
<path d="M696.318 -1252.73L697.53 -1250.02L1150.32 -225.249L1945.51 606.02L1943.55 607.609L1195.18 1218.11L785.403 2138.34L-132.28 1489.2L-1180.76 1226.65L-1180.29 1224.02L-997.572 213.407L-1235.78 -869.107L-1233.09 -869.037L-204.904 -846.209L696.318 -1252.73ZM1146.27 -222.847L1146.06 -223.337L694.276 -1245.87L-203.219 -841.098L-203.718 -841.115L-1229.73 -863.892L-992.533 214.107L-1174.95 1223.07L-130.823 1484.56L-130.386 1484.87L783.003 2130.98L1191.05 1214.56L1191.41 1214.24L1938.21 605.111L1146.27 -222.847Z" fill="#02489F"/>
<path d="M685.36 -1207.54L1145.56 -218.173L1902.57 603.039L1190.68 1215.39L772.693 2096.11L770.413 2094.56L-127.504 1485.19L-1142.85 1208.28L-987.308 218.366L-1196.84 -833.498L-1194.31 -833.491L-200.511 -834.373L685.36 -1207.54ZM1141.63 -215.742L683.331 -1200.99L-198.86 -829.345L-199.3 -829.358L-1191.04 -828.515L-982.348 219.04L-982.421 219.478L-1137.25 1204.82L-126.053 1480.63L770.338 2088.96L1186.62 1211.85L1186.93 1211.58L1895.53 602.059L1141.63 -215.742Z" fill="#02489F"/>
<path d="M674.338 -1162.42L675.488 -1160.1L1140.84 -211.108L1859.65 600.046L1857.96 601.514L1186.18 1212.65L759.941 2053.79L-122.778 1481.08L-1104.99 1189.82L-1104.67 1187.44L-977.032 223.312L-1157.88 -797.903L-196.106 -822.55L674.338 -1162.42ZM1136.97 -208.724L1136.78 -209.09L672.396 -1156.1L-194.478 -817.614L-194.86 -817.603L-1152.26 -793.053L-972.152 223.979L-972.209 224.348L-1099.53 1186.53L-121.344 1476.6L-120.989 1476.82L757.723 2046.94L1182.2 1209.21L1182.46 1208.98L1852.9 599.179L1136.97 -208.724Z" fill="#02489F"/>
<path d="M663.307 -1117.31L1136.04 -203.997L1816.66 597.09L1815.15 598.551L1181.67 1209.91L747.272 2011.57L745.202 2010.31L-117.98 1477.08L-1067.06 1171.46L-1066.81 1169.22L-966.796 228.267L-1118.96 -762.288L-1116.71 -762.362L-191.731 -810.726L663.307 -1117.31ZM1810.09 596.084L1132.22 -201.759L661.452 -1111.21L-190.127 -805.863L-190.439 -805.856L-1113.54 -757.635L-962.016 228.947L-962.049 229.257L-1061.87 1168.25L-116.616 1472.61L-116.329 1472.79L745.079 2004.93L1177.71 1206.48L1177.93 1206.3L1810.09 596.084Z" fill="#02489F"/>
<path d="M652.283 -1072.2L653.387 -1070.19L1131.34 -196.975L1773.78 594.045L1177.15 1207.16L734.553 1969.31L-113.211 1473.01L-1029.14 1153.11L-1028.98 1150.98L-956.513 233.199L-1080.01 -726.708L-1077.96 -726.877L-187.349 -798.909L652.283 -1072.2ZM1767.47 593.21L1127.62 -194.619L1127.46 -194.813L650.495 -1066.33L-185.749 -794.137L-186.001 -794.126L-1074.78 -722.23L-951.801 233.843L-951.829 234.093L-1024.16 1149.96L-111.884 1468.63L-111.643 1468.76L732.442 1962.91L1173.26 1203.81L1173.44 1203.65L1767.47 593.21Z" fill="#02489F"/>
<path d="M641.279 -1027.09L642.353 -1025.23L1126.59 -189.895L1730.85 591.057L1729.6 592.417L1172.67 1204.45L721.854 1927.04L720.004 1926.03L-108.443 1468.94L-991.274 1134.66L-946.261 238.16L-1041.08 -691.097L-1039.17 -691.307L-182.958 -787.079L641.279 -1027.09ZM1724.74 590.197L1122.87 -187.59L1122.75 -187.73L639.547 -1021.44L-181.428 -782.303L-181.609 -782.296L-1036.09 -686.717L-941.618 238.789L-941.632 238.97L-986.495 1131.7L-107.142 1464.64L-106.968 1464.74L719.805 1920.89L1168.81 1201.11L1168.94 1201L1724.74 590.197Z" fill="#02489F"/>
<path d="M630.252 -981.98L631.289 -980.288L1121.9 -182.736L1687.89 588.001L1168.05 1201.74L709.12 1884.81L-103.805 1464.86L-953.408 1116.27L-953.399 1114.38L-936.03 242.972L-1002.17 -655.524L-1000.49 -655.782L-178.686 -775.296L630.252 -981.98ZM1682.03 587.23L1118.29 -180.483L628.596 -976.543L-177.038 -770.621L-177.113 -770.556L-997.282 -651.294L-931.403 243.671L-948.738 1113.42L-102.518 1460.61L707.155 1878.87L1164.3 1198.5L1682.03 587.23Z" fill="#02489F"/>
<path d="M619.225 -936.877L620.233 -935.329L1117.09 -175.759L1644.92 585.044L1163.6 1198.95L696.416 1842.56L694.8 1841.78L-98.9732 1460.84L-915.523 1097.87L-915.545 1096.14L-925.747 248.009L-963.219 -619.918L-174.189 -763.435L619.225 -936.877ZM1639.31 584.252L1113.58 -173.538L617.665 -931.655L-172.714 -758.874L-958.575 -615.928L-921.253 248.617L-911.068 1095.09L-97.71 1456.65L694.515 1836.84L1159.83 1195.79L1639.31 584.252Z" fill="#02489F"/>
<path d="M608.219 -891.772L1112.34 -168.734L1602.04 582.026L1601.19 583.214L1159.14 1196.16L683.705 1800.3L682.247 1799.68L-94.1031 1456.87L-877.637 1079.47L-877.709 1077.88L-915.483 253.047L-924.327 -584.356L-922.869 -584.681L-169.768 -751.638L608.219 -891.772ZM1596.61 581.288L1108.83 -166.554L606.65 -886.692L-168.31 -747.12L-919.824 -580.487L-911.047 253.631L-873.351 1076.8L-92.909 1452.66L681.887 1794.81L1155.48 1193.01L1596.61 581.288Z" fill="#02489F"/>
<path d="M597.2 -846.682L1107.69 -161.525L1559.08 579.008L1558.35 580.114L1154.59 1193.45L1154.51 1193.53L670.956 1758.08L-89.5741 1452.72L-839.797 1061.1L-839.92 1059.65L-905.253 257.957L-905.245 257.836L-885.382 -548.733L-884.083 -549.091L-165.453 -739.814L-165.378 -739.879L597.2 -846.682ZM1104.15 -159.469L595.737 -841.826L-163.97 -735.354L-881.097 -545.033L-900.867 258.526L-835.647 1058.51L-88.1925 1448.68L669.225 1752.78L1150.98 1190.34L1553.88 578.317L1104.15 -159.469Z" fill="#02489F"/>
<path d="M586.185 -801.586L587.107 -800.508L1102.89 -154.574L1103.03 -154.413L1516.21 575.97L1515.59 577.014L1150.17 1190.74L1150.02 1190.87L658.343 1715.85L657.083 1715.4L-84.6834 1448.75L-84.8125 1448.6L-801.899 1042.69L-802.062 1041.37L-894.992 262.904L-894.977 262.703L-846.469 -513.148L-845.31 -513.516L-161.075 -727.959L-160.883 -727.975L586.185 -801.586ZM1099.46 -152.428L584.73 -796.962L-159.584 -723.6L-842.28 -509.647L-890.665 263.469L-797.948 1040.22L-83.4506 1444.69L656.587 1710.74L1146.51 1187.64L1511.15 575.34L1099.46 -152.428Z" fill="#02489F"/>
<path d="M1098.15 -147.528L1098.35 -147.291L1473.25 572.997L1472.74 573.948L1145.63 1187.93L1145.42 1188.1L645.597 1673.53L644.471 1673.18L-79.8905 1444.63L-80.1591 1444.47L-764.052 1024.3L-884.736 267.549L-807.542 -477.602L-806.533 -477.971L-156.636 -716.221L-156.354 -716.241L575.163 -756.511L575.984 -755.551L1098.15 -147.528ZM1468.42 572.355L1094.74 -145.381L573.789 -752.032L-155.227 -711.847L-803.578 -474.167L-880.481 268.402L-760.226 1021.9L-78.7157 1440.68L643.933 1668.69L1142.04 1184.93L1468.42 572.355Z" fill="#02489F"/>
<path d="M1093.37 -140.41L1093.64 -140.098L1430.33 570.008L1429.92 570.875L1141.08 1185.25L1140.81 1185.48L632.857 1631.37L631.855 1631.09L-75.1418 1440.68L-75.4857 1440.46L-726.193 1005.91L-874.534 272.796L-874.476 272.427L-768.668 -441.995L-767.789 -442.364L-152.317 -704.366L-151.946 -704.369L564.105 -711.373L564.824 -710.532L1093.37 -140.41ZM1425.68 569.388L1090.05 -138.337L562.843 -707.067L-150.891 -700.082L-764.823 -438.721L-870.306 273.354L-722.544 1003.59L-74.0652 1436.71L631.239 1626.71L1137.51 1182.3L1425.68 569.388Z" fill="#02489F"/>
<path d="M1088.69 -133.381L1088.89 -132.912L1387.43 567.018L1387.11 567.801L1136.59 1182.53L1136.26 1182.82L620.199 1589.2L619.322 1589.01L-70.3789 1436.68L-688.293 987.6L-688.506 986.696L-864.314 277.769L-864.231 277.322L-729.804 -406.435L-729.075 -406.805L-147.935 -692.563L-147.455 -692.547L553.143 -666.314L553.823 -665.628L1088.69 -133.381ZM1382.94 566.43L1085.35 -131.269L551.923 -662.157L-146.49 -688.277L-726.078 -403.301L-860.097 278.337L-684.796 985.318L-69.241 1432.69L618.673 1584.65L1133.16 1179.63L1382.94 566.43Z" fill="#02489F"/>
<path d="M1083.98 -126.326L1084.2 -125.745L1344.55 564.016L1132.12 1179.82L1131.72 1180.17L607.499 1546.91L606.757 1546.79L-65.5894 1432.57L-66.0823 1432.19L-650.465 969.173L-650.699 968.399L-854.054 282.713L-853.923 282.168L-690.844 -370.84L-143.544 -680.761L-142.977 -680.709L542.149 -621.241L542.769 -620.69L1083.98 -126.326ZM1340.21 563.46L1080.65 -124.224L540.947 -617.194L-142.108 -676.486L-687.281 -367.809L-849.835 283.26L-647.049 967.017L-64.5217 1428.71L605.989 1542.55L1128.65 1176.82L1340.21 563.46Z" fill="#02489F"/>
<path d="M1079.27 -119.247L1301.66 561.059L1301.49 561.642L1127.64 1177.12L1127.1 1177.46L594.777 1504.75L594.141 1504.69L-60.8935 1428.62L-612.615 950.823L-612.839 950.191L-843.836 287.678L-843.64 287.057L-651.999 -335.199L-651.514 -335.526L-139.176 -668.957L-138.492 -668.856L531.131 -576.145L531.659 -575.702L1079.27 -119.247ZM1297.47 560.514L1075.93 -117.155L529.958 -572.217L-137.761 -664.664L-648.497 -332.284L-839.607 288.216L-609.313 948.728L-59.7295 1424.68L593.338 1500.52L1124.14 1174.15L1297.47 560.514Z" fill="#02489F"/>
<path d="M1074.57 -112.204L1074.79 -111.4L1258.77 558.044L1258.66 558.531L1123.16 1174.43L1122.5 1174.78L582.039 1462.51L581.541 1462.47L-56.1463 1424.61L-56.7638 1424.02L-574.766 932.445L-833.611 292.627L-833.338 291.921L-613.057 -299.689L-612.703 -299.996L-134.826 -657.202L520.143 -531.085L520.579 -530.749L1074.57 -112.204ZM1254.72 557.54L1071.23 -110.072L519.029 -527.283L-133.344 -652.873L-609.681 -296.833L-829.382 293.165L-571.591 930.442L-55.0022 1420.67L580.688 1458.44L1119.65 1171.43L1254.72 557.54Z" fill="#02489F"/>
<path d="M1069.85 -105.156L1070.06 -104.222L1215.9 555.058L1215.83 555.436L1118.67 1171.74L569.376 1420.37L569.005 1420.37L-51.4078 1420.62L-52.044 1419.87L-536.926 914.084L-537.098 913.708L-823.425 297.6L-823.075 296.809L-574.134 -264.153L-573.867 -264.385L-130.358 -645.39L-129.453 -645.161L509.127 -486.009L509.471 -485.781L1069.85 -105.156ZM1212 554.514L1066.49 -103.005L508.014 -482.358L-128.966 -641.058L-570.932 -261.391L-819.144 298.111L-533.834 912.115L-50.2854 1416.56L568.066 1416.42L1115.15 1168.71L1212 554.514Z" fill="#02489F"/>
<path d="M1065.16 -98.1135L1065.33 -97.041L1173.02 552.076L1172.99 552.326L1114.23 1169.03L1113.33 1169.37L556.632 1378.14L556.381 1378.15L-46.7169 1416.59L-47.4546 1415.73L-499.154 895.665L-499.329 895.46L-813.318 302.5L-812.863 301.636L-535.309 -228.562L-535.127 -228.72L-126.06 -633.612L-125.05 -633.305L498.134 -440.961L498.364 -440.823L1065.16 -98.1135ZM1169.16 551.576L1061.74 -95.9368L497.075 -437.357L-124.589 -629.254L-532.09 -225.89L-808.939 303.039L-496.046 893.757L-45.4444 1412.54L555.408 1374.24L1110.64 1165.99L1169.16 551.576Z" fill="#02489F"/>
<path d="M1060.47 -91.0728L1060.6 -89.8722L1130.15 549.081L1130.14 549.221L1109.78 1166.34L1108.72 1166.66L543.936 1335.95L543.804 1335.97L-41.9857 1412.6L-42.8063 1411.64L-461.384 877.34L-461.476 877.232L-803.159 307.472L-802.588 306.526L-496.488 -192.983L-496.391 -193.067L-121.732 -621.892L-120.602 -621.464L487.123 -395.915L487.206 -395.818L1060.47 -91.0728ZM1126.39 548.619L1057.01 -88.859L486.1 -392.399L-120.228 -617.451L-493.369 -190.449L-798.65 308.011L-458.349 875.477L-40.7744 1408.56L542.659 1332.24L1106.11 1163.25L1126.39 548.619Z" fill="#02489F"/>
<path d="M1055.79 -84.0554L1055.86 -82.7189L1087.24 546.098L1105.35 1163.67L1104.12 1163.94L531.317 1293.83L-37.209 1408.7L-423.45 859.001L-792.874 312.387L-792.159 311.391L-457.567 -157.492L-117.384 -610.154L-116.121 -609.616L476.095 -350.894L1055.79 -84.0554ZM1101.57 1160.5L1083.59 545.623L1052.24 -81.7781L475.108 -347.446L-115.809 -605.586L-454.555 -154.865L-788.377 312.956L-420.578 857.167L-35.9827 1404.46L530.03 1290.1L1101.57 1160.5Z" fill="#02489F"/>
<path d="M1051.14 -77.0451L1051.11 -75.5539L1044.43 543.184L1100.89 1161.03L1099.49 1161.25L518.536 1251.68L-32.4341 1404.79L-33.2847 1403.42L-385.674 840.602L-782.69 317.418L-781.767 316.316L-418.559 -121.992L-113.037 -598.445L-111.665 -597.757L465.22 -305.81L1051.14 -77.0451ZM1097.04 1157.73L1040.83 542.743L1047.48 -74.6948L464.247 -302.412L-111.434 -593.714L-415.661 -119.455L-778.077 317.904L-382.922 838.759L-31.2465 1400.39L517.265 1248.02L1097.04 1157.73Z" fill="#02489F"/>
<path d="M1046.5 -70.0457L1046.38 -68.3998L1001.58 540.125L1096.52 1158.34L1094.93 1158.46L505.949 1209.5L-27.7433 1400.8L-347.845 822.287L-772.632 322.256L-771.558 321.156L-379.885 -86.4486L-108.687 -586.758L454.144 -260.834L1046.5 -70.0457ZM1092.47 1154.93L997.994 539.645L998.02 539.435L1042.68 -67.6161L453.174 -257.475L-107.039 -581.821L-376.866 -83.9223L-376.984 -83.8201L-767.762 322.802L-345.04 820.417L-344.893 820.59L-26.3982 1396.18L504.793 1205.77L504.984 1205.76L1092.47 1154.93Z" fill="#02489F"/>
<path d="M1041.87 -63.1503L1041.59 -61.3049L958.765 537.103L1092.12 1155.69L493.267 1167.35L-23.0634 1396.93L-23.9319 1395.13L-310.106 803.959L-762.555 327.232L-761.27 326.117L-341.055 -50.8679L-104.349 -575.076L-102.715 -573.995L443.153 -215.815L1041.87 -63.1503ZM1087.91 1152.15L955.246 536.72L955.299 536.411L1037.91 -60.4798L442.203 -212.475L-102.556 -569.927L-338.05 -48.4233L-757.409 327.838L-307.255 802.144L-307.108 802.447L-21.6652 1392.13L491.989 1163.78L492.3 1163.77L1087.91 1152.15Z" fill="#02489F"/>
<path d="M1037.26 -56.068L1036.85 -54.1001L915.934 534.107L1087.75 1153.07L1085.76 1152.92L480.576 1125.21L-18.3173 1393L-272.253 785.595L-752.412 332.137L-750.904 330.979L-302.177 -15.3793L-100.047 -563.432L432.154 -170.822L1037.26 -56.068ZM1083.26 1149.38L912.419 533.663L912.51 533.246L1033.08 -53.3627L431.216 -167.491L430.845 -167.772L-98.1637 -558.024L-299.213 -12.9177L-299.524 -12.6482L-747.06 332.789L-269.466 783.816L-269.287 784.243L-16.8828 1387.98L479.321 1121.6L479.75 1121.62L1083.26 1149.38Z" fill="#02489F"/>
<path d="M1032.67 -49.1018L873.12 531.123L1083.42 1150.47L1081.15 1150.23L467.904 1083.06L-13.6075 1389.13L-14.4294 1386.84L-234.454 767.25L-742.362 337.059L-263.386 20.1759L-95.7241 -551.815L-93.8169 -550.239L421.183 -125.805L1032.67 -49.1018ZM1078.69 1146.5L869.574 530.707L869.721 530.203L1028.23 -46.2245L420.214 -122.466L419.77 -122.833L-93.7465 -546.056L-260.367 22.5711L-260.742 22.8962L-736.632 337.759L-231.683 765.429L-231.492 765.958L-12.0908 1383.81L466.656 1079.49L467.193 1079.55L1078.69 1146.5Z" fill="#02489F"/>
<path d="M1028.11 -42.1626L1027.3 -39.8218L830.264 528.149L1079.11 1147.95L455.224 1040.99L-8.87987 1385.4L-196.675 748.894L-732.345 341.979L-730.264 340.812L-224.509 55.6279L-91.4202 -540.248L-89.3191 -538.314L410.259 -80.7825L1028.11 -42.1626ZM1074.07 1143.61L826.792 527.667L826.995 527.097L1023.32 -39.039L409.253 -77.4871L408.736 -77.9596L-89.3283 -534.138L-221.535 58.1004L-222.068 58.3935L-726.265 342.695L-193.897 747.104L-193.702 747.724L-7.28618 1379.58L453.982 1037.33L454.616 1037.44L1074.07 1143.61Z" fill="#02489F"/>
<path d="M1023.61 -35.2413L787.484 525.137L1074.84 1145.33L442.558 998.778L-4.2249 1381.48L-4.89667 1378.51L-158.885 730.558L-722.372 346.893L-719.942 345.742L-185.671 91.1254L-87.1194 -528.723L399.201 -35.8022L1023.61 -35.2413ZM1069.34 1140.75L783.917 524.719L784.196 524.064L1018.45 -31.8929L398.285 -32.5102L-84.8286 -522.053L-182.7 93.6179L-183.323 93.9144L-715.785 347.657L-156.085 728.748L-2.47552 1375.32L441.312 995.183L1069.34 1140.75Z" fill="#02489F"/>
<path d="M1019.1 -28.3779L1017.73 -25.6249L744.682 522.147L1070.61 1142.83L429.895 956.665L0.433512 1377.78L-121.104 712.213L-712.449 351.776L-709.652 350.683L-146.854 126.624L-82.8761 -517.241L388.235 9.15703L1019.1 -28.3779ZM1064.59 1137.8L741.067 521.715L741.43 521.006L1013.48 -24.701L387.274 12.5263L386.683 11.8364L-80.3278 -509.987L-143.771 129.094L-144.504 129.393L-705.213 352.579L-118.256 710.438L-118.1 711.297L2.40391 1371.08L428.678 953.083L429.511 953.337L1064.59 1137.8Z" fill="#02489F"/>
<path d="M1003.47 -18.8817L734.222 520.939L1053.77 1129.69L1050.62 1128.78L425.422 947.014L4.18508 1359.93L-114.917 707.193L-694.818 353.635L-140.084 132.909L-77.2292 -498.506L-74.9166 -495.911L384.72 17.7925L1003.47 -18.8817ZM1047.87 1124.75L730.665 520.532L731.017 519.832L997.913 -15.2806L383.782 21.1231L383.192 20.4332L-74.7228 -491.366L-137.121 135.391L-137.834 135.671L-687.692 354.42L-112.139 705.402L-111.992 706.251L6.06206 1353.27L424.185 943.43L425 943.663L1047.87 1124.75Z" fill="#02489F"/>
<path d="M987.79 -9.42267L986.47 -6.75619L723.771 519.739L1036.93 1116.53L420.932 937.319L7.89003 1342.02L-108.731 702.17L-677.186 355.472L-133.313 139.192L-71.6012 -479.796L381.195 26.434L987.79 -9.42267ZM1031.12 1111.68L720.334 519.321L720.676 518.63L982.336 -5.87421L380.272 29.6952L-69.1485 -472.74L-130.397 141.619L-131.109 141.899L-670.222 356.285L-106.014 700.395L-105.856 701.234L9.78579 1335.51L419.729 933.818L420.532 934.06L1031.12 1111.68Z" fill="#02489F"/>
<path d="M972.142 0.0458505L970.825 2.6722L713.296 518.504L1020.11 1103.38L1017.06 1102.5L416.501 927.685L11.6825 1324.2L-102.541 697.144L-659.55 357.305L-126.528 145.462L-65.9599 -461.078L377.706 35.0448L972.142 0.0458505ZM1014.39 1098.59L709.88 518.087L710.22 517.416L966.763 3.52927L376.762 38.3045L376.191 37.6361L-63.5395 -454.126L-123.67 147.865L-124.372 148.136L-652.685 358.11L-99.8468 695.408L-99.6964 696.216L13.5033 1317.75L415.295 924.224L416.09 924.455L1014.39 1098.59Z" fill="#02489F"/>
<path d="M956.472 9.51208L955.127 12.106L702.846 517.3L1003.28 1090.25L412.039 918.038L15.4371 1306.31L14.8769 1303.19L-96.353 692.117L-641.935 359.115L-639.282 358.072L-119.747 151.751L-60.3025 -442.339L-58.0911 -439.863L374.191 43.6933L956.472 9.51208ZM997.646 1085.54L699.469 516.906L699.8 516.224L951.188 12.9319L373.274 46.8741L-57.9758 -435.475L-116.935 154.1L-117.627 154.382L-635.162 359.944L-93.711 690.407L17.2398 1299.98L410.881 914.611L411.655 914.84L997.646 1085.54Z" fill="#02489F"/>
<path d="M940.777 18.9148L692.399 516.085L986.453 1077.08L407.59 908.37L19.2079 1288.5L-90.154 687.089L-624.262 360.979L-621.66 359.942L-112.973 158.018L-54.6528 -423.623L370.678 52.3305L940.777 18.9148ZM980.868 1072.4L689.035 515.642L689.364 514.98L935.623 22.3343L369.776 55.4418L369.232 54.8058L-52.314 -416.919L-110.189 160.335L-110.879 160.596L-617.645 361.736L-87.5532 685.396L-87.412 686.194L20.9661 1282.22L406.425 905.023L407.191 905.242L980.868 1072.4Z" fill="#02489F"/>
<path d="M925.157 28.4234L923.91 30.9137L681.924 514.857L969.607 1063.93L966.704 1063.09L403.111 898.711L22.9167 1270.59L-83.9628 682.051L-606.627 362.82L-106.188 164.296L-48.9902 -404.916L-46.8528 -402.526L367.147 60.9662L925.157 28.4234ZM964.163 1059.38L678.665 514.473L678.984 513.82L920.041 31.7347L366.279 64.0297L365.698 63.3505L-46.7515 -398.35L-103.471 166.578L-104.142 166.84L-600.078 363.562L-81.4861 680.41L-81.3434 681.187L24.6169 1264.42L401.927 895.363L402.683 895.571L964.163 1059.38Z" fill="#02489F"/>
<path d="M909.485 37.8984L908.261 40.3501L671.415 513.638L952.769 1050.78L949.914 1049.95L398.65 889.052L26.6487 1252.74L26.1073 1249.77L-77.8037 677L-589.022 364.629L-99.4171 170.583L-43.3754 -386.151L363.642 69.6143L909.485 37.8984ZM947.417 1046.33L668.255 513.281L668.572 512.648L904.465 41.1463L362.778 72.6174L362.243 71.9922L-41.1293 -379.686L-96.7372 172.822L-97.3974 173.075L-582.577 365.423L-75.261 675.414L28.3769 1246.73L397.527 885.82L398.272 886.037L947.417 1046.33Z" fill="#02489F"/>
<path d="M893.841 47.3479L892.63 49.75L661.021 512.409L935.924 1037.64L394.181 879.416L30.3418 1234.93L29.8158 1232.02L-71.5945 672.017L-571.367 366.505L-92.6512 176.873L-37.7105 -367.451L360.146 78.2153L893.841 47.3479ZM930.69 1033.23L657.84 512.071L658.157 511.438L888.926 50.5227L359.315 81.1705L358.817 80.5884L-35.4585 -361.066L-90.0282 179.067L-90.6684 179.322L-565.069 367.258L-69.1316 670.425L-68.9965 671.172L32.0763 1228.97L393.075 876.226L393.811 876.432L930.69 1033.23Z" fill="#02489F"/>
<path d="M878.181 56.8212L650.561 511.231L919.126 1024.5L916.37 1023.7L389.741 869.747L34.2013 1216.99L33.6494 1214.16L-65.3859 666.988L-553.671 368.318L-551.234 367.35L-85.8583 183.15L-32.0735 -348.697L356.62 86.8896L878.181 56.8212ZM913.955 1020.18L647.462 510.858L647.778 510.246L873.329 59.9605L355.794 89.7847L-29.9122 -342.44L-83.3043 185.328L-547.461 369.034L-62.9644 665.413L-62.8293 666.16L35.8426 1211.21L388.672 866.6L389.389 866.804L913.955 1020.18Z" fill="#02489F"/>
<path d="M862.501 66.291L640.083 510.009L902.268 1011.35L385.271 860.084L37.8921 1199.16L37.3678 1196.36L-59.2176 661.954L-536.089 370.171L-533.685 369.23L-79.0967 189.431L-26.4452 -329.977L353.087 95.5107L862.501 66.291ZM897.193 1007.09L637.044 509.641L637.349 509.038L857.734 69.3559L352.284 98.3671L351.777 97.7742L-24.3149 -323.843L-76.5213 191.592L-77.1401 191.828L-529.991 370.909L-56.8282 660.407L39.5275 1193.46L384.217 856.998L384.913 857.201L897.193 1007.09Z" fill="#02489F"/>
<path d="M846.839 75.7473L845.689 78.0226L629.622 508.794L885.438 998.192L380.798 850.425L41.6437 1181.29L41.1471 1178.53L-53.0436 656.955L-518.448 372.013L-516.105 371.088L-72.3155 195.7L-20.7803 -311.228L349.609 104.182L846.839 75.7473ZM880.435 994.044L626.622 508.449L626.925 507.866L842.166 78.7686L348.783 106.945L-18.71 -305.23L-69.8139 197.774L-70.422 198.001L-512.534 372.666L-50.6526 655.388L-50.5254 656.104L43.2732 1175.67L379.759 847.401L380.436 847.603L880.435 994.044Z" fill="#02489F"/>
<path d="M831.183 85.2038L830.064 87.4514L619.167 507.579L868.603 985.047L376.35 840.768L45.3893 1163.44L44.9296 1160.72L-46.8204 651.9L-500.848 373.801L-65.5404 201.978L-15.1568 -292.533L346.061 112.787L831.183 85.2038ZM863.707 980.937L616.237 507.229L616.53 506.656L826.594 88.1709L345.287 115.524L344.807 114.963L-13.1005 -286.617L-63.097 204.027L-63.6958 204.265L-494.951 374.545L-44.5075 650.438L-44.3894 651.143L46.9869 1157.98L375.345 837.827L376.022 838.029L863.707 980.937Z" fill="#02489F"/>
<path d="M815.517 94.6778L608.703 506.362L851.77 971.89L371.882 831.118L49.1001 1145.53L-40.6473 646.859L-483.165 375.695L-58.7645 208.264L-9.57096 -273.853L342.506 121.369L815.517 94.6778ZM846.986 967.89L605.841 506.027L811.023 97.5814L341.781 124.12L-7.51005 -267.997L-56.378 210.269L-56.9569 210.508L-477.433 376.376L-38.3542 645.396L50.6887 1140.19L370.885 828.208L371.542 828.409L846.986 967.89Z" fill="#02489F"/>
<path d="M799.855 104.132L598.251 505.155L834.938 958.753L832.437 958.011L367.419 821.448L52.8774 1127.72L-34.4429 641.851L-465.554 377.543L-51.9943 214.54L-3.8787 -255.074L339.046 130.059L799.855 104.132ZM830.222 954.788L595.413 504.781L795.445 106.981L338.279 132.696L337.818 132.157L-1.8949 -249.395L-49.6616 216.46L-50.239 216.679L-459.901 378.197L-32.2325 640.422L-32.1222 641.096L54.4018 1122.43L366.438 818.6L367.085 818.789L830.222 954.788Z" fill="#02489F"/>
<path d="M784.203 113.589L783.134 115.699L587.79 503.929L818.15 945.551L815.678 944.842L362.988 811.743L56.651 1109.8L-28.2346 636.775L-447.915 379.264L-45.2323 220.777L1.76725 -236.356L335.52 138.686L784.203 113.589ZM813.471 941.761L585.039 503.593L779.921 116.327L334.808 141.257L334.347 140.718L3.73077 -230.811L-42.8535 222.751L-43.4202 222.961L-442.38 380.021L-26.1221 635.449L-26.0103 636.103L58.1144 1104.67L362 808.995L362.638 809.174L813.471 941.761Z" fill="#02489F"/>
<path d="M768.526 123.055L767.492 125.117L577.368 502.677L801.254 932.433L798.809 931.756L358.478 802.133L60.3761 1091.98L-22.0642 631.777L-430.255 381.199L-428.127 380.349L-38.4381 227.087L7.40965 -217.629L331.989 147.344L768.526 123.055ZM796.747 928.625L574.624 502.392L764.295 125.786L331.281 149.854L330.83 149.326L9.327 -212.138L-36.1836 228.981L-36.741 229.202L-424.842 381.856L-19.9488 630.411L-19.8369 631.065L61.8335 1086.92L357.549 799.389L358.177 799.577L796.747 928.625Z" fill="#02489F"/>
<path d="M752.871 132.526L566.862 501.503L784.449 919.315L354.05 792.492L64.0956 1074.09L63.6458 1071.64L-15.8729 626.764L-412.627 383.035L-410.532 382.213L-31.6438 233.401L13.0525 -198.898L328.492 155.957L752.871 132.526ZM780.035 915.594L564.22 501.185L748.715 135.192L327.777 158.436L327.344 157.93L14.9006 -193.553L-29.4248 235.232L-29.9623 235.454L-407.305 383.695L-13.8002 625.436L65.5626 1069.17L353.089 789.776L353.708 789.954L780.035 915.594Z" fill="#02489F"/>
<path d="M737.218 141.979L556.409 500.285L767.597 906.144L349.576 782.819L67.8718 1056.26L-9.67902 621.733L-394.978 384.874L-392.935 384.078L-24.8735 239.645L18.6788 -180.207L324.966 164.56L737.218 141.979ZM763.351 902.467L553.827 499.971L554.085 499.465L733.137 144.58L324.293 167.022L20.5558 -174.98L-22.7235 241.46L-23.2503 241.673L-389.74 385.457L-7.64774 620.421L-7.54367 621.045L69.2745 1051.4L348.678 780.199L349.276 780.375L763.351 902.467Z" fill="#02489F"/>
<path d="M721.549 151.454L545.952 499.079L750.772 892.999L748.517 892.326L345.108 773.15L71.618 1038.4L-3.49817 616.704L-377.342 386.715L-18.0901 245.943L24.3473 -161.449L25.961 -159.562L321.463 173.228L721.549 151.454ZM746.588 889.417L543.458 498.802L543.705 498.305L717.548 154.061L320.715 175.604L320.3 175.119L26.0416 -156.327L-15.9861 247.704L-16.5222 247.906L-372.267 387.326L-1.50969 615.43L-1.40416 616.033L72.9918 1033.65L344.247 770.573L344.836 770.738L746.588 889.417Z" fill="#02489F"/>
<path d="M705.884 160.912L704.932 162.809L535.487 497.866L733.938 879.847L340.651 763.496L75.3969 1020.51L74.9857 1018.21L2.6942 611.669L-359.704 388.54L-11.3333 252.212L29.9803 -142.73L317.953 181.869L705.884 160.912ZM729.826 876.371L533.005 497.559L533.261 497.074L702.045 163.36L317.299 184.201L31.7113 -137.696L-9.26774 253.951L-9.77314 254.145L-354.759 389.151L4.63978 610.432L4.73612 611.025L76.7327 1015.87L339.816 760.971L340.385 761.135L729.826 876.371Z" fill="#02489F"/>
<path d="M690.231 170.394L689.303 172.232L525.037 496.656L717.107 866.707L336.197 753.853L79.1154 1002.68L8.89941 606.658L-342.053 390.387L-4.5438 258.506L35.6366 -123.997L314.42 190.47L690.231 170.394ZM713.069 863.317L522.623 496.365L686.433 172.825L313.798 192.774L313.402 192.311L37.3182 -119.108L-2.49225 260.163L-2.98699 260.348L-337.184 390.953L10.8528 605.452L10.9598 606.035L80.4436 998.152L335.356 751.409L713.069 863.317Z" fill="#02489F"/>
<path d="M674.564 179.843L673.659 181.642L514.571 495.434L700.272 853.546L331.729 744.179L82.8425 984.793L82.4545 982.594L15.0705 601.613L-324.47 392.249L2.15178 264.762L41.2773 -105.277L310.96 199.095L674.564 179.843ZM696.307 850.262L512.217 495.147L512.452 494.68L670.851 182.22L310.313 201.327L42.9479 -100.51L4.19273 266.428L3.70717 266.624L-319.701 392.807L16.9412 600.441L17.0391 601.013L84.0899 980.405L330.908 741.867L331.447 742.039L696.307 850.262Z" fill="#02489F"/>
<path d="M658.933 189.296L504.119 494.233L683.431 840.404L327.265 734.535L86.6126 966.954L21.266 596.6L-306.808 394.097L-304.992 393.385L9.01112 271.06L46.9128 -86.5368L48.3881 -84.812L307.43 207.796L658.933 189.296ZM679.593 837.161L501.816 493.94L502.041 493.483L655.305 191.598L306.789 209.948L306.402 209.495L48.5111 -81.8762L10.9154 272.676L10.4514 272.853L-302.168 394.635L23.0953 595.445L23.1946 595.997L87.8647 962.638L326.44 732.153L326.978 732.324L679.593 837.161Z" fill="#02489F"/>
<path d="M643.232 198.771L493.651 493.009L666.603 827.252L322.794 724.859L90.3265 949.069L27.4252 591.542L-289.202 395.878L-287.396 395.175L15.773 277.329L52.6042 -67.8647L303.934 216.448L643.232 198.771ZM662.812 824.042L491.338 492.705L491.563 492.248L639.698 201.03L303.301 218.499L54.1181 -63.2812L17.6404 278.902L17.1763 279.079L-284.665 396.449L29.2117 590.424L29.311 590.976L91.5697 944.873L322.021 722.581L662.812 824.042Z" fill="#02489F"/>
<path d="M627.593 208.235L483.204 491.791L649.766 814.092L647.815 813.513L318.344 715.208L94.1097 931.224L33.6634 586.534L-271.498 397.731L-269.775 397.063L22.5571 283.604L58.2108 -49.094L300.394 225.049L627.593 208.235ZM646.126 811.015L481.031 491.497L481.254 491.06L624.134 210.429L299.755 227.05L299.386 226.619L59.6797 -44.7157L24.3861 285.154L23.9327 285.322L-267.128 398.259L35.37 585.41L35.4601 585.952L95.2703 927.062L317.651 712.936L318.151 713.085L646.126 811.015Z" fill="#02489F"/>
<path d="M611.919 217.688L611.087 219.311L472.73 490.572L632.933 800.945L313.841 705.505L97.8482 913.356L39.8364 581.503L-253.859 399.561L-252.177 398.909L29.3542 289.882L63.8441 -30.3701L65.2088 -28.7746L296.876 233.685L611.919 217.688ZM629.387 797.956L470.596 490.302L470.808 489.874L608.563 219.829L296.287 235.679L65.3067 -26.0426L31.1064 291.385L-249.601 400.111L41.5187 580.438L41.6103 580.96L99.0167 909.357L313.169 703.346L313.669 703.494L629.387 797.956Z" fill="#02489F"/>
<path d="M596.205 227.2L462.249 489.385L616.09 787.849L309.416 695.89L101.589 895.512L101.252 893.569L46.0533 576.477L-236.149 401.428L-234.509 400.793L36.1048 296.167L69.4801 -11.6249L293.361 242.321L596.205 227.2ZM612.633 784.877L460.164 489.128L460.374 488.72L592.945 229.277L292.796 244.277L292.445 243.867L70.8905 -7.4023L37.8294 297.638L37.4067 297.798L-232.041 401.977L47.6728 575.448L47.7552 575.959L102.73 891.611L308.711 693.778L309.191 693.925L612.633 784.877Z" fill="#02489F"/>
<path d="M580.581 236.62L579.786 238.156L451.836 488.125L599.248 774.645L304.974 686.275L105.326 877.638L105.004 875.757L52.2035 571.459L-218.579 403.216L-216.98 402.599L42.8699 302.446L75.1228 7.08412L289.795 250.897L580.581 236.62ZM595.836 771.746L449.77 487.889L449.98 487.481L577.385 238.642L289.28 252.846L76.4837 11.1617L44.5577 303.874L44.135 304.034L-214.551 403.759L53.8386 570.491L53.9224 570.982L106.397 873.873L304.237 684.192L304.708 684.328L595.836 771.746Z" fill="#02489F"/>
<path d="M564.938 246.084L564.175 247.591L441.362 486.944L582.435 761.517L300.503 676.582L109.086 859.77L108.77 857.96L58.4081 566.438L-200.909 405.056L-199.351 404.456L49.7123 308.685L80.7784 25.8074L286.345 259.585L564.938 246.084ZM579.164 758.74L439.409 486.667L439.618 486.279L561.852 248.103L285.806 261.442L285.474 261.054L82.0932 29.8311L51.282 310.083L50.8807 310.225L-197.011 405.599L59.9741 565.455L110.217 856.141L299.741 674.557L300.192 674.692L579.164 758.74Z" fill="#02489F"/>
<path d="M549.27 255.548L548.521 257.006L430.86 485.674L565.601 748.351L296.025 666.912L112.822 841.904L64.6092 561.4L-183.315 406.923L-181.799 406.34L56.444 314.999L86.4474 44.5552L87.6461 45.9565L282.813 268.231L549.27 255.548ZM562.368 745.597L429.006 485.404L429.185 485.024L546.253 257.452L282.3 270.009L87.725 48.4045L58.0643 316.391L57.6722 316.544L-179.447 407.455L66.1125 560.453L66.1886 560.912L113.889 838.33L295.377 664.976L295.818 665.1L562.368 745.597Z" fill="#02489F"/>
<path d="M533.638 265.048L532.954 266.43L420.428 484.502L548.753 735.206L547.134 734.731L291.545 657.233L116.575 824.05L70.7968 556.383L-165.691 408.755L-164.216 408.189L63.2065 321.277L92.0473 63.2597L279.31 276.861L533.638 265.048ZM545.67 732.584L418.582 484.263L418.759 483.903L530.668 266.855L278.78 278.597L278.476 278.241L93.3309 67.0288L64.7146 322.56L64.3332 322.703L-162.039 409.23L72.2586 555.453L72.3255 555.902L117.595 820.574L290.922 655.37L545.67 732.584Z" fill="#02489F"/>
<path d="M517.941 274.479L517.239 275.839L409.97 483.284L531.925 722.048L530.318 721.565L287.104 647.585L120.32 806.173L76.976 551.342L-148.058 410.604L-146.646 410.074L69.9886 327.563L97.6688 81.952L275.787 285.495L517.941 274.479ZM528.947 719.505L408.173 483.059L408.35 482.699L515.071 276.292L275.231 287.179L98.8587 85.6333L71.4875 328.835L71.1168 328.969L-144.444 411.056L78.4043 550.46L78.4727 550.889L121.33 802.818L286.487 645.773L286.908 645.895L528.947 719.505Z" fill="#02489F"/>
<path d="M502.287 283.938L501.576 285.288L399.527 482.083L515.155 708.87L282.754 637.847L124.068 788.322L83.1466 546.356L-130.468 412.425L-129.056 411.895L76.777 333.835L103.35 100.715L272.252 294.094L502.287 283.938ZM512.21 706.43L397.78 481.851L397.956 481.511L499.533 285.67L271.797 295.765L271.511 295.431L104.53 104.254L78.2175 335.082L-126.915 412.892L84.5657 545.463L84.6249 545.882L125.003 785.031L282.01 636.127L282.421 636.258L512.21 706.43Z" fill="#02489F"/>
<path d="M486.625 293.401L485.896 294.729L389.056 480.864L498.253 695.748L278.196 628.25L127.809 770.455L89.3546 541.297L-112.759 414.29L-111.365 413.738L83.5002 340.065L108.986 119.437L268.764 302.76L486.625 293.401ZM495.464 693.36L387.369 480.637L387.534 480.306L483.919 295.035L268.286 304.339L268.009 304.016L110.125 122.863L84.9407 341.313L84.59 341.448L-109.394 414.713L90.6618 540.426L90.7316 540.835L128.754 767.306L277.61 626.562L277.992 626.681L495.464 693.36Z" fill="#02489F"/>
<path d="M470.956 302.877L470.314 304.11L378.598 479.659L481.424 682.624L273.731 618.673L131.563 752.601L95.5602 536.19L-95.106 416.153L90.3195 346.407L114.636 138.175L265.25 311.419L470.956 302.877ZM478.73 680.303L376.944 479.404L377.107 479.093L468.386 304.431L264.79 312.888L264.514 312.565L115.733 141.486L91.6664 347.568L-91.8691 416.557L96.8248 535.488L132.522 749.534L273.218 616.94L273.591 617.048L478.73 680.303Z" fill="#02489F"/>
<path d="M455.31 312.34L454.681 313.524L368.133 478.448L464.591 669.454L463.18 669.026L269.258 608.959L135.301 734.731L135.059 733.27L101.719 531.206L-77.4948 417.948L97.15 352.634L120.27 156.876L261.72 320.061L455.31 312.34ZM461.936 667.157L366.557 478.22L452.801 313.878L261.293 321.502L261.062 321.233L121.373 160.107L98.4356 353.81L98.1155 353.938L-74.3437 418.426L102.987 530.463L103.049 530.841L136.2 731.791L268.762 607.399L461.936 667.157Z" fill="#02489F"/>
<path d="M439.653 321.798L357.688 477.226L447.783 656.343L264.789 599.303L139.056 716.87L138.82 715.459L107.973 526.256L-59.8232 419.825L103.881 358.951L125.901 175.584L258.212 328.65L439.653 321.798ZM445.25 654.146L356.16 477.011L356.322 476.72L437.228 323.282L257.804 330.093L126.943 178.699L105.132 360.044L-56.8148 420.201L109.144 525.466L139.874 714.075L264.281 597.772L264.634 597.879L445.25 654.146Z" fill="#02489F"/>
<path d="M424.005 331.231L347.219 476.006L430.917 643.152L260.327 589.642L142.788 699.011L142.569 697.642L114.114 521.181L-42.216 421.611L-41.0519 421.183L110.695 365.199L131.546 194.358L254.677 337.303L424.005 331.231ZM428.506 641.074L345.752 475.796L345.903 475.514L421.643 332.679L254.295 338.667L254.056 338.387L132.529 197.317L111.858 366.274L111.549 366.393L-39.2903 422.021L115.279 520.471L115.334 520.818L143.632 696.288L259.837 588.152L260.179 588.268L428.506 641.074Z" fill="#02489F"/>
<path d="M408.336 340.728L407.767 341.786L336.778 474.733L414.101 630.019L255.879 579.996L146.514 681.166L146.319 679.87L120.293 516.194L-24.6011 423.472L117.406 371.543L137.187 213.086L251.183 345.984L408.336 340.728ZM411.803 628.031L335.384 474.609L335.525 474.336L406.109 342.116L250.818 347.258L250.588 346.989L138.158 215.943L118.605 372.531L118.317 372.631L-21.7444 423.867L121.449 515.473L121.503 515.82L147.371 678.525L255.414 578.559L255.747 578.664L411.803 628.031Z" fill="#02489F"/>
<path d="M392.648 350.198L326.297 473.582L397.244 616.878L396.051 616.486L251.4 570.333L150.318 663.321L126.532 511.186L-6.94418 425.291L-5.86282 424.897L124.202 377.788L142.85 231.789L247.684 354.588L392.648 350.198ZM395.034 614.927L324.938 473.39L325.088 473.128L390.497 351.501L247.29 355.85L247.059 355.581L143.728 234.539L125.302 378.769L125.023 378.879L-4.24848 425.694L127.64 510.431L151.077 660.785L250.969 568.979L251.273 569.072L395.034 614.927Z" fill="#02489F"/>
<path d="M376.984 359.633L376.451 360.603L315.843 472.357L380.422 603.714L379.267 603.345L246.961 560.697L154.047 645.435L132.754 506.161L10.759 427.187L131.044 384.131L148.586 250.603L149.416 251.573L244.239 363.17L376.984 359.633ZM378.305 601.85L314.544 472.169L314.683 471.917L374.927 360.892L243.777 364.397L243.565 364.149L149.321 253.12L132.033 384.982L131.756 385.073L13.2721 427.486L133.718 505.456L154.806 643.03L246.529 559.363L246.833 559.456L378.305 601.85Z" fill="#02489F"/>
<path d="M361.283 369.15L305.377 471.154L363.566 590.57L362.47 590.206L242.465 551.009L157.764 627.552L138.869 501.07L28.3201 428.956L137.753 390.357L154.143 269.246L154.936 270.173L240.675 371.848L361.283 369.15ZM361.545 588.774L304.138 470.971L304.266 470.728L359.371 370.339L240.37 372.995L240.167 372.758L155.019 271.753L138.759 391.25L30.8072 429.334L139.875 500.479L139.912 500.785L158.506 625.256L242.078 549.749L361.545 588.774Z" fill="#02489F"/>
<path d="M345.67 378.59L294.922 469.939L346.732 577.425L345.685 577.075L238.04 541.334L161.543 609.67L161.384 608.568L145.093 496.015L45.986 430.821L144.559 396.648L159.816 287.975L237.122 380.533L345.67 378.59ZM344.815 575.708L293.752 469.771L293.879 469.548L343.773 379.709L236.794 381.588L236.591 381.351L160.529 290.38L145.499 397.485L145.252 397.567L48.3352 431.168L146.024 495.489L146.063 495.775L162.202 607.539L237.642 540.215L237.915 540.316L344.815 575.708Z" fill="#02489F"/>
</g>
</svg>
