<svg width="572" height="510" viewBox="0 0 572 510" fill="none" xmlns="http://www.w3.org/2000/svg">
<g clip-path="url(#clip0)">
<mask id="mask0" mask-type="alpha" maskUnits="userSpaceOnUse" x="116" y="-161" width="573" height="573">
<ellipse rx="285.494" ry="286.052" transform="matrix(0.707505 0.706708 -0.707505 0.706709 402.32 125.585)" fill="#C4C4C4"/>
</mask>
<g mask="url(#mask0)">
<path d="M1176.63 -274.028L320.994 -250.859L-280.827 -896.741L-281.27 -894.076L-410.459 -128.742L-1190.37 121.16L-1187.64 122.733L-414.822 572.636L-295.017 1372.99L-292.891 1371.3L313.901 884.012L1167.86 1128.73L768.66 375.055L1176.63 -274.028ZM319.917 -248.054L320.67 -248.096L1171.09 -271.128L765.257 374.607L765.624 375.293L1162.4 1124.37L312.87 880.936L312.334 881.358L-292.888 1367.38L-412.078 571.194L-412.783 570.788L-1183.6 122.044L-407.732 -126.558L-407.628 -127.229L-278.801 -890.566L319.917 -248.054Z" fill="white"/>
<path d="M1157.84 -265.411L318.309 -248.178L-275.963 -878.126L-276.426 -875.516L-408.864 -126.977L-1170.84 123.227L-1168.2 124.749L-413.429 570.197L-290.087 1354.78L-287.999 1353.14L310.896 879.924L1149.1 1114.62L1147.77 1112.05L763.118 374.105L1157.84 -265.411ZM317.254 -245.412L317.994 -245.431L1152.46 -262.567L759.8 373.684L760.143 374.349L1143.78 1110.38L309.885 876.889L309.344 877.307L-287.995 1349.34L-410.732 568.785L-411.421 568.389L-1164.22 124.088L-406.169 -124.826L-406.059 -125.493L-273.953 -872.099L317.254 -245.412Z" fill="white"/>
<path d="M1139.05 -256.8L1136.21 -256.757L315.614 -245.509L-271.107 -859.514L-271.575 -856.98L-407.292 -125.225L-1151.34 125.275L-412.053 567.784L-285.18 1336.62L-283.138 1335.02L307.891 875.828L1130.37 1100.47L1129.08 1097.96L757.622 373.182L1139.05 -256.8ZM314.575 -242.771L315.308 -242.779L1133.8 -254.01L754.321 372.756L754.668 373.416L1125.15 1096.35L306.908 872.845L306.373 873.267L-283.162 1331.28L-409.388 566.376L-410.055 565.992L-1144.89 126.122L-404.644 -123.094L-269.155 -853.637L314.575 -242.771Z" fill="white"/>
<path d="M1120.26 -248.183L1117.51 -248.164L312.915 -242.822L-266.244 -840.9L-405.702 -123.492L-1131.83 127.327L-1129.36 128.828L-410.678 565.37L-280.278 1318.45L-278.273 1316.92L304.888 871.732L1111.6 1086.37L1110.36 1083.93L752.096 372.248L1120.26 -248.183ZM311.896 -240.13L312.623 -240.128L1115.17 -245.453L748.846 371.822L749.196 372.476L1106.53 1082.33L303.9 868.783L303.38 869.178L-278.298 1313.23L-408.039 563.969L-408.689 563.595L-1125.55 128.158L-403.073 -121.365L-402.937 -122.016L-264.303 -835.182L311.896 -240.13Z" fill="white"/>
<path d="M1101.49 -239.57L1098.8 -239.569L310.242 -240.136L-261.367 -822.279L-261.855 -819.902L-404.137 -121.71L-1112.32 129.38L-409.307 562.958L-275.373 1300.29L-273.414 1298.82L301.906 867.653L1092.85 1072.25L1091.67 1069.87L746.587 371.314L1101.49 -239.57ZM309.23 -237.507L1096.51 -236.932L743.381 370.877L743.688 371.492L1087.9 1068.3L300.916 864.733L300.406 865.111L-273.428 1295.18L-406.684 561.548L-407.318 561.183L-1106.19 130.187L-401.558 -119.648L-401.435 -120.263L-259.525 -816.705L309.23 -237.507Z" fill="white"/>
<path d="M1082.69 -230.929L307.533 -237.467L-256.527 -803.676L-257.021 -801.376L-402.566 -119.957L-1092.8 131.404L-407.897 560.486L-270.452 1282.09L298.886 863.55L1074.08 1058.12L1072.96 1055.8L741.044 370.387L1082.69 -230.929ZM306.542 -234.848L307.218 -234.846L1077.84 -228.369L737.896 369.962L738.19 370.561L1069.28 1054.29L297.923 860.696L297.428 861.061L-268.57 1277.13L-405.347 559.15L-405.959 558.798L-1086.85 132.237L-400.018 -117.928L-399.891 -118.526L-254.707 -798.24L306.542 -234.848Z" fill="white"/>
<path d="M1063.94 -222.325L304.842 -234.791L-251.666 -785.07L-400.982 -118.199L-1073.31 133.484L-406.51 558.092L-265.518 1263.92L295.896 859.468L1055.34 1044L1054.27 1041.75L735.549 369.412L1063.94 -222.325ZM303.866 -232.213L304.522 -232.201L1059.17 -219.819L732.418 369.033L1050.65 1040.26L294.932 856.628L-263.705 1259.07L-403.998 556.735L-404.588 556.395L-1067.49 134.261L-398.48 -116.204L-398.351 -116.779L-249.911 -779.773L303.866 -232.213Z" fill="white"/>
<path d="M1045.12 -213.724L1042.66 -213.79L302.141 -232.098L-246.818 -766.442L-399.412 -116.442L-1053.81 135.534L-405.149 555.655L-260.624 1245.73L-258.793 1244.44L292.889 855.342L1036.59 1029.87L1035.57 1027.68L730.012 368.501L1045.12 -213.724ZM301.21 -229.559L301.843 -229.546L1040.54 -211.261L726.941 368.105L727.203 368.672L1032.01 1026.23L291.947 852.579L291.47 852.911L-258.841 1241.02L-402.653 554.325L-403.2 554.011L-1048.13 136.31L-396.937 -114.439L-396.806 -114.992L-245.084 -761.296L301.21 -229.559Z" fill="white"/>
<path d="M1026.35 -205.112L1023.97 -205.19L299.46 -229.439L-241.947 -747.84L-242.461 -745.77L-397.838 -114.692L-1034.3 137.585L-403.775 553.245L-255.721 1227.57L289.877 851.275L1017.84 1015.75L724.49 367.559L1026.35 -205.112ZM298.512 -226.933L1021.86 -202.722L721.481 367.148L1013.4 1012.18L288.951 848.522L288.493 848.835L-253.975 1222.97L-401.307 551.914L-401.834 551.566L-1028.79 138.323L-395.402 -112.748L-395.272 -113.287L-240.268 -742.828L298.512 -226.933Z" fill="white"/>
<path d="M1007.57 -196.496L1005.26 -196.599L296.768 -226.761L-237.092 -729.236L-237.606 -727.24L-396.275 -112.959L-1014.81 139.615L-402.391 550.771L-250.799 1209.37L-249.05 1208.19L286.874 847.18L999.098 1001.61L998.191 999.554L718.969 366.622L1007.57 -196.496ZM295.834 -224.291L296.423 -224.266L1003.23 -194.184L716.035 366.203L994.799 998.141L285.97 844.476L-249.11 1204.92L-399.945 549.515L-400.473 549.167L-1009.4 140.344L-393.864 -111.023L-393.733 -111.539L-235.455 -724.351L295.834 -224.291Z" fill="white"/>
<path d="M988.789 -187.896L294.077 -224.084L-232.23 -710.63L-232.733 -708.729L-394.686 -111.183L-995.287 141.681L-400.991 548.357L-245.883 1191.19L283.863 843.102L980.333 987.518L713.45 365.692L988.789 -187.896ZM293.156 -221.65L293.723 -221.623L984.54 -185.626L710.518 365.31L710.735 365.815L976.135 984.151L282.99 840.408L282.556 840.692L-244.244 1186.86L-398.61 547.099L-399.096 546.768L-990.067 142.365L-392.325 -109.298L-230.639 -705.88L293.156 -221.65Z" fill="white"/>
<path d="M970.002 -179.27L291.395 -221.401L-227.36 -692.017L-227.885 -690.166L-393.11 -109.428L-975.796 143.742L-973.963 145.017L-399.597 545.91L-240.962 1172.99L-239.306 1171.93L280.881 838.968L961.592 973.389L707.937 364.759L970.002 -179.27ZM290.48 -219.014L291.021 -218.98L965.876 -177.075L705.036 364.374L705.24 364.864L957.503 970.122L279.97 836.363L279.552 836.633L-239.378 1168.81L-397.267 544.69L-397.727 544.366L-970.713 144.398L-390.768 -107.597L-390.634 -108.068L-225.812 -687.431L290.48 -219.014Z" fill="white"/>
<path d="M951.22 -170.66L949.128 -170.82L288.695 -218.731L-222.511 -673.413L-391.538 -107.672L-956.306 145.785L-954.553 147.035L-398.228 543.513L-236.058 1154.84L-234.448 1153.83L277.861 834.904L942.847 959.262L942.104 957.374L702.407 363.813L951.22 -170.66ZM287.804 -216.375L288.323 -216.339L947.211 -168.529L699.566 363.448L938.874 956.098L276.998 832.319L276.597 832.57L-234.511 1150.75L-395.919 542.279L-396.358 541.968L-951.348 146.405L-389.244 -105.847L-389.109 -106.295L-221.013 -668.929L287.804 -216.375Z" fill="white"/>
<path d="M932.438 -162.044L930.437 -162.211L286.001 -216.053L-217.645 -654.817L-389.961 -105.915L-936.792 147.845L-935.117 149.065L-396.86 541.074L-231.158 1136.64L274.866 830.779L924.099 945.109L923.393 943.308L696.883 362.875L932.438 -162.044ZM285.124 -213.733L285.617 -213.69L928.547 -159.977L694.096 362.518L694.271 362.97L920.253 942.076L274.01 828.27L-229.645 1132.7L-394.576 539.871L-394.99 539.567L-932.001 148.465L-387.708 -104.121L-387.574 -104.541L-216.203 -650.452L285.124 -213.733Z" fill="white"/>
<path d="M913.661 -153.437L283.309 -213.378L-212.792 -636.201L-213.334 -634.572L-388.384 -104.162L-917.293 149.893L-915.695 151.084L-395.459 538.652L-226.237 1118.49L-224.716 1117.6L271.867 826.699L905.36 931.001L691.375 361.921L913.661 -153.437ZM282.445 -211.094L282.915 -211.05L909.884 -151.429L688.606 361.583L688.767 362.011L901.604 928.042L271.018 824.216L270.645 824.432L-224.762 1114.61L-393.205 537.438L-393.602 537.144L-912.646 150.496L-386.165 -102.395L-386.036 -102.795L-211.385 -631.975L282.445 -211.094Z" fill="white"/>
<path d="M894.884 -144.822L280.62 -210.701L-207.924 -617.614L-386.811 -102.404L-897.795 151.949L-394.085 536.199L-221.334 1100.29L268.855 822.625L886.605 916.906L885.997 915.227L685.843 361.004L894.884 -144.822ZM279.783 -208.474L280.23 -208.428L891.232 -142.903L683.142 360.625L683.289 361.038L882.985 913.989L268.029 820.164L267.672 820.367L-219.91 1096.59L-391.862 535.026L-893.287 152.529L-384.609 -100.698L-384.478 -101.075L-206.56 -613.529L279.783 -208.474Z" fill="white"/>
<path d="M876.103 -136.207L277.927 -208.022L-203.067 -598.964L-385.2 -100.62L-878.262 154.028L-876.819 155.158L-392.709 533.81L-216.436 1082.17L265.847 818.537L867.874 902.799L867.346 901.196L680.319 360.067L876.103 -136.207ZM277.091 -205.81L277.515 -205.763L872.573 -134.348L677.656 359.723L677.79 360.107L864.341 899.983L265.041 816.116L264.702 816.3L-215.049 1078.53L-390.524 532.651L-390.869 532.38L-873.922 154.57L-383.083 -98.9414L-382.959 -99.2936L-201.759 -595.02L277.091 -205.81Z" fill="white"/>
<path d="M857.329 -127.6L275.248 -205.342L-198.221 -580.385L-198.767 -578.976L-383.661 -98.8982L-858.794 156.042L-857.428 157.143L-391.316 531.367L-211.507 1063.97L-210.118 1063.24L262.851 814.442L849.112 888.662L848.603 887.113L674.804 359.128L857.329 -127.6ZM274.414 -203.172L274.815 -203.123L853.891 -125.776L672.171 358.809L672.286 359.175L845.7 885.974L262.051 812.061L261.727 812.232L-210.18 1060.47L-389.195 530.244L-389.512 529.988L-854.551 156.602L-381.56 -97.1921L-381.432 -97.5271L-196.953 -576.522L274.414 -203.172Z" fill="white"/>
<path d="M838.552 -118.99L836.908 -119.207L272.55 -202.667L-193.365 -561.78L-382.104 -97.1546L-839.32 158.086L-389.951 528.925L-206.611 1045.79L-205.267 1045.1L259.829 810.329L830.343 874.546L829.878 873.06L669.279 358.196L838.552 -118.99ZM271.736 -200.53L272.106 -200.477L835.228 -117.224L666.705 357.86L666.809 358.197L827.078 871.921L259.063 808.004L-205.312 1042.41L-387.853 527.841L-388.149 527.598L-835.224 158.648L-380.057 -95.4572L-379.93 -95.764L-192.17 -558.032L271.736 -200.53Z" fill="white"/>
<path d="M819.776 -110.383L818.219 -110.637L269.854 -199.995L-188.506 -543.184L-189.052 -541.914L-380.514 -95.3948L-819.809 160.141L-388.557 526.506L-201.697 1027.62L256.839 806.261L811.626 860.429L811.206 859.004L663.76 357.264L819.776 -110.383ZM269.046 -197.869L269.393 -197.814L816.545 -108.651L661.21 356.949L661.304 357.266L808.443 857.888L256.077 803.953L255.786 804.092L-200.44 1024.34L-386.494 525.408L-386.768 525.177L-815.855 160.658L-378.466 -93.7624L-378.343 -94.0496L-187.304 -539.586L269.046 -197.869Z" fill="white"/>
<path d="M800.998 -101.772L799.512 -102.037L267.16 -197.316L-183.652 -524.58L-184.194 -523.38L-378.938 -93.6381L-800.312 162.192L-387.173 524.077L-196.76 1009.47L-195.507 1008.89L253.84 802.17L792.867 846.335L792.496 844.975L658.239 356.321L800.998 -101.772ZM266.378 -195.248L266.697 -195.195L797.885 -100.119L655.747 355.996L655.825 356.289L789.835 843.86L253.084 799.902L252.813 800.031L-195.574 1006.29L-385.145 523.003L-385.392 522.788L-796.475 162.671L-376.93 -92.0364L-182.466 -521.093L266.378 -195.248Z" fill="white"/>
<path d="M782.225 -93.1654L264.481 -194.658L-178.788 -505.99L-179.334 -504.844L-377.37 -91.8628L-780.829 164.273L-779.758 165.241L-385.803 521.679L-191.888 991.307L-190.681 990.782L250.837 798.078L774.146 832.192L773.813 830.891L652.725 355.383L782.225 -93.1654ZM263.692 -192.615L263.989 -192.561L779.239 -91.5553L650.294 355.079L650.365 355.346L771.186 829.831L250.096 795.848L249.843 795.958L-190.69 988.193L-383.797 520.592L-384.017 520.393L-777.123 164.728L-375.384 -90.3105L-375.254 -90.535L-177.657 -502.608L263.692 -192.615Z" fill="white"/>
<path d="M763.458 -84.5524L762.123 -84.8389L261.787 -191.969L-173.911 -487.368L-174.449 -486.312L-375.76 -90.1194L-761.32 166.299L-760.318 167.234L-384.407 519.225L-186.961 973.114L247.834 793.989L755.406 818.084L755.115 816.851L647.207 354.445L763.458 -84.5524ZM261.023 -189.97L261.291 -189.918L760.555 -83.0111L644.796 354.13L644.857 354.377L752.539 815.776L247.13 791.795L246.901 791.889L-185.835 970.163L-382.431 518.165L-382.629 517.978L-757.734 166.772L-373.822 -88.5727L-373.704 -88.7754L-172.82 -484.118L261.023 -189.97Z" fill="white"/>
<path d="M744.706 -75.9279L743.427 -76.2339L259.093 -189.292L-169.065 -468.777L-169.596 -467.783L-374.194 -88.3706L-741.815 168.346L-383.003 516.799L-182.034 954.952L-180.927 954.524L244.834 789.896L736.664 803.97L736.412 802.795L641.685 353.515L744.706 -75.9279ZM258.379 -187.316L258.61 -187.263L741.882 -74.4585L639.316 353.202L639.365 353.42L733.891 801.752L244.114 787.744L-180.955 952.106L-381.098 515.771L-381.271 515.606L-738.404 168.784L-372.305 -86.8523L-372.198 -87.0384L-168.066 -465.646L258.379 -187.316Z" fill="white"/>
<path d="M725.899 -67.3429L256.4 -186.615L-164.221 -450.18L-372.636 -86.6193L-722.344 170.395L-721.479 171.265L-381.646 514.368L-177.146 936.783L241.827 785.807L717.923 789.856L717.711 788.748L636.162 352.576L725.899 -67.3429ZM255.664 -184.688L723.21 -65.9055L633.833 352.272L633.874 352.464L715.271 787.73L241.125 783.686L240.94 783.755L-176.101 934.033L-379.775 513.349L-719.027 170.83L-370.757 -85.1354L-370.665 -85.2943L-163.214 -447.176L255.664 -184.688Z" fill="white"/>
<path d="M707.134 -58.7284L706.024 -59.0387L253.711 -183.944L-159.374 -431.589L-159.875 -430.724L-371.064 -84.868L-702.828 172.462L-380.237 511.958L-172.211 918.632L-171.2 918.294L238.826 781.719L699.188 775.744L630.645 351.64L707.134 -58.7284ZM252.991 -182.045L253.166 -181.995L704.536 -57.3478L628.358 351.338L628.384 351.506L696.609 773.682L238.133 779.633L237.977 779.689L-171.227 915.964L-378.403 510.955L-378.528 510.818L-699.658 172.863L-369.237 -83.4068L-369.158 -83.5437L-158.439 -428.7L252.991 -182.045Z" fill="white"/>
<path d="M688.367 -50.1212L251.008 -181.245L-154.538 -412.975L-155.051 -412.19L-369.496 -83.1182L-683.366 174.491L-682.643 175.294L-378.886 509.516L-167.329 900.451L-166.371 900.156L235.823 777.638L680.445 761.636L680.292 760.642L625.129 350.704L688.367 -50.1212ZM-153.558 -410.176L250.346 -179.384L685.86 -48.7975L622.876 350.407L622.898 350.544L677.969 759.648L235.133 775.598L235 775.638L-166.359 897.907L-377.048 508.544L-377.152 508.433L-680.287 174.898L-367.676 -81.6689L-367.613 -81.7785L-153.558 -410.176Z" fill="white"/>
<path d="M669.6 -41.5158L668.632 -41.8322L248.333 -178.597L-149.674 -394.413L-367.922 -81.3677L-663.88 176.538L-377.504 507.082L-162.45 882.274L-161.535 882.027L232.824 773.536L661.715 747.518L661.619 746.601L619.614 349.767L669.6 -41.5158ZM-148.79 -391.713L247.611 -176.771L247.709 -176.714L667.187 -40.2406L617.4 349.464L617.416 349.575L659.331 745.598L232.155 771.522L232.048 771.555L-161.486 879.828L-375.703 506.133L-375.779 506.038L-660.917 176.93L-366.141 -79.9405L-366.087 -80.0336L-148.79 -391.713Z" fill="white"/>
<path d="M650.835 -32.9151L649.932 -33.2305L245.641 -175.92L-144.827 -375.822L-145.318 -375.162L-366.367 -79.6252L-644.393 178.582L-643.801 179.309L-376.119 504.652L-157.52 864.121L229.82 769.454L642.977 733.412L642.911 732.557L614.096 348.831L650.835 -32.9151ZM-143.948 -373.213L244.941 -174.096L245.012 -174.055L648.512 -31.6827L611.887 348.559L611.899 348.639L640.654 731.586L229.162 767.47L229.085 767.491L-156.622 861.776L-374.35 503.721L-374.405 503.653L-641.542 178.968L-364.593 -78.2097L-364.555 -78.2754L-143.948 -373.213Z" fill="white"/>
<path d="M632.067 -24.3088L631.244 -24.6223L242.905 -173.268L-139.951 -357.229L-364.805 -77.8292L-624.919 180.638L-374.719 502.273L-152.618 845.965L-151.796 845.803L226.879 765.365L624.253 719.307L624.227 718.547L608.605 347.939L632.067 -24.3088ZM-139.131 -354.72L242.221 -171.494L629.832 -23.1277L606.431 347.607L606.408 347.645L622.005 717.516L226.193 763.392L-151.759 843.677L-372.97 501.353L-622.167 181.004L-363.083 -76.4506L-139.131 -354.72Z" fill="white"/>
<path d="M613.305 -15.6979L612.547 -16.0106L240.261 -170.571L-135.116 -338.615L-363.216 -76.1035L-605.44 182.685L-604.968 183.329L-373.362 499.82L-147.712 827.806L-146.957 827.671L223.836 761.276L605.513 705.194L603.063 346.96L613.305 -15.6979ZM-134.308 -336.222L239.582 -168.844L611.156 -14.5772L600.953 346.694L603.39 703.489L223.201 759.355L-146.869 825.619L-371.637 498.915L-602.791 183.042L-361.529 -74.7156L-134.308 -336.222Z" fill="white"/>
<path d="M594.541 -7.09731L237.592 -167.896L-130.261 -320.049L-130.709 -319.577L-361.627 -74.3795L-585.954 184.734L-585.567 185.322L-372.027 497.353L-142.806 809.645L-142.107 809.544L220.796 757.195L586.798 691.1L586.82 690.434L597.557 346.007L594.541 -7.09731ZM-129.491 -317.73L236.931 -166.174L592.455 -5.98412L595.465 345.745L584.739 689.448L220.176 755.297L-141.996 807.541L-370.29 496.477L-583.412 185.073L-359.951 -73.0347L-129.491 -317.73Z" fill="white"/>
<path d="M575.787 1.50179L234.836 -165.256L-125.398 -301.457L-125.82 -301.043L-360.068 -72.6138L-360.094 -72.5699L-566.483 186.797L-370.584 495.014L-137.909 791.502L-137.266 791.434L217.816 753.112L217.868 753.098L568.053 676.983L568.102 676.383L592.048 345.098L592.07 345.06L575.787 1.50179ZM234.231 -163.531L573.789 2.54925L589.98 344.82L566.086 675.412L217.206 751.235L-137.123 789.464L-368.938 494.071L-564.031 187.114L-358.411 -71.287L-124.668 -299.233L234.231 -163.531Z" fill="white"/>
<path d="M557.025 10.1056L556.479 9.79108L232.201 -162.568L232.119 -162.615L-120.536 -282.893L-120.941 -282.535L-358.521 -70.8974L-358.565 -70.8207L-547.021 188.805L-546.722 189.32L-369.254 492.539L-369.177 492.583L-133.003 773.336L-132.412 773.296L214.813 749.025L214.9 749.002L549.325 662.884L549.389 662.344L586.517 344.169L586.509 344.084L557.025 10.1056ZM231.547 -160.885L555.128 11.1307L584.493 343.88L547.452 661.338L214.21 747.174L-132.251 771.395L-367.587 491.659L-544.649 189.148L-356.868 -69.5511L-119.845 -280.728L231.547 -160.885Z" fill="white"/>
<path d="M229.517 -159.903L229.397 -159.972L-115.699 -264.295L-116.072 -263.991L-356.919 -69.1444L-356.979 -69.0404L-527.515 190.857L-527.267 191.321L-367.854 490.087L-367.761 490.191L-128.102 755.186L211.941 744.908L530.609 648.767L530.687 648.294L581.031 343.198L581.016 343.073L538.272 18.704L537.785 18.424L229.517 -159.903ZM-115.021 -262.232L228.862 -158.229L536.431 19.6814L579.007 342.945L528.785 647.315L211.218 743.112L-127.371 753.307L-366.228 489.241L-525.263 191.182L-355.318 -67.8209L-115.021 -262.232Z" fill="white"/>
<path d="M226.816 -157.224L226.657 -157.315L-110.85 -245.724L-111.194 -245.469L-355.37 -67.3822L-355.449 -67.2453L-508.069 192.916L-507.866 193.333L-366.52 487.667L-366.393 487.799L-123.194 737.032L208.82 740.866L208.976 740.81L511.884 634.679L511.973 634.263L575.515 342.286L575.486 342.123L519.506 27.3193L519.08 27.074L226.816 -157.224ZM-110.196 -243.733L226.185 -155.594L517.732 28.2326L573.529 342.019L510.139 633.265L208.228 739.057L-122.483 735.236L-364.875 486.863L-505.902 193.237L-353.789 -66.0627L-110.196 -243.733Z" fill="white"/>
<path d="M224.148 -154.583L223.927 -154.63L-105.997 -227.15L-106.313 -226.945L-353.804 -65.6402L-353.902 -65.4704L-488.621 194.946L-488.463 195.314L-365.156 485.242L-118.321 718.87L-117.909 718.888L205.821 736.796L206.009 736.722L493.182 620.596L493.283 620.245L570.019 341.349L569.972 341.14L500.768 35.8933L500.412 35.6521L224.148 -154.583ZM-105.37 -225.227L223.503 -152.94L499.055 36.7762L568.03 341.073L491.508 619.223L205.226 734.993L-117.614 717.145L-363.508 484.409L-486.509 195.235L-352.256 -64.3764L-105.37 -225.227Z" fill="white"/>
<path d="M221.472 -151.926L221.201 -151.973L-101.138 -208.582L-352.237 -63.9063L-352.358 -63.6983L-469.112 196.987L-468.996 197.302L-363.743 482.798L-363.536 482.983L-113.388 700.732L-113.032 700.769L202.831 732.708L203.058 732.605L474.456 606.475L564.521 340.409L564.451 340.165L482.026 44.4857L481.735 44.2595L221.472 -151.926ZM-100.538 -206.725L220.83 -150.288L480.36 45.3515L562.538 340.136L472.84 605.164L202.244 730.902L-112.729 699.052L-362.149 482.007L-467.085 197.285L-350.645 -62.6314L-100.538 -206.725Z" fill="white"/>
<path d="M218.79 -149.272L-96.2952 -190.014L-96.535 -189.89L-350.676 -62.1672L-350.777 -61.9043L-449.656 199.042L-449.574 199.315L-362.387 480.402L-108.486 682.585L-108.192 682.63L199.841 728.635L200.096 728.497L455.725 592.403L455.828 592.163L559.031 339.475L558.93 339.183L463.282 53.0847L463.045 52.8899L218.79 -149.272ZM-95.7111 -188.218L218.154 -147.631L461.665 53.9279L557.041 339.212L454.165 591.11L199.258 726.824L-107.845 680.961L-360.765 479.562L-447.69 199.319L-349.089 -60.8814L-95.7111 -188.218Z" fill="white"/>
<path d="M216.116 -146.619L215.748 -146.649L-91.4329 -171.441L-91.6364 -171.354L-349.123 -60.424L-349.219 -60.107L-430.167 201.103L-430.109 201.319L-361.02 477.986L-360.711 478.208L-103.58 664.442L196.85 724.563L197.136 724.384L437.035 578.283L437.14 578.103L553.555 338.55L444.543 61.6738L444.361 61.5105L216.116 -146.619ZM-90.8789 -169.705L215.462 -144.973L442.976 62.4804L551.544 338.261L435.511 577.041L196.267 722.752L-102.968 662.881L-359.395 477.155L-428.281 201.356L-347.522 -59.1373L-90.8789 -169.705Z" fill="white"/>
<path d="M213.444 -143.969L213.02 -143.979L-86.5826 -152.886L-86.742 -152.825L-347.566 -58.6897L-410.731 203.13L-410.701 203.293L-359.656 475.564L-359.28 475.782L-98.6776 646.293L-98.4992 646.338L193.855 720.5L194.171 720.281L418.339 564.164L418.418 564.027L548.048 337.568L547.873 337.19L425.802 70.2656L425.675 70.1338L213.444 -143.969ZM-86.0242 -151.221L212.784 -142.312L424.302 71.0589L546.043 337.319L416.87 562.99L193.278 718.664L-98.0736 644.772L-357.981 474.733L-408.899 203.375L-345.954 -57.3968L-86.0242 -151.221Z" fill="white"/>
<path d="M210.761 -141.324L210.279 -141.309L-81.7425 -134.322L-81.8493 -134.289L-346.01 -56.9719L-346.082 -56.546L-391.251 205.187L-391.236 205.298L-358.28 473.16L-357.843 473.412L-93.7527 628.168L-93.6489 628.228L190.885 716.463L191.224 716.191L399.613 550.091L399.667 549.998L542.554 336.658L542.336 336.24L407.058 78.8485L406.979 78.759L210.761 -141.324ZM-81.206 -132.67L210.093 -139.642L405.573 79.6143L540.531 336.377L398.182 548.902L190.289 714.586L-93.177 626.645L-356.617 472.263L-389.451 205.398L-344.386 -55.6499L-81.206 -132.67Z" fill="white"/>
<path d="M208.08 -138.676L207.546 -138.634L-76.8973 -115.761L-76.9577 -115.745L-344.465 -55.2435L-344.516 -54.754L-371.798 207.231L-371.797 207.291L-356.925 470.749L-356.438 471.029L-88.8687 610.06L-88.8141 610.092L187.883 712.418L188.249 712.089L380.896 536.026L380.925 535.977L537.088 335.737L536.809 335.276L388.321 87.4435L388.271 87.4152L208.08 -138.676ZM-76.3863 -114.153L207.4 -136.973L386.871 88.1859L535.027 335.448L379.534 534.87L187.276 710.485L-88.3065 608.573L-355.264 469.88L-370.071 207.481L-342.815 -53.8917L-76.3863 -114.153Z" fill="white"/>
<path d="M205.405 -136.042L204.817 -135.957L-72.0577 -97.183L-342.933 -53.5231L-342.951 -52.9639L-352.383 209.247L-355.616 468.325L-83.9966 591.88L184.892 708.314L185.267 707.917L362.207 521.911L531.61 334.808L531.271 334.299L369.593 96.0428L205.405 -136.042ZM-341.24 -52.1321L-71.5496 -95.62L204.705 -134.291L368.17 96.7643L529.488 334.498L360.813 520.809L184.273 706.388L-83.4333 590.467L-353.868 467.433L-350.65 209.5L-341.24 -52.1321Z" fill="white"/>
<path d="M202.733 -133.412L202.085 -133.274L-67.2552 -78.6396L-341.411 -51.7852L-341.391 -51.153L-332.943 211.336L-354.301 465.906L-353.636 466.165L-79.0832 573.769L181.86 704.268L182.264 703.771L343.508 507.763L526.147 333.881L525.734 333.336L350.826 104.584L202.733 -133.412ZM-339.657 -50.3736L-66.7658 -77.0946L202.01 -131.609L349.424 105.296L523.951 333.573L342.163 506.703L181.268 702.284L-78.5061 572.407L-352.484 465.017L-331.238 211.588L-339.657 -50.3736Z" fill="white"/>
<path d="M200.063 -130.788L199.355 -130.597L-62.3872 -60.0868L-339.879 -50.0921L-339.801 -49.383L-313.505 213.337L-352.948 463.516L-74.2127 555.64L178.92 700.261L179.312 699.698L324.816 493.764L520.69 332.951L332.121 113.206L200.063 -130.788ZM-338.056 -48.5973L-61.8827 -58.555L-61.7932 -58.5839L199.318 -128.909L330.736 113.912L518.401 332.64L323.465 492.651L323.43 492.711L178.281 698.169L-73.6285 554.254L-73.7159 554.203L-351.043 462.54L-311.783 213.533L-311.792 213.448L-338.056 -48.5973Z" fill="white"/>
<path d="M197.44 -128.179L196.659 -127.899L-57.5367 -41.5507L-338.355 -48.3812L-294.068 215.382L-351.645 461.142L-350.788 461.373L-69.3265 537.551L175.922 696.257L176.302 695.6L306.097 479.701L515.24 332.026L514.634 331.399L313.393 121.793L197.44 -128.179ZM-336.465 -46.826L-57.0792 -40.0386L-56.9488 -40.0877L196.602 -126.216L312.014 122.489L512.846 331.67L304.783 478.586L175.233 694.05L-68.7696 536.148L-68.9143 536.109L-349.667 460.127L-292.407 215.645L-292.43 215.508L-336.465 -46.826Z" fill="white"/>
<path d="M194.731 -125.56L193.907 -125.217L-52.6981 -23.0055L-336.853 -46.6819L-336.623 -45.8197L-274.64 217.43L-350.32 458.731L-64.4366 519.406L172.947 692.217L173.328 691.458L287.413 465.606L509.806 331.112L294.674 130.38L194.731 -125.56ZM-334.874 -45.0168L-52.2147 -21.5005L-52.0403 -21.5753L193.896 -123.5L293.299 131.07L293.451 131.209L507.292 330.737L286.094 464.512L286.003 464.67L172.221 689.922L-63.8901 518.034L-64.0911 517.992L-348.249 457.682L-272.964 217.68L-273.009 217.494L-334.874 -45.0168Z" fill="white"/>
<path d="M192.072 -122.967L-47.8653 -4.46707L-335.359 -44.9975L-335.066 -44.0185L-255.21 219.47L-349.017 456.341L-347.95 456.51L-59.5493 501.287L169.973 688.218L268.707 451.555L504.384 330.186L503.54 329.48L275.944 138.956L192.072 -122.967ZM-333.238 -43.2506L-47.3913 -2.94561L-47.1838 -3.05248L191.183 -120.777L274.568 139.661L274.764 139.825L501.709 329.799L267.413 450.431L267.302 450.622L169.195 685.762L-58.9832 499.919L-59.2297 499.879L-346.824 455.231L-253.548 219.719L-253.618 219.488L-333.238 -43.2506Z" fill="white"/>
<path d="M189.42 -120.383L188.466 -119.83L-43.0359 14.0925L-333.907 -43.3143L-235.813 221.52L-347.781 453.957L-54.6585 483.177L167 684.235L167.337 683.225L250.036 437.46L498.982 329.266L497.966 328.506L257.205 147.515L189.42 -120.383ZM-331.597 -41.466L-42.5397 15.5757L-42.3077 15.4392L188.452 -118.02L255.85 148.231L256.099 148.418L496.145 328.859L248.713 436.362L248.629 436.62L166.186 681.627L-54.1065 481.808L-54.393 481.775L-345.376 452.771L-234.116 221.76L-234.216 221.491L-331.597 -41.466Z" fill="white"/>
<path d="M186.775 -117.826L-38.1931 32.6154L-332.411 -41.6572L-216.356 223.553L-346.454 451.589L-345.104 451.635L-49.7739 465.063L164.036 680.272L164.337 679.109L231.352 423.385L493.603 328.343L238.498 156.127L186.775 -117.826ZM-329.96 -39.6253L-37.7169 34.1456L-37.4541 33.9683L185.739 -115.282L237.138 156.804L490.504 327.895L230.02 422.29L229.942 422.588L163.159 677.445L-49.2156 463.684L-343.913 450.307L-214.686 223.8L-329.96 -39.6253Z" fill="white"/>
<path d="M184.151 -115.277L183.064 -114.443L-33.3605 51.1466L-330.972 -40.0119L-196.943 225.59L-345.227 449.235L-44.8871 446.95L161.087 676.324L161.333 675.005L212.668 409.317L488.244 327.44L219.791 164.695L184.151 -115.277ZM-328.281 -37.7907L-32.8742 52.6971L-32.5947 52.4784L183.011 -112.502L218.4 165.399L218.75 165.6L484.87 326.928L211.336 408.171L211.266 408.518L160.141 673.216L-44.3475 445.553L-44.7353 445.556L-342.465 447.81L-195.28 225.825L-195.46 225.48L-328.281 -37.7907Z" fill="white"/>
<path d="M181.299 -107.623L-31.97 55.6371L-323.852 -33.7187L-323.194 -32.413L-192.363 226.748L-337.746 446.098L-43.2061 443.818L158.824 668.744L209.369 406.873L479.608 326.529L478.285 325.731L216.315 166.96L181.299 -107.623ZM-321.209 -31.5399L-31.4992 57.1641L-31.2228 56.9509L180.187 -104.883L214.94 167.651L215.289 167.852L476.287 326.026L208.042 405.78L207.979 406.116L157.894 665.683L-42.6542 442.449L-43.0364 442.455L-334.995 444.717L-190.698 226.991L-190.867 226.653L-321.209 -31.5399Z" fill="white"/>
<path d="M178.464 -99.9548L177.41 -99.1527L-30.5873 60.1191L-316.725 -27.4331L-187.766 227.904L-330.24 442.971L-41.5275 440.679L156.567 661.156L206.068 404.423L470.98 325.619L212.834 169.226L178.464 -99.9548ZM-314.128 -25.2881L-30.1216 61.592L-29.8484 61.3843L177.366 -97.265L211.488 169.903L467.7 325.132L204.769 403.346L204.705 403.682L155.638 658.168L-40.9772 439.339L-41.3564 439.34L-327.558 441.595L-186.14 228.139L-186.312 227.807L-314.128 -25.2881Z" fill="white"/>
<path d="M175.624 -92.2934L174.587 -91.4959L-29.1849 64.6161L-309.6 -21.1452L-308.963 -19.8803L-183.199 229.047L-322.78 439.821L-39.8455 437.547L154.313 653.574L202.774 401.973L462.35 324.711L209.366 171.48L175.624 -92.2934ZM-307.041 -19.0363L-28.7215 66.0803L-28.4569 65.8749L174.548 -89.6419L208.022 172.166L208.36 172.361L459.118 324.23L201.49 400.92L201.43 401.25L153.396 650.629L-39.3102 436.219L-39.6753 436.221L-320.12 438.484L-181.59 229.287L-181.756 228.957L-307.041 -19.0363Z" fill="white"/>
<path d="M172.785 -84.6249L171.764 -83.818L-27.8 69.1022L-302.486 -14.8564L-178.625 230.2L-315.291 436.681L-313.884 436.666L-38.1647 434.413L152.07 645.997L152.306 644.746L199.47 399.524L453.708 323.796L452.446 323.032L205.881 173.746L172.785 -84.6249ZM-299.967 -12.7781L-27.3499 70.5516L-27.0798 70.3493L171.729 -82.0203L204.569 174.415L450.523 323.348L198.213 398.487L198.147 398.814L151.15 643.095L-37.6367 433.111L-312.677 435.361L-177.035 230.422L-177.199 230.101L-299.967 -12.7781Z" fill="white"/>
<path d="M169.976 -76.9494L-26.4105 73.588L-295.358 -8.57006L-174.043 231.347L-307.834 433.541L-36.4848 431.275L149.798 638.401L150.035 637.172L196.175 397.078L445.077 322.883L202.401 176.012L169.976 -76.9494ZM-292.858 -6.50982L-25.9399 75.0272L-25.6785 74.8273L168.909 -74.4021L201.119 176.668L201.441 176.854L441.96 322.417L194.935 396.05L194.878 396.375L148.922 635.56L-35.9608 429.993L-36.3204 429.997L-305.241 432.245L-172.487 231.579L-172.646 231.261L-292.858 -6.50982Z" fill="white"/>
<path d="M167.114 -69.3012L166.13 -68.5459L-25.0135 78.0811L-288.236 -2.27749L-287.629 -1.07373L-169.462 232.504L-300.33 430.415L-34.7994 428.136L147.539 630.815L192.876 394.624L436.448 321.961L435.229 321.222L198.924 178.282L167.114 -69.3012ZM-285.801 -0.269085L-24.5771 79.4787L-24.3189 79.2843L166.091 -66.7796L197.659 178.919L198.003 179.118L433.4 321.527L191.656 393.623L191.597 393.939L146.675 628.003L-34.2876 426.912L-34.6385 426.915L-297.779 429.154L-167.904 232.744L-168.057 232.43L-285.801 -0.269085Z" fill="white"/>
<path d="M164.276 -61.6327L163.307 -60.8907L-23.6123 82.5905L-281.107 4.01198L-280.51 5.1953L-164.878 233.655L-292.846 427.285L-291.507 427.275L-33.1013 425.011L145.301 623.24L189.578 392.178L427.803 321.064L195.443 180.543L164.276 -61.6327ZM-278.726 5.98889L-23.196 83.9473L-22.9464 83.7552L163.273 -59.158L194.204 181.173L194.521 181.355L424.798 320.619L188.38 391.189L188.324 391.5L144.423 620.478L-32.6191 423.763L-290.369 426.025L-163.376 233.877L-163.532 233.569L-278.726 5.98889Z" fill="white"/>
<path d="M161.443 -53.9835L160.495 -53.2517L-22.2205 87.043L-273.99 10.3009L-160.308 234.805L-285.385 424.171L-284.074 424.159L-31.4403 421.865L143.027 615.644L186.275 389.729L419.178 320.136L191.979 182.79L161.443 -53.9835ZM-271.632 12.2284L-21.8105 88.4108L-21.5609 88.2187L160.463 -51.5614L190.758 183.402L191.053 183.572L416.207 319.681L185.102 388.762L185.044 389.064L142.179 612.943L-30.9489 420.651L-31.2858 420.654L-282.93 422.912L-158.825 235.024L-158.976 234.718L-271.632 12.2284Z" fill="white"/>
<path d="M158.603 -46.309L-20.8428 91.5461L-266.87 16.5846L-266.293 17.7272L-155.723 235.956L-277.877 420.99L-276.598 420.996L-29.757 418.731L140.779 608.042L141 606.892L182.979 387.284L410.535 319.241L188.488 185.074L158.603 -46.309ZM-264.559 18.4925L-20.4247 92.8747L-20.1838 92.6849L157.634 -43.9173L187.293 185.678L407.627 318.815L181.819 386.346L139.954 605.377L-29.2696 417.537L-29.6065 417.54L-275.49 419.786L-154.262 236.163L-154.41 235.865L-264.559 18.4925Z" fill="white"/>
<path d="M155.76 -38.6423L-19.4512 96.0366L-259.748 22.8779L-151.144 237.105L-270.407 417.875L-269.145 417.871L-28.075 415.598L138.515 600.476L138.727 599.342L179.676 384.837L401.899 318.33L185.013 187.339L155.76 -38.6423ZM-257.474 24.7496L-19.04 97.3393L-18.8022 97.155L154.816 -36.2945L183.833 187.93L184.134 188.103L399.048 317.907L178.522 383.887L178.47 384.178L137.691 597.862L-27.5972 414.421L-268.056 416.681L-149.711 237.31L-149.858 237.021L-257.474 24.7496Z" fill="white"/>
<path d="M152.925 -30.979L152.028 -30.2838L-18.0596 100.526L-252.624 29.1645L-146.563 238.262L-262.925 414.736L-261.68 414.724L-26.4047 412.472L136.256 592.889L136.467 591.784L176.382 382.385L393.253 317.411L181.516 189.59L152.925 -30.979ZM-250.402 31.0134L-17.6616 101.814L-17.4325 101.632L151.993 -28.6758L180.379 190.184L390.467 317.004L175.271 381.461L175.222 381.747L135.484 590.349L-25.9182 411.292L-26.241 411.296L-260.608 413.552L-145.159 238.465L-145.303 238.185L-250.402 31.0134Z" fill="white"/>
<path d="M150.092 -23.3154L149.204 -22.6367L-16.6666 105.016L-245.501 35.4571L-141.984 239.41L-255.445 411.604L-254.222 411.579L-24.7118 409.322L134.026 585.319L173.086 379.94L384.636 316.509L178.057 191.869L150.092 -23.3154ZM-243.305 37.262L-16.2723 106.272L-16.0463 106.096L149.176 -21.0537L176.926 192.438L177.21 192.602L381.886 316.101L171.991 379.039L171.936 379.322L133.216 582.793L-24.2647 408.185L-24.582 408.192L-253.195 410.447L-140.618 239.605L-140.762 239.325L-243.305 37.262Z" fill="white"/>
<path d="M147.249 -15.6512L-15.2751 109.504L-238.377 41.7421L-137.408 240.562L-247.941 408.477L-23.0241 406.19L131.74 577.715L169.783 377.49L376.025 315.617L174.604 194.145L147.249 -15.6512ZM-236.237 43.5071L-14.8932 110.731L146.353 -13.4364L173.464 194.693L373.301 315.202L168.712 376.61L168.655 376.884L130.971 575.257L-22.5748 405.061L-245.743 407.334L-136.057 240.756L-136.198 240.485L-236.237 43.5071Z" fill="white"/>
<path d="M144.415 -7.98784L-13.8882 113.99L-231.26 48.0312L-230.73 49.0664L-132.823 241.713L-240.484 405.332L-21.3523 403.049L129.481 570.142L166.486 375.044L367.363 314.688L171.097 196.39L144.415 -7.98784ZM-229.141 49.7694L-13.4913 115.204L143.536 -5.81453L170.01 196.947L170.283 197.104L364.723 314.292L165.457 374.181L165.409 374.453L128.729 567.716L-20.911 401.96L-21.2142 401.968L-238.304 404.221L-131.5 241.905L-131.636 241.637L-229.141 49.7694Z" fill="white"/>
<path d="M141.577 -0.326968L140.744 0.318149L-12.4952 118.48L-224.121 54.2966L-223.608 55.3223L-128.229 242.848L-232.985 402.181L-19.6538 399.903L127.272 562.548L163.204 372.6L358.729 313.777L167.621 198.66L141.577 -0.326968ZM-222.082 56.0331L-12.1216 119.659L140.735 1.78061L166.558 199.187L166.831 199.344L356.149 313.379L162.147 371.721L162.102 371.987L126.485 560.182L-19.2497 398.865L-19.5443 398.871L-230.865 401.109L-126.948 243.052L-127.079 242.787L-222.082 56.0331Z" fill="white"/>
<path d="M138.737 7.34252L137.923 7.96892L-11.0927 122.948L-217.009 60.6145L-216.512 61.6308L-123.668 244.024L-225.52 399.057L-17.9853 396.777L124.969 554.96L125.164 553.955L159.889 370.146L350.092 312.866L164.133 200.933L138.737 7.34252ZM-214.976 62.2742L-10.7418 124.129L137.895 9.42739L163.096 201.453L163.364 201.607L347.539 312.483L158.877 369.315L158.826 369.578L124.236 552.639L-17.5639 395.735L-17.8585 395.741L-223.434 397.994L-122.394 244.202L-122.528 243.943L-214.976 62.2742Z" fill="white"/>
<path d="M135.898 15.0039L-9.71298 127.461L-209.9 66.8929L-119.096 245.162L-218.021 395.929L-216.917 395.922L-16.3078 393.642L122.716 547.378L122.902 546.39L156.576 367.692L341.458 311.955L160.665 203.187L135.898 15.0039ZM-207.913 68.5189L-9.35628 128.593L135.078 17.0504L159.643 203.708L159.9 203.856L338.974 311.591L155.594 366.871L155.542 367.126L121.99 545.098L-15.8992 392.621L-215.998 394.875L-117.832 245.356L-117.961 245.1L-207.913 68.5189Z" fill="white"/>
<path d="M133.063 22.667L-8.32143 131.95L-202.767 73.1909L-114.51 246.321L-210.559 392.786L-14.6256 390.507L120.457 539.791L120.636 538.827L153.292 365.247L332.839 311.052L157.202 205.457L133.063 22.667ZM-200.813 74.7471L-7.97162 133.057L-7.77239 132.901L132.265 24.6752L156.183 205.958L330.405 310.665L152.323 364.455L152.274 364.704L119.771 537.541L-14.221 389.506L-14.5015 389.513L-208.554 391.765L-113.293 246.496L-113.419 246.248L-200.813 74.7471Z" fill="white"/>
<path d="M130.223 30.334L-6.93245 136.437L-195.646 79.4758L-195.166 80.409L-109.923 247.473L-203.074 389.65L-12.9406 387.375L118.201 532.206L149.987 362.796L324.191 310.132L323.235 309.581L153.711 207.718L130.223 30.334ZM-193.738 81.0122L-6.60591 137.509L-6.40984 137.359L129.416 32.3077L152.736 208.245L152.982 208.387L321.817 309.816L149.045 362.02L149.001 362.273L117.516 530.03L-12.5487 386.396L-12.8205 386.4L-201.119 388.651L-108.728 247.636L-108.848 247.391L-193.738 81.0122Z" fill="white"/>
<path d="M127.388 37.9971L126.639 38.5736L-5.5418 140.927L-188.521 85.7628L-105.345 248.621L-195.583 386.496L-194.55 386.485L-11.2567 384.236L115.949 524.617L146.694 360.354L315.56 309.222L150.229 209.979L127.388 37.9971ZM-186.666 87.2764L-5.20343 141.991L-5.01282 141.837L126.637 39.8864L149.266 210.461L313.221 308.884L145.765 359.593L145.722 359.831L115.275 522.498L-10.8774 383.278L-11.1438 383.286L-193.673 385.522L-104.175 248.777L-104.294 248.541L-186.666 87.2764Z" fill="white"/>
<path d="M124.546 45.6604L123.821 46.2212L-4.14901 145.414L-181.399 92.0521L-100.769 249.772L-188.113 383.376L-9.57853 381.096L113.692 517.028L143.392 357.903L306.926 308.308L146.773 212.25L124.546 45.6604ZM-179.588 93.5405L-3.823 146.448L123.799 47.5301L145.819 212.716L146.054 212.851L304.655 307.979L142.501 357.141L142.461 357.373L113.044 514.939L-9.21337 380.138L-9.47659 380.14L-186.245 382.415L-99.6332 249.937L-179.588 93.5405Z" fill="white"/>
<path d="M121.712 53.3248L121.002 53.8723L-2.75645 149.904L-174.273 98.3402L-96.1838 250.924L-180.619 380.246L-179.628 380.233L-7.89024 377.966L111.427 509.468L140.108 355.487L298.292 307.397L143.292 214.49L121.712 53.3248ZM-172.514 99.8058L-2.43729 150.913L-2.25304 150.771L120.982 55.153L142.372 214.96L296.075 307.062L139.213 354.731L139.168 354.96L110.79 507.422L-7.53318 377.048L-7.79094 377.052L-178.808 379.332L-95.1078 251.091L-95.227 250.869L-172.514 99.8058Z" fill="white"/>
<path d="M118.878 60.9742L-1.37109 154.391L-167.153 104.632L-91.6092 252.078L-173.149 377.102L-6.21419 374.829L109.165 501.873L109.326 501.016L136.795 353.004L289.653 306.491L288.779 305.987L139.788 216.766L118.878 60.9742ZM-165.422 106.045L-1.05336 155.377L-0.872257 155.24L118.173 62.7586L138.902 217.227L139.131 217.359L287.488 306.179L135.934 352.304L135.895 352.522L108.548 499.881L-5.86119 373.93L-6.11029 373.933L-171.369 376.192L-90.5019 252.241L-90.6211 252.019L-165.422 106.045Z" fill="white"/>
<path d="M116.036 68.6553L0.0222127 158.881L-160.032 110.917L-87.0235 253.23L-165.657 373.977L-4.51951 371.703L106.933 494.294L107.09 493.443L133.5 350.56L281.035 305.552L136.299 219.022L116.036 68.6553ZM-158.32 112.312L0.345406 159.871L0.526479 159.734L115.342 70.3951L135.456 219.472L278.911 305.271L132.66 349.872L132.621 350.09L106.309 492.351L-4.17919 370.826L-4.42828 370.828L-163.93 373.08L-85.9662 253.379L-158.32 112.312Z" fill="white"/>
<path d="M113.196 76.3143L1.41445 163.37L-152.905 117.211L-152.491 118.019L-82.4476 254.382L-158.186 370.831L-2.85003 368.553L104.664 486.687L104.814 485.875L130.203 348.113L272.385 304.667L132.838 221.3L113.196 76.3143ZM-151.262 118.551L1.72157 164.299L1.89403 164.164L112.525 78.0157L132.018 221.748L132.236 221.874L270.354 304.388L129.376 347.44L129.34 347.653L104.074 484.813L-2.5005 367.71L-2.74416 367.716L-156.466 369.974L-81.3994 254.497L-81.5054 254.29L-151.262 118.551Z" fill="white"/>
<path d="M110.36 83.9791L109.721 84.4797L2.80456 167.86L-145.787 123.496L-77.8486 255.544L-150.705 367.694L-1.16927 365.42L102.407 479.096L102.553 478.303L126.899 345.652L263.749 303.756L262.94 303.29L129.356 223.562L110.36 83.9791ZM-144.191 124.802L3.09848 168.774L3.26776 168.646L109.703 85.6304L128.535 223.987L261.74 303.476L126.099 345.008L101.816 477.273L-0.843371 364.593L-1.0784 364.596L-149.057 366.847L-76.8514 255.658L-76.9573 255.451L-144.191 124.802Z" fill="white"/>
<path d="M107.513 91.6692L4.19236 172.36L-138.68 129.792L-73.2839 256.682L-143.224 364.561L-142.349 364.547L0.516275 362.272L100.138 471.48L100.28 470.707L123.607 343.214L255.113 302.849L125.885 225.826L107.513 91.6692ZM-137.099 131.061L4.47624 173.254L4.63688 173.127L106.875 93.2736L125.078 226.238L125.286 226.357L253.155 302.583L122.823 342.58L122.788 342.779L99.5604 469.723L0.831769 361.475L0.602219 361.482L-141.617 363.734L-72.3048 256.815L-72.4085 256.617L-137.099 131.061Z" fill="white"/>
<path d="M104.685 99.3075L104.081 99.7847L5.59418 176.819L-131.539 136.074L-68.7305 257.823L-135.742 361.423L-134.895 361.407L2.19187 359.149L97.9035 463.914L98.0409 463.161L120.304 340.765L246.481 301.931L122.432 228.103L104.685 99.3075ZM-129.993 137.33L5.86713 177.706L6.02777 177.58L104.067 100.879L121.624 228.492L244.59 301.675L119.542 340.144L119.507 340.343L97.3346 462.192L2.47918 358.35L2.25826 358.355L-134.188 360.638L-67.761 257.972L-67.8592 257.777L-129.993 137.33Z" fill="white"/>
<path d="M101.853 106.97L101.259 107.431L6.97876 181.324L-124.42 142.362L-64.1276 258.982L-128.252 358.287L-127.437 358.274L3.87647 356.014L95.6502 456.321L95.7836 455.588L117.025 338.291L237.854 301.021L118.932 230.35L101.853 106.97ZM-122.939 143.566L7.26068 182.158L7.4127 182.034L101.226 108.493L118.167 230.741L118.363 230.855L235.99 300.78L116.285 337.719L116.256 337.907L95.0918 454.656L4.17612 355.244L-126.763 357.487L-63.1817 259.147L-63.2776 258.961L-122.939 143.566Z" fill="white"/>
<path d="M99.0082 114.637L98.4341 115.088L8.3905 185.828L-117.297 148.651L-59.5485 260.141L-120.775 355.156L5.55452 352.873L93.3768 448.759L93.5061 448.045L113.707 335.866L229.2 300.102L228.49 299.693L115.444 232.624L99.0082 114.637ZM-115.829 149.84L8.66095 186.619L8.81209 186.509L98.4265 116.12L114.711 232.997L227.416 299.863L112.966 335.272L112.932 335.457L92.8261 447.105L5.84379 352.134L5.63696 352.139L-119.304 354.389L-58.6508 260.263L-58.7413 260.08L-115.829 149.84Z" fill="white"/>
<path d="M96.1529 122.288L95.6065 122.704L9.76129 190.305L-110.175 154.943L-109.834 155.614L-54.958 261.295L-113.298 352.015L7.23227 349.736L91.1245 441.175L91.2498 440.481L110.411 333.421L220.579 299.204L111.968 234.879L96.1529 122.288ZM-108.777 156.077L10.0176 191.095L10.1602 190.987L95.6098 123.742L111.255 235.257L111.435 235.36L218.83 298.956L109.727 332.866L109.696 333.045L90.6163 439.612L7.5175 349.017L7.31613 349.025L-111.866 351.277L-54.094 261.413L-108.777 156.077Z" fill="white"/>
<path d="M93.3327 129.965L92.7972 130.387L11.1539 194.793L-103.049 161.229L-102.706 161.894L-50.3839 262.439L-105.809 348.879L8.92075 346.604L88.8631 433.593L88.978 432.929L107.109 330.971L211.962 298.301L108.492 237.148L93.3327 129.965ZM-101.694 162.323L11.4003 195.563L11.5428 195.455L92.7781 131.376L107.803 237.532L210.258 298.086L106.43 330.42L106.402 330.593L88.3682 432.045L9.18783 345.904L8.99509 345.91L-104.429 348.155L-49.5426 262.558L-49.6308 262.383L-101.694 162.323Z" fill="white"/>
<path d="M90.4981 137.629L89.9681 138.054L12.54 199.279L-95.9173 167.49L-45.7769 263.537L-98.3306 345.746L10.5878 343.484L86.6197 426.03L86.7346 425.366L103.815 328.52L203.31 297.379L105.034 239.421L90.4981 137.629ZM-94.6101 168.579L12.7849 200.026L12.9187 199.921L89.9697 138.982L104.342 239.76L104.511 239.858L201.669 297.157L103.151 327.992L86.123 424.51L10.8604 342.786L10.6731 342.795L-96.9724 345.061L-44.965 263.72L-45.0563 263.551L-94.6101 168.579Z" fill="white"/>
<path d="M87.6577 145.289L87.1387 145.72L13.9311 203.769L-88.8036 173.808L-41.2187 264.732L-90.8491 342.608L12.279 340.333L84.3426 418.412L84.4684 417.754L100.539 326.087L194.675 296.467L101.537 241.673L87.6577 145.289ZM-87.532 174.832L14.1692 204.49L14.2999 204.39L87.1679 146.613L100.887 242.014L101.051 242.109L193.087 296.253L99.8755 325.559L99.8454 325.724L83.8806 416.97L12.5512 339.687L12.3671 339.69L-89.5537 341.93L-40.4338 264.848L-40.5174 264.691L-87.532 174.832Z" fill="white"/>
<path d="M84.8204 152.959L84.3353 153.344L15.3232 208.26L-81.687 180.098L-36.6688 265.894L-83.3666 339.471L13.9993 337.186L82.0786 410.823L97.2142 323.627L186.04 295.556L98.054 243.941L84.8204 152.959ZM-80.4528 181.086L15.5707 208.965L15.6928 208.867L84.3546 154.217L97.451 244.265L97.6149 244.359L184.505 295.352L96.5971 323.133L81.6358 409.437L14.2016 336.572L-82.108 338.794L-35.8703 265.974L-35.9484 265.82L-80.4528 181.086Z" fill="white"/>
<path d="M81.9776 160.616L81.5129 160.991L16.7086 212.751L-74.56 186.385L-74.2569 186.968L-32.0683 267.046L-75.8856 336.339L-75.2283 336.323L15.6601 334.068L79.8383 403.246L93.9295 321.151L177.413 294.647L94.5701 246.212L81.9776 160.616ZM-73.339 187.358L16.9383 213.424L81.5134 161.845L93.9766 246.52L94.1132 246.599L175.912 294.433L93.3106 320.685L93.2814 320.836L79.3702 401.904L15.8797 333.449L15.7096 333.454L-74.6773 335.698L-31.3466 267.133L-73.339 187.358Z" fill="white"/>
<path d="M79.1425 168.28L18.1029 217.236L-67.4554 192.668L-27.4877 268.203L-68.4038 333.2L-67.7692 333.186L17.3038 330.912L77.563 395.65L90.6192 318.728L168.788 293.742L91.1125 248.472L79.1425 168.28ZM-66.2882 193.596L18.3226 217.888L18.4361 217.793L78.6951 169.468L90.5167 248.772L167.343 293.545L90.0394 318.27L77.1509 394.362L17.5521 330.332L-67.2522 332.608L-26.7779 268.297L-26.8537 268.152L-66.2882 193.596Z" fill="white"/>
<path d="M76.3159 175.932L19.496 221.724L-60.3129 198.963L-22.9077 269.35L-60.9236 330.067L-60.3085 330.049L19.0092 327.79L75.3303 388.07L75.4209 387.524L87.3303 316.256L160.131 292.831L87.6276 250.743L76.3159 175.932ZM-59.208 199.848L19.7088 222.351L19.8191 222.261L75.8789 177.089L87.064 251.025L87.206 251.107L158.76 292.647L86.7652 315.836L86.7391 315.981L74.9101 386.821L19.2229 327.219L19.067 327.225L-59.8057 329.47L-22.2174 269.441L-22.2964 269.3L-59.208 199.848Z" fill="white"/>
<path d="M73.4669 183.609L73.0526 183.947L20.914 226.208L-53.1965 205.253L-18.332 270.504L-53.4453 326.95L-52.8639 326.927L20.6767 324.671L73.0677 380.505L84.0111 313.85L151.499 291.928L84.1307 253.01L73.4669 183.609ZM-52.1399 206.095L21.0831 226.809L21.1902 226.725L73.0452 184.703L83.6049 253.277L83.7415 253.355L150.173 291.741L83.4814 313.406L83.4617 313.541L72.6599 379.284L20.8959 324.103L20.74 324.108L-52.3642 326.353L-17.6667 270.588L-17.7402 270.451L-52.1399 206.095Z" fill="white"/>
<path d="M70.6265 191.278L22.277 230.705L-46.0777 211.546L-45.8084 212.037L-13.7506 271.656L-45.9783 323.783L22.3438 321.508L70.8156 372.902L70.8981 372.394L80.7237 311.383L142.871 291L80.663 255.258L70.6265 191.278ZM-45.0444 212.352L22.4729 231.285L22.5745 231.197L70.2356 192.331L80.145 255.536L80.2815 255.615L141.599 290.844L80.2054 310.982L80.1802 311.113L70.4175 371.752L22.5817 320.958L-44.9344 323.237L-13.1244 271.731L-13.1902 271.606L-45.0444 212.352Z" fill="white"/>
<path d="M67.7997 198.944L67.4209 199.258L23.6709 235.193L-38.9509 217.831L-38.6948 218.307L-9.18387 272.801L-38.4863 320.655L24.0205 318.361L68.5263 365.295L77.3904 308.914L134.189 290.058L133.697 289.775L77.2012 257.49L67.7997 198.944ZM-37.9636 218.604L23.8599 235.747L23.9583 235.665L67.4201 199.952L76.7041 257.795L76.8298 257.868L133.03 289.946L76.9377 308.551L76.9211 308.68L68.1889 364.217L24.2485 317.879L-37.4997 320.121L-8.56634 272.879L-8.63209 272.754L-37.9636 218.604Z" fill="white"/>
<path d="M64.9427 206.624L25.058 239.681L-31.8285 224.125L-31.5793 224.575L-4.58789 273.961L-30.9923 317.525L25.7365 315.248L66.3069 357.733L74.1214 306.486L125.599 289.173L125.129 288.903L73.7097 259.775L64.9427 206.624ZM-30.8785 224.862L25.2402 240.209L25.3355 240.133L64.5815 207.563L73.2342 260.005L73.3544 260.074L124.433 288.998L73.6492 306.119L65.9372 356.673L25.9114 314.757L25.775 314.766L-30.052 317.008L-4.0063 274.025L-30.8785 224.862Z" fill="white"/>
<path d="M62.1131 214.267L26.4504 244.169L-24.7062 230.416L-24.4671 230.846L-0.00237297 275.097L-23.5036 314.375L-23.01 314.353L27.4286 312.096L64.0373 350.139L70.8167 304.027L116.962 288.251L70.2145 262.062L62.1131 214.267ZM-23.7991 231.114L26.6202 244.669L26.7069 244.594L61.7811 215.193L69.7813 262.294L69.9015 262.364L115.854 288.139L70.3741 303.685L70.3584 303.8L63.6922 349.137L27.5812 311.644L27.4535 311.651L-22.6286 313.908L0.518791 275.178L0.452166 275.066L-23.7991 231.114Z" fill="white"/>
</g>
</g>
<defs>
<clipPath id="clip0">
<rect width="593.776" height="585.838" fill="white" transform="matrix(0.5 0.866026 0.866026 -0.5 0 12.9199)"/>
</clipPath>
</defs>
</svg>
