<svg width="50" height="42" viewBox="0 0 50 42" fill="none" xmlns="http://www.w3.org/2000/svg">
<g clip-path="url(#clip0)">
<path d="M11.0325 13.4245C10.7721 12.3524 10.1983 11.3813 9.3838 10.6341C8.56929 9.88695 7.55063 9.39725 6.4567 9.22698C5.36278 9.05672 4.24274 9.21354 3.23829 9.6776C2.23384 10.1417 1.39012 10.8921 0.813865 11.834C0.23761 12.7759 -0.04528 13.8669 0.000982992 14.969C0.047246 16.0712 0.420584 17.1348 1.07376 18.0255C1.72694 18.9162 2.63061 19.5938 3.67045 19.9727C4.71028 20.3516 5.83955 20.4147 6.91539 20.154C8.35663 19.8048 9.5998 18.8999 10.3718 17.6381C11.1438 16.3763 11.3814 14.8608 11.0325 13.4245Z" fill="#02489F"/>
<path d="M25.7325 0.992926C24.3494 2.01838 12.0945 13.8111 12.0945 13.8111L10.4862 19.7715C10.3431 20.3504 10.3431 20.9552 10.4862 21.534C10.4862 21.534 14.0887 28.8404 14.9893 31.0195C15.2665 31.7058 15.7735 32.2755 16.4243 32.6318C17.0751 32.9881 17.8295 33.1091 18.5597 32.9742C19.3427 32.8263 20.0354 32.3763 20.4872 31.7222C20.9389 31.0681 21.1132 30.2628 20.972 29.4813C20.4574 27.9752 18.3667 23.2965 18.3667 23.2965L23.4809 23.7772C23.4809 23.7772 23.4809 37.717 23.4809 38.1336C23.4809 39.7679 24.0921 41.6265 26.3115 41.6586C29.721 41.6586 29.528 38.6463 29.528 37.9733C29.9461 29.962 30.0104 19.4831 30.0104 19.4831C28.8203 20.1881 47.6369 7.36996 47.6369 7.36996C48.3525 6.91022 48.856 6.18652 49.0369 5.35754C49.2178 4.52856 49.0613 3.66195 48.6019 2.9477C48.3439 2.56239 48.0051 2.23739 47.6089 1.99507C47.2127 1.75275 46.7685 1.59888 46.3068 1.54405C45.8452 1.48923 45.3771 1.53475 44.9348 1.67749C44.4926 1.82023 44.0866 2.05679 43.7449 2.37088L26.7939 13.747L21.5832 13.074C21.551 12.8177 27.1799 8.29928 30.5572 4.48588C30.9941 3.9028 31.1817 3.17127 31.0793 2.45088C30.9769 1.73049 30.5926 1.07968 30.0104 0.640427C28.949 -0.000481468 27.7267 -0.449117 25.7325 0.992926Z" fill="#02489F"/>
</g>
<defs>
<clipPath id="clip0">
<rect width="50" height="42" fill="white"/>
</clipPath>
</defs>
</svg>
