<svg width="904" height="748" viewBox="0 0 904 748" fill="none" xmlns="http://www.w3.org/2000/svg">
<path d="M948.986 196.735L1180.05 620.75L1666.53 733.002L1665.35 733.967L1327.53 1011.96L1426.22 1462.71L1424.68 1461.82L985.636 1211.09L560.144 1377.42L560.372 1375.91L626.857 942.962L265.207 595.005L747.017 578.11L948.986 196.735ZM1178.98 622.063L1178.79 621.685L949.136 200.253L748.2 579.645L747.76 579.659L268.89 596.444L628.654 942.6L628.6 942.98L562.288 1374.81L985.565 1209.34L985.963 1209.57L1423.87 1459.66L1325.69 1011.25L1325.99 1011.01L1662.93 733.748L1178.98 622.063Z" fill="#02489F"/>
<path d="M950.093 208.325L1179.5 622.815L1656.04 735.859L1654.9 736.818L1326.22 1011.68L1419.68 1453.77L1418.19 1452.9L986.437 1209.72L567.659 1369.9L567.872 1368.42L629.711 943.281L277.429 600.195L279.066 600.124L749.053 580.55L950.093 208.325ZM1178.45 624.107L1178.25 623.74L950.227 211.75L750.199 582.05L749.777 582.07L281.012 601.601L631.482 942.922L631.43 943.303L569.727 1367.36L986.364 1208.01L986.753 1208.24L1417.38 1450.78L1324.4 1010.97L1324.7 1010.73L1652.53 736.571L1178.45 624.107Z" fill="#02489F"/>
<path d="M951.202 219.907L951.987 221.307L1178.96 624.877L1645.56 738.714L1644.46 739.654L1324.91 1011.4L1413.15 1444.82L987.228 1208.37L575.155 1362.4L575.355 1360.96L632.565 943.594L289.658 605.36L291.249 605.284L751.062 582.969L951.202 219.907ZM1177.91 626.153L1177.71 625.793L951.325 223.252L752.205 584.46L751.784 584.476L293.149 606.747L634.303 943.235L634.248 943.615L577.194 1359.92L987.161 1206.68L987.538 1206.89L1410.91 1441.91L1323.12 1010.71L1642.13 739.412L1177.91 626.153Z" fill="#02489F"/>
<path d="M952.308 231.496L953.08 232.846L1178.41 626.949L1635.08 741.57L1323.61 1011.12L1406.62 1435.88L1405.19 1435.1L988.017 1207.02L582.654 1354.91L582.832 1353.5L635.418 943.909L301.873 610.559L303.415 610.475L753.082 585.404L952.308 231.496ZM1177.38 628.202L1177.17 627.848L952.417 234.75L754.211 586.87L753.792 586.883L305.284 611.899L637.141 943.563L637.095 943.928L584.646 1352.48L987.955 1205.34L988.322 1205.55L1404.43 1433.05L1321.83 1010.43L1322.11 1010.18L1631.73 742.229L1177.38 628.202Z" fill="#02489F"/>
<path d="M953.417 243.079L954.178 244.391L1177.85 629.009L1624.59 744.422L1623.56 745.327L1322.3 1010.85L1400.09 1426.94L988.812 1205.68L590.149 1347.42L590.314 1346.05L638.261 944.22L314.096 615.743L315.594 615.649L755.103 587.831L953.417 243.079ZM1176.85 630.242L953.537 246.25L756.225 589.273L755.837 589.296L317.428 617.049L639.97 943.883L639.93 944.238L592.098 1345.04L988.759 1204L989.117 1204.21L1397.96 1424.17L1320.56 1010.17L1320.83 1009.94L1621.34 745.088L1176.85 630.242Z" fill="#02489F"/>
<path d="M954.519 254.681L1177.32 631.082L1614.12 747.286L1613.13 748.173L1321 1010.58L1393.57 1417.98L989.624 1204.3L597.662 1339.91L641.127 944.543L326.327 620.933L327.778 620.829L757.129 590.277L954.519 254.681ZM1176.32 632.301L1176.13 631.972L954.64 257.765L758.229 591.693L757.852 591.718L329.563 622.201L642.796 944.211L642.758 944.555L599.556 1337.59L989.555 1202.68L989.901 1202.88L1391.48 1415.31L1319.29 1009.91L1319.54 1009.68L1610.94 747.925L1176.32 632.301Z" fill="#02489F"/>
<path d="M955.616 266.246L1176.77 633.148L1603.64 750.141L1319.69 1010.3L1387.03 1409.06L990.398 1202.95L605.151 1332.4L643.966 944.857L338.539 626.112L339.944 626.001L759.159 592.685L955.616 266.246ZM1175.78 634.348L1175.59 634.032L955.74 269.275L760.231 594.107L341.7 627.352L645.629 944.529L607.006 1330.15L990.351 1201.34L990.684 1201.54L1385 1406.44L1318 1009.64L1318.25 1009.42L1600.55 750.773L1175.78 634.348Z" fill="#02489F"/>
<path d="M956.744 277.843L957.473 279.024L1176.22 635.222L1593.15 753.007L1318.39 1010.03L1380.51 1400.12L991.21 1201.6L612.668 1324.9L612.78 1323.64L646.842 945.165L350.768 631.297L352.126 631.176L761.179 595.131L956.744 277.843ZM1175.24 636.389L1175.06 636.084L956.838 280.772L762.242 596.519L761.89 596.55L353.844 632.505L648.461 944.849L648.433 945.174L614.464 1322.71L991.154 1200.01L991.462 1200.19L1378.52 1397.56L1316.71 1009.39L1316.94 1009.17L1590.14 753.607L1175.24 636.389Z" fill="#02489F"/>
<path d="M957.851 289.425L958.564 290.565L1175.68 637.278L1582.67 755.856L1581.81 756.688L1317.09 1009.76L1373.98 1391.18L992.001 1200.25L620.163 1317.41L649.686 945.493L362.99 636.48L763.204 597.562L957.851 289.425ZM1174.72 638.445L957.953 292.285L764.258 598.915L365.99 637.641L651.296 945.172L651.272 945.483L621.919 1315.26L991.953 1198.68L992.272 1198.84L1372.06 1388.69L1315.45 1009.11L1315.67 1008.9L1579.75 756.445L1174.72 638.445Z" fill="#02489F"/>
<path d="M958.952 301.008L959.656 302.106L1175.13 639.343L1572.19 758.712L1571.36 759.524L1315.79 1009.48L1367.46 1382.24L992.815 1198.88L627.668 1309.89L627.752 1308.71L652.536 945.808L375.212 641.651L376.475 641.516L765.223 599.992L958.952 301.008ZM1174.18 640.493L1174.01 640.213L959.05 303.775L766.259 601.306L378.127 642.775L654.115 945.489L629.368 1307.82L992.737 1197.34L993.056 1197.5L1365.57 1379.8L1314.16 1008.85L1314.38 1008.64L1569.34 759.286L1174.18 640.493Z" fill="#02489F"/>
<path d="M960.066 312.588L1174.58 641.41L1561.71 761.568L1560.93 762.347L1314.48 1009.2L1360.92 1373.29L993.601 1197.53L635.169 1302.39L655.386 946.134L387.424 646.852L767.243 602.426L960.066 312.588ZM1173.65 642.543L1173.48 642.274L960.159 315.299L768.26 603.75L767.952 603.786L390.261 647.954L656.951 945.803L656.935 946.095L636.822 1300.38L993.541 1196.01L993.841 1196.15L1359.11 1370.94L1312.88 1008.58L1558.94 762.125L1173.65 642.543Z" fill="#02489F"/>
<path d="M961.169 324.18L1174.03 643.474L1551.23 764.421L1550.47 765.197L1313.17 1008.93L1354.39 1364.36L1353.25 1363.82L994.403 1196.16L642.68 1294.88L642.73 1293.77L658.253 946.429L399.646 652.029L769.261 604.856L961.169 324.18ZM1173.12 644.591L1172.95 644.337L961.264 326.81L770.272 606.163L769.974 606.201L402.402 653.107L659.786 946.142L659.772 946.422L644.278 1292.93L994.34 1194.68L994.629 1194.81L1352.63 1362.06L1311.61 1008.3L1311.8 1008.1L1548.55 764.953L1173.12 644.591Z" fill="#02489F"/>
<path d="M962.28 335.763L962.951 336.739L1173.49 645.541L1540.76 767.28L1311.87 1008.66L1347.87 1355.42L1346.76 1354.92L995.19 1194.82L650.175 1287.39L650.212 1286.32L661.099 946.761L411.869 657.208L413.003 657.04L771.293 607.288L962.28 335.763ZM1172.59 646.638L1172.43 646.395L962.373 338.317L772.276 608.572L414.543 658.258L662.608 946.456L662.599 946.722L651.733 1285.49L995.14 1193.34L995.416 1193.47L1346.16 1353.18L1310.33 1008.05L1310.51 1007.86L1538.14 767.808L1172.59 646.638Z" fill="#02489F"/>
<path d="M963.389 347.349L964.038 348.278L1172.95 647.609L1530.28 770.13L1310.57 1008.38L1341.34 1346.48L1340.27 1346.01L995.999 1193.47L657.69 1279.89L663.969 947.065L424.108 662.382L425.189 662.221L773.32 609.722L963.389 347.349ZM1172.06 648.689L1171.9 648.461L963.48 349.828L774.284 610.981L774.014 611.023L426.681 663.407L665.439 946.778L659.192 1278.04L995.941 1192.01L996.207 1192.13L1339.68 1344.32L1309.05 1007.79L1309.22 1007.6L1527.74 770.652L1172.06 648.689Z" fill="#02489F"/>
<path d="M964.494 358.928L1172.4 649.674L1519.8 772.989L1519.15 773.712L1309.26 1008.1L1334.81 1337.54L1333.77 1337.1L996.783 1192.1L665.172 1272.39L665.177 1271.4L666.81 947.382L436.314 667.563L775.343 612.141L964.494 358.928ZM1171.52 650.737L1171.37 650.52L964.581 361.335L776.293 613.397L776.038 613.439L438.826 668.565L668.266 947.099L668.266 947.342L666.653 1270.58L996.738 1190.66L996.995 1190.77L1333.2 1335.44L1307.76 1007.52L1307.92 1007.34L1517.33 773.491L1171.52 650.737Z" fill="#02489F"/>
<path d="M965.603 370.512L1171.85 651.741L1509.33 775.838L1307.96 1007.83L1328.28 1328.61L997.598 1190.75L672.691 1264.89L669.661 947.711L448.527 672.759L449.521 672.584L777.363 614.585L965.603 370.512ZM1171 652.775L1170.85 652.569L965.698 372.834L778.314 615.797L778.07 615.841L450.98 673.706L671.099 947.422L671.101 947.654L674.101 1263.15L997.542 1189.33L1326.72 1326.57L1306.5 1007.24L1306.64 1007.07L1506.94 776.32L1171 652.775Z" fill="#02489F"/>
<path d="M966.709 382.094L1171.31 653.805L1498.83 778.704L1306.63 1007.55L1321.73 1319.66L1320.77 1319.27L998.377 1189.4L680.171 1257.4L672.513 948.028L460.736 677.934L461.67 677.742L779.387 617.015L966.709 382.094ZM1170.46 654.835L1170.32 654.641L966.8 384.339L780.309 618.219L780.083 618.261L463.114 678.868L673.926 947.741L673.932 947.959L681.559 1255.71L998.325 1188.01L998.555 1188.1L1320.24 1317.69L1305.21 1006.98L1305.34 1006.82L1496.53 779.174L1170.46 654.835Z" fill="#02489F"/>
<path d="M967.814 393.674L1170.75 655.867L1488.36 781.559L1487.83 782.221L1305.35 1007.28L1315.23 1310.73L1314.3 1310.37L999.174 1188.04L687.676 1249.89L687.637 1249.01L675.362 948.341L472.964 683.12L473.866 682.933L781.405 619.444L967.814 393.674ZM1169.92 656.883L1169.79 656.701L967.895 395.864L782.307 620.64L782.095 620.686L475.245 684.03L676.753 948.062L676.762 948.269L689.012 1248.26L999.123 1186.69L999.338 1186.77L1313.75 1308.81L1303.92 1006.73L1304.04 1006.58L1486.11 782.025L1169.92 656.883Z" fill="#02489F"/>
<path d="M968.924 405.256L969.496 405.998L1170.21 657.936L1477.89 784.417L1304.05 1007.01L1308.71 1301.8L999.985 1186.69L695.185 1242.4L695.14 1241.55L678.233 948.662L485.19 688.315L486.049 688.124L783.429 621.88L968.924 405.256ZM1169.39 658.934L1169.26 658.768L969.001 407.374L784.322 623.041L784.128 623.086L487.399 689.171L679.588 948.383L696.469 1240.81L999.921 1185.36L1000.12 1185.43L1307.28 1299.96L1302.64 1006.49L1302.76 1006.34L1475.72 784.886L1169.39 658.934Z" fill="#02489F"/>
<path d="M970.029 416.835L970.595 417.524L1169.66 660.002L1467.41 787.269L1466.95 787.892L1302.74 1006.73L1302.18 1292.86L1000.77 1185.33L702.677 1234.9L681.068 948.978L497.396 693.483L498.212 693.288L785.446 624.311L970.029 416.835ZM1168.85 660.994L1168.73 660.839L970.098 418.898L786.322 625.467L786.141 625.51L499.541 694.322L682.413 948.702L682.427 948.883L703.925 1233.36L1000.72 1184.01L1000.91 1184.08L1300.81 1291.07L1301.36 1006.19L1301.47 1006.05L1465.31 787.693L1168.85 660.994Z" fill="#02489F"/>
<path d="M971.142 428.418L971.692 429.068L1169.12 662.07L1456.94 790.127L1456.51 790.728L1301.44 1006.45L1295.66 1283.92L1001.57 1183.97L710.165 1227.39L710.093 1226.61L683.924 949.294L509.611 698.679L510.381 698.478L787.477 626.741L971.142 428.418ZM1168.33 663.032L1168.21 662.891L971.215 430.401L788.342 627.866L788.176 627.91L511.681 699.463L685.248 949.026L685.262 949.194L711.385 1225.92L1001.52 1182.68L1001.7 1182.74L1294.34 1282.18L1300.09 1005.92L1454.9 790.527L1168.33 663.032Z" fill="#02489F"/>
<path d="M972.244 440L1168.57 664.128L1446.46 792.979L1446.06 793.567L1300.12 1006.19L1289.11 1275L1288.34 1274.75L1002.35 1182.63L717.664 1219.91L717.578 1219.18L686.771 949.615L521.828 703.846L522.559 703.643L789.492 629.173L972.244 440ZM1167.8 665.087L1167.69 664.957L972.302 441.909L790.329 630.274L790.178 630.314L523.822 704.627L688.072 949.35L688.09 949.504L718.848 1218.46L1002.32 1181.35L1002.47 1181.4L1287.84 1273.32L1298.8 1005.66L1298.87 1005.53L1444.49 793.377L1167.8 665.087Z" fill="#02489F"/>
<path d="M973.352 451.578L973.87 452.149L1168.03 666.2L1435.97 795.831L1435.61 796.39L1298.82 1005.9L1282.6 1266.05L1281.86 1265.83L1003.16 1181.26L725.172 1212.4L689.627 949.933L534.044 709.03L534.73 708.825L791.519 631.604L973.352 451.578ZM1167.26 667.134L1167.16 667.018L973.42 453.428L792.356 632.692L792.218 632.731L535.985 709.78L690.9 949.66L690.918 949.798L726.297 1211.02L1003.12 1180L1003.27 1180.05L1281.35 1264.44L1297.51 1005.39L1297.58 1005.27L1434.08 796.211L1167.26 667.134Z" fill="#02489F"/>
<path d="M974.444 463.146L974.956 463.684L1167.48 668.261L1425.51 798.684L1425.17 799.222L1297.52 1005.62L1276.07 1257.11L1003.95 1179.89L732.661 1204.89L732.557 1204.23L692.478 950.242L546.258 714.206L546.904 713.999L793.537 634.032L974.444 463.146ZM1166.71 669.165L1166.62 669.067L974.525 464.937L794.361 635.1L794.241 635.138L548.128 714.936L693.735 949.989L733.748 1203.57L1003.91 1178.67L1004.04 1178.71L1274.89 1255.56L1296.24 1005.13L1296.3 1005.02L1423.69 799.075L1166.71 669.165Z" fill="#02489F"/>
<path d="M975.57 474.737L1166.93 670.331L1415.03 801.547L1296.22 1005.36L1269.55 1248.18L1268.88 1248.01L1004.75 1178.55L740.163 1197.41L695.329 950.564L558.47 719.39L559.071 719.182L795.559 636.467L975.57 474.737ZM1166.2 671.231L975.629 476.453L796.368 637.518L796.262 637.552L560.261 720.087L696.565 950.312L696.584 950.421L741.212 1196.13L1004.72 1177.35L1268.4 1246.69L1294.96 1004.86L1295.01 1004.77L1413.28 801.899L1166.2 671.231Z" fill="#02489F"/>
<path d="M976.676 486.313L977.142 486.767L1166.39 672.392L1404.57 804.403L1404.29 804.89L1294.92 1005.08L1263.02 1239.24L1005.54 1177.19L747.648 1189.9L747.527 1189.31L698.182 950.88L570.685 724.568L797.584 638.896L976.676 486.313ZM1165.66 673.278L1165.59 673.206L976.736 487.969L798.38 639.927L798.29 639.961L572.424 725.247L699.399 950.633L699.416 950.725L748.675 1188.67L1005.51 1176.01L1005.61 1176.03L1261.92 1237.81L1293.69 1004.6L1293.73 1004.52L1402.89 804.758L1165.66 673.278Z" fill="#02489F"/>
<path d="M977.781 497.89L1165.83 674.472L1394.09 807.273L1393.85 807.744L1293.62 1004.81L1256.51 1230.32L1255.91 1230.19L1006.35 1175.84L755.159 1182.41L755.032 1181.86L701.029 951.201L582.896 729.752L583.425 729.548L799.603 641.326L977.781 497.89ZM1392.45 807.581L1165.11 675.317L977.843 499.485L800.387 642.342L800.314 642.37L584.57 730.402L702.223 950.965L702.24 951.041L756.129 1181.23L1006.3 1174.67L1006.39 1174.69L1255.44 1228.93L1292.39 1004.33L1292.43 1004.27L1392.45 807.581Z" fill="#02489F"/>
<path d="M978.887 509.464L979.316 509.847L1165.3 676.521L1383.63 810.113L1292.31 1004.53L1249.99 1221.38L1007.15 1174.49L762.669 1174.93L762.531 1174.41L703.885 951.512L595.108 734.927L595.584 734.716L801.624 643.754L978.887 509.464ZM1382.06 810.44L1164.61 677.386L1164.55 677.354L978.947 511L802.399 644.749L802.341 644.773L596.723 735.551L705.06 951.274L705.074 951.335L763.593 1173.77L1007.1 1173.34L1007.17 1173.35L1248.95 1220.05L1291.11 1004.06L1291.14 1004.01L1382.06 810.44Z" fill="#02489F"/>
<path d="M979.995 521.037L980.405 521.389L1164.75 678.587L1373.16 812.97L1372.98 813.395L1291.02 1004.26L1243.46 1212.45L1242.94 1212.36L1007.94 1173.13L770.153 1167.42L706.732 951.833L607.317 740.109L607.754 739.9L803.644 646.184L979.995 521.037ZM1371.64 813.274L1164.05 679.44L1164.01 679.417L980.05 522.517L804.403 647.186L804.361 647.203L608.869 740.729L707.889 951.596L707.901 951.64L771.046 1166.33L1007.9 1172L1007.95 1172.01L1242.47 1211.17L1289.83 1003.8L1289.85 1003.76L1371.64 813.274Z" fill="#02489F"/>
<path d="M981.104 532.613L981.491 532.927L1164.23 680.668L1362.69 815.815L1289.7 1004.01L1236.94 1203.53L1008.71 1171.78L777.649 1159.94L777.495 1159.49L709.569 952.121L619.525 745.285L619.904 745.084L805.639 648.615L981.104 532.613ZM1361.23 816.119L1163.55 681.5L981.159 534.036L806.418 649.582L806.405 649.604L621.038 745.879L710.728 951.902L778.525 1158.87L1008.67 1170.67L1235.99 1202.29L1288.54 1003.55L1361.23 816.119Z" fill="#02489F"/>
<path d="M982.205 544.188L982.572 544.47L1163.66 682.716L1352.21 818.684L1288.41 1003.72L1230.42 1194.6L1229.97 1194.55L1009.53 1170.43L785.141 1152.44L784.993 1152.04L712.429 952.458L631.736 750.466L807.686 651.045L982.205 544.188ZM1350.81 818.962L1163 683.533L982.265 545.551L808.414 652L633.172 751.023L713.549 952.228L785.972 1151.42L1009.48 1169.33L1229.5 1193.4L1287.25 1003.28L1350.81 818.962Z" fill="#02489F"/>
<path d="M983.314 555.758L1163.1 684.769L1341.75 821.528L1341.65 821.88L1287.11 1003.43L1223.9 1185.66L1223.5 1185.64L1010.36 1169.08L792.637 1144.95L792.488 1144.58L715.288 952.794L643.934 755.638L644.254 755.441L809.713 653.463L983.314 555.758ZM1340.4 821.804L1162.45 685.575L983.36 557.089L810.434 654.41L645.326 756.179L716.392 952.563L793.436 1143.96L1010.29 1167.99L1223.01 1184.52L1285.98 1002.99L1340.4 821.804Z" fill="#02489F"/>
<path d="M984.425 567.327L1162.6 686.858L1331.28 824.38L1331.2 824.702L1285.81 1003.16L1285.8 1003.19L1217.38 1176.74L1011.1 1167.72L800.13 1137.46L799.981 1137.13L718.134 953.104L718.126 953.075L656.155 760.822L656.435 760.63L811.723 655.898L811.736 655.876L984.425 567.327ZM1161.93 687.638L984.478 568.596L812.445 656.829L657.481 761.341L719.225 952.874L800.904 1136.51L1011.09 1166.66L1216.53 1175.64L1284.69 1002.73L1329.99 824.649L1161.93 687.638Z" fill="#02489F"/>
<path d="M985.53 578.898L985.839 579.077L1162.03 688.899L1162.08 688.925L1320.83 827.222L1320.76 827.52L1284.53 1002.89L1284.51 1002.93L1210.88 1167.81L1210.55 1167.81L1011.93 1166.38L1011.89 1166.35L807.627 1129.97L807.479 1129.67L720.984 953.421L720.971 953.372L668.359 766.001L668.605 765.818L813.744 658.336L813.788 658.316L985.53 578.898ZM1161.39 689.69L985.566 580.112L814.459 659.242L669.646 766.48L722.061 953.195L808.364 1129.05L1011.89 1165.32L1210.04 1166.75L1283.41 1002.46L1319.57 827.493L1161.39 689.69Z" fill="#02489F"/>
<path d="M1161.48 690.957L1161.55 690.996L1310.35 830.086L1310.31 830.353L1283.22 1002.6L1283.19 1002.66L1204.35 1158.87L1204.05 1158.88L1012.73 1165.01L1012.65 1164.99L815.115 1122.48L723.808 953.667L680.564 771.169L680.773 770.998L815.77 660.741L815.836 660.713L986.634 590.465L986.908 590.624L1161.48 690.957ZM1309.15 830.334L1160.85 691.747L986.677 591.637L816.468 661.657L681.791 771.651L724.892 953.515L815.827 1121.59L1012.68 1163.98L1203.55 1157.86L1282.12 1002.19L1309.15 830.334Z" fill="#02489F"/>
<path d="M1160.94 693.033L1161.03 693.084L1299.89 832.94L1299.87 833.179L1281.92 1002.34L1281.87 1002.42L1197.83 1149.96L1197.57 1149.98L1013.54 1163.68L1013.44 1163.65L822.608 1114.99L726.673 954.058L726.656 953.966L692.763 776.353L692.942 776.193L817.781 663.181L817.869 663.149L987.737 602.047L987.978 602.186L1160.94 693.033ZM1298.74 833.18L1160.32 693.798L987.793 603.169L818.475 664.075L693.95 776.808L727.725 953.839L823.285 1114.14L1013.46 1162.65L1197.06 1149L1280.83 1001.94L1298.74 833.18Z" fill="#02489F"/>
<path d="M1160.4 695.08L1160.49 695.175L1289.43 835.793L1289.42 836.004L1280.62 1002.07L1280.57 1002.17L1191.33 1141.05L1191.11 1141.07L1014.33 1162.34L830.112 1107.51L829.986 1107.32L729.513 954.382L729.495 954.27L704.951 781.528L705.094 781.38L819.796 665.604L819.912 665.568L988.849 613.602L989.068 613.708L1160.4 695.08ZM1288.31 836.027L1159.78 695.857L988.903 614.686L820.495 666.497L706.097 781.959L730.563 954.166L830.755 1106.68L1014.28 1161.3L1190.59 1140.1L1279.56 1001.67L1288.31 836.027Z" fill="#02489F"/>
<path d="M1159.86 697.135L1159.96 697.255L1278.97 838.641L1279.33 1001.8L1279.26 1001.92L1184.8 1132.1L1184.62 1132.14L1015.13 1160.96L1014.98 1160.92L837.585 1100.01L837.465 1099.85L732.356 954.696L732.342 954.556L717.161 786.702L821.81 668.026L821.949 667.991L989.952 625.164L990.145 625.242L1159.86 697.135ZM1277.89 838.869L1159.24 697.909L990.001 626.22L822.505 668.917L718.26 787.122L733.406 954.475L838.219 1099.22L1015.06 1159.96L1184.08 1131.2L1278.25 1001.38L1277.89 838.869Z" fill="#02489F"/>
<path d="M1159.32 699.194L1268.52 841.497L1268.52 841.649L1278.04 1001.53L1277.94 1001.65L1178.29 1123.19L1178.13 1123.23L1015.92 1159.63L845.078 1092.53L844.972 1092.4L735.2 955.016L735.195 954.853L729.356 791.894L729.444 791.777L823.827 670.447L823.998 670.414L991.06 636.73L991.222 636.791L1159.32 699.194ZM1267.47 841.716L1158.7 699.966L991.105 637.756L824.518 671.344L730.43 792.292L736.251 954.792L845.69 1091.76L1015.87 1158.61L1177.6 1122.31L1276.96 1001.12L1267.47 841.716Z" fill="#02489F"/>
<path d="M1158.78 701.249L1158.9 701.421L1258.05 844.346L1258.07 844.47L1276.75 1001.27L1276.62 1001.4L1171.76 1114.27L1171.64 1114.3L1016.71 1158.29L1016.52 1158.21L852.565 1085.05L738.04 955.337L738.047 955.147L741.559 797.053L741.618 796.951L825.831 672.864L992.168 648.291L992.299 648.334L1158.78 701.249ZM1257.05 844.563L1158.16 702.03L992.217 649.282L826.542 673.764L742.599 797.448L739.091 955.113L853.155 1084.31L1016.66 1157.27L1171.1 1113.42L1275.66 1000.85L1257.05 844.563Z" fill="#02489F"/>
<path d="M1158.24 703.301L1158.37 703.505L1247.6 847.194L1247.62 847.289L1275.46 1001L1165.26 1105.36L1165.18 1105.39L1017.51 1156.95L1017.3 1156.83L860.055 1077.56L859.983 1077.48L740.877 955.661L740.895 955.445L753.764 802.214L753.808 802.137L827.873 675.279L828.107 675.258L993.274 659.852L993.375 659.877L1158.24 703.301ZM1246.63 847.389L1157.62 704.089L993.311 660.807L828.562 676.187L754.754 802.601L741.939 955.426L860.628 1076.84L1017.45 1155.9L1164.62 1104.53L1274.37 1000.57L1246.63 847.389Z" fill="#02489F"/>
<path d="M1157.71 705.355L1157.84 705.594L1237.15 850.049L1237.16 850.11L1274.18 1000.72L1273.99 1000.88L1158.74 1096.43L1158.68 1096.46L1018.3 1155.61L1018.05 1155.47L867.526 1070.07L867.467 1070.04L743.692 955.979L743.729 955.737L765.953 807.401L765.983 807.348L829.873 677.706L830.139 677.694L994.385 671.41L994.451 671.424L1157.71 705.355ZM1236.19 850.251L1157.08 706.153L994.431 672.35L830.584 678.613L766.94 807.765L744.779 955.742L868.108 1069.36L1018.27 1154.55L1158.13 1095.61L1273.07 1000.3L1236.19 850.251Z" fill="#02489F"/>
<path d="M1157.17 707.405L1157.3 707.678L1226.7 852.897L1226.71 852.931L1272.89 1000.46L1272.67 1000.62L1152.23 1087.51L1152.2 1087.53L1019.1 1154.27L1018.82 1154.11L875.001 1062.6L874.97 1062.58L746.521 956.307L746.579 956.036L778.135 812.583L778.151 812.555L831.872 680.113L832.177 680.12L995.489 682.967L995.516 682.983L1157.17 707.405ZM1225.77 853.1L1156.53 708.216L995.536 683.883L832.597 681.038L779.087 812.923L747.639 956.06L875.569 1061.91L1019.05 1153.22L1151.62 1086.74L1271.76 1000.03L1225.77 853.1Z" fill="#02489F"/>
<path d="M1156.64 709.452L1156.77 709.763L1216.24 855.755L1271.62 1000.19L1271.35 1000.36L1145.74 1078.61L1019.91 1152.95L882.513 1055.12L749.375 956.615L749.463 956.32L790.334 817.739L833.877 682.526L834.222 682.549L996.585 694.522L1156.64 709.452ZM1270.46 999.757L1215.33 855.946L1155.98 710.285L996.636 695.418L834.629 683.475L791.268 818.11L750.492 956.376L883.045 1054.45L1019.85 1151.85L1145.12 1077.83L1270.46 999.757Z" fill="#02489F"/>
<path d="M1156.11 711.495L1156.23 711.85L1205.8 858.621L1270.33 999.938L1270.02 1000.11L1139.21 1069.71L1020.72 1151.63L1020.4 1151.38L889.98 1047.63L752.212 956.959L752.341 956.622L802.551 822.89L835.877 684.933L836.26 684.981L997.722 706.079L1156.11 711.495ZM1269.15 999.479L1204.91 858.816L1155.43 712.354L997.771 706.963L836.65 685.918L803.451 823.249L753.35 956.69L890.483 1046.97L1020.64 1150.49L1138.6 1068.95L1269.15 999.479Z" fill="#02489F"/>
<path d="M1155.58 713.536L1155.69 713.935L1195.34 861.457L1269.07 999.667L1268.7 999.828L1132.72 1060.79L1021.5 1150.3L897.467 1040.17L755.003 957.269L755.167 956.919L814.693 828.08L837.875 687.335L998.801 717.628L1155.58 713.536ZM1267.82 999.198L1194.45 861.641L1194.44 861.589L1154.87 714.427L998.848 718.503L838.676 688.365L815.62 828.426L815.601 828.46L756.207 956.993L897.98 1039.49L898.029 1039.52L1021.44 1149.1L1132.14 1060L1132.18 1059.98L1267.82 999.198Z" fill="#02489F"/>
<path d="M1155.05 715.547L1155.14 716.007L1184.91 864.295L1267.8 999.403L1126.22 1051.88L1022.3 1149L1021.94 1148.64L904.938 1032.7L757.816 957.606L758.03 957.236L826.882 833.262L839.877 689.733L840.355 689.853L999.911 729.177L1155.05 715.547ZM1266.51 998.918L1184.04 864.497L1184.03 864.419L1154.33 716.508L999.961 730.045L840.73 690.801L827.799 833.59L759.091 957.322L905.466 1032.03L905.527 1032.09L1022.24 1147.75L1125.62 1051.14L1125.69 1051.11L1266.51 998.918Z" fill="#02489F"/>
<path d="M1154.54 717.604L1154.6 718.103L1174.46 867.143L1266.55 999.147L1266.06 999.277L1119.71 1042.97L1023.1 1147.67L912.429 1025.22L760.636 957.923L760.899 957.523L839.07 838.421L841.863 692.127L1001.01 740.722L1154.54 717.604ZM1265.17 998.649L1173.59 867.329L1173.58 867.223L1153.77 718.59L1001.07 741.587L1000.95 741.552L842.759 693.249L839.979 838.756L839.927 838.846L761.964 957.632L912.945 1024.57L913.023 1024.65L1023.03 1146.37L1119.12 1042.22L1119.22 1042.19L1265.17 998.649Z" fill="#02489F"/>
<path d="M1154.03 719.631L1164.03 869.993L1265.3 998.892L1264.74 999.024L1113.21 1034.06L1023.91 1146.37L1023.52 1145.89L919.911 1017.74L763.436 958.252L851.245 843.603L843.854 694.515L844.439 694.729L1002.13 752.272L1154.03 719.631ZM1263.85 998.348L1163.15 870.189L1163.14 870.057L1153.21 720.68L1002.17 753.142L1002.03 753.092L844.801 695.711L852.162 843.918L852.1 844.026L764.858 957.941L920.42 1017.08L920.509 1017.19L1023.83 1144.99L1112.62 1033.32L1112.75 1033.29L1263.85 998.348Z" fill="#02489F"/>
<path d="M1153.51 721.648L1153.51 722.269L1153.58 872.846L1264.07 998.654L1106.71 1025.17L1024.72 1145.09L927.384 1010.27L766.226 958.581L766.624 958.133L863.429 848.752L845.834 696.889L846.494 697.172L1003.25 763.817L1153.51 721.648ZM1262.51 998.046L1152.71 873.021L1152.71 872.869L1152.63 722.784L1003.28 764.679L1003.12 764.61L846.837 698.159L864.341 849.089L864.239 849.203L767.732 958.246L927.897 1009.62L927.995 1009.75L1024.62 1143.59L1106.12 1024.41L1106.28 1024.38L1262.51 998.046Z" fill="#02489F"/>
<path d="M1153.01 723.659L1143.14 875.687L1262.83 998.391L1100.21 1016.25L1025.5 1143.78L1025.1 1143.14L934.862 1002.8L769.005 958.916L769.488 958.442L875.609 853.917L847.81 699.257L1004.33 775.365L1153.01 723.659ZM1261.14 997.765L1142.26 875.884L1142.27 875.706L1152.06 724.879L1004.39 776.219L848.907 700.643L876.522 854.259L876.398 854.381L770.636 958.549L935.379 1002.14L1025.41 1142.18L1099.61 1015.5L1261.14 997.765Z" fill="#02489F"/>
<path d="M1152.51 725.656L1152.41 726.421L1132.71 878.535L1261.62 998.152L1093.71 1007.35L1026.31 1142.52L942.34 995.328L771.773 959.247L772.348 958.756L887.786 859.084L849.771 701.619L1005.44 786.901L1152.51 725.656ZM1259.77 997.462L1131.81 878.733L1131.84 878.535L1151.47 726.992L1005.49 787.777L1005.29 787.663L850.978 703.121L888.724 859.412L888.574 859.543L773.562 958.836L942.871 994.673L942.98 994.863L1026.22 1140.77L1093.13 1006.61L1093.35 1006.6L1259.77 997.462Z" fill="#02489F"/>
<path d="M1149.57 729.196L1130.12 879.116L1256.53 996.443L1255.7 996.489L1091.85 1005.44L1025.73 1137.99L943.4 993.627L776.125 958.22L889.919 860.005L852.666 705.575L853.432 705.997L1005.32 789.232L1149.57 729.196ZM1254.71 995.766L1129.24 879.315L1129.27 879.121L1148.55 730.508L1005.37 790.097L1005.18 789.983L853.854 707.055L890.83 860.346L890.683 860.471L777.887 957.814L943.913 992.973L944.018 993.161L1025.62 1136.26L1091.26 1004.7L1091.47 1004.68L1254.71 995.766Z" fill="#02489F"/>
<path d="M1146.62 732.734L1146.53 733.473L1127.54 879.701L1251.43 994.732L1089.98 1003.52L1025.13 1133.45L944.458 991.927L780.476 957.191L892.052 860.929L855.555 709.53L1005.2 791.567L1146.62 732.734ZM1249.65 994.067L1126.69 879.887L1126.71 879.696L1145.62 734.025L1005.25 792.415L856.722 710.994L892.947 861.26L892.8 861.385L782.201 956.805L944.958 991.282L945.065 991.467L1025.04 1131.75L1089.41 1002.8L1089.62 1002.79L1249.65 994.067Z" fill="#02489F"/>
<path d="M1143.68 736.272L1143.58 737.002L1124.94 880.28L1246.34 993.022L1245.54 993.067L1088.13 1001.62L1024.56 1128.92L945.513 990.227L784.822 956.162L894.182 861.849L858.442 713.487L1005.08 793.894L1143.68 736.272ZM1244.58 992.366L1124.09 880.466L1124.12 880.279L1142.69 737.542L1005.12 794.742L1004.93 794.632L859.593 714.929L895.061 862.179L894.916 862.302L786.522 955.783L946.01 989.593L946.113 989.772L1024.46 1127.25L1087.55 1000.9L1087.76 1000.89L1244.58 992.366Z" fill="#02489F"/>
<path d="M1140.74 739.809L1140.63 740.533L1122.35 880.862L1241.25 991.314L1086.27 999.705L1023.97 1124.39L1023.58 1123.69L946.573 988.524L789.168 955.126L789.713 954.659L896.319 862.77L861.341 717.444L862.072 717.845L1004.96 796.228L1140.74 739.809ZM1239.52 990.669L1121.52 881.049L1121.54 880.861L1139.76 741.055L1005 797.056L862.463 718.873L897.183 863.092L897.041 863.216L790.848 954.76L947.06 987.9L1023.88 1122.74L1085.71 998.991L1085.92 998.981L1239.52 990.669Z" fill="#02489F"/>
<path d="M1137.77 743.336L1119.76 881.445L1236.15 989.603L1084.41 997.792L1023.39 1119.87L947.628 986.824L793.524 954.102L794.057 953.641L898.445 863.692L864.229 721.4L1004.83 798.563L1137.77 743.336ZM1234.43 988.961L1118.93 881.619L1118.95 881.436L1136.83 744.572L1004.87 799.373L1004.69 799.268L865.34 722.79L899.3 864.008L899.157 864.127L795.161 953.731L948.107 986.208L948.207 986.384L1023.29 1118.24L1083.85 997.098L1084.05 997.086L1234.43 988.961Z" fill="#02489F"/>
<path d="M1134.84 746.88L1134.75 747.572L1117.17 882.024L1231.05 987.894L1230.29 987.936L1082.54 995.881L1022.79 1115.33L948.684 985.119L797.873 953.073L900.579 864.612L867.123 725.351L867.83 725.738L1004.7 800.897L1134.84 746.88ZM1229.38 987.27L1116.36 882.204L1116.38 882.023L1133.9 748.087L1004.75 801.693L1004.56 801.58L868.199 726.716L901.414 864.925L901.276 865.043L799.493 952.704L949.138 984.525L949.236 984.697L1022.69 1113.73L1081.98 995.188L1082.18 995.174L1229.38 987.27Z" fill="#02489F"/>
<path d="M1131.89 750.419L1131.8 751.1L1114.57 882.608L1225.96 986.183L1225.21 986.224L1080.68 993.968L1022.21 1110.8L1021.83 1110.14L949.733 983.413L802.214 952.038L902.711 865.535L870.012 729.318L1004.59 803.231L1131.89 750.419ZM1224.31 985.576L1113.78 882.786L1113.81 882.61L1130.97 751.604L1004.63 804.012L1004.45 803.909L871.081 730.66L903.534 865.841L903.398 865.956L803.813 951.69L950.207 982.827L1022.12 1109.23L1080.15 993.298L1080.34 993.287L1224.31 985.576Z" fill="#02489F"/>
<path d="M1128.95 753.948L1128.86 754.616L1111.99 883.177L1220.86 984.474L1078.82 992.059L1021.62 1106.28L1021.25 1105.64L950.802 981.717L806.574 951.012L904.844 866.456L872.91 733.264L1004.47 805.55L1128.95 753.948ZM1219.25 983.865L1111.21 883.361L1111.23 883.186L1128.05 755.106L1004.51 806.318L1004.35 806.222L873.974 734.586L905.65 866.757L905.519 866.87L808.135 950.667L951.257 981.137L951.351 981.302L1021.54 1104.73L1078.3 991.397L1078.49 991.385L1219.25 983.865Z" fill="#02489F"/>
<path d="M1126.01 757.491L1109.4 883.772L1215.77 982.767L1215.05 982.807L1076.97 990.147L1021.05 1101.72L1020.68 1101.1L951.862 980.018L810.934 949.976L811.434 949.545L906.978 867.38L875.8 737.232L1004.34 807.898L1126.01 757.491ZM1214.19 982.175L1108.63 883.941L1108.66 883.77L1125.11 758.636L1004.39 808.65L876.832 738.532L907.766 867.683L812.471 949.63L952.308 979.445L952.402 979.61L1020.96 1100.22L1076.45 989.492L1076.64 989.481L1214.19 982.175Z" fill="#02489F"/>
<path d="M1123.06 761.029L1106.81 884.351L1210.68 981.057L1075.1 988.233L1020.45 1097.2L1020.1 1096.58L952.914 978.315L815.273 948.953L815.767 948.531L909.107 868.302L878.688 741.187L1004.22 810.227L1123.06 761.029ZM1209.12 980.473L1106.05 884.517L1106.08 884.349L1122.18 762.15L1004.26 810.968L1004.09 810.87L879.703 742.46L909.899 868.598L909.771 868.706L816.785 948.621L953.355 977.751L1020.37 1095.72L1074.6 987.592L1074.78 987.582L1209.12 980.473Z" fill="#02489F"/>
<path d="M1120.11 764.567L1120.03 765.201L1104.22 884.936L1205.58 979.349L1073.24 986.325L1019.87 1092.67L1019.53 1092.06L953.973 976.624L819.627 947.926L820.108 947.513L911.242 869.223L881.59 745.151L1004.11 812.567L1120.11 764.567ZM1204.05 978.784L1103.48 885.103L1103.5 884.94L1119.25 765.669L1004.14 813.289L882.578 746.396L912.009 869.505L911.883 869.609L821.089 947.59L954.413 976.055L954.502 976.214L1019.79 1091.21L1072.74 985.697L1072.92 985.688L1204.05 978.784Z" fill="#02489F"/>
<path d="M1117.17 768.1L1117.09 768.724L1101.63 885.515L1200.49 977.638L1071.38 984.411L1019.29 1088.14L1018.95 1087.53L955.035 974.911L823.963 946.886L913.373 870.142L884.473 749.1L1003.97 814.894L1117.17 768.1ZM1198.98 977.074L1100.9 885.675L1100.92 885.515L1116.32 769.182L1004.02 815.605L1003.85 815.512L885.451 750.327L914.124 870.424L914.001 870.53L825.428 946.572L955.464 974.373L955.551 974.53L1019.21 1086.72L1070.9 983.799L1071.08 983.791L1198.98 977.074Z" fill="#02489F"/>
<path d="M1114.22 771.64L1099.04 886.096L1195.39 975.927L1069.52 982.501L1018.69 1083.6L956.086 973.207L828.327 945.866L915.504 871.065L887.346 753.051L1003.84 817.217L1114.22 771.64ZM1193.92 975.379L1098.33 886.254L1113.39 772.699L1003.89 817.927L888.32 754.263L916.238 871.341L916.12 871.446L829.748 945.551L956.511 972.671L1018.62 1082.2L1069.04 981.897L1069.21 981.889L1193.92 975.379Z" fill="#02489F"/>
<path d="M1111.28 775.176L1096.45 886.68L1190.3 974.221L1189.64 974.254L1067.66 980.588L1018.11 1079.08L957.149 971.51L832.672 944.842L917.635 871.988L890.254 757.017L1003.73 819.559L1111.28 775.176ZM1188.85 973.676L1095.74 886.827L1110.46 776.215L1003.77 820.246L1003.61 820.157L891.196 758.195L918.349 872.248L918.23 872.348L834.072 944.527L957.557 970.989L957.639 971.139L1018.04 1077.7L1067.19 979.997L1067.36 979.988L1188.85 973.676Z" fill="#02489F"/>
<path d="M1108.33 778.711L1108.25 779.298L1093.86 887.26L1185.21 972.496L1184.57 972.534L1065.8 978.663L1017.53 1074.53L958.209 969.796L837.015 943.785L919.763 872.901L893.148 760.973L1003.61 821.892L1108.33 778.711ZM1183.79 971.989L1093.18 887.409L1107.54 779.713L1003.65 822.558L1003.5 822.469L894.074 762.12L920.492 873.17L920.374 873.267L838.396 943.504L958.602 969.307L958.683 969.453L1017.46 1073.2L1065.34 978.096L1065.51 978.085L1183.79 971.989Z" fill="#02489F"/>
<path d="M1105.39 782.247L1105.31 782.82L1091.28 887.827L1180.11 970.797L1179.47 970.84L1063.93 976.765L1016.94 1070.01L959.265 968.101L841.379 942.774L841.816 942.397L921.902 873.826L896.04 764.928L1003.48 824.229L1105.39 782.247ZM1178.72 970.271L1090.6 887.987L1104.6 783.244L1003.52 824.881L1003.37 824.793L896.95 766.066L922.595 874.087L922.481 874.185L842.722 942.48L959.655 967.602L959.736 967.747L1016.87 1068.69L1063.49 976.194L1063.65 976.186L1178.72 970.271Z" fill="#02489F"/>
<path d="M1102.44 785.786L1088.68 888.423L1175.02 969.093L1062.08 974.855L1016.35 1065.47L1016.04 1064.93L960.322 966.403L845.725 941.746L846.156 941.377L924.039 874.756L898.93 768.887L1003.36 826.555L1102.44 785.786ZM1173.66 968.58L1088.02 888.567L1101.67 786.761L1003.39 827.201L1003.25 827.117L899.812 769.996L924.719 875.004L924.609 875.101L847.047 941.46L960.705 965.917L1016.29 1064.19L1061.63 974.293L1061.79 974.284L1173.66 968.58Z" fill="#02489F"/>
<path d="M1099.49 789.321L1086.09 889.005L1169.92 967.382L1060.22 972.943L1015.77 1060.95L961.379 964.702L850.077 940.717L850.498 940.359L926.166 875.671L901.814 772.839L1003.23 828.883L1099.49 789.321ZM1168.6 966.865L1085.44 889.145L1085.46 889.004L1098.74 790.275L1003.27 829.521L902.693 773.918L926.828 875.921L926.72 876.015L851.372 940.42L961.754 964.223L961.831 964.362L1015.7 1059.68L1059.79 972.398L1059.94 972.39L1168.6 966.865Z" fill="#02489F"/>
<path d="M1096.55 792.86L1083.5 889.587L1164.83 965.671L1164.24 965.699L1058.35 971.028L1015.19 1056.41L962.436 962.999L854.429 939.687L928.303 876.595L904.716 776.8L905.256 777.112L1003.12 831.221L1096.55 792.86ZM1163.54 965.172L1082.88 889.729L1082.9 889.591L1095.81 793.809L1003.13 831.845L1003 831.765L905.543 777.869L928.95 876.837L928.839 876.929L855.688 939.41L962.804 962.533L962.879 962.667L1015.12 1055.18L1057.94 970.491L1058.09 970.481L1163.54 965.172Z" fill="#02489F"/>
<path d="M1093.6 796.395L1093.53 796.923L1080.91 890.169L1159.73 963.96L1056.5 969.116L1014.61 1051.87L1014.32 1051.37L963.495 961.295L858.78 938.653L930.431 877.515L907.606 780.755L1003 833.554L1093.6 796.395ZM1158.47 963.48L1080.29 890.302L1080.31 890.166L1092.89 797.293L1003.03 834.16L908.434 781.801L931.067 877.754L930.962 877.842L860.007 938.387L963.856 960.841L963.928 960.973L1014.54 1050.67L1056.09 968.589L1056.24 968.58L1158.47 963.48Z" fill="#02489F"/>
<path d="M1090.66 799.937L1090.59 800.448L1078.32 890.751L1154.64 962.253L1054.64 967.208L1014.02 1047.35L964.556 959.596L863.132 937.625L932.566 878.44L910.499 784.713L1002.86 835.881L1090.66 799.937ZM1153.4 961.787L1077.72 890.883L1089.96 800.826L1002.91 836.477L1002.77 836.401L911.304 785.729L933.191 878.661L933.089 878.746L864.338 937.355L964.921 959.149L964.995 959.278L1013.96 1046.17L1054.23 966.7L1153.4 961.787Z" fill="#02489F"/>
<path d="M1087.71 803.471L1087.65 803.972L1075.73 891.332L1149.54 960.542L1052.77 965.294L1013.43 1042.82L1013.15 1042.33L965.607 957.893L867.471 936.606L934.676 879.363L913.39 788.67L1002.75 838.208L1087.71 803.471ZM1148.33 960.095L1075.14 891.46L1075.16 891.33L1087.03 804.341L1002.78 838.789L914.181 789.657L935.3 879.587L935.201 879.674L868.652 936.342L965.955 957.461L966.026 957.588L1013.36 1041.68L1052.39 964.816L1052.53 964.812L1148.33 960.095Z" fill="#02489F"/>
<path d="M1084.78 807.002L1073.14 891.915L1144.45 958.834L1050.92 963.385L1012.85 1038.29L966.671 956.193L871.831 935.576L872.205 935.257L936.833 880.281L916.284 792.63L916.778 792.915L1002.64 840.556L1084.78 807.002ZM1143.27 958.386L1072.57 892.037L1072.59 891.911L1084.1 807.847L1002.66 841.118L1002.53 841.043L917.05 793.598L937.42 880.505L937.324 880.585L872.98 935.318L967.01 955.768L967.08 955.89L1012.79 1037.16L1050.52 962.89L1050.66 962.886L1143.27 958.386Z" fill="#02489F"/>
<path d="M1081.82 810.547L1070.55 892.498L1139.36 957.125L1049.05 961.471L1012.25 1033.76L967.716 954.489L876.168 934.538L876.539 934.222L938.959 881.204L919.181 796.572L1002.52 842.893L1081.82 810.547ZM1138.19 956.681L1069.97 892.618L1069.99 892.491L1081.17 811.374L1002.54 843.43L919.92 797.529L939.534 881.42L939.438 881.5L877.295 934.296L968.049 954.076L968.119 954.199L1012.2 1032.66L1048.68 960.997L1138.19 956.681Z" fill="#02489F"/>
<path d="M1078.88 814.082L1067.96 893.078L1134.26 955.414L1133.75 955.439L1047.19 959.561L1011.68 1029.22L968.786 952.788L880.534 933.506L880.889 933.205L941.092 882.124L922.066 800.543L1002.38 845.22L1078.88 814.082ZM1133.14 954.989L1067.42 893.189L1067.43 893.067L1078.24 814.888L1002.4 845.746L1002.27 845.675L922.778 801.455L941.655 882.338L941.561 882.415L881.618 933.268L969.099 952.381L969.166 952.501L1011.61 1028.14L1046.84 959.082L1046.97 959.075L1133.14 954.989Z" fill="#02489F"/>
</svg>
