<svg width="340" height="340" viewBox="0 0 340 340" fill="none" xmlns="http://www.w3.org/2000/svg">
<g clip-path="url(#clip0)">
<mask id="mask0" mask-type="alpha" maskUnits="userSpaceOnUse" x="0" y="-1" width="341" height="341">
<ellipse rx="169.98" ry="169.949" transform="matrix(1 0 0.00010514 1 170.494 169.695)" fill="#C4C4C4"/>
</mask>
<g mask="url(#mask0)">
<path d="M-526.155 176.721L-38.4493 213.383L266.38 616.424L266.785 614.931L384.378 186.437L842.123 89.5136L840.661 88.4584L427.326 -212.895L405.404 -675.852L404.098 -675.009L31.0625 -432.758L-440.236 -621.945L-256.803 -169.298L-526.155 176.721ZM-37.6753 211.848L-38.1053 211.828L-522.839 175.391L-254.895 -168.844L-255.064 -169.257L-437.383 -619.14L31.471 -430.945L31.7996 -431.154L403.87 -672.777L425.683 -212.233L426.061 -211.961L838.325 88.6154L382.954 185.034L382.856 185.41L265.584 612.788L-37.6753 211.848Z" fill="#02489F"/>
<path d="M-514.977 172.905L-36.7671 212.011L264.69 605.534L265.103 604.074L383.575 185.337L831.144 87.1973L829.729 86.1759L426.395 -211.587L401.552 -665.765L400.27 -664.95L32.5358 -430.254L-430.387 -612.81L-429.776 -611.267L-253.707 -168.435L-514.977 172.905ZM-36.0079 210.497L-36.4295 210.465L-511.754 171.598L-251.845 -168.002L-252.002 -168.401L-427.606 -610.084L32.9351 -428.466L33.2668 -428.673L400.049 -662.788L424.781 -210.94L425.149 -210.674L827.432 86.3212L382.167 183.955L382.066 184.329L263.895 601.983L-36.0079 210.497Z" fill="#02489F"/>
<path d="M-503.8 169.094L-502.181 169.236L-35.0793 210.648L263.005 594.648L263.418 593.232L382.784 184.248L820.176 84.8945L425.476 -210.292L397.717 -655.701L396.464 -654.914L34.0091 -427.745L-420.551 -603.657L-419.964 -602.154L-250.634 -167.588L-503.8 169.094ZM-34.3307 209.149L-34.748 209.111L-500.655 167.811L-248.782 -167.153L-248.941 -167.549L-417.826 -601.007L34.3957 -425.988L34.7244 -426.198L396.261 -652.779L423.88 -209.645L424.236 -209.388L816.562 84.036L381.402 182.88L262.235 591.186L-34.3307 209.149Z" fill="#02489F"/>
<path d="M-492.623 165.28L-491.055 165.43L-33.3909 209.274L261.314 583.759L381.98 183.168L809.207 82.588L807.891 81.5892L424.554 -208.998L393.881 -645.636L392.654 -644.884L35.4795 -425.237L-410.696 -594.53L-410.136 -593.068L-247.547 -166.734L-492.623 165.28ZM-32.6563 207.8L-33.0694 207.756L-489.568 164.022L-245.725 -166.303L-245.886 -166.696L-408.047 -591.935L35.8708 -423.499L36.1889 -423.694L392.454 -642.778L422.973 -208.353L423.321 -208.102L805.682 81.7487L380.608 181.803L380.493 182.166L260.541 580.389L-32.6563 207.8Z" fill="#02489F"/>
<path d="M-481.447 161.465L-479.919 161.621L-31.711 207.898L259.622 572.865L260.037 571.539L381.198 182.06L798.242 80.2803L423.641 -207.705L390.051 -635.58L388.853 -634.856L36.9447 -422.741L-400.848 -585.394L-400.315 -583.969L-244.464 -165.883L-481.447 161.465ZM-30.9838 206.459L-478.465 160.252L-242.667 -165.447L-242.806 -165.815L-398.262 -582.858L37.3386 -421.02L37.6505 -421.205L388.651 -632.783L422.069 -207.054L422.408 -206.81L794.804 79.4631L379.851 180.735L379.746 181.078L258.896 569.582L-30.9838 206.459Z" fill="#02489F"/>
<path d="M-470.265 157.64L-30.021 206.537L257.94 561.986L258.354 560.704L380.402 180.971L787.255 77.9903L422.693 -206.377L386.2 -625.496L38.4208 -420.226L-390.998 -576.249L-390.495 -574.864L-241.371 -165.03L-470.265 157.64ZM-29.3061 205.102L-29.6902 205.062L-467.362 156.463L-239.606 -164.605L-239.738 -164.963L-388.489 -573.786L38.8032 -418.544L39.1058 -418.723L384.844 -622.779L421.166 -205.765L421.494 -205.529L783.922 77.1688L379.071 179.666L378.964 180L257.219 558.782L-29.3061 205.102Z" fill="#02489F"/>
<path d="M-459.113 153.831L-28.336 205.17L256.251 551.104L379.604 179.878L776.297 75.6709L421.767 -205.093L382.347 -615.428L39.8855 -417.725L-381.161 -567.111L-380.683 -565.766L-238.303 -164.153L-459.113 153.831ZM-27.6329 203.759L-28.0048 203.713L-456.26 152.681L-236.545 -163.755L-378.708 -564.706L40.2693 -416.051L381.037 -612.776L420.261 -204.466L420.577 -204.238L773.038 74.8892L378.297 178.596L378.191 178.916L255.559 547.984L-27.6329 203.759Z" fill="#02489F"/>
<path d="M-447.921 150.026L-446.526 150.207L-26.645 203.792L254.571 540.207L378.814 178.784L765.332 73.3654L420.853 -203.785L378.516 -605.352L377.401 -604.725L41.3567 -415.2L-371.315 -557.973L-370.866 -556.667L-235.207 -163.313L-447.921 150.026ZM-25.9697 202.4L-26.3286 202.355L-445.172 148.891L-233.485 -162.909L-233.601 -163.247L-368.926 -555.633L41.7332 -413.572L42.023 -413.733L377.231 -602.776L419.358 -203.173L419.65 -202.962L762.147 72.5922L377.522 177.499L377.416 177.807L253.882 537.175L-25.9697 202.4Z" fill="#02489F"/>
<path d="M-436.749 146.216L-435.4 146.399L-24.9664 202.435L252.876 529.327L253.288 528.178L378.021 177.697L754.364 71.0617L419.934 -202.491L374.683 -595.292L42.8355 -412.706L-361.47 -548.833L-232.122 -162.453L-436.749 146.216ZM-24.2828 201.063L-434.061 145.116L-230.435 -162.043L-359.157 -546.543L43.2033 -411.084L43.4817 -411.235L373.424 -592.772L418.455 -201.876L418.734 -201.648L751.271 70.32L376.748 176.448L376.643 176.747L252.211 526.374L-24.2828 201.063Z" fill="#02489F"/>
<path d="M-425.576 142.403L-424.27 142.596L-23.281 201.068L251.191 518.447L251.598 517.339L377.233 176.62L743.404 68.7707L419.006 -201.161L370.835 -585.208L369.773 -584.636L44.307 -410.197L-351.634 -539.683L-351.237 -538.459L-229.037 -161.596L-425.576 142.403ZM-22.6073 199.715L-22.941 199.666L-422.976 141.338L-227.393 -161.186L-349.39 -537.456L44.6648 -408.604L369.618 -582.77L417.543 -200.587L417.823 -200.359L740.37 68.0401L375.974 175.377L375.87 175.663L250.542 515.568L-22.6073 199.715Z" fill="#02489F"/>
<path d="M-414.404 138.599L-21.595 199.701L249.503 507.565L249.898 506.511L376.435 175.518L732.425 66.4573L418.073 -199.865L366.994 -575.138L45.7853 -407.696L-341.778 -530.56L-225.951 -160.743L-414.404 138.599ZM-20.9311 198.368L-21.2518 198.319L-411.858 137.553L-224.306 -160.355L-224.401 -160.655L-339.586 -528.397L46.1265 -406.111L46.3893 -406.247L365.813 -572.768L416.647 -199.288L416.904 -199.071L729.498 65.7635L375.202 174.306L248.872 504.766L-20.9311 198.368Z" fill="#02489F"/>
<path d="M-403.225 134.777L-19.9135 198.326L247.81 496.674L248.216 495.65L375.642 174.423L721.467 64.1446L720.498 63.3116L417.141 -198.555L363.149 -565.058L362.146 -564.549L47.2442 -405.17L-331.938 -521.421L-222.869 -159.893L-403.225 134.777ZM-19.2556 197.02L-19.5612 196.969L-400.753 133.767L-221.242 -159.504L-221.33 -159.795L-329.803 -519.321L47.6111 -403.633L47.8647 -403.762L362.007 -562.766L415.746 -197.996L415.989 -197.784L718.615 63.4747L374.416 173.244L374.313 173.504L247.195 493.971L-19.2556 197.02Z" fill="#02489F"/>
<path d="M-392.051 130.968L-390.871 131.181L-18.2244 196.964L246.128 485.794L374.85 173.333L710.506 61.8469L709.582 61.0326L416.225 -197.267L359.314 -554.998L358.34 -554.518L48.7263 -402.677L-322.098 -512.278L-321.785 -511.16L-219.78 -159.03L-392.051 130.968ZM-17.5821 195.673L-17.8748 195.623L-389.65 129.988L-218.187 -158.656L-320.022 -510.244L49.0678 -401.154L49.3099 -401.274L358.199 -552.763L414.841 -196.699L415.073 -196.496L707.724 61.2045L373.651 172.159L373.548 172.407L245.535 483.153L-17.5821 195.673Z" fill="#02489F"/>
<path d="M-380.879 127.153L-379.751 127.364L-16.5395 195.594L244.434 474.915L374.054 172.239L699.532 59.5344L698.65 58.7416L415.306 -195.959L355.478 -544.921L50.1898 -400.154L-312.258 -503.124L-311.961 -502.057L-216.695 -158.175L-380.879 127.153ZM-15.907 194.323L-16.1845 194.27L-378.548 126.202L-215.131 -157.809L-215.205 -158.077L-310.247 -501.172L50.532 -398.675L354.39 -542.761L413.938 -195.407L414.156 -195.209L696.845 58.9023L372.877 171.085L372.777 171.317L243.866 472.344L-15.907 194.323Z" fill="#02489F"/>
<path d="M-369.709 123.342L-14.8547 194.225L242.749 464.025L243.152 463.128L373.259 171.147L688.567 57.2298L687.727 56.4586L414.369 -194.663L351.634 -534.868L350.718 -534.449L51.6592 -397.656L-302.421 -493.996L-213.619 -157.312L-369.709 123.342ZM-14.232 192.974L-14.4964 192.922L-367.446 122.418L-212.065 -156.958L-212.131 -157.211L-300.456 -492.091L51.9991 -396.192L52.2234 -396.294L350.571 -532.742L413.018 -194.102L413.227 -193.911L685.96 56.6157L372.1 170.011L372.003 170.231L242.194 461.535L-14.232 192.974Z" fill="#02489F"/>
<path d="M-358.537 119.531L-13.1707 192.859L241.056 453.154L372.468 170.056L677.603 54.925L413.448 -193.342L347.798 -524.782L53.1376 -395.157L-292.572 -484.87L-292.323 -483.878L-210.526 -156.465L-358.537 119.531ZM-12.5663 191.639L-12.8177 191.587L-356.35 118.65L-209.013 -156.091L-209.073 -156.335L-290.682 -482.997L53.465 -393.707L53.68 -393.802L346.774 -522.754L412.117 -192.804L675.074 54.3317L371.314 168.956L371.218 169.163L240.516 450.747L-12.5663 191.639Z" fill="#02489F"/>
<path d="M-347.365 115.717L-11.4856 191.491L239.371 442.247L371.654 168.946L666.619 52.6028L665.864 51.8746L412.528 -192.061L343.967 -514.741L54.6111 -392.652L-282.739 -475.742L-282.531 -474.797L-207.441 -155.608L-347.365 115.717ZM-10.8825 190.279L-11.121 190.227L-345.251 114.864L-205.947 -155.257L-206.001 -155.484L-280.893 -473.931L54.9293 -391.226L55.133 -391.311L342.969 -512.747L411.219 -191.528L411.399 -191.353L664.184 52.0408L370.548 167.866L370.457 168.06L238.855 439.924L-10.8825 190.279Z" fill="#02489F"/>
<path d="M-336.195 111.907L-9.80663 190.119L237.689 431.378L238.081 430.607L370.88 167.875L655.671 50.3197L654.958 49.6131L411.596 -190.751L340.117 -504.66L339.285 -504.327L56.0792 -390.146L-272.888 -466.595L-272.688 -465.682L-204.359 -154.753L-336.195 111.907ZM-9.20747 188.931L-9.43289 188.88L-334.135 111.068L-202.88 -154.418L-202.925 -154.633L-271.104 -464.865L56.3964 -388.743L56.5908 -388.821L339.16 -502.743L410.326 -190.235L410.491 -190.071L653.291 49.7537L369.784 166.78L369.692 166.963L237.191 429.104L-9.20747 188.931Z" fill="#02489F"/>
<path d="M-325.021 108.094L-324.099 108.314L-8.11545 188.75L236.006 420.495L370.099 166.789L644.722 48.0189L410.683 -189.441L336.289 -494.589L335.485 -494.277L57.5633 -387.628L-263.03 -457.461L-262.852 -456.587L-201.268 -153.902L-325.021 108.094ZM-7.52898 187.58L-7.73633 187.529L-323.03 107.282L-199.825 -153.56L-199.864 -153.758L-261.326 -455.775L57.8646 -386.259L335.355 -492.741L409.428 -188.946L409.582 -188.79L642.427 47.4599L369.034 165.703L368.944 165.87L235.543 418.29L-7.52898 187.58Z" fill="#02489F"/>
<path d="M-313.854 104.287L-312.983 104.522L-6.43033 187.387L234.315 409.619L234.699 408.927L369.295 165.696L633.749 45.7133L409.749 -188.142L332.445 -484.525L59.0264 -385.134L-253.207 -448.325L-253.051 -447.489L-198.187 -153.047L-313.854 104.287ZM-5.84807 186.223L-6.04246 186.172L-311.917 103.489L-196.756 -152.719L-196.79 -152.905L-251.545 -446.692L59.3262 -383.775L59.4999 -383.837L331.542 -482.731L408.513 -187.637L408.656 -187.49L631.531 45.1882L368.225 164.646L368.139 164.803L233.839 407.499L-5.84807 186.223Z" fill="#02489F"/>
<path d="M-302.68 100.474L-301.851 100.711L-4.74224 186.017L232.632 398.735L233.009 398.083L368.503 164.601L622.787 43.4066L408.825 -186.841L328.594 -474.472L327.848 -474.216L60.4976 -382.63L-243.354 -439.204L-243.222 -438.408L-195.1 -152.19L-302.68 100.474ZM-4.17823 184.884L-4.3567 184.835L-300.815 99.7132L-193.703 -151.859L-193.73 -152.031L-241.774 -437.617L60.7964 -381.294L60.9579 -381.352L327.737 -472.73L407.61 -186.347L407.738 -186.21L620.633 42.9099L367.454 163.572L232.159 396.679L-4.17823 184.884Z" fill="#02489F"/>
<path d="M-291.51 96.6642L-3.06316 184.658L230.942 387.86L231.319 387.239L367.717 163.498L611.835 41.0854L611.282 40.4718L407.911 -185.555L324.78 -464.41L324.063 -464.181L61.9715 -380.124L-233.526 -430.056L-233.412 -429.295L-192.018 -151.334L-291.51 96.6642ZM-2.4967 183.54L-2.66218 183.492L-289.719 95.9209L-190.653 -151.019L-190.678 -151.176L-231.98 -428.538L62.2641 -378.811L62.4142 -378.859L323.919 -462.705L406.708 -185.052L406.821 -184.926L609.754 40.6103L366.678 162.498L366.591 162.618L230.495 385.868L-2.4967 183.54Z" fill="#02489F"/>
<path d="M-280.343 92.8506L-279.601 93.0916L-1.3745 183.283L229.246 376.967L229.613 376.397L366.904 162.411L600.864 38.7944L600.348 38.2032L406.977 -184.238L320.931 -454.333L63.4441 -377.62L-223.686 -420.927L-223.592 -420.207L-188.933 -150.479L-280.343 92.8506ZM-0.825025 182.189L-0.974553 182.143L-278.604 92.1416L-187.581 -150.159L-187.602 -150.303L-222.19 -419.445L63.7175 -376.329L63.8533 -376.369L320.12 -452.717L405.793 -183.749L405.895 -183.631L598.853 38.3157L365.892 161.417L365.813 161.525L228.814 375.052L-0.825025 182.189Z" fill="#02489F"/>
<path d="M-269.188 89.0315L-268.478 89.2803L0.310012 181.916L227.563 366.094L227.923 365.559L366.114 161.325L589.893 36.4926L406.038 -182.936L317.081 -444.271L316.427 -444.091L64.912 -375.112L-213.848 -411.791L-213.772 -411.107L-185.849 -149.625L-269.188 89.0315ZM0.83004 180.832L0.701518 180.788L-267.497 88.3589L-184.521 -149.309L-184.536 -149.436L-212.399 -410.366L65.1973 -373.844L316.304 -442.712L404.896 -182.462L404.985 -182.358L587.98 36.0446L365.128 160.35L365.056 160.45L227.176 364.252L0.83004 180.832Z" fill="#02489F"/>
<path d="M-258.004 85.2345L1.9932 180.546L225.881 355.215L365.328 160.234L578.942 34.189L578.501 33.6425L405.125 -181.632L313.253 -434.206L66.3834 -372.609L-204.011 -402.66L-203.955 -402.017L-182.766 -148.771L-258.004 85.2345ZM2.52308 179.491L-256.392 84.5722L-181.459 -148.461L-181.472 -148.573L-202.626 -401.295L66.6604 -371.36L66.7697 -371.388L312.5 -432.701L404.002 -181.161L577.082 33.7478L364.345 159.279L364.283 159.365L225.482 353.445L2.52308 179.491Z" fill="#02489F"/>
<path d="M-246.839 81.4209L-246.226 81.6624L3.67687 179.182L224.2 344.342L224.534 343.878L364.536 159.146L567.968 31.8746L404.186 -180.341L309.401 -424.152L308.807 -424.019L67.8545 -370.104L-194.175 -393.528L-179.683 -147.915L-246.839 81.4209ZM4.19617 178.142L4.09953 178.103L-245.282 80.7858L-178.4 -147.609L-178.405 -147.707L-192.828 -392.203L68.1284 -368.876L68.2204 -368.898L308.688 -422.69L403.085 -179.876L403.148 -179.791L566.19 31.4614L363.582 158.207L363.529 158.28L223.835 342.641L4.19617 178.142Z" fill="#02489F"/>
<path d="M-235.673 77.6149L5.37047 177.805L222.526 333.459L222.863 333.042L363.747 158.061L557.024 29.5885L556.66 29.089L403.278 -179.024L305.578 -414.075L305.017 -413.963L69.3274 -367.601L-184.334 -384.394L-184.304 -383.819L-176.6 -147.057L-235.673 77.6149ZM222.13 331.808L5.85398 176.784L-234.172 77.0069L-175.336 -146.756L-175.341 -146.835L-183.041 -383.117L69.6022 -366.398L69.68 -366.413L304.88 -412.682L402.178 -178.578L402.23 -178.509L555.298 29.1771L362.796 157.13L362.754 157.188L222.13 331.808Z" fill="#02489F"/>
<path d="M-224.507 73.8041L-223.975 74.0407L7.04571 176.451L220.834 322.599L362.955 156.971L546.068 27.2848L402.354 -177.72L301.758 -404.005L301.223 -403.918L70.797 -365.09L-174.5 -375.262L-174.498 -374.734L-173.517 -146.203L-224.507 73.8041ZM220.487 321.009L7.56136 175.453L7.50873 175.415L-223.062 73.2182L-172.276 -145.901L-172.279 -145.966L-173.255 -374.028L71.0615 -363.904L71.1241 -363.917L301.069 -402.668L401.275 -177.284L401.313 -177.226L544.406 26.8887L362.025 156.054L361.989 156.104L220.487 321.009Z" fill="#02489F"/>
<path d="M-213.345 69.998L-212.85 70.2303L8.72971 175.083L219.15 311.725L219.467 311.378L362.171 155.888L535.108 24.9851L534.814 24.5362L401.426 -176.416L297.908 -393.95L72.2688 -362.59L-164.663 -366.133L-164.675 -365.642L-170.435 -145.348L-213.345 69.998ZM218.801 310.188L9.23238 174.085L9.19438 174.057L-211.953 69.4313L-169.195 -145.064L-169.197 -145.11L-163.448 -364.957L72.5278 -361.421L72.5732 -361.428L297.262 -392.667L400.366 -175.989L400.394 -175.947L533.51 24.5993L361.244 154.978L361.219 155.013L218.801 310.188Z" fill="#02489F"/>
<path d="M-202.176 66.1869L-201.726 66.4135L10.442 173.73L217.456 300.847L361.391 154.772L524.161 22.6773L400.497 -175.144L294.078 -383.894L293.601 -383.849L73.7088 -360.09L-154.829 -357.007L-154.858 -356.573L-167.361 -144.521L-202.176 66.1869ZM217.135 299.37L10.9336 172.759L-200.837 65.6443L-166.144 -144.205L-166.13 -144.226L-153.655 -355.856L73.9851 -358.926L293.458 -382.64L399.45 -174.721L522.618 22.3086L360.492 153.886L217.135 299.37Z" fill="#02489F"/>
<path d="M-191.015 62.3736L-190.602 62.5959L12.1003 172.347L215.781 289.959L360.587 153.695L513.206 20.3747L512.975 19.9802L399.584 -173.827L290.241 -373.835L289.804 -373.803L75.202 -357.585L-144.992 -347.876L-164.268 -143.642L-191.015 62.3736ZM215.46 288.549L12.5858 171.402L-189.728 61.8603L-163.084 -143.367L-143.883 -346.781L75.4525 -356.453L289.635 -372.639L398.551 -173.412L511.721 20.0171L359.708 152.806L215.46 288.549Z" fill="#02489F"/>
<path d="M-179.855 58.569L13.7683 170.98L214.089 279.101L214.371 278.858L359.78 152.622L502.245 18.074L502.059 17.7162L398.68 -172.497L286.401 -363.773L285.998 -363.756L76.6915 -355.08L-135.169 -338.754L-135.22 -338.376L-161.196 -142.776L-179.855 58.569ZM213.785 277.735L14.2438 170.038L-178.605 58.0564L-160.023 -142.505L-134.095 -337.693L76.9346 -353.963L285.819 -362.621L397.641 -172.099L500.82 17.7325L358.905 151.758L213.785 277.735Z" fill="#02489F"/>
<path d="M-168.693 54.7603L15.4926 169.634L212.403 268.223L212.667 268.011L359.001 151.523L359.018 151.499L491.302 15.7615L397.729 -171.251L282.576 -353.724L282.206 -353.723L78.1552 -352.583L78.125 -352.578L-125.324 -329.622L-125.386 -329.283L-158.112 -141.94L-158.127 -141.919L-168.693 54.7603ZM15.9362 168.687L-167.497 54.2799L-156.953 -141.661L-124.296 -328.612L78.3938 -351.478L282.012 -352.609L396.739 -170.81L489.926 15.4378L358.136 150.67L212.116 266.913L15.9362 168.687Z" fill="#02489F"/>
<path d="M-157.533 50.9528L-157.24 51.1638L17.1452 168.257L17.189 168.289L210.71 257.364L210.961 257.183L358.22 150.456L358.25 150.415L480.354 13.4842L480.213 13.1732L396.83 -169.918L396.789 -169.947L278.739 -343.66L278.4 -343.672L79.6258 -350.079L79.5755 -350.071L-115.492 -320.497L-115.559 -320.193L-155.022 -141.087L-155.022 -141.038L-157.533 50.9528ZM17.6138 167.336L-156.395 50.4793L-153.888 -140.804L-114.516 -319.507L79.862 -348.989L278.199 -342.598L395.831 -169.513L479.025 13.1502L357.358 149.592L210.442 256.091L17.6138 167.336Z" fill="#02489F"/>
<path d="M18.8265 166.895L18.8908 166.942L209.036 246.487L209.265 246.335L357.412 149.364L357.453 149.308L469.386 11.1786L469.272 10.8996L395.894 -168.602L395.848 -168.667L274.908 -333.605L81.0231 -347.566L-105.666 -311.363L-105.737 -311.098L-151.957 -140.214L-151.956 -140.142L-146.374 47.1473L-146.114 47.3351L18.8265 166.895ZM208.769 245.272L19.2959 165.98L-145.272 46.6977L-150.821 -139.952L-104.712 -310.429L81.3304 -346.5L274.384 -332.577L394.922 -168.215L468.125 10.862L356.579 148.517L208.769 245.272Z" fill="#02489F"/>
<path d="M20.5184 165.526L20.6032 165.587L207.352 235.623L207.562 235.498L356.634 148.269L356.687 148.196L458.451 8.87194L458.36 8.62287L394.997 -167.301L394.932 -167.383L271.071 -323.547L82.5652 -345.079L82.4732 -345.056L-95.8325 -302.245L-95.9067 -302.013L-148.872 -139.373L-148.865 -139.278L-135.208 43.3324L-134.98 43.497L20.5184 165.526ZM207.095 234.451L20.9708 164.634L-134.147 42.9154L-147.759 -139.104L-94.922 -301.338L82.7973 -344.015L270.563 -322.565L394.015 -166.938L457.238 8.56305L355.811 147.425L207.095 234.451Z" fill="#02489F"/>
<path d="M22.1896 164.175L22.3123 164.214L205.667 224.757L205.858 224.658L355.847 147.183L355.912 147.093L447.516 6.58079L447.447 6.36162L394.084 -166L267.255 -313.485L267.022 -313.519L84.0378 -342.588L83.9263 -342.556L-86.0116 -293.133L-86.0893 -292.939L-145.8 -138.52L-145.785 -138.398L-124.059 39.5379L-123.871 39.696L22.1896 164.175ZM205.422 223.624L22.6513 163.276L-123.035 39.1347L-144.685 -138.247L-85.1391 -292.253L84.272 -341.526L266.754 -312.544L393.099 -165.621L446.332 6.293L355.04 146.373L205.422 223.624Z" fill="#02489F"/>
<path d="M23.8662 162.817L24.0178 162.859L203.979 213.894L355.058 146.104L355.139 145.992L436.546 4.28037L436.498 4.09407L393.142 -164.691L393.035 -164.808L263.407 -303.44L263.206 -303.482L85.5036 -340.085L85.3686 -340.039L-76.1795 -283.997L-142.727 -137.665L-142.701 -137.521L-112.908 35.7342L-112.756 35.8801L23.8662 162.817ZM203.745 212.801L24.3258 161.921L-111.911 35.3381L-141.615 -137.394L-75.3365 -283.157L85.7328 -339.022L262.936 -302.521L392.19 -164.333L435.411 3.99233L354.227 145.285L203.745 212.801Z" fill="#02489F"/>
<path d="M25.5477 161.46L202.301 203.033L202.445 202.976L354.275 145.021L354.348 144.877L425.609 1.97499L425.579 1.81436L392.237 -163.406L259.578 -293.388L259.413 -293.431L86.972 -337.591L86.8192 -337.527L-66.3403 -274.89L-66.4125 -274.759L-139.656 -136.813L-139.615 -136.641L-101.753 31.9267L-101.63 32.0515L25.5477 161.46ZM202.073 201.975L26.0044 160.562L-100.785 31.5406L-138.54 -136.548L-65.528 -274.062L87.199 -336.526L259.119 -292.5L391.266 -163.022L424.508 1.70217L353.447 144.196L202.073 201.975Z" fill="#02489F"/>
<path d="M27.2265 160.1L27.4344 160.139L200.615 192.164L200.735 192.127L353.499 143.934L353.571 143.759L414.656 -0.339087L414.636 -0.465224L391.326 -162.113L391.163 -162.257L255.748 -283.341L88.4429 -335.101L88.2703 -335.016L-56.5255 -265.761L-56.5954 -265.664L-136.591 -135.972L-90.6 28.1214L-90.5059 28.225L27.2265 160.1ZM200.4 191.143L27.6932 159.201L-89.663 27.7532L-135.465 -135.69L-55.731 -264.964L88.67 -334.036L255.31 -282.488L390.355 -161.734L413.599 -0.593262L352.663 143.107L200.4 191.143Z" fill="#02489F"/>
<path d="M28.9027 158.745L29.1429 158.775L198.932 181.309L199.027 181.283L352.718 142.853L403.729 -2.62805L403.722 -2.72265L390.416 -160.814L390.214 -160.96L251.918 -273.289L251.819 -273.325L89.9156 -332.613L89.7232 -332.507L-46.7084 -256.629L-46.7613 -256.555L-133.513 -135.092L-133.435 -134.867L-79.4474 24.3171L-79.3825 24.3997L28.9027 158.745ZM198.711 180.328L29.3737 157.839L-78.5486 23.9526L-132.388 -134.834L-45.9412 -255.874L90.1371 -331.534L251.487 -272.458L389.415 -160.438L402.702 -2.87417L351.877 142.023L198.711 180.328Z" fill="#02489F"/>
<path d="M30.5803 157.393L30.8551 157.412L197.253 170.45L197.315 170.437L351.934 141.782L351.999 141.544L392.776 -4.93728L392.774 -5.00159L389.496 -159.528L389.262 -159.696L248.074 -263.254L248.018 -263.294L91.3707 -330.144L91.162 -330.009L-36.8763 -247.523L-36.9123 -247.473L-130.443 -134.257L-130.344 -134.006L-68.2981 20.5176L-68.2582 20.5731L30.5803 157.393ZM197.043 169.477L31.0569 156.473L-67.4099 20.1677L-129.31 -133.979L-36.1314 -246.762L91.6012 -329.04L247.658 -262.419L388.499 -159.113L391.765 -5.16276L351.087 140.934L197.043 169.477Z" fill="#02489F"/>
<path d="M32.2592 156.039L32.5655 156.046L195.572 159.591L195.607 159.585L351.158 140.706L351.215 140.43L381.84 -7.23765L381.842 -7.27168L388.589 -158.235L388.329 -158.422L244.255 -253.224L244.226 -253.245L92.8462 -327.667L92.6193 -327.5L-27.0463 -238.422L-27.0654 -238.395L-127.387 -133.415L-127.255 -133.137L-57.1488 16.7109L-57.1224 16.7299L32.2592 156.039ZM195.375 158.645L32.7442 155.108L-56.282 16.3724L-126.232 -133.131L-26.3387 -237.683L93.0795 -326.53L243.85 -252.41L387.595 -157.836L380.872 -7.48064L350.298 139.839L195.375 158.645Z" fill="#02489F"/>
<path d="M33.9318 154.695L34.271 154.681L193.893 148.726L350.387 139.637L350.429 139.32L370.919 -9.51657L387.705 -156.929L240.437 -243.149L94.3099 -325.153L94.0735 -324.949L-17.237 -229.29L-124.327 -132.566L-124.164 -132.256L-46.007 12.9042L33.9318 154.695ZM349.505 138.746L193.694 147.806L34.4308 153.738L-45.1567 12.5761L-123.139 -132.266L-16.5082 -228.58L94.5503 -324.02L240.035 -242.377L386.661 -156.522L369.949 -9.76167L349.505 138.746Z" fill="#02489F"/>
<path d="M35.5998 153.354L35.9761 153.313L192.231 137.883L349.619 138.56L349.644 138.199L359.987 -11.8379L386.816 -155.625L386.453 -155.812L236.597 -233.116L95.7974 -322.67L95.5388 -322.41L-7.42698 -220.138L-121.277 -131.718L-121.074 -131.383L-34.8491 9.13329L35.5998 153.354ZM348.704 137.654L192.042 136.974L36.115 152.369L-34.011 8.80983L-120.047 -131.414L-6.72312 -219.456L96.0196 -321.505L236.19 -232.373L385.732 -155.225L359.033 -12.0804L348.704 137.654Z" fill="#02489F"/>
<path d="M37.27 152.015L37.6833 151.947L190.535 127.03L348.847 137.507L348.844 137.098L349.054 -14.1106L385.91 -154.343L232.783 -223.071L97.2379 -320.215L96.9828 -319.917L2.3915 -211.073L-118.229 -130.87L-23.7182 5.3117L37.27 152.015ZM347.897 136.549L190.336 126.128L190.284 126.139L37.8018 150.988L-22.8902 4.98987L-116.945 -130.559L3.09513 -210.36L3.11842 -210.392L97.4806 -318.987L232.371 -222.315L232.418 -222.281L384.771 -153.898L348.087 -14.3225L348.087 -14.2733L347.897 136.549Z" fill="#02489F"/>
<path d="M38.9129 150.682L39.3732 150.568L188.848 116.188L348.081 136.444L338.125 -16.4072L385.034 -153.065L384.56 -153.247L228.963 -213.049L98.7126 -317.759L98.4584 -317.406L12.2217 -201.969L-115.182 -130.024L-114.874 -129.632L-12.5759 1.51165L38.9129 150.682ZM347.096 135.448L188.676 115.3L188.599 115.32L39.5025 149.613L-11.7521 1.19564L-113.842 -129.682L12.9044 -201.257L98.9767 -316.461L228.566 -212.283L228.646 -212.252L383.851 -152.603L337.196 -16.6539L337.201 -16.5744L347.096 135.448Z" fill="#02489F"/>
<path d="M40.6049 149.346L41.0935 149.199L187.169 105.338L347.326 135.386L347.246 134.882L327.201 -18.7083L384.143 -151.771L225.138 -202.999L100.172 -315.285L99.9118 -314.875L22.031 -192.852L-112.145 -129.189L-1.43874 -2.29146L40.6049 149.346ZM346.298 134.322L186.981 104.453L186.878 104.485L41.1987 148.221L-0.617046 -2.60448L-0.695825 -2.69255L-110.738 -128.829L22.7171 -192.152L22.7785 -192.237L100.452 -313.936L224.748 -202.249L224.86 -202.213L382.905 -151.294L326.263 -18.9483L326.278 -18.8394L346.298 134.322Z" fill="#02489F"/>
<path d="M42.2657 148.029L185.491 94.5005L346.574 134.345L346.464 133.77L316.274 -20.9969L383.264 -150.48L382.667 -150.638L221.314 -192.955L101.631 -312.828L31.8528 -183.751L-109.117 -128.34L-108.678 -127.889L9.70257 -6.08053L42.2657 148.029ZM345.469 133.226L185.31 93.6061L185.186 93.6549L42.8973 146.834L10.5256 -6.40153L10.4235 -6.50648L-107.619 -127.963L32.5232 -183.035L32.5973 -183.138L101.932 -311.384L220.913 -192.208L221.051 -192.171L381.953 -149.975L315.343 -21.2356L315.37 -21.1002L345.469 133.226Z" fill="#02489F"/>
<path d="M43.9194 146.713L44.4935 146.453L183.814 83.6459L345.843 133.302L305.363 -23.2947L382.421 -149.193L217.486 -182.922L103.088 -310.386L102.838 -309.829L41.6494 -174.633L-106.102 -127.5L-105.569 -127.008L20.8454 -9.86357L43.9194 146.713ZM344.636 132.115L183.618 82.7721L183.478 82.8363L44.6057 145.423L21.6566 -10.193L21.5261 -10.314L-104.513 -127.103L42.3384 -173.93L42.401 -174.072L103.401 -308.852L217.093 -182.174L217.254 -182.139L380.985 -148.658L304.413 -23.5301L304.453 -23.3711L344.636 132.115Z" fill="#02489F"/>
<path d="M45.575 145.406L182.134 72.807L345.092 132.267L294.425 -25.5908L381.534 -147.925L380.77 -148.03L213.669 -172.891L104.549 -307.959L104.311 -307.314L51.4623 -165.529L-103.093 -126.665L31.9802 -13.6841L45.575 145.406ZM343.816 130.967L181.952 71.9076L181.792 71.9932L46.3102 144.017L32.7925 -13.9904L-101.358 -126.229L52.1563 -164.827L52.2179 -164.993L104.884 -306.297L213.272 -172.137L380.016 -147.342L293.49 -25.8287L343.816 130.967Z" fill="#02489F"/>
<path d="M47.2111 144.109L47.8773 143.698L180.455 61.9706L344.367 131.249L283.505 -27.8798L380.699 -146.653L209.844 -162.854L105.995 -305.535L105.779 -304.798L61.2696 -156.423L-100.101 -125.835L43.1064 -17.4725L47.2111 144.109ZM342.966 129.826L180.268 61.0589L180.096 61.1672L48.0193 142.595L43.9373 -17.7923L43.7502 -17.9273L-98.2129 -125.347L61.9605 -155.692L62.0202 -155.885L106.354 -303.709L209.456 -162.089L209.677 -162.068L379.046 -146.002L282.574 -28.1105L282.656 -27.9039L342.966 129.826Z" fill="#02489F"/>
<path d="M49.2743 139.911L179.924 59.3274L340.683 127.245L340.385 126.462L280.969 -28.8101L376.266 -145.305L208.708 -161.171L106.845 -301.089L63.0039 -154.842L-95.2445 -124.817L-94.5389 -124.285L45.2131 -18.5644L49.2743 139.911ZM339.307 125.849L179.744 58.43L179.575 58.5354L50.0648 138.415L46.0347 -18.8774L45.8477 -19.0125L-93.3858 -124.337L63.6951 -154.142L63.7504 -154.33L107.197 -299.29L208.315 -160.423L208.533 -160.404L374.622 -144.679L280.037 -29.0458L280.113 -28.8434L339.307 125.849Z" fill="#02489F"/>
<path d="M51.3308 135.707L51.9764 135.312L179.398 56.6931L336.997 123.248L278.425 -29.7368L371.821 -143.961L207.575 -159.481L107.692 -296.634L64.7412 -153.254L-90.3905 -123.796L47.3249 -19.6523L51.3308 135.707ZM335.645 121.875L179.219 55.8269L179.051 55.9293L52.1102 134.239L48.1293 -19.9599L-88.5543 -123.327L65.4177 -152.565L65.473 -152.752L108.048 -294.878L207.185 -158.749L207.4 -158.728L370.217 -143.334L277.514 -29.9658L277.593 -29.7663L335.645 121.875Z" fill="#02489F"/>
<path d="M53.3863 131.512L54.0218 131.118L178.86 54.0535L333.309 119.255L333.02 118.497L275.894 -30.65L367.398 -142.598L206.437 -157.79L108.535 -292.179L66.4715 -151.662L-85.5383 -122.771L49.4255 -20.7304L53.3863 131.512ZM331.976 117.904L178.681 53.1923L178.519 53.2939L54.1509 130.064L50.2291 -21.043L50.0478 -21.1739L-83.7289 -122.309L67.1406 -150.987L67.1938 -151.172L108.886 -290.448L206.056 -157.065L206.264 -157.045L365.808 -141.991L274.993 -30.8806L275.069 -30.6833L331.976 117.904Z" fill="#02489F"/>
<path d="M55.4398 127.31L56.0665 126.91L178.329 51.4182L329.625 115.258L273.358 -31.5724L362.957 -141.244L362.156 -141.317L205.298 -156.101L109.37 -287.731L109.164 -287.031L68.2058 -150.073L-80.6815 -121.745L-80.008 -121.237L51.5343 -21.8172L55.4398 127.31ZM328.313 113.927L178.157 50.5662L177.991 50.6657L56.1904 125.888L52.3185 -22.1216L-78.8963 -121.305L68.8603 -149.409L68.9165 -149.591L109.726 -286.023L204.923 -155.39L361.395 -140.644L272.467 -31.7916L272.541 -31.5993L328.313 113.927Z" fill="#02489F"/>
<path d="M57.4823 123.098L177.8 48.779L325.939 111.259L270.822 -32.4957L358.539 -139.892L204.165 -154.414L110.226 -283.273L110.02 -282.587L69.9399 -148.49L-75.8248 -120.725L53.6458 -22.9079L57.4823 123.098ZM324.636 109.94L177.616 47.9316L177.456 48.0303L58.2356 121.709L54.4128 -23.2068L54.2403 -23.3313L-74.0799 -120.278L70.5856 -147.832L70.6367 -148.014L110.56 -281.603L203.793 -153.714L203.998 -153.696L356.991 -139.305L269.951 -32.7182L270.023 -32.528L324.636 109.94Z" fill="#02489F"/>
<path d="M59.5505 118.908L60.1531 118.535L177.266 46.1384L322.254 107.26L321.978 106.538L268.285 -33.4212L354.094 -138.548L203.026 -152.724L111.073 -278.819L71.6741 -146.899L-70.973 -119.696L-70.3229 -119.204L55.7537 -23.998L59.5505 118.908ZM320.985 105.973L177.098 45.3167L176.94 45.4124L60.2772 117.531L56.5093 -24.2873L56.3251 -24.4202L-69.2654 -119.271L72.3094 -146.258L72.3613 -146.434L111.401 -277.166L202.664 -152.056L202.864 -152.037L352.571 -137.978L267.413 -33.6488L267.482 -33.4607L320.985 105.973Z" fill="#02489F"/>
<path d="M61.603 114.706L62.1964 114.34L176.726 43.4889L318.561 103.262L318.29 102.553L265.743 -34.3426L349.656 -137.2L348.894 -137.272L201.877 -151.041L111.904 -274.372L73.4043 -145.312L-66.1138 -118.68L57.8593 -25.0818L61.603 114.706ZM317.322 101.997L176.568 42.6916L176.415 42.7865L62.3158 113.355L58.5998 -25.3686L58.4303 -25.491L-64.4313 -118.251L74.0279 -144.679L74.0778 -144.853L112.244 -272.747L201.531 -150.358L348.175 -136.626L264.901 -34.557L264.972 -34.3719L317.322 101.997Z" fill="#02489F"/>
<path d="M63.6573 110.512L64.2384 110.151L176.195 40.8704L314.881 99.2637L263.214 -35.2649L345.237 -135.861L344.492 -135.931L200.754 -149.346L112.762 -269.912L75.1428 -143.725L-61.262 -117.649L59.9608 -26.1611L63.6573 110.512ZM313.651 98.0281L176.04 40.0672L175.887 40.1622L64.3539 109.19L60.69 -26.4382L60.5321 -26.5522L-59.5997 -117.217L75.7538 -143.106L75.8045 -143.274L113.088 -268.324L200.404 -148.683L200.596 -148.665L343.769 -135.287L262.383 -35.4759L262.451 -35.2929L313.651 98.0281Z" fill="#02489F"/>
<path d="M65.7131 106.305L175.67 38.2241L311.195 95.2683L310.933 94.5838L260.673 -36.1886L340.785 -134.487L340.058 -134.565L199.615 -147.659L113.6 -265.451L113.407 -264.808L76.8741 -142.141L-56.4018 -116.636L62.076 -27.259L65.7131 106.305ZM309.991 94.0467L175.509 37.4428L175.361 37.5369L66.4021 104.999L62.79 -27.5337L-54.7738 -116.224L77.4799 -141.538L113.915 -263.884L199.269 -147.007L199.461 -146.989L339.359 -133.94L259.854 -36.3912L259.921 -36.2132L309.991 94.0467Z" fill="#02489F"/>
<path d="M67.7699 102.103L175.136 35.585L307.508 91.2682L258.135 -37.1098L336.358 -133.147L335.64 -133.219L198.477 -145.972L114.448 -261.008L114.262 -260.375L78.6088 -140.554L-51.5475 -115.614L64.1801 -28.3467L67.7699 102.103ZM306.324 90.0693L174.978 34.8188L174.832 34.9099L68.4419 100.821L64.8848 -28.6147L64.724 -28.7308L-49.9513 -115.207L79.2103 -139.945L79.2567 -140.108L114.766 -259.471L198.137 -145.329L334.952 -132.604L257.332 -37.3098L257.398 -37.1369L306.324 90.0693Z" fill="#02489F"/>
<path d="M69.8244 97.9028L70.3747 97.559L174.605 32.9465L303.822 87.2717L255.598 -38.0353L331.925 -131.795L331.216 -131.86L197.348 -144.288L115.295 -256.554L115.112 -255.936L80.341 -138.965L-46.6847 -114.586L66.2986 -29.4253L69.8244 97.9028ZM302.666 86.0889L174.454 32.1896L174.313 32.2799L70.4874 96.645L66.9794 -29.6972L-45.1241 -114.192L80.9191 -138.373L80.9634 -138.533L115.588 -255.062L197.003 -143.644L197.187 -143.628L330.539 -131.255L254.812 -38.2327L254.877 -38.0648L302.666 86.0889Z" fill="#02489F"/>
<path d="M71.8756 93.7006L72.4196 93.3657L174.071 30.3063L300.135 83.2705L253.06 -38.9576L327.491 -130.447L326.794 -130.504L196.202 -142.593L116.125 -252.112L82.0721 -137.381L-41.8398 -113.571L68.3954 -30.5234L71.8756 93.7006ZM298.991 82.1142L173.92 29.5674L173.781 29.6548L72.5267 92.4655L69.0707 -30.7814L68.9186 -30.8912L-40.3002 -113.178L82.6428 -136.804L82.69 -136.962L116.44 -250.626L195.883 -141.972L196.063 -141.957L326.145 -129.919L252.295 -39.1482L252.361 -38.9803L298.991 82.1142Z" fill="#02489F"/>
<path d="M73.9341 89.5023L173.539 27.6708L296.448 79.277L250.526 -39.878L323.045 -129.101L195.062 -140.905L116.986 -247.645L83.8084 -135.79L-36.9963 -112.558L70.4895 -31.616L73.9341 89.5023ZM295.334 78.1468L173.393 26.9492L74.5712 88.2927L71.1693 -31.8618L-35.4718 -112.163L84.3666 -135.226L84.4146 -135.379L117.281 -246.199L194.742 -140.288L321.729 -128.577L249.769 -40.0674L249.834 -39.9045L295.334 78.1468Z" fill="#02489F"/>
<path d="M75.9875 85.3008L173.01 25.0333L292.766 75.2785L292.525 74.6579L247.986 -40.8016L318.625 -127.744L193.931 -139.214L117.834 -243.199L85.5417 -134.205L-32.1257 -111.526L72.6128 -32.6914L75.9875 85.3008ZM291.662 74.1648L172.855 24.3184L76.6128 84.1138L73.2628 -32.9453L73.1167 -33.0508L-30.6477 -111.146L86.0773 -133.653L86.1203 -133.805L118.121 -241.773L193.618 -138.619L193.79 -138.606L317.322 -127.238L247.245 -40.9884L247.307 -40.8277L291.662 74.1648Z" fill="#02489F"/>
<path d="M78.0415 81.1034L78.5518 80.7844L172.476 22.3958L289.068 71.2948L288.835 70.6805L245.438 -41.7144L314.179 -126.384L192.783 -137.518L118.649 -238.742L87.2646 -132.62L-27.2722 -110.502L74.7182 -33.7804L78.0415 81.1034ZM288.009 70.1867L172.332 21.7024L78.6413 79.9517L75.3526 -34.0189L75.2064 -34.1244L-25.8282 -110.124L87.8148 -132.057L87.8557 -132.206L118.96 -237.348L192.493 -136.951L192.661 -136.937L312.912 -125.897L244.723 -41.9053L244.781 -41.7467L288.009 70.1867Z" fill="#02489F"/>
<path d="M80.0975 76.8984L80.5964 76.5889L171.936 19.7674L285.389 67.2798L285.165 66.6719L242.913 -42.6512L309.755 -125.04L191.653 -135.836L119.52 -234.286L119.351 -233.725L89.0072 -131.029L-22.4159 -109.48L76.8315 -34.873L80.0975 76.8984ZM284.329 66.2158L171.805 19.0744L80.6968 75.7597L77.4508 -35.1089L77.3076 -35.2123L-20.9865 -109.113L89.5345 -130.497L89.5783 -130.644L119.803 -232.921L191.354 -135.267L191.521 -135.253L308.508 -124.557L242.2 -42.827L242.261 -42.6713L284.329 66.2158Z" fill="#02489F"/>
<path d="M82.1528 72.7028L171.412 17.1198L281.71 63.2923L240.38 -43.5619L305.311 -123.692L304.683 -123.752L190.518 -134.144L120.363 -229.831L120.2 -229.279L90.7482 -129.435L-17.561 -108.454L78.932 -35.9516L82.1528 72.7028ZM280.674 62.2502L171.274 16.4537L82.7373 71.5846L79.5433 -36.1888L79.4059 -36.2879L-16.1701 -108.102L91.2588 -128.91L91.3034 -129.052L120.644 -228.49L190.227 -133.586L304.1 -123.209L239.672 -43.7465L239.731 -43.5929L280.674 62.2502Z" fill="#02489F"/>
<path d="M84.2052 68.4995L170.878 14.4787L278.018 59.286L237.838 -44.4922L300.887 -122.339L189.38 -132.458L121.208 -225.38L121.051 -224.841L92.4725 -127.853L-12.7149 -107.44L81.0308 -37.0456L84.2052 68.4995ZM276.997 58.2855L170.744 13.8277L170.621 13.9046L84.7749 67.4019L81.6387 -37.2719L-11.3535 -107.078L92.9777 -127.345L93.0202 -127.484L121.468 -224.058L189.092 -131.912L189.252 -131.899L299.688 -121.874L237.157 -44.6628L237.214 -44.5143L276.997 58.2855Z" fill="#02489F"/>
<path d="M86.2616 64.2973L170.347 11.8413L274.332 55.2907L274.113 54.7311L235.297 -45.4158L296.451 -120.988L188.241 -130.772L122.052 -220.927L94.2095 -126.264L-7.85246 -106.412L-7.34085 -106.042L83.1452 -38.1303L86.2616 64.2973ZM273.336 54.3042L170.224 11.2118L170.103 11.2858L86.8344 63.2199L83.7297 -38.3734L83.5982 -38.4684L-6.52134 -106.094L94.7001 -125.767L94.7397 -125.908L122.316 -219.647L187.962 -130.237L188.117 -130.223L295.282 -120.532L234.627 -45.578L234.682 -45.4315L273.336 54.3042Z" fill="#02489F"/>
<path d="M88.3176 60.0965L88.7765 59.8117L169.818 9.20229L270.647 51.2934L232.763 -46.3369L292.013 -119.628L291.425 -119.681L187.105 -129.082L122.896 -216.472L95.9428 -124.681L-2.99647 -105.391L85.2566 -39.2157L88.3176 60.0965ZM269.68 50.323L169.687 8.57654L169.57 8.65266L88.8536 59.0639L85.8322 -39.4341L-1.68683 -105.062L96.4267 -124.193L96.465 -124.326L123.158 -215.226L186.834 -128.558L186.986 -128.547L290.871 -119.184L232.107 -46.4936L232.161 -46.3522L269.68 50.323Z" fill="#02489F"/>
<path d="M90.3724 55.8979L90.817 55.6206L169.282 6.56658L266.958 47.2969L230.226 -47.2574L287.584 -118.284L185.967 -127.389L123.739 -212.015L97.6751 -123.09L1.85552 -104.365L87.3498 -40.3064L90.3724 55.8979ZM266.015 46.3434L169.157 5.9581L90.9051 54.8762L87.919 -40.516L87.7933 -40.6068L3.12746 -104.045L98.1381 -122.604L98.1742 -122.734L123.987 -210.787L185.704 -126.864L185.854 -126.85L286.466 -117.845L229.59 -47.4174L266.015 46.3434Z" fill="#02489F"/>
<path d="M92.4277 51.693L92.863 51.4225L168.752 3.92357L263.273 43.2958L227.688 -48.1847L283.146 -116.941L282.582 -116.991L184.829 -125.708L124.593 -207.58L99.4052 -121.526L6.71355 -103.346L89.46 -41.3828L92.4277 51.693ZM262.358 42.3583L168.629 3.33021L168.516 3.40048L92.9485 50.694L90.0103 -41.5971L7.95444 -103.026L99.8703 -121.043L99.9094 -121.171L124.837 -206.377L184.573 -125.205L184.72 -125.193L282.064 -116.526L227.086 -48.3425L227.141 -48.2091L262.358 42.3583Z" fill="#02489F"/>
<path d="M94.4779 47.5043L168.221 1.29101L259.586 39.3002L225.152 -49.1042L278.716 -115.581L183.693 -124.014L125.438 -203.117L125.297 -202.638L101.143 -119.914L11.5694 -102.322L12.0372 -101.985L91.5809 -42.4716L94.4779 47.5043ZM258.684 38.3943L168.098 0.710685L167.987 0.778L94.9817 46.5288L92.1111 -42.6826L91.9883 -42.7712L12.7819 -102.019L101.592 -119.465L101.627 -119.587L125.674 -201.946L183.441 -123.522L183.582 -123.509L277.651 -115.166L224.532 -49.2616L224.587 -49.1282L258.684 38.3943Z" fill="#02489F"/>
<path d="M96.5396 43.2941L167.691 -1.34846L255.904 35.3049L222.615 -50.0278L274.28 -114.237L182.552 -122.332L126.272 -198.669L126.134 -198.193L102.878 -118.329L16.4167 -101.286L93.6973 -43.5533L96.5396 43.2941ZM255.011 34.4103L167.565 -1.9309L167.454 -1.86358L97.0344 42.3433L94.2022 -43.7602L17.6079 -101.002L103.315 -117.888L103.35 -118.011L126.515 -197.526L182.308 -121.852L182.45 -121.839L273.246 -113.827L222.022 -50.1742L255.011 34.4103Z" fill="#02489F"/>
<path d="M98.5948 39.0942L167.158 -3.98855L252.215 31.3017L252.026 30.8174L220.079 -50.9528L269.85 -112.882L181.421 -120.636L127.122 -194.204L126.99 -193.751L104.61 -116.745L21.282 -100.279L95.7952 -44.6513L98.5948 39.0942ZM251.359 30.4426L167.037 -4.53567L166.931 -4.46918L99.0747 38.164L96.2872 -44.8586L96.1702 -44.943L22.4204 -100.002L105.041 -116.313L105.074 -116.433L127.35 -193.103L181.174 -120.177L181.312 -120.166L268.823 -112.494L219.49 -51.0791L219.538 -50.955L251.359 30.4426Z" fill="#02489F"/>
<path d="M100.645 34.8935L101.038 34.6455L166.623 -6.62722L248.528 27.3071L217.529 -51.8819L265.414 -111.53L180.281 -118.949L127.964 -189.747L127.835 -189.304L106.342 -115.149L26.1352 -99.2557L26.5679 -98.9433L97.9011 -45.7364L100.645 34.8935ZM247.696 26.4699L166.509 -7.16508L166.405 -7.10153L101.114 33.991L98.3925 -45.9307L27.2606 -98.979L106.76 -114.736L128.194 -188.675L180.048 -118.496L180.182 -118.485L264.428 -111.143L216.968 -52.0051L217.017 -51.881L247.696 26.4699Z" fill="#02489F"/>
<path d="M102.709 30.6812L166.096 -9.26881L244.853 23.3089L215.001 -52.7933L260.981 -110.178L260.483 -110.221L179.143 -117.25L128.815 -185.273L128.69 -184.841L108.074 -113.566L30.9929 -98.2328L100.006 -46.8208L102.709 30.6812ZM244.027 22.4939L165.986 -9.79446L165.887 -9.73173L103.164 29.8043L100.489 -47.0084L100.378 -47.0886L32.0906 -97.9672L108.483 -113.159L108.515 -113.27L129.042 -184.239L178.917 -116.815L179.048 -116.805L260.02 -109.801L214.452 -52.9261L214.499 -52.8071L244.027 22.4939Z" fill="#02489F"/>
<path d="M104.755 26.4929L105.126 26.2563L165.554 -11.8921L241.154 19.3124L212.476 -53.7099L256.545 -108.827L256.063 -108.867L178.008 -115.57L129.647 -180.834L129.525 -180.413L109.809 -111.98L35.8447 -97.2083L102.099 -47.9179L104.755 26.4929ZM240.348 18.5072L165.45 -12.4135L165.351 -12.3508L105.197 25.6337L102.58 -48.0925L36.9048 -96.952L110.206 -111.581L110.237 -111.693L129.871 -179.82L177.799 -115.132L177.924 -115.121L255.617 -108.471L211.934 -53.8515L211.978 -53.7345L240.348 18.5072Z" fill="#02489F"/>
<path d="M106.81 22.2915L107.174 22.0636L165.029 -14.5404L237.473 15.314L209.929 -54.6398L252.11 -107.478L251.645 -107.519L176.872 -113.883L130.492 -176.378L130.374 -175.968L111.532 -110.38L40.6989 -96.1882L104.22 -48.9954L106.81 22.2915ZM236.7 14.5421L164.917 -15.032L164.824 -14.9701L107.254 21.4604L104.678 -49.1739L104.573 -49.2498L41.7443 -95.9424L111.92 -110.011L111.947 -110.117L130.714 -175.397L176.657 -113.462L251.217 -107.109L209.401 -54.7889L209.445 -54.677L236.7 14.5421Z" fill="#02489F"/>
<path d="M108.866 18.0895L109.218 17.8662L164.484 -17.1881L233.784 11.3167L207.39 -55.5661L247.676 -106.13L175.734 -112.191L131.345 -171.937L131.23 -171.537L113.275 -108.805L45.5615 -95.1595L45.9415 -94.8851L106.331 -50.0871L108.866 18.0895ZM233.018 10.5541L164.376 -17.6545L164.283 -17.6006L109.282 17.2785L106.769 -50.2572L46.562 -94.9193L113.662 -108.423L113.692 -108.526L131.563 -170.963L175.527 -111.787L175.645 -111.778L246.795 -105.779L206.887 -55.6883L206.928 -55.5785L233.018 10.5541Z" fill="#02489F"/>
<path d="M110.931 13.8974L111.266 13.6926L163.963 -19.8182L230.099 7.3173L229.944 6.91548L204.848 -56.4908L243.244 -104.775L174.6 -110.501L132.189 -167.485L132.077 -167.096L115.008 -107.219L50.4106 -94.1456L108.437 -51.1691L110.931 13.8974ZM229.37 6.59009L163.863 -20.2833L163.776 -20.2302L111.324 13.1006L108.865 -51.3426L108.768 -51.4122L51.391 -93.9021L115.365 -106.863L115.393 -106.964L132.387 -166.564L174.396 -110.108L174.511 -110.101L242.388 -104.439L204.364 -56.6083L229.37 6.59009Z" fill="#02489F"/>
<path d="M112.978 9.6871L113.307 9.47801L163.431 -22.4573L226.411 3.32001L226.255 2.92113L202.315 -57.4099L238.808 -103.426L173.46 -108.816L133.037 -163.034L132.934 -162.662L116.745 -105.632L55.2579 -93.1293L110.545 -52.2598L112.978 9.6871ZM225.704 2.61767L163.336 -22.9102L163.249 -22.8571L113.375 8.91552L110.959 -52.4388L56.2141 -92.9078L117.099 -105.278L117.124 -105.376L133.229 -162.123L173.268 -108.433L173.378 -108.425L237.981 -103.094L201.843 -57.527L201.883 -57.4222L225.704 2.61767Z" fill="#02489F"/>
<path d="M115.03 5.48855L115.356 5.27735L162.901 -25.0918L222.718 -0.660717L199.758 -58.3021L234.375 -102.075L172.331 -107.134L133.875 -158.592L133.771 -158.221L118.475 -104.041L60.1214 -92.098L112.641 -53.3513L115.03 5.48855ZM222.038 -1.35709L162.805 -25.5317L162.723 -25.4794L115.409 4.74842L113.054 -53.5043L112.963 -53.5697L61.0415 -91.8758L118.821 -103.702L134.07 -157.698L172.136 -106.752L172.243 -106.746L233.563 -101.764L199.307 -58.4535L199.349 -58.3517L222.038 -1.35709Z" fill="#02489F"/>
<path d="M117.088 1.28565L117.408 1.07022L162.371 -27.7349L219.04 -4.67858L197.238 -59.2528L229.942 -100.728L171.19 -105.442L134.731 -154.124L134.622 -153.756L120.198 -102.469L64.9792 -91.0795L114.76 -54.4346L117.088 1.28565ZM218.377 -5.33624L162.277 -28.1597L162.197 -28.1103L117.443 0.559728L115.149 -54.5914L115.061 -54.6547L65.8695 -90.8654L120.545 -102.129L120.571 -102.222L134.911 -153.275L170.998 -105.089L171.103 -105.081L229.167 -100.417L196.798 -59.3647L196.837 -59.27L218.377 -5.33624Z" fill="#02489F"/>
<path d="M119.141 -2.91493L119.439 -3.10605L161.836 -30.3706L215.355 -8.67311L194.716 -60.1758L225.506 -99.3726L170.028 -103.745L135.578 -149.664L121.943 -100.869L69.8324 -90.0534L116.868 -55.5197L119.141 -2.91493ZM214.711 -9.30802L161.736 -30.7865L161.661 -30.738L119.479 -3.60436L117.23 -55.6694L117.142 -55.7327L70.693 -89.8474L122.266 -100.552L135.75 -148.849L169.877 -103.407L224.751 -99.0602L194.266 -60.268L194.302 -60.1754L214.711 -9.30802Z" fill="#02489F"/>
<path d="M121.199 -7.11175L121.485 -7.29829L161.308 -33.0106L211.667 -12.6703L211.528 -13.0204L192.167 -61.1005L221.072 -98.0242L220.698 -98.0535L168.904 -102.065L136.414 -145.217L123.668 -99.2676L74.6841 -89.0331L118.98 -56.6112L121.199 -7.11175ZM211.029 -13.296L161.216 -33.4071L121.534 -7.7852L119.335 -56.7521L119.262 -56.8049L75.5245 -88.8237L123.993 -98.9661L124.018 -99.0505L136.603 -144.425L168.743 -101.726L168.84 -101.718L220.349 -97.7298L191.762 -61.1921L211.029 -13.296Z" fill="#02489F"/>
<path d="M123.252 -11.3102L160.773 -35.6439L207.99 -16.6612L189.629 -62.0236L216.638 -96.6695L216.276 -96.6984L167.786 -100.36L137.269 -140.755L125.409 -97.6912L79.5333 -88.012L121.075 -57.6945L123.252 -11.3102ZM207.38 -17.2577L160.686 -36.0283L160.616 -35.9806L123.575 -11.9609L121.431 -57.8303L80.3432 -87.8157L125.712 -97.3965L137.428 -139.996L167.612 -100.045L215.949 -96.3989L189.231 -62.119L189.266 -62.0315L207.38 -17.2577Z" fill="#02489F"/>
<path d="M125.3 -15.5058L160.24 -38.2836L204.293 -20.6652L187.092 -62.9454L212.204 -95.3216L211.854 -95.3471L166.637 -98.6824L138.1 -136.307L138.017 -136.001L127.135 -96.0929L84.4012 -86.9895L123.186 -58.7865L125.3 -15.5058ZM203.716 -21.2335L160.155 -38.6528L160.088 -38.6081L125.615 -16.1398L123.523 -58.914L123.447 -58.9689L85.1704 -86.8047L127.432 -95.8205L127.456 -95.9019L138.267 -135.571L166.482 -98.3698L166.571 -98.3637L211.535 -95.0464L186.705 -63.0374L186.741 -62.9528L203.716 -21.2335Z" fill="#02489F"/>
<path d="M127.365 -19.7159L127.62 -19.8845L159.696 -40.9225L200.613 -24.6655L184.56 -63.8718L207.776 -93.9834L207.445 -94.0041L165.512 -97.0043L138.952 -131.867L128.886 -94.5306L89.2587 -85.9743L125.308 -59.876L127.365 -19.7159ZM200.061 -25.2068L159.634 -41.2749L159.568 -41.2331L127.668 -20.3142L125.622 -59.9974L125.549 -60.0501L90.0019 -85.7904L129.161 -94.2469L129.18 -94.3225L139.114 -131.148L165.354 -96.6938L165.443 -96.6877L207.127 -93.7063L184.187 -63.9582L184.221 -63.8758L200.061 -25.2068Z" fill="#02489F"/>
<path d="M129.419 -23.9173L159.177 -43.5615L196.927 -28.6629L196.802 -28.9583L182.019 -64.7923L203.346 -92.6119L164.378 -95.2972L139.791 -127.402L139.715 -127.118L130.609 -92.931L94.1068 -84.9403L127.405 -60.9523L129.419 -23.9173ZM196.386 -29.1828L159.099 -43.9034L159.037 -43.8594L129.702 -24.4942L127.716 -61.0807L127.643 -61.1335L94.8208 -84.7775L130.881 -92.6725L130.903 -92.746L139.951 -126.724L164.212 -94.9981L202.721 -92.3621L181.668 -64.872L181.698 -64.7967L196.386 -29.1828Z" fill="#02489F"/>
</g>
</g>
<defs>
<clipPath id="clip0">
<rect width="340" height="340" fill="white" transform="matrix(-4.37114e-08 -1 -1 4.37114e-08 340 340)"/>
</clipPath>
</defs>
</svg>
