<svg width="1066" height="656" viewBox="0 0 1066 656" fill="none" xmlns="http://www.w3.org/2000/svg">
<path d="M545.633 1621.83L1120.88 1286.42L1781.86 1481.03L1781.13 1479.13L1573.04 933.162L2008.81 478.684L2006.33 478.684L1304.48 475.513L912.818 -9.62047e-05L912.024 1.89878L686.361 545.899L8.53781 706.511L572.897 1047.07L545.633 1621.83ZM1120.53 1284.19L1120.04 1284.5L548.292 1617.87L575.394 1046.09L574.878 1045.78L13.9578 707.304L688.256 547.514L688.458 547.039L913.539 4.44803L1303.16 477.478L1303.8 477.478L2003.84 480.645L1570.33 932.763L1570.52 933.238L1778.08 1477.77L1120.53 1284.19Z" fill="#02489F"/>
<path d="M555.126 1609.19L1121.68 1283.67L1771.33 1470.74L1770.64 1468.87L1571.27 932.611L1994.68 484.651L1992.28 484.651L1304.47 477.62L916.505 13.6855L915.716 15.5368L689.998 547.432L26.8135 708.666L28.7222 709.839L577.051 1045.61L555.126 1609.19ZM1121.33 1281.47L1120.83 1281.76L557.7 1605.33L579.48 1044.65L578.988 1044.34L32.0901 709.431L691.864 549.027L692.071 548.553L917.182 18.0054L1303.18 479.547L1303.8 479.547L1989.82 486.569L1568.59 932.222L1568.78 932.696L1767.62 1467.58L1121.33 1281.47Z" fill="#02489F"/>
<path d="M564.619 1596.56L566.544 1595.47L1122.49 1280.92L1760.81 1460.46L1760.15 1458.64L1569.52 932.06L1980.56 490.623L1304.47 479.704L920.187 27.3339L919.409 29.133L693.635 548.971L45.0837 710.85L46.9331 711.999L581.161 1044.16L564.619 1596.56ZM1122.14 1278.75L1121.64 1279.03L567.123 1592.78L583.579 1043.2L583.087 1042.9L50.237 711.576L695.461 550.542L695.663 550.067L920.875 31.5589L1303.19 481.617L1303.8 481.617L1975.84 492.484L1566.88 931.666L1757.2 1457.37L1122.14 1278.75Z" fill="#02489F"/>
<path d="M574.114 1583.92L575.989 1582.88L1123.29 1278.16L1750.28 1450.18L1567.76 931.529L1966.45 496.59L1964.19 496.538L1304.47 481.788L923.876 40.9823L923.098 42.7245L697.273 550.509L63.3607 712.991L65.1462 714.116L585.297 1042.69L574.114 1583.92ZM1122.95 1276.03L1122.45 1276.3L576.538 1580.24L587.681 1041.75L587.189 1041.46L68.3856 713.718L699.089 552.057L699.291 551.606L924.545 45.1171L1303.21 483.687L1303.79 483.687L1961.84 498.404L1565.14 931.13L1565.3 931.605L1746.74 1447.19L1122.95 1276.03Z" fill="#02489F"/>
<path d="M583.601 1571.29L585.436 1570.28L1124.08 1275.42L1739.75 1439.9L1739.16 1438.17L1566 930.954L1952.34 502.557L1304.46 483.868L927.557 54.621L926.79 56.311L700.889 552.042L81.6304 715.151L83.3567 716.257L589.421 1041.24L583.601 1571.29ZM1123.75 1273.33L585.98 1567.71L591.78 1040.32L591.332 1040.04L86.5367 715.863L702.696 553.571L702.898 553.134L928.207 58.6703L1303.22 485.766L1303.79 485.766L1947.84 504.328L1563.44 930.579L1563.6 931.025L1736.33 1436.96L1123.75 1273.33Z" fill="#02489F"/>
<path d="M593.094 1558.63L1124.89 1272.67L1729.24 1429.61L1728.69 1427.93L1564.25 930.403L1938.22 508.552L1304.46 486.003L931.243 68.2968L704.54 553.579L99.9151 717.31L101.577 718.398L593.565 1039.76L593.094 1558.63ZM1124.56 1270.59L1124.09 1270.84L595.412 1555.15L595.879 1038.86L595.446 1038.58L104.678 718.004L706.302 555.075L706.499 554.652L931.879 72.2275L1303.23 487.826L1303.79 487.826L1933.84 510.238L1561.73 930.037L1561.87 930.474L1725.89 1426.76L1124.56 1270.59Z" fill="#02489F"/>
<path d="M602.564 1546.02L1125.7 1269.92L1718.72 1419.34L1562.49 929.854L1924.11 514.498L1304.44 488.079L934.912 81.9609L708.164 555.115L118.178 719.477L119.781 720.54L597.697 1038.34L602.564 1546.02ZM1125.37 1267.88L1124.91 1268.12L604.847 1542.61L599.981 1037.42L122.832 720.151L709.922 556.6L935.55 85.7871L1303.25 489.902L1303.79 489.902L1919.84 516.169L1560.01 929.493L1560.15 929.916L1715.47 1416.55L1125.37 1267.88Z" fill="#02489F"/>
<path d="M612.08 1533.38L613.786 1532.51L1126.5 1267.16L1708.2 1409.04L1560.74 929.297L1910.01 520.463L1304.45 490.171L938.613 95.6171L937.861 97.1409L711.814 556.67L136.452 721.635L137.99 722.68L601.83 1036.86L612.08 1533.38ZM1126.15 1265.16L1125.71 1265.38L614.259 1530.06L604.079 1035.97L603.681 1035.7L140.982 722.29L713.527 558.113L713.724 557.719L939.216 99.3436L1303.27 491.971L1303.76 491.971L1905.82 522.087L1558.27 928.922L1558.4 929.33L1705.02 1406.34L1126.15 1265.16Z" fill="#02489F"/>
<path d="M621.568 1520.75L623.224 1519.91L1127.3 1264.42L1697.67 1398.77L1697.22 1397.23L1558.99 928.748L1895.89 526.432L1304.45 492.253L942.294 109.258L715.446 558.186L154.722 723.797L605.964 1035.4L621.568 1520.75ZM1126.98 1262.44L623.706 1517.52L608.179 1034.54L159.129 724.457L717.144 559.629L717.336 559.254L942.884 112.904L1303.28 494.042L1303.77 494.071L1891.84 528.018L1556.57 928.397L1556.69 928.796L1694.58 1396.14L1126.98 1262.44Z" fill="#02489F"/>
<path d="M631.058 1508.12L632.674 1507.32L1128.1 1261.67L1687.15 1388.49L1686.73 1387L1557.25 928.206L1881.8 532.408L1304.47 494.378L945.983 122.934L945.247 124.358L719.084 559.724L172.994 725.975L174.409 726.972L610.1 1033.95L631.058 1508.12ZM1127.79 1259.72L1127.37 1259.92L633.126 1504.99L612.265 1033.12L177.272 726.621L720.748 561.143L946.553 126.461L1303.28 496.111L1303.78 496.14L1877.83 533.961L1554.86 927.85L1554.97 928.235L1684.15 1385.93L1127.79 1259.72Z" fill="#02489F"/>
<path d="M640.551 1495.5L1128.91 1258.93L1676.63 1378.21L1676.24 1376.79L1555.48 927.647L1867.67 538.376L1304.45 496.472L949.665 136.592L722.721 561.248L191.264 728.112L614.23 1032.48L640.551 1495.5ZM1128.59 1257L1128.2 1257.19L642.574 1492.43L616.38 1031.63L616.037 1031.39L195.434 728.729L724.36 562.672L724.546 562.326L950.222 140.019L1303.31 498.181L1303.77 498.215L1863.84 539.886L1553.14 927.305L1673.71 1375.72L1128.59 1257Z" fill="#02489F"/>
<path d="M650.041 1482.85L1129.7 1256.18L1666.1 1367.93L1665.74 1366.53L1553.73 927.095L1853.57 544.333L1851.82 544.19L1304.44 498.584L953.353 150.267L952.633 151.578L726.359 562.818L209.532 730.28L618.356 1031.03L650.041 1482.85ZM1129.4 1254.28L1129.02 1254.46L652.008 1479.88L620.487 1030.19L620.158 1029.95L213.588 730.874L727.988 564.171L728.17 563.839L953.891 153.581L1303.32 500.25L1303.76 500.288L1849.84 545.809L1551.42 926.781L1551.51 927.137L1663.27 1365.53L1129.4 1254.28Z" fill="#02489F"/>
<path d="M659.533 1470.22L661.024 1469.54L1130.51 1253.43L1655.59 1357.65L1551.98 926.54L1839.47 550.3L1837.79 550.143L1304.44 500.654L957.035 163.906L956.325 165.164L729.995 564.328L227.801 732.445L229.039 733.395L622.5 1029.57L659.533 1470.22ZM1130.21 1251.56L1129.84 1251.73L661.445 1467.34L624.581 1028.74L231.739 733.015L731.585 565.686L731.761 565.372L957.559 167.139L1303.34 502.32L1303.76 502.358L1835.84 551.753L1549.7 926.212L1549.78 926.554L1652.83 1355.3L1130.21 1251.56Z" fill="#02489F"/>
<path d="M669.022 1457.59L670.453 1456.95L1131.32 1250.68L1645.07 1347.38L1550.22 925.988L1825.35 556.267L1823.73 556.101L1304.45 502.752L960.732 177.568L733.637 565.889L246.082 734.628L247.261 735.535L626.636 1028.11L669.022 1457.59ZM1131.02 1248.84L1130.66 1249L670.879 1454.79L628.677 1027.3L628.382 1027.07L249.882 735.16L735.193 567.199L961.227 180.701L1303.35 504.389L1303.75 504.432L1821.84 557.658L1547.99 925.665L1548.06 925.988L1642.39 1345.09L1131.02 1248.84Z" fill="#02489F"/>
<path d="M678.511 1444.96L1132.12 1247.93L1634.55 1337.1L1634.29 1335.83L1548.46 925.437L1811.24 562.233L1809.69 562.058L1304.43 504.849L964.4 191.211L963.706 192.36L737.265 567.417L264.338 736.783L630.766 1026.67L678.511 1444.96ZM1131.82 1246.12L1131.49 1246.27L680.312 1442.24L632.787 1025.85L632.512 1025.63L268.049 737.3L738.806 568.713L738.977 568.433L964.895 194.287L1303.36 506.482L1303.74 506.525L1807.84 563.581L1546.26 925.119L1546.33 925.427L1631.95 1334.87L1131.82 1246.12Z" fill="#02489F"/>
<path d="M687.997 1432.33L1132.92 1245.18L1624.03 1326.83L1546.71 924.882L1797.13 568.196L1304.44 506.958L968.1 204.879L740.9 568.937L282.602 738.925L283.668 739.789L634.899 1025.19L687.997 1432.33ZM1132.63 1243.42L1132.31 1243.56L689.748 1429.71L636.89 1024.43L636.63 1024.21L286.204 739.466L742.416 570.228L742.582 569.962L968.562 207.822L1303.38 508.553L1793.83 569.507L1544.55 924.597L1544.6 924.892L1621.52 1324.69L1132.63 1243.42Z" fill="#02489F"/>
<path d="M697.486 1419.7L1133.72 1242.43L1613.49 1316.53L1544.92 924.326L1782.99 574.158L1781.57 573.964L1304.43 509.027L971.773 218.498L744.537 570.47L300.854 741.084L301.835 741.929L639.034 1023.73L697.486 1419.7ZM1133.44 1240.68L1133.13 1240.81L699.177 1417.17L640.986 1022.96L640.745 1022.76L304.357 741.592L746.024 571.742L746.185 571.495L972.235 221.384L1303.38 510.598L1303.72 510.646L1779.82 575.431L1542.82 924.027L1542.88 924.303L1611.07 1314.45L1133.44 1240.68Z" fill="#02489F"/>
<path d="M706.975 1407.07L1134.51 1239.68L1602.99 1306.26L1602.82 1305.14L1543.2 923.781L1768.92 580.136L1767.56 579.932L1304.42 511.136L975.455 232.176L974.788 233.168L748.17 572.009L319.14 743.25L320.087 744.066L643.165 1022.28L706.975 1407.07ZM1134.24 1237.96L1133.95 1238.08L708.616 1404.6L645.087 1021.5L644.866 1021.3L322.51 743.72L749.637 573.257L749.793 573.025L975.905 234.948L1303.41 512.659L1303.73 512.707L1765.81 581.361L1541.11 923.458L1541.15 923.724L1600.63 1304.22L1134.24 1237.96Z" fill="#02489F"/>
<path d="M716.464 1394.44L717.67 1393.97L1135.32 1236.93L1592.48 1295.98L1541.47 923.23L1754.84 586.098L1304.44 513.233L979.153 245.828L978.501 246.777L751.827 573.551L337.421 745.4L338.314 746.193L647.3 1020.81L716.464 1394.44ZM1135.05 1235.24L1134.78 1235.34L718.049 1392.05L649.187 1020.07L648.986 1019.89L340.667 745.884L753.25 574.776L979.573 248.51L1303.43 514.724L1303.72 514.771L1751.82 587.266L1539.41 922.893L1539.45 923.14L1590.21 1293.99L1135.05 1235.24Z" fill="#02489F"/>
<path d="M725.951 1381.81L727.112 1381.4L1136.13 1234.19L1581.96 1285.71L1581.84 1284.68L1539.7 922.68L1740.72 592.066L1304.42 515.327L982.829 259.476L755.443 575.075L355.665 747.569L356.504 748.339L651.429 1019.35L725.951 1381.81ZM1135.86 1232.5L1135.6 1232.6L727.486 1379.48L653.291 1018.6L653.105 1018.43L358.823 748.03L756.856 576.29L757.001 576.091L983.24 262.078L1303.44 516.813L1303.72 516.86L1737.82 593.21L1537.67 922.385L1537.7 922.618L1579.75 1283.82L1135.86 1232.5Z" fill="#02489F"/>
<path d="M735.439 1369.19L736.556 1368.8L1136.93 1231.44L1571.44 1275.43L1571.35 1274.45L1537.94 922.128L1726.61 598.032L1304.42 517.425L986.487 273.129L985.855 273.974L759.075 576.613L373.932 749.71L374.711 750.455L655.564 1017.9L735.439 1369.19ZM1136.66 1229.8L1136.43 1229.88L736.925 1366.95L657.391 1017.18L657.224 1017.02L376.96 750.185L760.469 577.804L760.604 577.619L986.908 275.64L1303.45 518.882L1303.7 518.929L1723.81 599.157L1535.95 921.839L1569.28 1273.61L1136.66 1229.8Z" fill="#02489F"/>
<path d="M744.928 1356.56L1137.73 1228.7L1560.93 1265.16L1560.86 1264.21L1536.19 921.559L1712.51 603.971L1711.4 603.743L1304.41 519.494L990.194 286.758L989.573 287.55L762.712 578.146L392.193 751.893L392.923 752.615L659.694 1016.44L744.928 1356.56ZM1137.48 1227.08L1137.26 1227.15L746.343 1354.39L661.472 1015.73L661.32 1015.58L395.127 752.321L764.082 579.318L764.212 579.152L990.582 289.231L1303.47 520.952L1303.69 520.999L1709.8 605.062L1534.23 921.293L1534.23 921.487L1558.85 1263.39L1137.48 1227.08Z" fill="#02489F"/>
<path d="M754.411 1343.93L755.433 1343.62L1138.54 1225.95L1550.39 1254.88L1550.35 1253.99L1534.42 921.029L1698.4 609.959L1697.36 609.726L1304.41 521.613L993.876 300.432L766.349 579.681L410.453 754.051L411.129 754.744L663.828 1014.99L754.411 1343.93ZM1138.28 1224.36L1138.08 1224.43L755.796 1341.84L665.596 1014.29L665.459 1014.15L413.304 754.478L767.678 580.844L767.799 580.697L994.25 302.772L1303.48 523.042L1303.68 523.09L1695.77 610.994L1532.5 920.749L1532.49 920.924L1548.39 1253.18L1138.28 1224.36Z" fill="#02489F"/>
<path d="M763.874 1331.3L764.866 1331.02L1139.34 1223.2L1539.88 1244.61L1539.86 1243.76L1532.67 920.477L1684.29 615.93L1304.39 523.716L997.543 314.084L996.952 314.777L769.98 581.218L428.713 756.21L429.34 756.879L667.958 1013.52L763.874 1331.3ZM1139.06 1221.64L1138.88 1221.7L765.234 1329.29L669.696 1012.84L669.578 1012.72L431.465 756.613L771.306 582.348L997.908 316.339L1303.49 525.097L1303.67 525.14L1681.79 616.922L1530.79 920.197L1530.79 920.358L1537.99 1242.95L1139.06 1221.64Z" fill="#02489F"/>
<path d="M773.392 1318.68L1140.14 1220.45L1529.38 1234.33L1530.93 919.923L1670.21 621.889L1669.28 621.647L1304.41 525.806L1001.24 327.728L773.617 582.753L446.974 758.371L447.547 759.012L672.093 1012.07L773.392 1318.68ZM1139.9 1218.92L774.672 1316.74L673.801 1011.39L673.698 1011.28L449.607 758.76L774.918 583.868L775.018 583.755L1001.59 329.907L1303.53 527.168L1667.77 622.848L1529.07 919.662L1529.07 919.8L1527.53 1232.75L1139.9 1218.92Z" fill="#02489F"/>
<path d="M782.871 1306.05L783.749 1305.84L1140.94 1217.7L1518.87 1224.06L1518.88 1223.31L1529.18 919.371L1656.08 627.85L1304.38 527.897L1004.9 341.375L1004.34 341.973L777.25 584.285L465.231 760.529L676.223 1010.61L782.871 1306.05ZM1140.7 1216.2L1140.56 1216.23L784.111 1304.18L677.902 1009.95L677.819 1009.85L467.79 760.904L778.531 585.381L778.616 585.286L1005.26 343.478L1303.52 529.236L1303.66 529.279L1653.76 628.775L1527.37 919.105L1527.36 919.224L1517.11 1222.53L1140.7 1216.2Z" fill="#02489F"/>
<path d="M792.356 1293.43L1141.75 1214.94L1508.37 1213.76L1508.41 1213.06L1527.43 918.82L1642.01 633.817L1641.2 633.566L1304.41 529.991L1008.61 355.023L1008.07 355.574L780.883 585.813L483.493 762.685L483.982 763.273L680.354 1009.15L792.356 1293.43ZM1506.61 1212.31L1141.48 1213.48L793.555 1291.63L682.008 1008.5L681.94 1008.42L485.953 763.05L782.144 586.881L782.219 586.806L1008.93 357.041L1303.53 531.311L1303.64 531.344L1639.75 634.705L1525.63 918.559L1525.63 918.654L1506.61 1212.31Z" fill="#02489F"/>
<path d="M801.839 1280.81L802.622 1280.65L1142.55 1212.21L1497.86 1203.51L1525.68 918.268L1627.91 639.779L1304.41 532.088L1012.31 368.666L1011.78 369.169L784.52 587.355L501.748 764.848L502.169 765.408L684.484 1007.69L801.839 1280.81ZM1496.21 1202.09L1142.33 1210.75L1142.25 1210.75L802.993 1279.07L686.113 1007.06L686.059 1006.99L504.12 765.204L785.757 588.414L785.817 588.352L1012.6 370.617L1303.54 533.38L1303.63 533.413L1625.74 640.633L1523.91 918.007L1523.91 918.088L1496.21 1202.09Z" fill="#02489F"/>
<path d="M811.321 1268.19L812.059 1268.06L1143.35 1209.46L1487.35 1193.24L1487.43 1192.63L1523.94 917.718L1613.81 645.746L1613.13 645.495L1304.4 534.187L1015.97 382.314L788.15 588.884L520.003 767.004L520.379 767.536L688.613 1006.23L811.321 1268.19ZM1485.74 1191.87L1143.12 1208.01L1143.06 1208.01L812.43 1266.52L690.227 1005.58L690.187 1005.54L522.295 767.322L789.367 589.929L789.412 589.886L1016.27 384.175L1303.55 535.454L1303.62 535.478L1611.72 646.563L1522.19 917.462L1522.19 917.519L1485.74 1191.87Z" fill="#02489F"/>
<path d="M820.805 1255.57L821.489 1255.46L1144.19 1206.72L1476.83 1182.98L1522.18 917.136L1599.72 651.701L1304.37 536.259L1019.66 395.955L1019.16 396.368L791.743 590.443L538.25 769.166L538.562 769.65L692.709 1004.76L820.805 1255.57ZM1475.29 1181.65L1143.97 1205.31L821.874 1253.96L694.323 1004.16L694.323 1004.13L540.478 769.488L792.976 591.468L1019.96 397.764L1303.53 537.512L1597.7 652.494L1520.48 916.884L1475.29 1181.65Z" fill="#02489F"/>
<path d="M830.283 1242.95L830.922 1242.86L1144.95 1203.97L1466.32 1172.69L1520.43 916.608L1585.63 657.663L1585.06 657.421L1304.39 538.361L1023.34 409.598L1022.88 409.968L795.405 591.961L556.51 771.325L696.873 1003.32L830.283 1242.95ZM1464.84 1171.43L1144.75 1202.59L831.316 1241.41L698.417 1002.7L558.619 771.638L796.582 592.973L1023.61 411.335L1303.56 539.595L1583.68 658.422L1518.74 916.338L1464.84 1171.43Z" fill="#02489F"/>
<path d="M839.766 1230.33L1145.74 1201.23L1455.82 1162.43L1455.94 1161.96L1518.68 916.08L1571.54 663.624L1571.04 663.387L1304.44 540.463L1027.02 423.24L1026.58 423.568L799.062 593.475L574.746 773.479L574.989 773.921L701.003 1001.88L839.766 1230.33ZM1454.39 1161.21L1145.53 1199.86L840.76 1228.82L702.532 1001.26L576.792 773.783L800.22 594.476L1027.28 424.911L1303.59 541.683L1569.67 664.355L1517.02 915.834L1454.39 1161.21Z" fill="#02489F"/>
<path d="M849.243 1217.71L1146.6 1198.48L1445.3 1152.17L1445.43 1151.74L1516.93 915.517L1516.93 915.479L1557.44 669.574L1304.36 542.525L1030.7 436.871L1030.29 437.156L802.678 595.015L802.648 595.043L593.011 775.641L593.21 776.049L705.117 1000.41L705.117 1000.44L849.243 1217.71ZM1146.35 1197.14L850.202 1216.29L706.636 999.813L594.962 775.926L803.821 596.007L1030.95 438.49L1303.6 543.754L1555.65 670.286L1515.29 915.275L1443.94 1150.99L1146.35 1197.14Z" fill="#02489F"/>
<path d="M858.724 1205.09L859.218 1205.09L1147.36 1195.75L1147.44 1195.75L1434.79 1141.91L1434.93 1141.53L1515.21 914.979L1515.22 914.913L1543.38 675.554L1542.97 675.331L1304.41 544.631L1304.34 544.631L1034.39 450.518L1034 450.764L806.312 596.546L806.262 596.594L611.259 777.794L611.423 778.169L709.254 998.938L709.293 998.99L858.724 1205.09ZM1147.16 1194.41L859.622 1203.72L710.748 998.368L613.136 778.098L807.44 597.524L1034.62 452.06L1303.61 545.827L1541.62 676.219L1513.56 914.723L1433.48 1140.77L1147.16 1194.41Z" fill="#02489F"/>
<path d="M1148.16 1193.01L1148.27 1193.01L1424.29 1131.63L1424.43 1131.3L1513.44 914.439L1513.44 914.348L1529.27 681.522L1528.92 681.313L1304.4 546.749L1304.3 546.716L1038.07 464.152L809.868 598.147L629.503 779.965L629.634 780.302L713.377 997.515L713.436 997.591L868.201 1192.48L868.641 1192.48L1148.16 1193.01ZM1423.03 1130.55L1147.96 1191.68L869.079 1191.16L714.857 996.921L631.312 780.226L811.057 599.044L1038.3 465.648L1303.62 547.907L1527.6 682.153L1511.84 914.178L1423.03 1130.55Z" fill="#02489F"/>
<path d="M1148.97 1190.25L1149.12 1190.25L1413.79 1121.37L1413.93 1121.07L1511.7 913.869L1511.7 913.75L1515.19 687.461L1514.89 687.266L1304.43 548.819L1304.29 548.781L1041.75 477.791L813.565 599.604L813.48 599.699L647.745 782.11L647.846 782.414L717.498 996.038L717.581 996.133L877.68 1179.85L878.066 1179.85L1148.97 1190.25ZM1412.57 1120.32L1148.77 1188.96L878.538 1178.59L718.958 995.469L649.484 782.376L814.67 600.558L1041.96 479.225L1303.62 549.958L1513.59 688.064L1510.11 913.603L1412.57 1120.32Z" fill="#02489F"/>
<path d="M1149.77 1187.53L1149.94 1187.48L1403.29 1111.11L1403.42 1110.85L1509.96 913.318L1509.96 913.171L1501.13 693.418L1500.88 693.238L1304.44 550.902L1045.45 491.42L1045.16 491.562L817.191 601.123L817.091 601.242L665.97 784.261L666.037 784.526L721.617 994.585L721.729 994.704L887.157 1167.26L887.493 1167.28L1149.77 1187.53ZM1402.11 1110.09L1149.58 1186.22L887.984 1166.04L723.081 994.02L667.645 784.526L818.295 602.072L1045.64 492.806L1303.63 552.061L1499.57 694.021L1508.41 913.076L1402.11 1110.09Z" fill="#02489F"/>
<path d="M1150.58 1184.8L1150.78 1184.73L1392.79 1100.85L1508.22 912.773L1508.23 912.592L1487.02 699.391L1486.82 699.229L1304.42 553.016L1304.21 552.973L1049.11 505.055L1048.85 505.164L820.82 602.657L820.705 602.809L684.228 786.426L725.739 993.133L725.881 993.266L896.632 1154.65L896.919 1154.69L1150.58 1184.8ZM1391.66 1099.86L1150.38 1183.49L897.435 1153.46L727.199 992.568L685.839 786.673L821.92 603.611L1049.31 506.393L1303.64 554.126L1485.52 699.956L1506.64 912.54L1391.66 1099.86Z" fill="#02489F"/>
<path d="M1151.38 1182.06L1382.29 1090.58L1382.41 1090.41L1506.49 912.222L1506.45 912.013L1472.94 705.334L1472.78 705.187L1304.43 555.076L1052.79 518.684L1052.58 518.764L824.442 604.181L824.321 604.366L702.468 788.557L702.491 788.752L729.853 991.68L730.035 991.832L906.105 1142.03L906.342 1142.07L1151.38 1182.06ZM1381.2 1089.63L1151.18 1180.76L906.882 1140.88L731.313 991.106L704.034 788.814L825.541 605.14L1052.98 519.98L1303.65 556.229L1471.49 705.889L1504.91 911.98L1381.2 1089.63Z" fill="#02489F"/>
<path d="M1152.19 1179.33L1152.45 1179.21L1371.79 1080.32L1371.89 1080.19L1504.76 911.666L1504.7 911.424L1458.84 711.287L1458.72 711.168L1304.43 557.155L1304.14 557.126L1056.47 532.312L828.064 605.704L827.939 605.927L720.7 790.736L720.698 790.892L733.954 990.227L915.578 1129.43L915.766 1129.47L1152.19 1179.33ZM1370.74 1079.4L1152 1178.02L916.336 1128.32L735.438 989.662L722.222 790.973L829.164 606.663L1056.66 533.556L1303.65 558.303L1457.46 711.828L1503.17 911.429L1370.74 1079.4Z" fill="#02489F"/>
<path d="M1152.99 1176.6L1153.28 1176.45L1361.29 1070.07L1361.38 1069.97L1503.02 911.115L1444.79 717.24L1444.71 717.145L1304.44 559.234L1304.1 559.234L1060.15 545.941L1060.01 545.979L831.685 607.218L831.554 607.479L738.934 792.91L738.933 793.029L738.096 988.799L738.362 988.979L925.05 1116.82L925.188 1116.86L1152.99 1176.6ZM1360.27 1069.2L1152.8 1175.28L925.767 1115.74L739.561 988.21L740.391 793.124L832.789 608.196L1060.33 547.157L1303.62 560.401L1443.44 717.766L1501.42 910.878L1360.27 1069.2Z" fill="#02489F"/>
<path d="M1153.79 1173.88L1154.12 1173.69L1350.8 1059.81L1350.86 1059.75L1501.3 910.579L1501.18 910.275L1430.69 723.193L1430.64 723.126L1304.44 561.309L1304.04 561.309L1063.81 559.566L1063.71 559.566L835.274 608.728L835.147 609.032L757.166 795.046L757.166 795.127L742.198 987.332L742.508 987.522L934.524 1104.22L934.613 1104.25L1153.79 1173.88ZM1349.8 1058.94L1153.6 1172.53L935.242 1103.17L743.687 986.757L758.604 795.284L836.407 609.725L1064 560.772L1303.65 562.514L1429.38 723.729L1499.68 910.328L1349.8 1058.94Z" fill="#02489F"/>
<path d="M1154.6 1171.15L1154.95 1170.92L1340.31 1049.56L1340.35 1049.52L1499.58 910.033L1499.42 909.696L1416.62 729.145L1416.6 729.108L1304.45 563.383L1304.01 563.383L1067.48 573.167L1067.43 573.167L838.891 610.233L838.769 610.584L775.393 797.182L775.393 797.225L746.288 985.883L746.657 986.078L943.993 1091.62L944.037 1091.62L1154.6 1171.15ZM1339.34 1048.7L1154.41 1169.79L944.695 1090.59L747.808 985.3L776.771 797.424L840.054 611.263L1067.68 574.344L1303.65 564.57L1415.35 729.63L1497.93 909.772L1339.34 1048.7Z" fill="#02489F"/>
<path d="M1155.41 1168.44L1155.78 1168.16L1329.82 1039.29L1497.87 909.486L1497.66 909.116L1402.59 735.103L1304.49 565.447L1071.2 586.81L842.523 611.78L842.421 612.179L793.619 799.361L750.388 984.435L750.817 984.639L953.451 1079.01L1155.41 1168.44ZM1496.17 909.216L1328.86 1038.46L1155.21 1167.04L954.143 1078.01L751.957 983.842L794.998 799.555L843.691 612.801L1071.36 587.939L1303.64 566.682L1401.3 735.587L1496.17 909.216Z" fill="#02489F"/>
<path d="M1156.22 1165.73L1156.61 1165.4L1319.36 1029.03L1496.15 908.928L1495.89 908.524L1388.5 741.024L1304.53 567.514L1303.98 567.594L1074.85 600.426L846.16 613.277L846.077 613.751L811.865 801.56L754.479 982.994L754.971 983.193L962.959 1066.44L1156.22 1165.73ZM1494.41 908.667L1318.43 1028.21L1156.01 1164.28L963.641 1065.45L756.097 982.372L813.194 801.745L847.333 614.345L1074.99 601.527L1303.63 568.772L1387.24 741.499L1494.41 908.667Z" fill="#02489F"/>
<path d="M1157.02 1163.02L1157.43 1162.63L1308.85 1018.79L1494.45 908.401L1494.12 907.969L1374.46 747.001L1304.53 569.574L1078.55 614.036L849.718 614.782L849.669 615.294L830.046 803.663L758.563 981.555L972.392 1053.83L1157.02 1163.02ZM1492.63 908.111L1307.91 1017.99L1307.86 1018.04L1156.8 1161.52L973.064 1052.85L760.246 980.9L831.4 803.882L831.4 803.83L850.964 615.902L1078.68 615.157L1078.76 615.157L1303.61 570.922L1373.2 747.518L1373.24 747.571L1492.63 908.111Z" fill="#02489F"/>
<path d="M1157.81 1160.34L1158.23 1159.87L1298.36 1008.56L1492.75 907.859L1360.4 752.949L1304.56 571.605L1303.89 571.776L1082.21 627.627L853.317 616.262L853.312 616.832L848.274 805.799L762.644 980.116L763.301 980.297L981.856 1041.23L1157.81 1160.34ZM1490.86 907.555L1297.47 1007.75L1297.4 1007.83L1157.62 1158.75L982.528 1040.26L764.417 979.452L849.602 806.032L854.642 617.44L1082.38 628.747L1082.49 628.719L1303.6 573.006L1359.16 753.4L1359.23 753.48L1490.86 907.555Z" fill="#02489F"/>
<path d="M1158.64 1157.63L1159.07 1157.1L1287.88 998.312L1491.07 907.317L1490.58 906.843L1346.34 758.891L1304.59 573.67L1085.9 641.256L856.914 617.776L856.947 618.412L866.489 807.968L766.709 978.677L991.314 1028.64L1158.64 1157.63ZM1489.07 906.976L1286.97 997.514L1286.88 997.628L1158.41 1155.98L991.986 1027.68L991.828 1027.64L768.571 977.979L867.813 808.186L867.814 808.049L858.298 618.996L1086.06 642.352L1086.21 642.305L1303.58 575.127L1345.1 759.357L1345.2 759.461L1489.07 906.976Z" fill="#02489F"/>
<path d="M1159.45 1154.95L1277.41 988.067L1489.4 906.781L1488.82 906.254L1332.28 764.839L1304.63 575.711L1303.83 576.001L1089.58 654.866L860.493 619.262L884.702 810.099L770.771 977.248L771.62 977.391L1000.78 1016.05L1159.45 1154.95ZM1487.27 906.439L1276.49 987.255L1276.39 987.403L1159.21 1153.19L1001.45 1015.08L1001.25 1015.05L772.747 976.498L886.021 810.346L886.022 810.18L861.975 620.567L1089.72 655.967L1089.91 655.901L1303.56 577.254L1331.05 765.3L1331.19 765.423L1487.27 906.439Z" fill="#02489F"/>
<path d="M1160.26 1152.27L1160.7 1151.56L1266.92 977.809L1487.75 906.231L1318.24 770.769L1304.71 577.725L1093.25 668.472L864.064 620.739L864.225 621.522L902.906 812.274L774.815 975.825L775.803 975.939L1010.26 1003.47L1160.26 1152.27ZM1485.46 905.894L1266.01 977.031L1265.9 977.206L1160.01 1150.37L1010.91 1002.5L1010.67 1002.47L776.91 975.027L904.235 812.493L904.193 812.293L865.63 622.13L1093.4 669.569L1093.61 669.483L1303.52 579.396L1316.99 771.249L1317.16 771.387L1485.46 905.894Z" fill="#02489F"/>
<path d="M1161.08 1149.62L1256.45 967.578L1486.09 905.712L1304.17 776.731L1304.72 579.76L1303.78 580.234L1096.93 682.076L867.624 622.204L867.868 623.073L921.114 814.428L778.846 974.409L1019.7 990.867L1161.08 1149.62ZM1483.63 905.309L1255.53 966.761L1255.42 966.975L1160.8 1147.58L1020.37 989.918L781.135 973.54L922.448 814.642L922.385 814.419L869.317 623.714L1097.08 683.182L1303.48 581.545L1302.94 777.196L1483.63 905.309Z" fill="#02489F"/>
<path d="M1161.89 1146.98L1162.31 1146.03L1245.97 957.339L1484.47 905.182L1290.13 782.675L1304.79 581.75L1100.61 695.683L871.166 623.668L871.508 624.617L939.318 816.58L782.855 972.991L1029.16 978.293L1161.89 1146.98ZM1481.77 904.745L1245.04 956.513L1244.93 956.76L1161.59 1144.75L1029.84 977.315L1029.52 977.315L785.357 972.06L940.672 816.827L940.585 816.575L873.015 625.334L1100.78 696.794L1101.04 696.646L1303.46 583.711L1288.9 783.145L1289.16 783.302L1481.77 904.745Z" fill="#02489F"/>
<path d="M1160.87 1140.94L1243.28 954.941L1477.17 903.757L1476.22 903.154L1286.56 783.639L1300.9 586.592L1100.67 698.35L875.646 627.75L942.518 816.935L789.105 970.351L790.317 970.374L1030.66 975.52L1160.87 1140.94ZM1474.53 903.33L1242.37 954.125L1242.27 954.367L1160.57 1138.74L1031.33 974.557L1031.01 974.557L791.568 969.435L943.847 817.149L943.76 816.907L877.467 629.393L1100.83 699.447L1101.08 699.3L1299.56 588.519L1285.32 784.104L1285.57 784.26L1474.53 903.33Z" fill="#02489F"/>
<path d="M1159.84 1134.89L1160.25 1133.97L1240.6 952.544L1469.87 902.337L1282.97 784.607L1296.98 591.434L1100.74 701.018L880.124 631.837L945.719 817.291L795.348 967.711L1032.16 972.743L1159.84 1134.89ZM1467.27 901.915L1239.72 951.76L1239.61 951.998L1159.55 1132.73L1032.81 971.798L797.775 966.799L947.023 817.505L946.937 817.263L881.915 633.432L1100.88 702.096L1101.14 701.953L1295.69 593.332L1281.77 785.062L1282.01 785.214L1467.27 901.915Z" fill="#02489F"/>
<path d="M1158.81 1128.85L1159.21 1127.94L1237.91 950.148L1462.57 900.919L1461.65 900.336L1279.41 785.577L1293.11 596.277L1100.8 703.687L884.598 635.926L948.917 817.654L801.591 965.073L1033.65 969.982L1158.81 1128.85ZM1460.01 900.506L1237.02 949.369L1236.92 949.602L1158.52 1126.72L1034.3 969.032L1034 969.032L803.984 964.176L950.202 817.858L950.115 817.62L886.364 637.497L1100.95 704.751L1101.2 704.613L1291.81 598.143L1278.21 786.023L1278.46 786.175L1460.01 900.506Z" fill="#02489F"/>
<path d="M1157.78 1122.8L1158.16 1121.89L1235.22 947.749L1455.28 899.494L1275.84 786.539L1289.21 601.123L1288.26 601.659L1100.87 706.354L889.063 640.012L889.386 640.914L952.121 818.008L807.846 962.432L809.004 962.456L1035.15 967.203L1157.78 1122.8ZM1452.76 899.086L1234.35 946.976L1234.25 947.208L1157.49 1120.71L1035.79 966.278L810.195 961.53L953.381 818.212L953.299 817.975L890.815 641.555L1101.01 707.399L1287.94 602.96L1274.66 786.99L1274.9 787.137L1452.76 899.086Z" fill="#02489F"/>
<path d="M1156.73 1116.75L1232.54 945.352L1447.98 898.074L1272.26 787.507L1285.34 605.955L1100.94 709.022L893.555 644.099L893.869 644.987L955.317 818.364L814.093 959.793L1036.65 964.426L1156.73 1116.75ZM1445.48 897.671L1231.66 944.592L1231.56 944.82L1156.47 1114.7L1037.27 963.519L1036.98 963.519L816.402 958.929L956.562 818.568L956.475 818.335L895.253 645.618L1101.08 710.052L1101.32 709.914L1284.07 607.768L1271.11 787.939L1271.34 788.086L1445.48 897.671Z" fill="#02489F"/>
<path d="M1155.72 1110.71L1156.1 1109.85L1229.85 942.956L1440.68 896.651L1439.8 896.096L1268.69 788.472L1281.42 610.799L1101 711.696L898.036 648.188L958.522 818.726L820.343 957.164L821.461 957.188L1038.15 961.65L1155.72 1110.71ZM1438.24 896.257L1229.01 942.21L1228.9 942.433L1155.44 1108.69L1038.77 960.762L1038.45 960.762L822.593 956.305L959.742 818.921L959.66 818.693L899.714 649.693L1101.13 712.683L1101.37 712.55L1280.17 612.574L1267.53 788.899L1267.76 789.047L1438.24 896.257Z" fill="#02489F"/>
<path d="M1154.69 1104.66L1155.06 1103.82L1227.14 940.549L1433.38 895.233L1432.51 894.687L1265.11 789.441L1277.52 615.637L1276.61 616.145L1101.05 714.364L902.494 652.276L961.718 819.083L826.591 954.511L1039.65 958.878L1154.69 1104.66ZM1430.99 894.839L1226.33 939.823L1226.23 940.041L1154.41 1102.68L1040.25 958.005L1039.96 958.005L828.815 953.675L962.919 819.277L962.837 819.054L904.163 653.742L1101.21 715.356L1276.32 617.384L1264 789.859L1264.23 790.001L1430.99 894.839Z" fill="#02489F"/>
<path d="M1153.66 1098.63L1154.03 1097.8L1224.47 938.174L1426.09 893.806L1261.55 790.403L1273.64 620.453L1272.74 620.952L1101.14 717.03L906.989 656.361L964.922 819.437L832.84 951.884L1041.14 956.118L1153.66 1098.63ZM1423.73 893.436L1223.66 937.438L1223.56 937.656L1153.39 1096.69L1041.74 955.264L1041.47 955.264L835.045 951.067L966.097 819.627L966.02 819.408L908.613 657.799L1101.27 718.003L1101.5 717.875L1272.45 622.191L1260.45 790.816L1260.67 790.958L1423.73 893.436Z" fill="#02489F"/>
<path d="M1152.63 1092.58L1221.78 935.763L1418.79 892.388L1417.95 891.861L1257.97 791.372L1269.74 625.334L1268.86 625.809L1101.2 719.699L911.467 660.463L911.761 661.294L968.118 819.794L839.088 949.231L1042.64 953.328L1152.63 1092.58ZM1416.47 892.013L1220.98 935.056L1220.89 935.269L1152.36 1090.66L1043.23 952.487L841.238 948.419L969.275 819.969L913.061 661.887L1101.33 720.658L1101.56 720.53L1268.58 627.01L1256.89 791.785L1257.11 791.923L1416.47 892.013Z" fill="#02489F"/>
<path d="M1151.6 1086.53L1219.09 933.367L1411.49 890.965L1254.4 792.342L1265.85 630.158L1264.99 630.633L1101.26 722.368L915.941 664.537L916.235 665.354L971.321 820.151L845.337 946.592L1044.14 950.556L1151.6 1086.53ZM1409.21 890.599L1218.31 932.674L1218.22 932.883L1151.34 1084.65L1044.72 949.73L1044.44 949.73L847.447 945.8L972.477 820.336L972.4 820.127L917.516 665.928L1101.39 723.313L1264.7 631.815L1253.34 792.745L1253.55 792.878L1409.21 890.599Z" fill="#02489F"/>
<path d="M1150.57 1080.49L1150.91 1079.7L1216.41 930.969L1404.19 889.545L1250.82 793.305L1261.95 635L1261.11 635.475L1101.33 725.026L920.42 668.624L920.705 669.422L974.519 820.511L851.595 943.953L1045.65 947.784L1150.57 1080.49ZM1401.96 889.175L1215.63 930.281L1215.55 930.485L1150.31 1078.64L1046.2 946.972L853.656 943.174L975.635 820.696L975.558 820.492L921.931 669.987L1101.46 725.975L1101.68 725.852L1260.83 636.638L1249.78 793.699L1249.99 793.827L1401.96 889.175Z" fill="#02489F"/>
<path d="M1149.54 1074.44L1149.88 1073.67L1213.72 928.572L1396.89 888.121L1247.25 794.274L1258.06 639.838L1257.23 640.313L1101.4 727.709L924.874 672.712L977.717 820.868L857.829 941.314L1047.13 945.007L1149.54 1074.44ZM1394.69 887.77L1212.96 927.903L1212.87 928.102L1149.29 1072.63L1047.69 944.214L1047.43 944.214L859.864 940.55L978.813 821.043L978.741 820.839L926.405 674.051L1101.53 728.615L1101.75 728.492L1256.97 641.433L1246.24 794.658L1246.45 794.787L1394.69 887.77Z" fill="#02489F"/>
<path d="M1148.51 1068.4L1211.03 926.175L1389.59 886.702L1243.68 795.237L1254.14 644.68L1101.46 730.376L929.378 676.799L980.919 821.223L864.053 938.669L1048.61 942.234L1148.51 1068.4ZM1387.45 886.355L1210.29 925.519L1148.26 1066.62L1049.18 941.451L866.074 937.919L981.991 821.394L981.924 821.195L930.855 678.109L1101.59 731.278L1253.08 646.246L1242.68 795.617L1242.88 795.74L1387.45 886.355Z" fill="#02489F"/>
<path d="M1147.48 1062.35L1208.34 923.776L1382.3 885.276L1381.54 884.801L1240.1 796.204L1250.27 649.516L1101.53 733.043L933.851 680.876L984.116 821.578L870.326 936.028L1050.13 939.46L1147.48 1062.35ZM1380.18 884.939L1207.6 923.135L1147.24 1060.61L1050.66 938.691L1050.41 938.691L872.282 935.297L985.154 821.754L985.081 821.559L935.304 682.172L1101.65 733.916L1101.85 733.797L1249.21 651.054L1239.13 796.574L1239.32 796.698L1380.18 884.939Z" fill="#02489F"/>
<path d="M1146.45 1056.31L1146.77 1055.58L1205.65 921.379L1375 883.876L1374.25 883.402L1236.53 797.188L1246.37 654.373L1101.59 735.726L938.301 684.988L987.304 821.94L876.574 933.39L1051.63 936.684L1146.45 1056.31ZM1372.94 883.511L1204.94 920.753L1146.21 1054.62L1052.15 935.944L1051.9 935.944L878.491 932.682L988.366 822.115L988.294 821.925L939.753 686.231L1101.71 736.552L1101.91 736.438L1245.34 655.864L1235.57 797.534L1235.77 797.658L1372.94 883.511Z" fill="#02489F"/>
<path d="M798.155 202L827.592 231.405L842 245.89L842 267L827.592 252.607L798.501 223.548L754 268L754 246.31L791.874 208.345L796.713 203.512L798.155 202Z" fill="#1AB8EC"/>
<path d="M798.155 167L827.592 196.405L842 210.89L842 232L827.592 217.607L798.501 188.548L754 233L754 211.31L791.874 173.345L796.713 168.512L798.155 167Z" fill="#1AB8EC"/>
</svg>
